{
	"asset":{
		"generator":"Khronos glTF Blender I/O v3.6.28",
		"version":"2.0"
	},
	"extensionsUsed":[
		"KHR_materials_specular",
		"KHR_materials_ior"
	],
	"scene":0,
	"scenes":[
		{
			"name":"Scene",
			"nodes":[
				0
			]
		}
	],
	"nodes":[
		{
			"mesh":0,
			"name":"FloorMat"
		}
	],
	"materials":[
		{
			"doubleSided":true,
			"extensions":{
				"KHR_materials_specular":{
					"specularColorFactor":[
						0,
						0,
						0
					]
				},
				"KHR_materials_ior":{
					"ior":1.4500000476837158
				}
			},
			"name":"Carpet.Rainbow.Tex",
			"normalTexture":{
				"index":0
			},
			"pbrMetallicRoughness":{
				"baseColorTexture":{
					"index":1
				},
				"metallicFactor":0
			}
		}
	],
	"meshes":[
		{
			"name":"Cylinder.001",
			"primitives":[
				{
					"attributes":{
						"POSITION":0,
						"NORMAL":1,
						"TEXCOORD_0":2,
						"TEXCOORD_1":3,
						"TANGENT":4
					},
					"indices":5,
					"material":0
				}
			]
		}
	],
	"textures":[
		{
			"sampler":0,
			"source":0
		},
		{
			"sampler":0,
			"source":1
		}
	],
	"images":[
		{
			"mimeType":"image/png",
			"name":"floor_mat_rainbow_n",
			"uri":"floor_mat_rainbow_n.png"
		},
		{
			"mimeType":"image/png",
			"name":"floor_mat_rainbow",
			"uri":"floor_mat_rainbow.png"
		}
	],
	"accessors":[
		{
			"bufferView":0,
			"componentType":5126,
			"count":414,
			"max":[
				30,
				0.15000000596046448,
				30
			],
			"min":[
				-30,
				0,
				-30
			],
			"type":"VEC3"
		},
		{
			"bufferView":1,
			"componentType":5126,
			"count":414,
			"type":"VEC3"
		},
		{
			"bufferView":2,
			"componentType":5126,
			"count":414,
			"type":"VEC2"
		},
		{
			"bufferView":3,
			"componentType":5126,
			"count":414,
			"type":"VEC2"
		},
		{
			"bufferView":4,
			"componentType":5126,
			"count":414,
			"type":"VEC4"
		},
		{
			"bufferView":5,
			"componentType":5123,
			"count":576,
			"type":"SCALAR"
		}
	],
	"bufferViews":[
		{
			"buffer":0,
			"byteLength":4968,
			"byteOffset":0,
			"target":34962
		},
		{
			"buffer":0,
			"byteLength":4968,
			"byteOffset":4968,
			"target":34962
		},
		{
			"buffer":0,
			"byteLength":3312,
			"byteOffset":9936,
			"target":34962
		},
		{
			"buffer":0,
			"byteLength":3312,
			"byteOffset":13248,
			"target":34962
		},
		{
			"buffer":0,
			"byteLength":6624,
			"byteOffset":16560,
			"target":34962
		},
		{
			"buffer":0,
			"byteLength":1152,
			"byteOffset":23184,
			"target":34963
		}
	],
	"samplers":[
		{
			"magFilter":9729,
			"minFilter":9987
		}
	],
	"buffers":[
		{
			"byteLength":24336,
			"uri":"FloorMatRainbow.bin"
		}
	]
}
