{
	"asset":{
		"generator":"Khronos glTF Blender I/O v3.6.28",
		"version":"2.0"
	},
	"scene":0,
	"scenes":[
		{
			"name":"Scene",
			"nodes":[
				0
			]
		}
	],
	"nodes":[
		{
			"mesh":0,
			"name":"shackle.R"
		}
	],
	"materials":[
		{
			"doubleSided":true,
			"name":"shackle.tex",
			"pbrMetallicRoughness":{
				"baseColorTexture":{
					"index":0
				},
				"roughnessFactor":0.3863636255264282
			}
		}
	],
	"meshes":[
		{
			"name":"Mesh",
			"primitives":[
				{
					"attributes":{
						"POSITION":0,
						"NORMAL":1,
						"TEXCOORD_0":2,
						"TEXCOORD_1":3,
						"TANGENT":4
					},
					"indices":5,
					"material":0
				}
			]
		}
	],
	"textures":[
		{
			"sampler":0,
			"source":0
		}
	],
	"images":[
		{
			"mimeType":"image/png",
			"name":"shackle",
			"uri":"shackle.png"
		}
	],
	"accessors":[
		{
			"bufferView":0,
			"componentType":5126,
			"count":121,
			"max":[
				2.43178653717041,
				2.3127665519714355,
				1.2107986211776733
			],
			"min":[
				-2.43178653717041,
				-2.3127663135528564,
				-0.7892013788223267
			],
			"type":"VEC3"
		},
		{
			"bufferView":1,
			"componentType":5126,
			"count":121,
			"type":"VEC3"
		},
		{
			"bufferView":2,
			"componentType":5126,
			"count":121,
			"type":"VEC2"
		},
		{
			"bufferView":3,
			"componentType":5126,
			"count":121,
			"type":"VEC2"
		},
		{
			"bufferView":4,
			"componentType":5126,
			"count":121,
			"type":"VEC4"
		},
		{
			"bufferView":5,
			"componentType":5123,
			"count":360,
			"type":"SCALAR"
		}
	],
	"bufferViews":[
		{
			"buffer":0,
			"byteLength":1452,
			"byteOffset":0,
			"target":34962
		},
		{
			"buffer":0,
			"byteLength":1452,
			"byteOffset":1452,
			"target":34962
		},
		{
			"buffer":0,
			"byteLength":968,
			"byteOffset":2904,
			"target":34962
		},
		{
			"buffer":0,
			"byteLength":968,
			"byteOffset":3872,
			"target":34962
		},
		{
			"buffer":0,
			"byteLength":1936,
			"byteOffset":4840,
			"target":34962
		},
		{
			"buffer":0,
			"byteLength":720,
			"byteOffset":6776,
			"target":34963
		}
	],
	"samplers":[
		{
			"magFilter":9729,
			"minFilter":9987
		}
	],
	"buffers":[
		{
			"byteLength":7496,
			"uri":"shackle.bin"
		}
	]
}
