{
	"asset":{
		"copyright":"@serufu_yua",
		"generator":"Khronos glTF Blender I/O v3.6.28",
		"version":"2.0"
	},
	"scene":0,
	"scenes":[
		{
			"name":"Scene",
			"nodes":[
				0
			]
		}
	],
	"nodes":[
		{
			"mesh":0,
			"name":"ghots_road.shine.003"
		}
	],
	"meshes":[
		{
			"name":"Cube.013",
			"primitives":[
				{
					"attributes":{
						"POSITION":0,
						"NORMAL":1,
						"TANGENT":2
					},
					"indices":3
				}
			]
		}
	],
	"accessors":[
		{
			"bufferView":0,
			"componentType":5126,
			"count":9344,
			"max":[
				119.05697631835938,
				37.827213287353516,
				7.019758224487305
			],
			"min":[
				-422.07952880859375,
				-23.65021514892578,
				-378.2850646972656
			],
			"type":"VEC3"
		},
		{
			"bufferView":1,
			"componentType":5126,
			"count":9344,
			"type":"VEC3"
		},
		{
			"bufferView":2,
			"componentType":5126,
			"count":9344,
			"type":"VEC4"
		},
		{
			"bufferView":3,
			"componentType":5123,
			"count":14016,
			"type":"SCALAR"
		}
	],
	"bufferViews":[
		{
			"buffer":0,
			"byteLength":112128,
			"byteOffset":0,
			"target":34962
		},
		{
			"buffer":0,
			"byteLength":112128,
			"byteOffset":112128,
			"target":34962
		},
		{
			"buffer":0,
			"byteLength":149504,
			"byteOffset":224256,
			"target":34962
		},
		{
			"buffer":0,
			"byteLength":28032,
			"byteOffset":373760,
			"target":34963
		}
	],
	"buffers":[
		{
			"byteLength":401792,
			"uri":"ghost_road_shine_003.bin"
		}
	]
}
