{
	"asset":{
		"copyright":"@serufu_yua",
		"generator":"Khronos glTF Blender I/O v3.6.28",
		"version":"2.0"
	},
	"scene":0,
	"scenes":[
		{
			"name":"Scene",
			"nodes":[
				0
			]
		}
	],
	"nodes":[
		{
			"mesh":0,
			"name":"ghots_road.shine.003"
		}
	],
	"meshes":[
		{
			"name":"Cube.019",
			"primitives":[
				{
					"attributes":{
						"POSITION":0,
						"NORMAL":1,
						"TANGENT":2
					},
					"indices":3
				}
			]
		}
	],
	"accessors":[
		{
			"bufferView":0,
			"componentType":5126,
			"count":5504,
			"max":[
				336.8184814453125,
				14.886415481567383,
				394.5154113769531
			],
			"min":[
				9.80709457397461,
				-4.48748254776001,
				-245.6989288330078
			],
			"type":"VEC3"
		},
		{
			"bufferView":1,
			"componentType":5126,
			"count":5504,
			"type":"VEC3"
		},
		{
			"bufferView":2,
			"componentType":5126,
			"count":5504,
			"type":"VEC4"
		},
		{
			"bufferView":3,
			"componentType":5123,
			"count":8256,
			"type":"SCALAR"
		}
	],
	"bufferViews":[
		{
			"buffer":0,
			"byteLength":66048,
			"byteOffset":0,
			"target":34962
		},
		{
			"buffer":0,
			"byteLength":66048,
			"byteOffset":66048,
			"target":34962
		},
		{
			"buffer":0,
			"byteLength":88064,
			"byteOffset":132096,
			"target":34962
		},
		{
			"buffer":0,
			"byteLength":16512,
			"byteOffset":220160,
			"target":34963
		}
	],
	"buffers":[
		{
			"byteLength":236672,
			"uri":"ghost_road_shine_003.bin"
		}
	]
}
