{
	"asset":{
		"copyright":"@serufu_yua",
		"generator":"Khronos glTF Blender I/O v3.6.28",
		"version":"2.0"
	},
	"scene":0,
	"scenes":[
		{
			"name":"Scene",
			"nodes":[
				0,
				1,
				2,
				3
			]
		}
	],
	"nodes":[
		{
			"mesh":0,
			"name":"ghots_road.001"
		},
		{
			"mesh":1,
			"name":"ghots_road.002"
		},
		{
			"mesh":2,
			"name":"ghots_road.003"
		},
		{
			"mesh":3,
			"name":"ghots_road.004"
		}
	],
	"materials":[
		{
			"alphaMode":"BLEND",
			"doubleSided":true,
			"emissiveFactor":[
				1,
				1,
				1
			],
			"emissiveTexture":{
				"index":0
			},
			"name":"ghost_road",
			"pbrMetallicRoughness":{
				"baseColorTexture":{
					"index":1
				},
				"metallicFactor":0,
				"roughnessFactor":0.5
			}
		}
	],
	"meshes":[
		{
			"name":"Cube.006",
			"primitives":[
				{
					"attributes":{
						"POSITION":0,
						"NORMAL":1,
						"TEXCOORD_0":2,
						"TANGENT":3
					},
					"indices":4,
					"material":0
				}
			]
		},
		{
			"name":"Cube.010",
			"primitives":[
				{
					"attributes":{
						"POSITION":5,
						"NORMAL":6,
						"TEXCOORD_0":7,
						"TANGENT":8
					},
					"indices":9,
					"material":0
				}
			]
		},
		{
			"name":"Cube.012",
			"primitives":[
				{
					"attributes":{
						"POSITION":10,
						"NORMAL":11,
						"TEXCOORD_0":12,
						"TANGENT":13
					},
					"indices":14,
					"material":0
				}
			]
		},
		{
			"name":"Cube.014",
			"primitives":[
				{
					"attributes":{
						"POSITION":15,
						"NORMAL":16,
						"TEXCOORD_0":17,
						"TANGENT":18
					},
					"indices":19,
					"material":0
				}
			]
		}
	],
	"textures":[
		{
			"sampler":0,
			"source":0
		},
		{
			"sampler":0,
			"source":0
		}
	],
	"images":[
		{
			"mimeType":"image/png",
			"name":"ghost_road",
			"uri":"ghost_road.png"
		}
	],
	"accessors":[
		{
			"bufferView":0,
			"componentType":5126,
			"count":2922,
			"max":[
				198.5535430908203,
				17.061269760131836,
				240.20079040527344
			],
			"min":[
				-265.4222106933594,
				-1.0207557678222656,
				-244.44830322265625
			],
			"type":"VEC3"
		},
		{
			"bufferView":1,
			"componentType":5126,
			"count":2922,
			"type":"VEC3"
		},
		{
			"bufferView":2,
			"componentType":5126,
			"count":2922,
			"type":"VEC2"
		},
		{
			"bufferView":3,
			"componentType":5126,
			"count":2922,
			"type":"VEC4"
		},
		{
			"bufferView":4,
			"componentType":5123,
			"count":4392,
			"type":"SCALAR"
		},
		{
			"bufferView":5,
			"componentType":5126,
			"count":3360,
			"max":[
				317.2092590332031,
				14.886415481567383,
				397.1824951171875
			],
			"min":[
				-120.88630676269531,
				-20.898090362548828,
				-245.67617797851562
			],
			"type":"VEC3"
		},
		{
			"bufferView":6,
			"componentType":5126,
			"count":3360,
			"type":"VEC3"
		},
		{
			"bufferView":7,
			"componentType":5126,
			"count":3360,
			"type":"VEC2"
		},
		{
			"bufferView":8,
			"componentType":5126,
			"count":3360,
			"type":"VEC4"
		},
		{
			"bufferView":9,
			"componentType":5123,
			"count":5040,
			"type":"SCALAR"
		},
		{
			"bufferView":10,
			"componentType":5126,
			"count":3504,
			"max":[
				119.05697631835938,
				37.827213287353516,
				7.016604900360107
			],
			"min":[
				-422.07952880859375,
				-23.65021514892578,
				-378.2850646972656
			],
			"type":"VEC3"
		},
		{
			"bufferView":11,
			"componentType":5126,
			"count":3504,
			"type":"VEC3"
		},
		{
			"bufferView":12,
			"componentType":5126,
			"count":3504,
			"type":"VEC2"
		},
		{
			"bufferView":13,
			"componentType":5126,
			"count":3504,
			"type":"VEC4"
		},
		{
			"bufferView":14,
			"componentType":5123,
			"count":5256,
			"type":"SCALAR"
		},
		{
			"bufferView":15,
			"componentType":5126,
			"count":144,
			"max":[
				-80.05656433105469,
				2.2693066596984863,
				7.08993673324585
			],
			"min":[
				-140.10638427734375,
				0.18856026232242584,
				-7.119385242462158
			],
			"type":"VEC3"
		},
		{
			"bufferView":16,
			"componentType":5126,
			"count":144,
			"type":"VEC3"
		},
		{
			"bufferView":17,
			"componentType":5126,
			"count":144,
			"type":"VEC2"
		},
		{
			"bufferView":18,
			"componentType":5126,
			"count":144,
			"type":"VEC4"
		},
		{
			"bufferView":19,
			"componentType":5123,
			"count":216,
			"type":"SCALAR"
		}
	],
	"bufferViews":[
		{
			"buffer":0,
			"byteLength":35064,
			"byteOffset":0,
			"target":34962
		},
		{
			"buffer":0,
			"byteLength":35064,
			"byteOffset":35064,
			"target":34962
		},
		{
			"buffer":0,
			"byteLength":23376,
			"byteOffset":70128,
			"target":34962
		},
		{
			"buffer":0,
			"byteLength":46752,
			"byteOffset":93504,
			"target":34962
		},
		{
			"buffer":0,
			"byteLength":8784,
			"byteOffset":140256,
			"target":34963
		},
		{
			"buffer":0,
			"byteLength":40320,
			"byteOffset":149040,
			"target":34962
		},
		{
			"buffer":0,
			"byteLength":40320,
			"byteOffset":189360,
			"target":34962
		},
		{
			"buffer":0,
			"byteLength":26880,
			"byteOffset":229680,
			"target":34962
		},
		{
			"buffer":0,
			"byteLength":53760,
			"byteOffset":256560,
			"target":34962
		},
		{
			"buffer":0,
			"byteLength":10080,
			"byteOffset":310320,
			"target":34963
		},
		{
			"buffer":0,
			"byteLength":42048,
			"byteOffset":320400,
			"target":34962
		},
		{
			"buffer":0,
			"byteLength":42048,
			"byteOffset":362448,
			"target":34962
		},
		{
			"buffer":0,
			"byteLength":28032,
			"byteOffset":404496,
			"target":34962
		},
		{
			"buffer":0,
			"byteLength":56064,
			"byteOffset":432528,
			"target":34962
		},
		{
			"buffer":0,
			"byteLength":10512,
			"byteOffset":488592,
			"target":34963
		},
		{
			"buffer":0,
			"byteLength":1728,
			"byteOffset":499104,
			"target":34962
		},
		{
			"buffer":0,
			"byteLength":1728,
			"byteOffset":500832,
			"target":34962
		},
		{
			"buffer":0,
			"byteLength":1152,
			"byteOffset":502560,
			"target":34962
		},
		{
			"buffer":0,
			"byteLength":2304,
			"byteOffset":503712,
			"target":34962
		},
		{
			"buffer":0,
			"byteLength":432,
			"byteOffset":506016,
			"target":34963
		}
	],
	"samplers":[
		{
			"magFilter":9729,
			"minFilter":9987
		}
	],
	"buffers":[
		{
			"byteLength":506448,
			"uri":"ghost_road_trace.bin"
		}
	]
}
