{
	"asset":{
		"copyright":"@serufu_yua",
		"generator":"Khronos glTF Blender I/O v3.6.28",
		"version":"2.0"
	},
	"scene":0,
	"scenes":[
		{
			"name":"Scene",
			"nodes":[
				0
			]
		}
	],
	"nodes":[
		{
			"mesh":0,
			"name":"ghots_road.shine.002"
		}
	],
	"meshes":[
		{
			"name":"Cube.011",
			"primitives":[
				{
					"attributes":{
						"POSITION":0,
						"NORMAL":1,
						"TANGENT":2
					},
					"indices":3
				}
			]
		}
	],
	"accessors":[
		{
			"bufferView":0,
			"componentType":5126,
			"count":3072,
			"max":[
				35.86858367919922,
				1.8393703699111938,
				396.1239013671875
			],
			"min":[
				-118.55976104736328,
				-21.11797332763672,
				60.11465835571289
			],
			"type":"VEC3"
		},
		{
			"bufferView":1,
			"componentType":5126,
			"count":3072,
			"type":"VEC3"
		},
		{
			"bufferView":2,
			"componentType":5126,
			"count":3072,
			"type":"VEC4"
		},
		{
			"bufferView":3,
			"componentType":5123,
			"count":4608,
			"type":"SCALAR"
		}
	],
	"bufferViews":[
		{
			"buffer":0,
			"byteLength":36864,
			"byteOffset":0,
			"target":34962
		},
		{
			"buffer":0,
			"byteLength":36864,
			"byteOffset":36864,
			"target":34962
		},
		{
			"buffer":0,
			"byteLength":49152,
			"byteOffset":73728,
			"target":34962
		},
		{
			"buffer":0,
			"byteLength":9216,
			"byteOffset":122880,
			"target":34963
		}
	],
	"buffers":[
		{
			"byteLength":132096,
			"uri":"ghost_road_shine_002.bin"
		}
	]
}
