{
	"asset":{
		"copyright":"@serufu_yua",
		"generator":"Khronos glTF Blender I/O v3.6.28",
		"version":"2.0"
	},
	"scene":0,
	"scenes":[
		{
			"name":"Scene",
			"nodes":[
				0
			]
		}
	],
	"nodes":[
		{
			"mesh":0,
			"name":"ghots_road.shine.004"
		}
	],
	"meshes":[
		{
			"name":"Cube.013",
			"primitives":[
				{
					"attributes":{
						"POSITION":0,
						"NORMAL":1,
						"TANGENT":2
					},
					"indices":3
				}
			]
		}
	],
	"accessors":[
		{
			"bufferView":0,
			"componentType":5126,
			"count":9600,
			"max":[
				119.26338958740234,
				37.212345123291016,
				11.929606437683105
			],
			"min":[
				-436.4708557128906,
				-23.721010208129883,
				-378.3983154296875
			],
			"type":"VEC3"
		},
		{
			"bufferView":1,
			"componentType":5126,
			"count":9600,
			"type":"VEC3"
		},
		{
			"bufferView":2,
			"componentType":5126,
			"count":9600,
			"type":"VEC4"
		},
		{
			"bufferView":3,
			"componentType":5123,
			"count":14400,
			"type":"SCALAR"
		}
	],
	"bufferViews":[
		{
			"buffer":0,
			"byteLength":115200,
			"byteOffset":0,
			"target":34962
		},
		{
			"buffer":0,
			"byteLength":115200,
			"byteOffset":115200,
			"target":34962
		},
		{
			"buffer":0,
			"byteLength":153600,
			"byteOffset":230400,
			"target":34962
		},
		{
			"buffer":0,
			"byteLength":28800,
			"byteOffset":384000,
			"target":34963
		}
	],
	"buffers":[
		{
			"byteLength":412800,
			"uri":"ghost_road_shine_004.bin"
		}
	]
}
