{
	"asset":{
		"copyright":"@serufu_yua",
		"generator":"Khronos glTF Blender I/O v3.6.28",
		"version":"2.0"
	},
	"scene":0,
	"scenes":[
		{
			"name":"Scene",
			"nodes":[
				0
			]
		}
	],
	"nodes":[
		{
			"mesh":0,
			"name":"ghots_road.shine.002"
		}
	],
	"meshes":[
		{
			"name":"Cube.011",
			"primitives":[
				{
					"attributes":{
						"POSITION":0,
						"NORMAL":1,
						"TANGENT":2
					},
					"indices":3
				}
			]
		}
	],
	"accessors":[
		{
			"bufferView":0,
			"componentType":5126,
			"count":8960,
			"max":[
				317.2092590332031,
				14.886415481567383,
				397.1824951171875
			],
			"min":[
				-120.88630676269531,
				-20.898090362548828,
				-245.68911743164062
			],
			"type":"VEC3"
		},
		{
			"bufferView":1,
			"componentType":5126,
			"count":8960,
			"type":"VEC3"
		},
		{
			"bufferView":2,
			"componentType":5126,
			"count":8960,
			"type":"VEC4"
		},
		{
			"bufferView":3,
			"componentType":5123,
			"count":13440,
			"type":"SCALAR"
		}
	],
	"bufferViews":[
		{
			"buffer":0,
			"byteLength":107520,
			"byteOffset":0,
			"target":34962
		},
		{
			"buffer":0,
			"byteLength":107520,
			"byteOffset":107520,
			"target":34962
		},
		{
			"buffer":0,
			"byteLength":143360,
			"byteOffset":215040,
			"target":34962
		},
		{
			"buffer":0,
			"byteLength":26880,
			"byteOffset":358400,
			"target":34963
		}
	],
	"buffers":[
		{
			"byteLength":385280,
			"uri":"ghost_road_shine_002.bin"
		}
	]
}
