{
	"asset":{
		"copyright":"@serufu_yua",
		"generator":"Khronos glTF Blender I/O v3.6.28",
		"version":"2.0"
	},
	"scene":0,
	"scenes":[
		{
			"name":"Scene",
			"nodes":[
				0
			]
		}
	],
	"nodes":[
		{
			"mesh":0,
			"name":"ghots_road.shine.001"
		}
	],
	"meshes":[
		{
			"name":"Cube.009",
			"primitives":[
				{
					"attributes":{
						"POSITION":0,
						"NORMAL":1,
						"TANGENT":2
					},
					"indices":3
				}
			]
		}
	],
	"accessors":[
		{
			"bufferView":0,
			"componentType":5126,
			"count":7916,
			"max":[
				198.61627197265625,
				17.063447952270508,
				240.29737854003906
			],
			"min":[
				-267.78326416015625,
				-1.02415931224823,
				-244.49732971191406
			],
			"type":"VEC3"
		},
		{
			"bufferView":1,
			"componentType":5126,
			"count":7916,
			"type":"VEC3"
		},
		{
			"bufferView":2,
			"componentType":5126,
			"count":7916,
			"type":"VEC4"
		},
		{
			"bufferView":3,
			"componentType":5123,
			"count":11904,
			"type":"SCALAR"
		}
	],
	"bufferViews":[
		{
			"buffer":0,
			"byteLength":94992,
			"byteOffset":0,
			"target":34962
		},
		{
			"buffer":0,
			"byteLength":94992,
			"byteOffset":94992,
			"target":34962
		},
		{
			"buffer":0,
			"byteLength":126656,
			"byteOffset":189984,
			"target":34962
		},
		{
			"buffer":0,
			"byteLength":23808,
			"byteOffset":316640,
			"target":34963
		}
	],
	"buffers":[
		{
			"byteLength":340448,
			"uri":"ghost_road_shine_001.bin"
		}
	]
}
