{
	"asset":{
		"copyright":"@serufu_yua",
		"generator":"Khronos glTF Blender I/O v3.6.28",
		"version":"2.0"
	},
	"scene":0,
	"scenes":[
		{
			"name":"Scene",
			"nodes":[
				0
			]
		}
	],
	"nodes":[
		{
			"mesh":0,
			"name":"ghots_road.shine.001"
		}
	],
	"meshes":[
		{
			"name":"Cube.009",
			"primitives":[
				{
					"attributes":{
						"POSITION":0,
						"NORMAL":1,
						"TANGENT":2
					},
					"indices":3
				}
			]
		}
	],
	"accessors":[
		{
			"bufferView":0,
			"componentType":5126,
			"count":7778,
			"max":[
				198.5535430908203,
				17.061269760131836,
				240.2012939453125
			],
			"min":[
				-265.4222106933594,
				-1.0226738452911377,
				-244.44830322265625
			],
			"type":"VEC3"
		},
		{
			"bufferView":1,
			"componentType":5126,
			"count":7778,
			"type":"VEC3"
		},
		{
			"bufferView":2,
			"componentType":5126,
			"count":7778,
			"type":"VEC4"
		},
		{
			"bufferView":3,
			"componentType":5123,
			"count":11712,
			"type":"SCALAR"
		}
	],
	"bufferViews":[
		{
			"buffer":0,
			"byteLength":93336,
			"byteOffset":0,
			"target":34962
		},
		{
			"buffer":0,
			"byteLength":93336,
			"byteOffset":93336,
			"target":34962
		},
		{
			"buffer":0,
			"byteLength":124448,
			"byteOffset":186672,
			"target":34962
		},
		{
			"buffer":0,
			"byteLength":23424,
			"byteOffset":311120,
			"target":34963
		}
	],
	"buffers":[
		{
			"byteLength":334544,
			"uri":"ghost_road_shine_001.bin"
		}
	]
}
