{
	"asset":{
		"copyright":"@serufu_yua",
		"generator":"Khronos glTF Blender I/O v3.6.28",
		"version":"2.0"
	},
	"scene":0,
	"scenes":[
		{
			"name":"Scene",
			"nodes":[
				0,
				1,
				2,
				3,
				4,
				5,
				6,
				7,
				8,
				9
			]
		}
	],
	"nodes":[
		{
			"name":"road_path.001"
		},
		{
			"mesh":0,
			"name":"ghots_road.001"
		},
		{
			"name":"road_path.002"
		},
		{
			"mesh":1,
			"name":"ghots_road.002"
		},
		{
			"name":"road_path.004"
		},
		{
			"mesh":2,
			"name":"ghots_road.004"
		},
		{
			"name":"road_path.005"
		},
		{
			"mesh":3,
			"name":"ghots_road.005"
		},
		{
			"name":"road_path.003"
		},
		{
			"mesh":4,
			"name":"ghots_road.003"
		}
	],
	"materials":[
		{
			"alphaMode":"BLEND",
			"doubleSided":true,
			"emissiveFactor":[
				1,
				1,
				1
			],
			"emissiveTexture":{
				"index":0
			},
			"name":"ghost_road",
			"pbrMetallicRoughness":{
				"baseColorTexture":{
					"index":1
				},
				"metallicFactor":0,
				"roughnessFactor":0.5
			}
		}
	],
	"meshes":[
		{
			"name":"Cube.006",
			"primitives":[
				{
					"attributes":{
						"POSITION":0,
						"NORMAL":1,
						"TEXCOORD_0":2,
						"TANGENT":3
					},
					"indices":4,
					"material":0
				}
			]
		},
		{
			"name":"Cube.010",
			"primitives":[
				{
					"attributes":{
						"POSITION":5,
						"NORMAL":6,
						"TEXCOORD_0":7,
						"TANGENT":8
					},
					"indices":9,
					"material":0
				}
			]
		},
		{
			"name":"Cube.012",
			"primitives":[
				{
					"attributes":{
						"POSITION":10,
						"NORMAL":11,
						"TEXCOORD_0":12,
						"TANGENT":13
					},
					"indices":14,
					"material":0
				}
			]
		},
		{
			"name":"Cube.014",
			"primitives":[
				{
					"attributes":{
						"POSITION":15,
						"NORMAL":16,
						"TEXCOORD_0":17,
						"TANGENT":18
					},
					"indices":19,
					"material":0
				}
			]
		},
		{
			"name":"Cube.018",
			"primitives":[
				{
					"attributes":{
						"POSITION":20,
						"NORMAL":21,
						"TEXCOORD_0":22,
						"TANGENT":23
					},
					"indices":24,
					"material":0
				}
			]
		}
	],
	"textures":[
		{
			"sampler":0,
			"source":0
		},
		{
			"sampler":0,
			"source":0
		}
	],
	"images":[
		{
			"mimeType":"image/png",
			"name":"ghost_road",
			"uri":"ghost_road.png"
		}
	],
	"accessors":[
		{
			"bufferView":0,
			"componentType":5126,
			"count":2962,
			"max":[
				198.61233520507812,
				17.063447952270508,
				240.28591918945312
			],
			"min":[
				-267.78326416015625,
				-1.0239052772521973,
				-244.49732971191406
			],
			"type":"VEC3"
		},
		{
			"bufferView":1,
			"componentType":5126,
			"count":2962,
			"type":"VEC3"
		},
		{
			"bufferView":2,
			"componentType":5126,
			"count":2962,
			"type":"VEC2"
		},
		{
			"bufferView":3,
			"componentType":5126,
			"count":2962,
			"type":"VEC4"
		},
		{
			"bufferView":4,
			"componentType":5123,
			"count":4464,
			"type":"SCALAR"
		},
		{
			"bufferView":5,
			"componentType":5126,
			"count":1152,
			"max":[
				35.47929763793945,
				-0.9217644929885864,
				396.748046875
			],
			"min":[
				-118.48402404785156,
				-20.8023624420166,
				59.991966247558594
			],
			"type":"VEC3"
		},
		{
			"bufferView":6,
			"componentType":5126,
			"count":1152,
			"type":"VEC3"
		},
		{
			"bufferView":7,
			"componentType":5126,
			"count":1152,
			"type":"VEC2"
		},
		{
			"bufferView":8,
			"componentType":5126,
			"count":1152,
			"type":"VEC4"
		},
		{
			"bufferView":9,
			"componentType":5123,
			"count":1728,
			"type":"SCALAR"
		},
		{
			"bufferView":10,
			"componentType":5126,
			"count":3600,
			"max":[
				119.23448944091797,
				37.212345123291016,
				11.927523612976074
			],
			"min":[
				-436.4505615234375,
				-23.720746994018555,
				-378.3983154296875
			],
			"type":"VEC3"
		},
		{
			"bufferView":11,
			"componentType":5126,
			"count":3600,
			"type":"VEC3"
		},
		{
			"bufferView":12,
			"componentType":5126,
			"count":3600,
			"type":"VEC2"
		},
		{
			"bufferView":13,
			"componentType":5126,
			"count":3600,
			"type":"VEC4"
		},
		{
			"bufferView":14,
			"componentType":5123,
			"count":5400,
			"type":"SCALAR"
		},
		{
			"bufferView":15,
			"componentType":5126,
			"count":144,
			"max":[
				-80.05658721923828,
				2.2693066596984863,
				7.089937686920166
			],
			"min":[
				-140.10638427734375,
				0.18856015801429749,
				-7.119385242462158
			],
			"type":"VEC3"
		},
		{
			"bufferView":16,
			"componentType":5126,
			"count":144,
			"type":"VEC3"
		},
		{
			"bufferView":17,
			"componentType":5126,
			"count":144,
			"type":"VEC2"
		},
		{
			"bufferView":18,
			"componentType":5126,
			"count":144,
			"type":"VEC4"
		},
		{
			"bufferView":19,
			"componentType":5123,
			"count":216,
			"type":"SCALAR"
		},
		{
			"bufferView":20,
			"componentType":5126,
			"count":2016,
			"max":[
				326.17974853515625,
				14.886415481567383,
				382.3289794921875
			],
			"min":[
				9.80709457397461,
				-8.86721420288086,
				-245.6989288330078
			],
			"type":"VEC3"
		},
		{
			"bufferView":21,
			"componentType":5126,
			"count":2016,
			"type":"VEC3"
		},
		{
			"bufferView":22,
			"componentType":5126,
			"count":2016,
			"type":"VEC2"
		},
		{
			"bufferView":23,
			"componentType":5126,
			"count":2016,
			"type":"VEC4"
		},
		{
			"bufferView":24,
			"componentType":5123,
			"count":3024,
			"type":"SCALAR"
		}
	],
	"bufferViews":[
		{
			"buffer":0,
			"byteLength":35544,
			"byteOffset":0,
			"target":34962
		},
		{
			"buffer":0,
			"byteLength":35544,
			"byteOffset":35544,
			"target":34962
		},
		{
			"buffer":0,
			"byteLength":23696,
			"byteOffset":71088,
			"target":34962
		},
		{
			"buffer":0,
			"byteLength":47392,
			"byteOffset":94784,
			"target":34962
		},
		{
			"buffer":0,
			"byteLength":8928,
			"byteOffset":142176,
			"target":34963
		},
		{
			"buffer":0,
			"byteLength":13824,
			"byteOffset":151104,
			"target":34962
		},
		{
			"buffer":0,
			"byteLength":13824,
			"byteOffset":164928,
			"target":34962
		},
		{
			"buffer":0,
			"byteLength":9216,
			"byteOffset":178752,
			"target":34962
		},
		{
			"buffer":0,
			"byteLength":18432,
			"byteOffset":187968,
			"target":34962
		},
		{
			"buffer":0,
			"byteLength":3456,
			"byteOffset":206400,
			"target":34963
		},
		{
			"buffer":0,
			"byteLength":43200,
			"byteOffset":209856,
			"target":34962
		},
		{
			"buffer":0,
			"byteLength":43200,
			"byteOffset":253056,
			"target":34962
		},
		{
			"buffer":0,
			"byteLength":28800,
			"byteOffset":296256,
			"target":34962
		},
		{
			"buffer":0,
			"byteLength":57600,
			"byteOffset":325056,
			"target":34962
		},
		{
			"buffer":0,
			"byteLength":10800,
			"byteOffset":382656,
			"target":34963
		},
		{
			"buffer":0,
			"byteLength":1728,
			"byteOffset":393456,
			"target":34962
		},
		{
			"buffer":0,
			"byteLength":1728,
			"byteOffset":395184,
			"target":34962
		},
		{
			"buffer":0,
			"byteLength":1152,
			"byteOffset":396912,
			"target":34962
		},
		{
			"buffer":0,
			"byteLength":2304,
			"byteOffset":398064,
			"target":34962
		},
		{
			"buffer":0,
			"byteLength":432,
			"byteOffset":400368,
			"target":34963
		},
		{
			"buffer":0,
			"byteLength":24192,
			"byteOffset":400800,
			"target":34962
		},
		{
			"buffer":0,
			"byteLength":24192,
			"byteOffset":424992,
			"target":34962
		},
		{
			"buffer":0,
			"byteLength":16128,
			"byteOffset":449184,
			"target":34962
		},
		{
			"buffer":0,
			"byteLength":32256,
			"byteOffset":465312,
			"target":34962
		},
		{
			"buffer":0,
			"byteLength":6048,
			"byteOffset":497568,
			"target":34963
		}
	],
	"samplers":[
		{
			"magFilter":9729,
			"minFilter":9987
		}
	],
	"buffers":[
		{
			"byteLength":503616,
			"uri":"ghost_road_trace.bin"
		}
	]
}
