{
	"asset":{
		"copyright":"@serufu_yua",
		"generator":"Khronos glTF Blender I/O v3.6.28",
		"version":"2.0"
	},
	"scene":0,
	"scenes":[
		{
			"name":"Scene",
			"nodes":[
				0
			]
		}
	],
	"nodes":[
		{
			"mesh":0,
			"name":"ghots_road.shine.003"
		}
	],
	"meshes":[
		{
			"name":"Cube.019",
			"primitives":[
				{
					"attributes":{
						"POSITION":0,
						"NORMAL":1,
						"TANGENT":2
					},
					"indices":3
				}
			]
		}
	],
	"accessors":[
		{
			"bufferView":0,
			"componentType":5126,
			"count":5376,
			"max":[
				326.1815490722656,
				14.886415481567383,
				382.3289794921875
			],
			"min":[
				9.80709457397461,
				-8.875012397766113,
				-245.6989288330078
			],
			"type":"VEC3"
		},
		{
			"bufferView":1,
			"componentType":5126,
			"count":5376,
			"type":"VEC3"
		},
		{
			"bufferView":2,
			"componentType":5126,
			"count":5376,
			"type":"VEC4"
		},
		{
			"bufferView":3,
			"componentType":5123,
			"count":8064,
			"type":"SCALAR"
		}
	],
	"bufferViews":[
		{
			"buffer":0,
			"byteLength":64512,
			"byteOffset":0,
			"target":34962
		},
		{
			"buffer":0,
			"byteLength":64512,
			"byteOffset":64512,
			"target":34962
		},
		{
			"buffer":0,
			"byteLength":86016,
			"byteOffset":129024,
			"target":34962
		},
		{
			"buffer":0,
			"byteLength":16128,
			"byteOffset":215040,
			"target":34963
		}
	],
	"buffers":[
		{
			"byteLength":231168,
			"uri":"ghost_road_shine_003.bin"
		}
	]
}
