{
	"asset":{
		"copyright":"@serufu_yua",
		"generator":"Khronos glTF Blender I/O v3.6.28",
		"version":"2.0"
	},
	"extensionsUsed":[
		"KHR_materials_emissive_strength"
	],
	"scene":0,
	"scenes":[
		{
			"name":"Scene",
			"nodes":[
				2
			]
		}
	],
	"nodes":[
		{
			"mesh":0,
			"name":"Lighter.Top",
			"translation":[
				0,
				0.24499988555908203,
				0
			]
		},
		{
			"mesh":1,
			"name":"rayon.lighter",
			"rotation":[
				0.7071068286895752,
				0,
				0,
				0.7071068286895752
			]
		},
		{
			"children":[
				0,
				1
			],
			"mesh":2,
			"name":"Lighter.Body"
		}
	],
	"materials":[
		{
			"doubleSided":true,
			"emissiveFactor":[
				1,
				1,
				1
			],
			"emissiveTexture":{
				"index":0
			},
			"name":"lighter.tex",
			"normalTexture":{
				"index":1
			},
			"pbrMetallicRoughness":{
				"baseColorTexture":{
					"index":2
				},
				"metallicFactor":0,
				"roughnessFactor":0.9409090876579285
			}
		},
		{
			"alphaMode":"BLEND",
			"doubleSided":true,
			"emissiveFactor":[
				1,
				0.7455111742019653,
				0.060437023639678955
			],
			"extensions":{
				"KHR_materials_emissive_strength":{
					"emissiveStrength":4
				}
			},
			"name":"rayon",
			"pbrMetallicRoughness":{
				"baseColorFactor":[
					1,
					0.7455111742019653,
					0.060437023639678955,
					1
				],
				"baseColorTexture":{
					"index":3
				},
				"metallicFactor":0,
				"roughnessFactor":0.5
			}
		}
	],
	"meshes":[
		{
			"name":"Cube.018",
			"primitives":[
				{
					"attributes":{
						"POSITION":0,
						"NORMAL":1,
						"TEXCOORD_0":2,
						"TEXCOORD_1":3
					},
					"indices":4,
					"material":0
				},
				{
					"attributes":{
						"POSITION":5,
						"NORMAL":6,
						"TEXCOORD_0":7,
						"TEXCOORD_1":8
					},
					"indices":9,
					"material":0
				}
			]
		},
		{
			"name":"Plane.003",
			"primitives":[
				{
					"attributes":{
						"POSITION":10,
						"NORMAL":11,
						"TEXCOORD_0":12,
						"TANGENT":13
					},
					"indices":14,
					"material":1
				}
			]
		},
		{
			"name":"Cube.017",
			"primitives":[
				{
					"attributes":{
						"POSITION":15,
						"NORMAL":16,
						"TEXCOORD_0":17,
						"TEXCOORD_1":18,
						"TANGENT":19
					},
					"indices":20,
					"material":0
				},
				{
					"attributes":{
						"POSITION":21,
						"NORMAL":22,
						"TEXCOORD_0":23,
						"TEXCOORD_1":24,
						"TANGENT":25
					},
					"indices":26,
					"material":0
				}
			]
		}
	],
	"textures":[
		{
			"sampler":0,
			"source":0
		},
		{
			"sampler":0,
			"source":1
		},
		{
			"sampler":0,
			"source":2
		},
		{
			"sampler":0,
			"source":3
		}
	],
	"images":[
		{
			"mimeType":"image/png",
			"name":"lighter_e",
			"uri":"lighter_e.png"
		},
		{
			"mimeType":"image/png",
			"name":"lighter_n",
			"uri":"lighter_n.png"
		},
		{
			"mimeType":"image/png",
			"name":"lighter",
			"uri":"lighter.png"
		},
		{
			"mimeType":"image/png",
			"name":"lihgt_gradient",
			"uri":"lihgt_gradient.png"
		}
	],
	"accessors":[
		{
			"bufferView":0,
			"componentType":5126,
			"count":70,
			"max":[
				0.15555299818515778,
				0.011847831308841705,
				0.15000006556510925
			],
			"min":[
				-0.15555299818515778,
				-0.0988190546631813,
				-0.15000006556510925
			],
			"type":"VEC3"
		},
		{
			"bufferView":1,
			"componentType":5126,
			"count":70,
			"type":"VEC3"
		},
		{
			"bufferView":2,
			"componentType":5126,
			"count":70,
			"type":"VEC2"
		},
		{
			"bufferView":3,
			"componentType":5126,
			"count":70,
			"type":"VEC2"
		},
		{
			"bufferView":4,
			"componentType":5123,
			"count":114,
			"type":"SCALAR"
		},
		{
			"bufferView":5,
			"componentType":5126,
			"count":156,
			"max":[
				0.15555299818515778,
				0.025000082328915596,
				0.17500005662441254
			],
			"min":[
				-0.15555299818515778,
				-0.0988190546631813,
				-0.17500005662441254
			],
			"type":"VEC3"
		},
		{
			"bufferView":6,
			"componentType":5126,
			"count":156,
			"type":"VEC3"
		},
		{
			"bufferView":7,
			"componentType":5126,
			"count":156,
			"type":"VEC2"
		},
		{
			"bufferView":8,
			"componentType":5126,
			"count":156,
			"type":"VEC2"
		},
		{
			"bufferView":9,
			"componentType":5123,
			"count":282,
			"type":"SCALAR"
		},
		{
			"bufferView":10,
			"componentType":5126,
			"count":80,
			"max":[
				0.1682996153831482,
				0.16830004751682281,
				0.19000007212162018
			],
			"min":[
				-0.16830050945281982,
				-0.168300062417984,
				-0.19000007212162018
			],
			"type":"VEC3"
		},
		{
			"bufferView":11,
			"componentType":5126,
			"count":80,
			"type":"VEC3"
		},
		{
			"bufferView":12,
			"componentType":5126,
			"count":80,
			"type":"VEC2"
		},
		{
			"bufferView":13,
			"componentType":5126,
			"count":80,
			"type":"VEC4"
		},
		{
			"bufferView":14,
			"componentType":5123,
			"count":120,
			"type":"SCALAR"
		},
		{
			"bufferView":15,
			"componentType":5126,
			"count":384,
			"max":[
				0.11500004678964615,
				0.17500005662441254,
				0.11500004678964615
			],
			"min":[
				-0.11500004678964615,
				-0.1650000363588333,
				-0.11500004678964615
			],
			"type":"VEC3"
		},
		{
			"bufferView":16,
			"componentType":5126,
			"count":384,
			"type":"VEC3"
		},
		{
			"bufferView":17,
			"componentType":5126,
			"count":384,
			"type":"VEC2"
		},
		{
			"bufferView":18,
			"componentType":5126,
			"count":384,
			"type":"VEC2"
		},
		{
			"bufferView":19,
			"componentType":5126,
			"count":384,
			"type":"VEC4"
		},
		{
			"bufferView":20,
			"componentType":5123,
			"count":624,
			"type":"SCALAR"
		},
		{
			"bufferView":21,
			"componentType":5126,
			"count":24,
			"max":[
				0.1000000387430191,
				0.130000039935112,
				0.1000000387430191
			],
			"min":[
				-0.1000000387430191,
				-0.130000039935112,
				-0.1000000387430191
			],
			"type":"VEC3"
		},
		{
			"bufferView":22,
			"componentType":5126,
			"count":24,
			"type":"VEC3"
		},
		{
			"bufferView":23,
			"componentType":5126,
			"count":24,
			"type":"VEC2"
		},
		{
			"bufferView":24,
			"componentType":5126,
			"count":24,
			"type":"VEC2"
		},
		{
			"bufferView":25,
			"componentType":5126,
			"count":24,
			"type":"VEC4"
		},
		{
			"bufferView":26,
			"componentType":5123,
			"count":36,
			"type":"SCALAR"
		}
	],
	"bufferViews":[
		{
			"buffer":0,
			"byteLength":840,
			"byteOffset":0,
			"target":34962
		},
		{
			"buffer":0,
			"byteLength":840,
			"byteOffset":840,
			"target":34962
		},
		{
			"buffer":0,
			"byteLength":560,
			"byteOffset":1680,
			"target":34962
		},
		{
			"buffer":0,
			"byteLength":560,
			"byteOffset":2240,
			"target":34962
		},
		{
			"buffer":0,
			"byteLength":228,
			"byteOffset":2800,
			"target":34963
		},
		{
			"buffer":0,
			"byteLength":1872,
			"byteOffset":3028,
			"target":34962
		},
		{
			"buffer":0,
			"byteLength":1872,
			"byteOffset":4900,
			"target":34962
		},
		{
			"buffer":0,
			"byteLength":1248,
			"byteOffset":6772,
			"target":34962
		},
		{
			"buffer":0,
			"byteLength":1248,
			"byteOffset":8020,
			"target":34962
		},
		{
			"buffer":0,
			"byteLength":564,
			"byteOffset":9268,
			"target":34963
		},
		{
			"buffer":0,
			"byteLength":960,
			"byteOffset":9832,
			"target":34962
		},
		{
			"buffer":0,
			"byteLength":960,
			"byteOffset":10792,
			"target":34962
		},
		{
			"buffer":0,
			"byteLength":640,
			"byteOffset":11752,
			"target":34962
		},
		{
			"buffer":0,
			"byteLength":1280,
			"byteOffset":12392,
			"target":34962
		},
		{
			"buffer":0,
			"byteLength":240,
			"byteOffset":13672,
			"target":34963
		},
		{
			"buffer":0,
			"byteLength":4608,
			"byteOffset":13912,
			"target":34962
		},
		{
			"buffer":0,
			"byteLength":4608,
			"byteOffset":18520,
			"target":34962
		},
		{
			"buffer":0,
			"byteLength":3072,
			"byteOffset":23128,
			"target":34962
		},
		{
			"buffer":0,
			"byteLength":3072,
			"byteOffset":26200,
			"target":34962
		},
		{
			"buffer":0,
			"byteLength":6144,
			"byteOffset":29272,
			"target":34962
		},
		{
			"buffer":0,
			"byteLength":1248,
			"byteOffset":35416,
			"target":34963
		},
		{
			"buffer":0,
			"byteLength":288,
			"byteOffset":36664,
			"target":34962
		},
		{
			"buffer":0,
			"byteLength":288,
			"byteOffset":36952,
			"target":34962
		},
		{
			"buffer":0,
			"byteLength":192,
			"byteOffset":37240,
			"target":34962
		},
		{
			"buffer":0,
			"byteLength":192,
			"byteOffset":37432,
			"target":34962
		},
		{
			"buffer":0,
			"byteLength":384,
			"byteOffset":37624,
			"target":34962
		},
		{
			"buffer":0,
			"byteLength":72,
			"byteOffset":38008,
			"target":34963
		}
	],
	"samplers":[
		{
			"magFilter":9729,
			"minFilter":9987
		}
	],
	"buffers":[
		{
			"byteLength":38080,
			"uri":"hovel_lighter.bin"
		}
	]
}
