{
	"asset":{
		"copyright":"@serufu_yua",
		"generator":"Khronos glTF Blender I/O v3.6.28",
		"version":"2.0"
	},
	"scene":0,
	"scenes":[
		{
			"name":"Scene",
			"nodes":[
				0,
				1,
				2,
				3,
				4,
				5,
				6,
				16,
				17,
				18,
				19
			]
		}
	],
	"nodes":[
		{
			"mesh":0,
			"name":"motor-road.collider"
		},
		{
			"mesh":1,
			"name":"access_way.collider",
			"translation":[
				0,
				-0.058300018310546875,
				-12.82598876953125
			]
		},
		{
			"mesh":2,
			"name":"power_pylon.collider.001",
			"translation":[
				5.1625823974609375,
				-0.056742310523986816,
				-8.827972412109375
			]
		},
		{
			"mesh":2,
			"name":"power_pylon.collider.002",
			"translation":[
				33.37255859375,
				0.7192916870117188,
				-9.853485107421875
			]
		},
		{
			"mesh":2,
			"name":"power_pylon.collider.003",
			"translation":[
				62.849853515625,
				0.3077545166015625,
				-10.564483642578125
			]
		},
		{
			"mesh":2,
			"name":"power_pylon.collider.004",
			"translation":[
				-23.59320068359375,
				-0.28658103942871094,
				-9.888824462890625
			]
		},
		{
			"mesh":2,
			"name":"power_pylon.collider.005",
			"translation":[
				-53.5404052734375,
				-0.5036849975585938,
				-11.56207275390625
			]
		},
		{
			"mesh":3,
			"name":"container_box.collider"
		},
		{
			"mesh":4,
			"name":"hovel.collider"
		},
		{
			"mesh":5,
			"name":"wood_plank.003",
			"rotation":[
				0.05495018884539604,
				0,
				0,
				0.9984892010688782
			],
			"translation":[
				-0.5247001647949219,
				-0.058300018310546875,
				4.08099365234375
			]
		},
		{
			"mesh":5,
			"name":"wood_plank.004",
			"rotation":[
				0,
				0.7372773289680481,
				0,
				0.6755902171134949
			],
			"translation":[
				2.27740478515625,
				-0.058300018310546875,
				3.2434463500976562
			]
		},
		{
			"mesh":6,
			"name":"tube.stay.collider.001",
			"translation":[
				-2.4486007690429688,
				-0.17490005493164062,
				4.4716033935546875
			]
		},
		{
			"mesh":6,
			"name":"tube.stay.collider.002",
			"translation":[
				2.4486007690429688,
				-0.17490005493164062,
				4.4716033935546875
			]
		},
		{
			"mesh":7,
			"name":"lighter.collider",
			"translation":[
				0,
				2,
				4.215087890625
			]
		},
		{
			"mesh":8,
			"name":"concrete_ramp.collider",
			"translation":[
				0,
				-0.17490005493164062,
				4.08099365234375
			]
		},
		{
			"mesh":9,
			"name":"Cube",
			"translation":[
				-1.3117485046386719,
				2.6234970092773438,
				0
			]
		},
		{
			"children":[
				7,
				8,
				9,
				10,
				11,
				12,
				13,
				14,
				15
			],
			"name":"home.collider",
			"translation":[
				0,
				0.11660003662109375,
				-25.9434814453125
			]
		},
		{
			"mesh":10,
			"name":"Island.collider.002",
			"translation":[
				-155.1215057373047,
				0,
				0
			]
		},
		{
			"mesh":11,
			"name":"Island.collider.001",
			"translation":[
				0,
				14,
				-240
			]
		},
		{
			"mesh":12,
			"name":"tunnel.collider",
			"rotation":[
				0,
				-0.13052619993686676,
				0,
				0.9914448857307434
			],
			"translation":[
				20,
				-20,
				0
			]
		}
	],
	"meshes":[
		{
			"name":"Plane.002",
			"primitives":[
				{
					"attributes":{
						"POSITION":0,
						"NORMAL":1
					},
					"indices":2
				}
			]
		},
		{
			"name":"Plane.004",
			"primitives":[
				{
					"attributes":{
						"POSITION":3,
						"NORMAL":4,
						"TANGENT":5
					},
					"indices":6
				}
			]
		},
		{
			"name":"Cube.001",
			"primitives":[
				{
					"attributes":{
						"POSITION":7,
						"NORMAL":8,
						"TANGENT":9
					},
					"indices":10
				}
			]
		},
		{
			"name":"Cube.016",
			"primitives":[
				{
					"attributes":{
						"POSITION":11,
						"NORMAL":12,
						"TANGENT":13
					},
					"indices":14
				}
			]
		},
		{
			"name":"Cube.019",
			"primitives":[
				{
					"attributes":{
						"POSITION":15,
						"NORMAL":16,
						"TANGENT":17
					},
					"indices":18
				}
			]
		},
		{
			"name":"Cube.020",
			"primitives":[
				{
					"attributes":{
						"POSITION":19,
						"NORMAL":20,
						"TANGENT":21
					},
					"indices":22
				}
			]
		},
		{
			"name":"Cube.022",
			"primitives":[
				{
					"attributes":{
						"POSITION":23,
						"NORMAL":24,
						"TANGENT":25
					},
					"indices":14
				}
			]
		},
		{
			"name":"Cube.023",
			"primitives":[
				{
					"attributes":{
						"POSITION":26,
						"NORMAL":27,
						"TANGENT":28
					},
					"indices":29
				}
			]
		},
		{
			"name":"Plane.004",
			"primitives":[
				{
					"attributes":{
						"POSITION":30,
						"NORMAL":31
					},
					"indices":32
				}
			]
		},
		{
			"name":"Cube.024",
			"primitives":[
				{
					"attributes":{
						"POSITION":33,
						"NORMAL":34,
						"TANGENT":35
					},
					"indices":36
				}
			]
		},
		{
			"name":"Plane.013",
			"primitives":[
				{
					"attributes":{
						"POSITION":37,
						"NORMAL":38
					},
					"indices":39
				}
			]
		},
		{
			"name":"Plane.015",
			"primitives":[
				{
					"attributes":{
						"POSITION":40,
						"NORMAL":41
					},
					"indices":42
				}
			]
		},
		{
			"name":"Cube.017",
			"primitives":[
				{
					"attributes":{
						"POSITION":43,
						"NORMAL":44
					},
					"indices":45
				}
			]
		}
	],
	"accessors":[
		{
			"bufferView":0,
			"componentType":5126,
			"count":3940,
			"max":[
				198.5535430908203,
				34.72294998168945,
				240.20079040527344
			],
			"min":[
				-263.71307373046875,
				-12.0025634765625,
				-106.8612289428711
			],
			"type":"VEC3"
		},
		{
			"bufferView":1,
			"componentType":5126,
			"count":3940,
			"type":"VEC3"
		},
		{
			"bufferView":2,
			"componentType":5123,
			"count":23592,
			"type":"SCALAR"
		},
		{
			"bufferView":3,
			"componentType":5126,
			"count":44,
			"max":[
				2.061882972717285,
				0.058300018310546875,
				8.366052627563477
			],
			"min":[
				-2.061882972717285,
				-1.7791753634810448e-06,
				-7.783052444458008
			],
			"type":"VEC3"
		},
		{
			"bufferView":4,
			"componentType":5126,
			"count":44,
			"type":"VEC3"
		},
		{
			"bufferView":5,
			"componentType":5126,
			"count":44,
			"type":"VEC4"
		},
		{
			"bufferView":6,
			"componentType":5123,
			"count":144,
			"type":"SCALAR"
		},
		{
			"bufferView":7,
			"componentType":5126,
			"count":68,
			"max":[
				0.10000002384185791,
				7.559999942779541,
				1
			],
			"min":[
				-0.24000002443790436,
				0,
				-1
			],
			"type":"VEC3"
		},
		{
			"bufferView":8,
			"componentType":5126,
			"count":68,
			"type":"VEC3"
		},
		{
			"bufferView":9,
			"componentType":5126,
			"count":68,
			"type":"VEC4"
		},
		{
			"bufferView":10,
			"componentType":5123,
			"count":324,
			"type":"SCALAR"
		},
		{
			"bufferView":11,
			"componentType":5126,
			"count":24,
			"max":[
				2.623500108718872,
				2.6526501178741455,
				3.0607500076293945
			],
			"min":[
				-2.623500108718872,
				-0.17489999532699585,
				-3.0607500076293945
			],
			"type":"VEC3"
		},
		{
			"bufferView":12,
			"componentType":5126,
			"count":24,
			"type":"VEC3"
		},
		{
			"bufferView":13,
			"componentType":5126,
			"count":24,
			"type":"VEC4"
		},
		{
			"bufferView":14,
			"componentType":5123,
			"count":36,
			"type":"SCALAR"
		},
		{
			"bufferView":15,
			"componentType":5126,
			"count":53,
			"max":[
				2.6823132038116455,
				2.669769287109375,
				4.537317276000977
			],
			"min":[
				-2.682310104370117,
				2.2708675861358643,
				3.060746431350708
			],
			"type":"VEC3"
		},
		{
			"bufferView":16,
			"componentType":5126,
			"count":53,
			"type":"VEC3"
		},
		{
			"bufferView":17,
			"componentType":5126,
			"count":53,
			"type":"VEC4"
		},
		{
			"bufferView":18,
			"componentType":5123,
			"count":84,
			"type":"SCALAR"
		},
		{
			"bufferView":19,
			"componentType":5126,
			"count":24,
			"max":[
				0.1457500457763672,
				0.029150009155273438,
				0.029150009155273438
			],
			"min":[
				-0.1457500457763672,
				-0.029150009155273438,
				-1.0785503387451172
			],
			"type":"VEC3"
		},
		{
			"bufferView":20,
			"componentType":5126,
			"count":24,
			"type":"VEC3"
		},
		{
			"bufferView":21,
			"componentType":5126,
			"count":24,
			"type":"VEC4"
		},
		{
			"bufferView":22,
			"componentType":5123,
			"count":36,
			"type":"SCALAR"
		},
		{
			"bufferView":23,
			"componentType":5126,
			"count":24,
			"max":[
				0.019999995827674866,
				2.549999952316284,
				0.019999995827674866
			],
			"min":[
				-0.019999995827674866,
				0,
				-0.019999999552965164
			],
			"type":"VEC3"
		},
		{
			"bufferView":24,
			"componentType":5126,
			"count":24,
			"type":"VEC3"
		},
		{
			"bufferView":25,
			"componentType":5126,
			"count":24,
			"type":"VEC4"
		},
		{
			"bufferView":26,
			"componentType":5126,
			"count":58,
			"max":[
				0.11500000208616257,
				0.27000004053115845,
				0.17500001192092896
			],
			"min":[
				-0.11500000953674316,
				-0.16499999165534973,
				-0.17499999701976776
			],
			"type":"VEC3"
		},
		{
			"bufferView":27,
			"componentType":5126,
			"count":58,
			"type":"VEC3"
		},
		{
			"bufferView":28,
			"componentType":5126,
			"count":58,
			"type":"VEC4"
		},
		{
			"bufferView":29,
			"componentType":5123,
			"count":108,
			"type":"SCALAR"
		},
		{
			"bufferView":30,
			"componentType":5126,
			"count":46,
			"max":[
				3.7776029109954834,
				0.08745002746582031,
				1.7339491844177246
			],
			"min":[
				-3.7137367725372314,
				0,
				-1.905092716217041
			],
			"type":"VEC3"
		},
		{
			"bufferView":31,
			"componentType":5126,
			"count":46,
			"type":"VEC3"
		},
		{
			"bufferView":32,
			"componentType":5123,
			"count":159,
			"type":"SCALAR"
		},
		{
			"bufferView":33,
			"componentType":5126,
			"count":146,
			"max":[
				0.2149999588727951,
				4.300000190734863,
				0.1499999612569809
			],
			"min":[
				-0.22499996423721313,
				0,
				-0.1499999612569809
			],
			"type":"VEC3"
		},
		{
			"bufferView":34,
			"componentType":5126,
			"count":146,
			"type":"VEC3"
		},
		{
			"bufferView":35,
			"componentType":5126,
			"count":146,
			"type":"VEC4"
		},
		{
			"bufferView":36,
			"componentType":5123,
			"count":276,
			"type":"SCALAR"
		},
		{
			"bufferView":37,
			"componentType":5126,
			"count":1012,
			"max":[
				148.93310546875,
				48.504005432128906,
				13.586873054504395
			],
			"min":[
				-266.9580078125,
				-23.65021514892578,
				-378.2850646972656
			],
			"type":"VEC3"
		},
		{
			"bufferView":38,
			"componentType":5126,
			"count":1012,
			"type":"VEC3"
		},
		{
			"bufferView":39,
			"componentType":5123,
			"count":6021,
			"type":"SCALAR"
		},
		{
			"bufferView":40,
			"componentType":5126,
			"count":763,
			"max":[
				300.1820983886719,
				19.343000411987305,
				250.1658477783203
			],
			"min":[
				-265.4222106933594,
				-13.44615650177002,
				-75.75390625
			],
			"type":"VEC3"
		},
		{
			"bufferView":41,
			"componentType":5126,
			"count":763,
			"type":"VEC3"
		},
		{
			"bufferView":42,
			"componentType":5123,
			"count":4530,
			"type":"SCALAR"
		},
		{
			"bufferView":43,
			"componentType":5126,
			"count":1471,
			"max":[
				326.8301086425781,
				32.976470947265625,
				386.1648254394531
			],
			"min":[
				-123.90621185302734,
				-0.89300537109375,
				-359.8038024902344
			],
			"type":"VEC3"
		},
		{
			"bufferView":44,
			"componentType":5126,
			"count":1471,
			"type":"VEC3"
		},
		{
			"bufferView":45,
			"componentType":5123,
			"count":8778,
			"type":"SCALAR"
		}
	],
	"bufferViews":[
		{
			"buffer":0,
			"byteLength":47280,
			"byteOffset":0,
			"target":34962
		},
		{
			"buffer":0,
			"byteLength":47280,
			"byteOffset":47280,
			"target":34962
		},
		{
			"buffer":0,
			"byteLength":47184,
			"byteOffset":94560,
			"target":34963
		},
		{
			"buffer":0,
			"byteLength":528,
			"byteOffset":141744,
			"target":34962
		},
		{
			"buffer":0,
			"byteLength":528,
			"byteOffset":142272,
			"target":34962
		},
		{
			"buffer":0,
			"byteLength":704,
			"byteOffset":142800,
			"target":34962
		},
		{
			"buffer":0,
			"byteLength":288,
			"byteOffset":143504,
			"target":34963
		},
		{
			"buffer":0,
			"byteLength":816,
			"byteOffset":143792,
			"target":34962
		},
		{
			"buffer":0,
			"byteLength":816,
			"byteOffset":144608,
			"target":34962
		},
		{
			"buffer":0,
			"byteLength":1088,
			"byteOffset":145424,
			"target":34962
		},
		{
			"buffer":0,
			"byteLength":648,
			"byteOffset":146512,
			"target":34963
		},
		{
			"buffer":0,
			"byteLength":288,
			"byteOffset":147160,
			"target":34962
		},
		{
			"buffer":0,
			"byteLength":288,
			"byteOffset":147448,
			"target":34962
		},
		{
			"buffer":0,
			"byteLength":384,
			"byteOffset":147736,
			"target":34962
		},
		{
			"buffer":0,
			"byteLength":72,
			"byteOffset":148120,
			"target":34963
		},
		{
			"buffer":0,
			"byteLength":636,
			"byteOffset":148192,
			"target":34962
		},
		{
			"buffer":0,
			"byteLength":636,
			"byteOffset":148828,
			"target":34962
		},
		{
			"buffer":0,
			"byteLength":848,
			"byteOffset":149464,
			"target":34962
		},
		{
			"buffer":0,
			"byteLength":168,
			"byteOffset":150312,
			"target":34963
		},
		{
			"buffer":0,
			"byteLength":288,
			"byteOffset":150480,
			"target":34962
		},
		{
			"buffer":0,
			"byteLength":288,
			"byteOffset":150768,
			"target":34962
		},
		{
			"buffer":0,
			"byteLength":384,
			"byteOffset":151056,
			"target":34962
		},
		{
			"buffer":0,
			"byteLength":72,
			"byteOffset":151440,
			"target":34963
		},
		{
			"buffer":0,
			"byteLength":288,
			"byteOffset":151512,
			"target":34962
		},
		{
			"buffer":0,
			"byteLength":288,
			"byteOffset":151800,
			"target":34962
		},
		{
			"buffer":0,
			"byteLength":384,
			"byteOffset":152088,
			"target":34962
		},
		{
			"buffer":0,
			"byteLength":696,
			"byteOffset":152472,
			"target":34962
		},
		{
			"buffer":0,
			"byteLength":696,
			"byteOffset":153168,
			"target":34962
		},
		{
			"buffer":0,
			"byteLength":928,
			"byteOffset":153864,
			"target":34962
		},
		{
			"buffer":0,
			"byteLength":216,
			"byteOffset":154792,
			"target":34963
		},
		{
			"buffer":0,
			"byteLength":552,
			"byteOffset":155008,
			"target":34962
		},
		{
			"buffer":0,
			"byteLength":552,
			"byteOffset":155560,
			"target":34962
		},
		{
			"buffer":0,
			"byteLength":318,
			"byteOffset":156112,
			"target":34963
		},
		{
			"buffer":0,
			"byteLength":1752,
			"byteOffset":156432,
			"target":34962
		},
		{
			"buffer":0,
			"byteLength":1752,
			"byteOffset":158184,
			"target":34962
		},
		{
			"buffer":0,
			"byteLength":2336,
			"byteOffset":159936,
			"target":34962
		},
		{
			"buffer":0,
			"byteLength":552,
			"byteOffset":162272,
			"target":34963
		},
		{
			"buffer":0,
			"byteLength":12144,
			"byteOffset":162824,
			"target":34962
		},
		{
			"buffer":0,
			"byteLength":12144,
			"byteOffset":174968,
			"target":34962
		},
		{
			"buffer":0,
			"byteLength":12042,
			"byteOffset":187112,
			"target":34963
		},
		{
			"buffer":0,
			"byteLength":9156,
			"byteOffset":199156,
			"target":34962
		},
		{
			"buffer":0,
			"byteLength":9156,
			"byteOffset":208312,
			"target":34962
		},
		{
			"buffer":0,
			"byteLength":9060,
			"byteOffset":217468,
			"target":34963
		},
		{
			"buffer":0,
			"byteLength":17652,
			"byteOffset":226528,
			"target":34962
		},
		{
			"buffer":0,
			"byteLength":17652,
			"byteOffset":244180,
			"target":34962
		},
		{
			"buffer":0,
			"byteLength":17556,
			"byteOffset":261832,
			"target":34963
		}
	],
	"buffers":[
		{
			"byteLength":279388,
			"uri":"road_asteroid_road_collider.bin"
		}
	]
}
