{
	"asset":{
		"copyright":"@serufu_yua",
		"generator":"Khronos glTF Blender I/O v3.6.28",
		"version":"2.0"
	},
	"scene":0,
	"scenes":[
		{
			"name":"Scene",
			"nodes":[
				0,
				1,
				2,
				3,
				4,
				5,
				6,
				7,
				8
			]
		}
	],
	"nodes":[
		{
			"mesh":0,
			"name":"motor-road.collider"
		},
		{
			"mesh":1,
			"name":"Island.collider.001",
			"translation":[
				0,
				14,
				-240
			]
		},
		{
			"mesh":2,
			"name":"power_pylon.collider.001",
			"translation":[
				5.1625823974609375,
				-0.056742310523986816,
				-8.827972412109375
			]
		},
		{
			"mesh":2,
			"name":"power_pylon.collider.002",
			"translation":[
				33.37255859375,
				0.7192916870117188,
				-9.853485107421875
			]
		},
		{
			"mesh":2,
			"name":"power_pylon.collider.003",
			"translation":[
				62.849853515625,
				0.3077545166015625,
				-10.564483642578125
			]
		},
		{
			"mesh":2,
			"name":"power_pylon.collider.004",
			"translation":[
				-23.59320068359375,
				-0.28658103942871094,
				-9.888824462890625
			]
		},
		{
			"mesh":2,
			"name":"power_pylon.collider.005",
			"translation":[
				-53.5404052734375,
				-0.5036849975585938,
				-11.56207275390625
			]
		},
		{
			"mesh":3,
			"name":"Island.collider.002",
			"translation":[
				-155.1215057373047,
				0,
				0
			]
		},
		{
			"mesh":4,
			"name":"tunnel.collider",
			"rotation":[
				0,
				-0.13052619993686676,
				0,
				0.9914448857307434
			],
			"translation":[
				20,
				-20,
				0
			]
		}
	],
	"meshes":[
		{
			"name":"Plane.002",
			"primitives":[
				{
					"attributes":{
						"POSITION":0,
						"NORMAL":1
					},
					"indices":2
				}
			]
		},
		{
			"name":"Plane.015",
			"primitives":[
				{
					"attributes":{
						"POSITION":3,
						"NORMAL":4
					},
					"indices":5
				}
			]
		},
		{
			"name":"Cube.001",
			"primitives":[
				{
					"attributes":{
						"POSITION":6,
						"NORMAL":7,
						"TANGENT":8
					},
					"indices":9
				}
			]
		},
		{
			"name":"Plane.013",
			"primitives":[
				{
					"attributes":{
						"POSITION":10,
						"NORMAL":11
					},
					"indices":12
				}
			]
		},
		{
			"name":"Cube.017",
			"primitives":[
				{
					"attributes":{
						"POSITION":13,
						"NORMAL":14
					},
					"indices":15
				}
			]
		}
	],
	"accessors":[
		{
			"bufferView":0,
			"componentType":5126,
			"count":1680,
			"max":[
				198.5535430908203,
				34.72294998168945,
				240.20079040527344
			],
			"min":[
				-263.71307373046875,
				-12.0025634765625,
				-106.8612289428711
			],
			"type":"VEC3"
		},
		{
			"bufferView":1,
			"componentType":5126,
			"count":1680,
			"type":"VEC3"
		},
		{
			"bufferView":2,
			"componentType":5123,
			"count":8445,
			"type":"SCALAR"
		},
		{
			"bufferView":3,
			"componentType":5126,
			"count":563,
			"max":[
				300.1820983886719,
				19.343000411987305,
				250.1658477783203
			],
			"min":[
				-265.4222106933594,
				-12.53626537322998,
				-75.75390625
			],
			"type":"VEC3"
		},
		{
			"bufferView":4,
			"componentType":5126,
			"count":563,
			"type":"VEC3"
		},
		{
			"bufferView":5,
			"componentType":5123,
			"count":2754,
			"type":"SCALAR"
		},
		{
			"bufferView":6,
			"componentType":5126,
			"count":68,
			"max":[
				0.10000002384185791,
				7.559999942779541,
				1
			],
			"min":[
				-0.24000002443790436,
				0,
				-1
			],
			"type":"VEC3"
		},
		{
			"bufferView":7,
			"componentType":5126,
			"count":68,
			"type":"VEC3"
		},
		{
			"bufferView":8,
			"componentType":5126,
			"count":68,
			"type":"VEC4"
		},
		{
			"bufferView":9,
			"componentType":5123,
			"count":324,
			"type":"SCALAR"
		},
		{
			"bufferView":10,
			"componentType":5126,
			"count":719,
			"max":[
				148.93310546875,
				48.504005432128906,
				13.586873054504395
			],
			"min":[
				-266.9580078125,
				-22.825593948364258,
				-378.2850646972656
			],
			"type":"VEC3"
		},
		{
			"bufferView":11,
			"componentType":5126,
			"count":719,
			"type":"VEC3"
		},
		{
			"bufferView":12,
			"componentType":5123,
			"count":3552,
			"type":"SCALAR"
		},
		{
			"bufferView":13,
			"componentType":5126,
			"count":1163,
			"max":[
				326.8301086425781,
				32.976470947265625,
				386.1648254394531
			],
			"min":[
				-123.90621185302734,
				-0.20633316040039062,
				-359.8038024902344
			],
			"type":"VEC3"
		},
		{
			"bufferView":14,
			"componentType":5126,
			"count":1163,
			"type":"VEC3"
		},
		{
			"bufferView":15,
			"componentType":5123,
			"count":5931,
			"type":"SCALAR"
		}
	],
	"bufferViews":[
		{
			"buffer":0,
			"byteLength":20160,
			"byteOffset":0,
			"target":34962
		},
		{
			"buffer":0,
			"byteLength":20160,
			"byteOffset":20160,
			"target":34962
		},
		{
			"buffer":0,
			"byteLength":16890,
			"byteOffset":40320,
			"target":34963
		},
		{
			"buffer":0,
			"byteLength":6756,
			"byteOffset":57212,
			"target":34962
		},
		{
			"buffer":0,
			"byteLength":6756,
			"byteOffset":63968,
			"target":34962
		},
		{
			"buffer":0,
			"byteLength":5508,
			"byteOffset":70724,
			"target":34963
		},
		{
			"buffer":0,
			"byteLength":816,
			"byteOffset":76232,
			"target":34962
		},
		{
			"buffer":0,
			"byteLength":816,
			"byteOffset":77048,
			"target":34962
		},
		{
			"buffer":0,
			"byteLength":1088,
			"byteOffset":77864,
			"target":34962
		},
		{
			"buffer":0,
			"byteLength":648,
			"byteOffset":78952,
			"target":34963
		},
		{
			"buffer":0,
			"byteLength":8628,
			"byteOffset":79600,
			"target":34962
		},
		{
			"buffer":0,
			"byteLength":8628,
			"byteOffset":88228,
			"target":34962
		},
		{
			"buffer":0,
			"byteLength":7104,
			"byteOffset":96856,
			"target":34963
		},
		{
			"buffer":0,
			"byteLength":13956,
			"byteOffset":103960,
			"target":34962
		},
		{
			"buffer":0,
			"byteLength":13956,
			"byteOffset":117916,
			"target":34962
		},
		{
			"buffer":0,
			"byteLength":11862,
			"byteOffset":131872,
			"target":34963
		}
	],
	"buffers":[
		{
			"byteLength":143736,
			"uri":"road_asteroid_road_walls_collider.bin"
		}
	]
}
