{
	"asset":{
		"copyright":"@serufu_yua",
		"generator":"Khronos glTF Blender I/O v3.6.28",
		"version":"2.0"
	},
	"scene":0,
	"scenes":[
		{
			"name":"Scene",
			"nodes":[
				0,
				1,
				2,
				3,
				4,
				14
			]
		}
	],
	"nodes":[
		{
			"mesh":0,
			"name":"motor-road.ground.collider"
		},
		{
			"mesh":1,
			"name":"access_way.collider",
			"translation":[
				0,
				-0.058300018310546875,
				-12.82598876953125
			]
		},
		{
			"mesh":2,
			"name":"Island.collider.ground.001",
			"translation":[
				0,
				14,
				-240
			]
		},
		{
			"mesh":3,
			"name":"Island.collider.ground.002",
			"translation":[
				-155.1215057373047,
				0,
				0
			]
		},
		{
			"mesh":4,
			"name":"tunnel.collider.ground",
			"rotation":[
				0,
				-0.13052619993686676,
				0,
				0.9914448857307434
			],
			"translation":[
				20,
				-20,
				0
			]
		},
		{
			"mesh":5,
			"name":"container_box.collider"
		},
		{
			"mesh":6,
			"name":"hovel.collider"
		},
		{
			"mesh":7,
			"name":"wood_plank.003",
			"rotation":[
				0.05495018884539604,
				0,
				0,
				0.9984892010688782
			],
			"translation":[
				-0.5247001647949219,
				-0.058300018310546875,
				4.08099365234375
			]
		},
		{
			"mesh":7,
			"name":"wood_plank.004",
			"rotation":[
				0,
				0.7372773289680481,
				0,
				0.6755902171134949
			],
			"translation":[
				2.27740478515625,
				-0.058300018310546875,
				3.2434463500976562
			]
		},
		{
			"mesh":8,
			"name":"tube.stay.collider.001",
			"translation":[
				-2.4486007690429688,
				-0.17490005493164062,
				4.4716033935546875
			]
		},
		{
			"mesh":8,
			"name":"tube.stay.collider.002",
			"translation":[
				2.4486007690429688,
				-0.17490005493164062,
				4.4716033935546875
			]
		},
		{
			"mesh":9,
			"name":"lighter.collider",
			"translation":[
				0,
				2,
				4.215087890625
			]
		},
		{
			"mesh":10,
			"name":"concrete_ramp.collider",
			"translation":[
				0,
				-0.17490005493164062,
				4.08099365234375
			]
		},
		{
			"mesh":11,
			"name":"Cube",
			"translation":[
				-1.3117485046386719,
				2.6234970092773438,
				0
			]
		},
		{
			"children":[
				5,
				6,
				7,
				8,
				9,
				10,
				11,
				12,
				13
			],
			"name":"home.collider",
			"translation":[
				0,
				0.11660003662109375,
				-25.9434814453125
			]
		}
	],
	"meshes":[
		{
			"name":"Plane.016",
			"primitives":[
				{
					"attributes":{
						"POSITION":0,
						"NORMAL":1
					},
					"indices":2
				}
			]
		},
		{
			"name":"Plane.004",
			"primitives":[
				{
					"attributes":{
						"POSITION":3,
						"NORMAL":4,
						"TANGENT":5
					},
					"indices":6
				}
			]
		},
		{
			"name":"Plane.017",
			"primitives":[
				{
					"attributes":{
						"POSITION":7,
						"NORMAL":8
					},
					"indices":9
				}
			]
		},
		{
			"name":"Plane.018",
			"primitives":[
				{
					"attributes":{
						"POSITION":10,
						"NORMAL":11
					},
					"indices":12
				}
			]
		},
		{
			"name":"Cube.016",
			"primitives":[
				{
					"attributes":{
						"POSITION":13,
						"NORMAL":14
					},
					"indices":15
				}
			]
		},
		{
			"name":"Cube.016",
			"primitives":[
				{
					"attributes":{
						"POSITION":16,
						"NORMAL":17,
						"TANGENT":18
					},
					"indices":19
				}
			]
		},
		{
			"name":"Cube.019",
			"primitives":[
				{
					"attributes":{
						"POSITION":20,
						"NORMAL":21,
						"TANGENT":22
					},
					"indices":23
				}
			]
		},
		{
			"name":"Cube.020",
			"primitives":[
				{
					"attributes":{
						"POSITION":24,
						"NORMAL":25,
						"TANGENT":26
					},
					"indices":27
				}
			]
		},
		{
			"name":"Cube.022",
			"primitives":[
				{
					"attributes":{
						"POSITION":28,
						"NORMAL":29,
						"TANGENT":30
					},
					"indices":19
				}
			]
		},
		{
			"name":"Cube.023",
			"primitives":[
				{
					"attributes":{
						"POSITION":31,
						"NORMAL":32,
						"TANGENT":33
					},
					"indices":34
				}
			]
		},
		{
			"name":"Plane.004",
			"primitives":[
				{
					"attributes":{
						"POSITION":35,
						"NORMAL":36
					},
					"indices":37
				}
			]
		},
		{
			"name":"Cube.024",
			"primitives":[
				{
					"attributes":{
						"POSITION":38,
						"NORMAL":39,
						"TANGENT":40
					},
					"indices":41
				}
			]
		}
	],
	"accessors":[
		{
			"bufferView":0,
			"componentType":5126,
			"count":2799,
			"max":[
				198.5535430908203,
				17.77081298828125,
				240.20079040527344
			],
			"min":[
				-263.71307373046875,
				-12.0025634765625,
				-106.8612289428711
			],
			"type":"VEC3"
		},
		{
			"bufferView":1,
			"componentType":5126,
			"count":2799,
			"type":"VEC3"
		},
		{
			"bufferView":2,
			"componentType":5123,
			"count":15147,
			"type":"SCALAR"
		},
		{
			"bufferView":3,
			"componentType":5126,
			"count":44,
			"max":[
				2.061882972717285,
				0.058300018310546875,
				8.366052627563477
			],
			"min":[
				-2.061882972717285,
				-1.7791753634810448e-06,
				-7.783052444458008
			],
			"type":"VEC3"
		},
		{
			"bufferView":4,
			"componentType":5126,
			"count":44,
			"type":"VEC3"
		},
		{
			"bufferView":5,
			"componentType":5126,
			"count":44,
			"type":"VEC4"
		},
		{
			"bufferView":6,
			"componentType":5123,
			"count":144,
			"type":"SCALAR"
		},
		{
			"bufferView":7,
			"componentType":5126,
			"count":395,
			"max":[
				299.63525390625,
				2.496471405029297,
				249.9951934814453
			],
			"min":[
				-265.4222106933594,
				-13.44615650177002,
				-75.75390625
			],
			"type":"VEC3"
		},
		{
			"bufferView":8,
			"componentType":5126,
			"count":395,
			"type":"VEC3"
		},
		{
			"bufferView":9,
			"componentType":5123,
			"count":1758,
			"type":"SCALAR"
		},
		{
			"bufferView":10,
			"componentType":5126,
			"count":537,
			"max":[
				148.93310546875,
				37.78713607788086,
				13.586873054504395
			],
			"min":[
				-266.9580078125,
				-23.65021514892578,
				-378.2850646972656
			],
			"type":"VEC3"
		},
		{
			"bufferView":11,
			"componentType":5126,
			"count":537,
			"type":"VEC3"
		},
		{
			"bufferView":12,
			"componentType":5123,
			"count":2469,
			"type":"SCALAR"
		},
		{
			"bufferView":13,
			"componentType":5126,
			"count":647,
			"max":[
				326.2588195800781,
				22.083003997802734,
				385.7695617675781
			],
			"min":[
				-123.00699615478516,
				-0.89300537109375,
				-359.8038024902344
			],
			"type":"VEC3"
		},
		{
			"bufferView":14,
			"componentType":5126,
			"count":647,
			"type":"VEC3"
		},
		{
			"bufferView":15,
			"componentType":5123,
			"count":2847,
			"type":"SCALAR"
		},
		{
			"bufferView":16,
			"componentType":5126,
			"count":24,
			"max":[
				2.623500108718872,
				2.6526501178741455,
				3.0607500076293945
			],
			"min":[
				-2.623500108718872,
				-0.17489999532699585,
				-3.0607500076293945
			],
			"type":"VEC3"
		},
		{
			"bufferView":17,
			"componentType":5126,
			"count":24,
			"type":"VEC3"
		},
		{
			"bufferView":18,
			"componentType":5126,
			"count":24,
			"type":"VEC4"
		},
		{
			"bufferView":19,
			"componentType":5123,
			"count":36,
			"type":"SCALAR"
		},
		{
			"bufferView":20,
			"componentType":5126,
			"count":53,
			"max":[
				2.6823132038116455,
				2.669769287109375,
				4.537317276000977
			],
			"min":[
				-2.682310104370117,
				2.2708675861358643,
				3.060746431350708
			],
			"type":"VEC3"
		},
		{
			"bufferView":21,
			"componentType":5126,
			"count":53,
			"type":"VEC3"
		},
		{
			"bufferView":22,
			"componentType":5126,
			"count":53,
			"type":"VEC4"
		},
		{
			"bufferView":23,
			"componentType":5123,
			"count":84,
			"type":"SCALAR"
		},
		{
			"bufferView":24,
			"componentType":5126,
			"count":24,
			"max":[
				0.1457500457763672,
				0.029150009155273438,
				0.029150009155273438
			],
			"min":[
				-0.1457500457763672,
				-0.029150009155273438,
				-1.0785503387451172
			],
			"type":"VEC3"
		},
		{
			"bufferView":25,
			"componentType":5126,
			"count":24,
			"type":"VEC3"
		},
		{
			"bufferView":26,
			"componentType":5126,
			"count":24,
			"type":"VEC4"
		},
		{
			"bufferView":27,
			"componentType":5123,
			"count":36,
			"type":"SCALAR"
		},
		{
			"bufferView":28,
			"componentType":5126,
			"count":24,
			"max":[
				0.019999995827674866,
				2.549999952316284,
				0.019999995827674866
			],
			"min":[
				-0.019999995827674866,
				0,
				-0.019999999552965164
			],
			"type":"VEC3"
		},
		{
			"bufferView":29,
			"componentType":5126,
			"count":24,
			"type":"VEC3"
		},
		{
			"bufferView":30,
			"componentType":5126,
			"count":24,
			"type":"VEC4"
		},
		{
			"bufferView":31,
			"componentType":5126,
			"count":58,
			"max":[
				0.11500000208616257,
				0.27000004053115845,
				0.17500001192092896
			],
			"min":[
				-0.11500000953674316,
				-0.16499999165534973,
				-0.17499999701976776
			],
			"type":"VEC3"
		},
		{
			"bufferView":32,
			"componentType":5126,
			"count":58,
			"type":"VEC3"
		},
		{
			"bufferView":33,
			"componentType":5126,
			"count":58,
			"type":"VEC4"
		},
		{
			"bufferView":34,
			"componentType":5123,
			"count":108,
			"type":"SCALAR"
		},
		{
			"bufferView":35,
			"componentType":5126,
			"count":46,
			"max":[
				3.7776029109954834,
				0.08745002746582031,
				1.7339491844177246
			],
			"min":[
				-3.7137367725372314,
				0,
				-1.905092716217041
			],
			"type":"VEC3"
		},
		{
			"bufferView":36,
			"componentType":5126,
			"count":46,
			"type":"VEC3"
		},
		{
			"bufferView":37,
			"componentType":5123,
			"count":159,
			"type":"SCALAR"
		},
		{
			"bufferView":38,
			"componentType":5126,
			"count":146,
			"max":[
				0.2149999588727951,
				4.300000190734863,
				0.1499999612569809
			],
			"min":[
				-0.22499996423721313,
				0,
				-0.1499999612569809
			],
			"type":"VEC3"
		},
		{
			"bufferView":39,
			"componentType":5126,
			"count":146,
			"type":"VEC3"
		},
		{
			"bufferView":40,
			"componentType":5126,
			"count":146,
			"type":"VEC4"
		},
		{
			"bufferView":41,
			"componentType":5123,
			"count":276,
			"type":"SCALAR"
		}
	],
	"bufferViews":[
		{
			"buffer":0,
			"byteLength":33588,
			"byteOffset":0,
			"target":34962
		},
		{
			"buffer":0,
			"byteLength":33588,
			"byteOffset":33588,
			"target":34962
		},
		{
			"buffer":0,
			"byteLength":30294,
			"byteOffset":67176,
			"target":34963
		},
		{
			"buffer":0,
			"byteLength":528,
			"byteOffset":97472,
			"target":34962
		},
		{
			"buffer":0,
			"byteLength":528,
			"byteOffset":98000,
			"target":34962
		},
		{
			"buffer":0,
			"byteLength":704,
			"byteOffset":98528,
			"target":34962
		},
		{
			"buffer":0,
			"byteLength":288,
			"byteOffset":99232,
			"target":34963
		},
		{
			"buffer":0,
			"byteLength":4740,
			"byteOffset":99520,
			"target":34962
		},
		{
			"buffer":0,
			"byteLength":4740,
			"byteOffset":104260,
			"target":34962
		},
		{
			"buffer":0,
			"byteLength":3516,
			"byteOffset":109000,
			"target":34963
		},
		{
			"buffer":0,
			"byteLength":6444,
			"byteOffset":112516,
			"target":34962
		},
		{
			"buffer":0,
			"byteLength":6444,
			"byteOffset":118960,
			"target":34962
		},
		{
			"buffer":0,
			"byteLength":4938,
			"byteOffset":125404,
			"target":34963
		},
		{
			"buffer":0,
			"byteLength":7764,
			"byteOffset":130344,
			"target":34962
		},
		{
			"buffer":0,
			"byteLength":7764,
			"byteOffset":138108,
			"target":34962
		},
		{
			"buffer":0,
			"byteLength":5694,
			"byteOffset":145872,
			"target":34963
		},
		{
			"buffer":0,
			"byteLength":288,
			"byteOffset":151568,
			"target":34962
		},
		{
			"buffer":0,
			"byteLength":288,
			"byteOffset":151856,
			"target":34962
		},
		{
			"buffer":0,
			"byteLength":384,
			"byteOffset":152144,
			"target":34962
		},
		{
			"buffer":0,
			"byteLength":72,
			"byteOffset":152528,
			"target":34963
		},
		{
			"buffer":0,
			"byteLength":636,
			"byteOffset":152600,
			"target":34962
		},
		{
			"buffer":0,
			"byteLength":636,
			"byteOffset":153236,
			"target":34962
		},
		{
			"buffer":0,
			"byteLength":848,
			"byteOffset":153872,
			"target":34962
		},
		{
			"buffer":0,
			"byteLength":168,
			"byteOffset":154720,
			"target":34963
		},
		{
			"buffer":0,
			"byteLength":288,
			"byteOffset":154888,
			"target":34962
		},
		{
			"buffer":0,
			"byteLength":288,
			"byteOffset":155176,
			"target":34962
		},
		{
			"buffer":0,
			"byteLength":384,
			"byteOffset":155464,
			"target":34962
		},
		{
			"buffer":0,
			"byteLength":72,
			"byteOffset":155848,
			"target":34963
		},
		{
			"buffer":0,
			"byteLength":288,
			"byteOffset":155920,
			"target":34962
		},
		{
			"buffer":0,
			"byteLength":288,
			"byteOffset":156208,
			"target":34962
		},
		{
			"buffer":0,
			"byteLength":384,
			"byteOffset":156496,
			"target":34962
		},
		{
			"buffer":0,
			"byteLength":696,
			"byteOffset":156880,
			"target":34962
		},
		{
			"buffer":0,
			"byteLength":696,
			"byteOffset":157576,
			"target":34962
		},
		{
			"buffer":0,
			"byteLength":928,
			"byteOffset":158272,
			"target":34962
		},
		{
			"buffer":0,
			"byteLength":216,
			"byteOffset":159200,
			"target":34963
		},
		{
			"buffer":0,
			"byteLength":552,
			"byteOffset":159416,
			"target":34962
		},
		{
			"buffer":0,
			"byteLength":552,
			"byteOffset":159968,
			"target":34962
		},
		{
			"buffer":0,
			"byteLength":318,
			"byteOffset":160520,
			"target":34963
		},
		{
			"buffer":0,
			"byteLength":1752,
			"byteOffset":160840,
			"target":34962
		},
		{
			"buffer":0,
			"byteLength":1752,
			"byteOffset":162592,
			"target":34962
		},
		{
			"buffer":0,
			"byteLength":2336,
			"byteOffset":164344,
			"target":34962
		},
		{
			"buffer":0,
			"byteLength":552,
			"byteOffset":166680,
			"target":34963
		}
	],
	"buffers":[
		{
			"byteLength":167232,
			"uri":"road_asteroid_road_ground_collider.bin"
		}
	]
}
