{
	"asset":{
		"copyright":"@serufu_yua",
		"generator":"Khronos glTF Blender I/O v3.6.28",
		"version":"2.0"
	},
	"scene":0,
	"scenes":[
		{
			"name":"Scene",
			"nodes":[
				0,
				10,
				11,
				12,
				13,
				14,
				15,
				16,
				17,
				18,
				19,
				20,
				21,
				22,
				23,
				24,
				25,
				26,
				27,
				28,
				29,
				30,
				31,
				32
			]
		}
	],
	"nodes":[
		{
			"mesh":0,
			"name":"access_way.collider",
			"translation":[
				0,
				-0.058300018310546875,
				-12.82598876953125
			]
		},
		{
			"mesh":1,
			"name":"container_box.collider"
		},
		{
			"mesh":2,
			"name":"hovel.collider"
		},
		{
			"mesh":3,
			"name":"wood_plank.003",
			"rotation":[
				0.05495018884539604,
				0,
				0,
				0.9984892010688782
			],
			"translation":[
				-0.5247001647949219,
				-0.058300018310546875,
				4.08099365234375
			]
		},
		{
			"mesh":3,
			"name":"wood_plank.004",
			"rotation":[
				0,
				0.7372773289680481,
				0,
				0.6755902171134949
			],
			"translation":[
				2.27740478515625,
				-0.058300018310546875,
				3.2434463500976562
			]
		},
		{
			"mesh":4,
			"name":"tube.stay.collider.001",
			"translation":[
				-2.4486007690429688,
				-0.17490005493164062,
				4.4716033935546875
			]
		},
		{
			"mesh":4,
			"name":"tube.stay.collider.002",
			"translation":[
				2.4486007690429688,
				-0.17490005493164062,
				4.4716033935546875
			]
		},
		{
			"mesh":5,
			"name":"lighter.collider",
			"translation":[
				0,
				2,
				4.215087890625
			]
		},
		{
			"mesh":6,
			"name":"concrete_ramp.collider",
			"translation":[
				0,
				-0.17490005493164062,
				4.08099365234375
			]
		},
		{
			"mesh":7,
			"name":"Cube",
			"translation":[
				-1.3117485046386719,
				2.6234970092773438,
				0
			]
		},
		{
			"children":[
				1,
				2,
				3,
				4,
				5,
				6,
				7,
				8,
				9
			],
			"name":"home.collider",
			"translation":[
				0,
				0.11660003662109375,
				-25.9434814453125
			]
		},
		{
			"mesh":8,
			"name":"ghots_road.collider.ground.001",
			"translation":[
				0,
				14,
				-240
			]
		},
		{
			"mesh":9,
			"name":"ghots_road.collider.ground.004",
			"rotation":[
				0,
				-0.13052619993686676,
				0,
				0.9914448857307434
			],
			"translation":[
				20,
				-20,
				0
			]
		},
		{
			"mesh":10,
			"name":"ghots_road.collider.ground.005",
			"translation":[
				-155.1215057373047,
				0,
				0
			]
		},
		{
			"mesh":11,
			"name":"Island.collider.ground.002",
			"translation":[
				-155.1215057373047,
				0,
				0
			]
		},
		{
			"mesh":12,
			"name":"asteroid.ground.collider"
		},
		{
			"mesh":13,
			"name":"ghots_road.collider.ground.003",
			"translation":[
				0,
				14,
				-240
			]
		},
		{
			"mesh":14,
			"name":"Island.collider.ground.001",
			"translation":[
				0,
				14,
				-240
			]
		},
		{
			"mesh":15,
			"name":"tunnel.collider.ground",
			"rotation":[
				0,
				-0.13052619993686676,
				0,
				0.9914448857307434
			],
			"translation":[
				20,
				-20,
				0
			]
		},
		{
			"mesh":16,
			"name":"ghots_road.collider.ground.002",
			"rotation":[
				0,
				-0.13052619993686676,
				0,
				0.9914448857307434
			],
			"translation":[
				20,
				-20,
				0
			]
		},
		{
			"mesh":17,
			"name":"lake_island.collider.ground",
			"translation":[
				110,
				0,
				400
			]
		},
		{
			"mesh":18,
			"name":"BushA.collider.001",
			"rotation":[
				0.0037409435026347637,
				-0.994286298751831,
				-0.015426103956997395,
				0.10555949062108994
			],
			"translation":[
				136.65879821777344,
				-0.2318868637084961,
				354.9798583984375
			]
		},
		{
			"mesh":18,
			"name":"BushB.collider.001",
			"rotation":[
				-0.0040910206735134125,
				-0.7073426246643066,
				-0.013684730045497417,
				0.706726610660553
			],
			"translation":[
				156.58016967773438,
				-0.02691817283630371,
				351.95068359375
			]
		},
		{
			"mesh":18,
			"name":"BushA.collider.002",
			"rotation":[
				0.021777529269456863,
				0.7103382349014282,
				-0.008579726330935955,
				0.7034712433815002
			],
			"translation":[
				60.044891357421875,
				1.0285873413085938,
				373.15570068359375
			]
		},
		{
			"mesh":18,
			"name":"BushA.collider.003",
			"rotation":[
				-0.08882662653923035,
				-0.6260216236114502,
				0.017616113647818565,
				0.7745298147201538
			],
			"translation":[
				69.45394897460938,
				-0.3095855712890625,
				455.31719970703125
			]
		},
		{
			"mesh":18,
			"name":"BushA.collider.004",
			"rotation":[
				-0.0003657517663668841,
				0.3827551603317261,
				0.0762237012386322,
				0.9206998944282532
			],
			"translation":[
				156.82398986816406,
				-0.43610382080078125,
				442.71575927734375
			]
		},
		{
			"mesh":18,
			"name":"BushA.collider.005",
			"rotation":[
				-0.09302777796983719,
				0.975848913192749,
				0.01822960004210472,
				0.1968056708574295
			],
			"translation":[
				144.89462280273438,
				-1.1634702682495117,
				417.3448486328125
			]
		},
		{
			"mesh":18,
			"name":"BushA.collider.006",
			"rotation":[
				0.03806956484913826,
				-0.6060256361961365,
				0.03629905357956886,
				0.7937039732933044
			],
			"translation":[
				141.03018188476562,
				-1.7799034118652344,
				398.52667236328125
			]
		},
		{
			"mesh":18,
			"name":"BushB.collider.002",
			"rotation":[
				-0.01726922206580639,
				0.674745500087738,
				0.015896545723080635,
				0.7376772165298462
			],
			"translation":[
				164.048828125,
				-0.22375059127807617,
				375.676025390625
			]
		},
		{
			"mesh":18,
			"name":"BushB.collider.003",
			"rotation":[
				-0.04336882382631302,
				-0.9004374742507935,
				0.02882649563252926,
				0.4318571984767914
			],
			"translation":[
				55.004302978515625,
				-1.0994482040405273,
				442.043701171875
			]
		},
		{
			"mesh":18,
			"name":"BushB.collider.004",
			"rotation":[
				-0.01613003946840763,
				0.4317246973514557,
				0.02349657379090786,
				0.9015551209449768
			],
			"translation":[
				160.18438720703125,
				-0.29630374908447266,
				452.96490478515625
			]
		},
		{
			"mesh":18,
			"name":"BushB.collider.005",
			"rotation":[
				-0.0373714305460453,
				-0.986805260181427,
				0.04487527906894684,
				0.15101340413093567
			],
			"translation":[
				57.3565673828125,
				0.06274795532226562,
				452.6288757324219
			]
		},
		{
			"mesh":18,
			"name":"BushB.collider.006",
			"rotation":[
				0.02363417111337185,
				0.5901439785957336,
				0.014563020318746567,
				0.8068205714225769
			],
			"translation":[
				46.7713623046875,
				-0.11037349700927734,
				396.51043701171875
			]
		}
	],
	"meshes":[
		{
			"name":"Plane.004",
			"primitives":[
				{
					"attributes":{
						"POSITION":0,
						"NORMAL":1,
						"TANGENT":2
					},
					"indices":3
				}
			]
		},
		{
			"name":"Cube.016",
			"primitives":[
				{
					"attributes":{
						"POSITION":4,
						"NORMAL":5,
						"TANGENT":6
					},
					"indices":7
				}
			]
		},
		{
			"name":"Cube.019",
			"primitives":[
				{
					"attributes":{
						"POSITION":8,
						"NORMAL":9,
						"TANGENT":10
					},
					"indices":11
				}
			]
		},
		{
			"name":"Cube.020",
			"primitives":[
				{
					"attributes":{
						"POSITION":12,
						"NORMAL":13,
						"TANGENT":14
					},
					"indices":15
				}
			]
		},
		{
			"name":"Cube.022",
			"primitives":[
				{
					"attributes":{
						"POSITION":16,
						"NORMAL":17,
						"TANGENT":18
					},
					"indices":7
				}
			]
		},
		{
			"name":"Cube.023",
			"primitives":[
				{
					"attributes":{
						"POSITION":19,
						"NORMAL":20,
						"TANGENT":21
					},
					"indices":22
				}
			]
		},
		{
			"name":"Plane.004",
			"primitives":[
				{
					"attributes":{
						"POSITION":23,
						"NORMAL":24
					},
					"indices":25
				}
			]
		},
		{
			"name":"Cube.024",
			"primitives":[
				{
					"attributes":{
						"POSITION":26,
						"NORMAL":27,
						"TANGENT":28
					},
					"indices":29
				}
			]
		},
		{
			"name":"Plane.033",
			"primitives":[
				{
					"attributes":{
						"POSITION":30,
						"NORMAL":31
					},
					"indices":32
				}
			]
		},
		{
			"name":"Cube.029",
			"primitives":[
				{
					"attributes":{
						"POSITION":33,
						"NORMAL":34
					},
					"indices":35
				}
			]
		},
		{
			"name":"Plane.035",
			"primitives":[
				{
					"attributes":{
						"POSITION":36,
						"NORMAL":37
					},
					"indices":38
				}
			]
		},
		{
			"name":"Plane.037",
			"primitives":[
				{
					"attributes":{
						"POSITION":39,
						"NORMAL":40,
						"TANGENT":41
					},
					"indices":42
				}
			]
		},
		{
			"name":"Plane.039",
			"primitives":[
				{
					"attributes":{
						"POSITION":43,
						"NORMAL":44
					},
					"indices":45
				}
			]
		},
		{
			"name":"Plane.030",
			"primitives":[
				{
					"attributes":{
						"POSITION":46,
						"NORMAL":47
					},
					"indices":48
				}
			]
		},
		{
			"name":"Plane.028",
			"primitives":[
				{
					"attributes":{
						"POSITION":49,
						"NORMAL":50
					},
					"indices":51
				}
			]
		},
		{
			"name":"Cube.025",
			"primitives":[
				{
					"attributes":{
						"POSITION":52,
						"NORMAL":53
					},
					"indices":54
				}
			]
		},
		{
			"name":"Cube.027",
			"primitives":[
				{
					"attributes":{
						"POSITION":55,
						"NORMAL":56
					},
					"indices":57
				}
			]
		},
		{
			"name":"Plane.019",
			"primitives":[
				{
					"attributes":{
						"POSITION":58,
						"NORMAL":59,
						"TANGENT":60
					},
					"indices":61
				}
			]
		},
		{
			"name":"Plane.015",
			"primitives":[
				{
					"attributes":{
						"POSITION":62,
						"NORMAL":63
					},
					"indices":64
				}
			]
		}
	],
	"accessors":[
		{
			"bufferView":0,
			"componentType":5126,
			"count":44,
			"max":[
				2.061882972717285,
				0.058300018310546875,
				8.366052627563477
			],
			"min":[
				-2.061882972717285,
				-1.7791753634810448e-06,
				-7.783052444458008
			],
			"type":"VEC3"
		},
		{
			"bufferView":1,
			"componentType":5126,
			"count":44,
			"type":"VEC3"
		},
		{
			"bufferView":2,
			"componentType":5126,
			"count":44,
			"type":"VEC4"
		},
		{
			"bufferView":3,
			"componentType":5123,
			"count":144,
			"type":"SCALAR"
		},
		{
			"bufferView":4,
			"componentType":5126,
			"count":24,
			"max":[
				2.623500108718872,
				2.6526501178741455,
				3.0607500076293945
			],
			"min":[
				-2.623500108718872,
				-0.17489999532699585,
				-3.0607500076293945
			],
			"type":"VEC3"
		},
		{
			"bufferView":5,
			"componentType":5126,
			"count":24,
			"type":"VEC3"
		},
		{
			"bufferView":6,
			"componentType":5126,
			"count":24,
			"type":"VEC4"
		},
		{
			"bufferView":7,
			"componentType":5123,
			"count":36,
			"type":"SCALAR"
		},
		{
			"bufferView":8,
			"componentType":5126,
			"count":53,
			"max":[
				2.6823132038116455,
				2.669769287109375,
				4.537317276000977
			],
			"min":[
				-2.682310104370117,
				2.2708675861358643,
				3.060746431350708
			],
			"type":"VEC3"
		},
		{
			"bufferView":9,
			"componentType":5126,
			"count":53,
			"type":"VEC3"
		},
		{
			"bufferView":10,
			"componentType":5126,
			"count":53,
			"type":"VEC4"
		},
		{
			"bufferView":11,
			"componentType":5123,
			"count":84,
			"type":"SCALAR"
		},
		{
			"bufferView":12,
			"componentType":5126,
			"count":24,
			"max":[
				0.1457500457763672,
				0.029150009155273438,
				0.029150009155273438
			],
			"min":[
				-0.1457500457763672,
				-0.029150009155273438,
				-1.0785503387451172
			],
			"type":"VEC3"
		},
		{
			"bufferView":13,
			"componentType":5126,
			"count":24,
			"type":"VEC3"
		},
		{
			"bufferView":14,
			"componentType":5126,
			"count":24,
			"type":"VEC4"
		},
		{
			"bufferView":15,
			"componentType":5123,
			"count":36,
			"type":"SCALAR"
		},
		{
			"bufferView":16,
			"componentType":5126,
			"count":24,
			"max":[
				0.019999995827674866,
				2.549999952316284,
				0.019999995827674866
			],
			"min":[
				-0.019999995827674866,
				0,
				-0.019999999552965164
			],
			"type":"VEC3"
		},
		{
			"bufferView":17,
			"componentType":5126,
			"count":24,
			"type":"VEC3"
		},
		{
			"bufferView":18,
			"componentType":5126,
			"count":24,
			"type":"VEC4"
		},
		{
			"bufferView":19,
			"componentType":5126,
			"count":58,
			"max":[
				0.11500000208616257,
				0.27000004053115845,
				0.17500001192092896
			],
			"min":[
				-0.11500000953674316,
				-0.16499999165534973,
				-0.17499999701976776
			],
			"type":"VEC3"
		},
		{
			"bufferView":20,
			"componentType":5126,
			"count":58,
			"type":"VEC3"
		},
		{
			"bufferView":21,
			"componentType":5126,
			"count":58,
			"type":"VEC4"
		},
		{
			"bufferView":22,
			"componentType":5123,
			"count":108,
			"type":"SCALAR"
		},
		{
			"bufferView":23,
			"componentType":5126,
			"count":46,
			"max":[
				3.7776029109954834,
				0.08745002746582031,
				1.7339491844177246
			],
			"min":[
				-3.7137367725372314,
				0,
				-1.905092716217041
			],
			"type":"VEC3"
		},
		{
			"bufferView":24,
			"componentType":5126,
			"count":46,
			"type":"VEC3"
		},
		{
			"bufferView":25,
			"componentType":5123,
			"count":159,
			"type":"SCALAR"
		},
		{
			"bufferView":26,
			"componentType":5126,
			"count":146,
			"max":[
				0.2149999588727951,
				4.300000190734863,
				0.1499999612569809
			],
			"min":[
				-0.22499996423721313,
				0,
				-0.1499999612569809
			],
			"type":"VEC3"
		},
		{
			"bufferView":27,
			"componentType":5126,
			"count":146,
			"type":"VEC3"
		},
		{
			"bufferView":28,
			"componentType":5126,
			"count":146,
			"type":"VEC4"
		},
		{
			"bufferView":29,
			"componentType":5123,
			"count":276,
			"type":"SCALAR"
		},
		{
			"bufferView":30,
			"componentType":5126,
			"count":508,
			"max":[
				198.61233520507812,
				3.0609130859375,
				480.2859191894531
			],
			"min":[
				-267.78326416015625,
				-15.023904800415039,
				-4.4860382080078125
			],
			"type":"VEC3"
		},
		{
			"bufferView":31,
			"componentType":5126,
			"count":508,
			"type":"VEC3"
		},
		{
			"bufferView":32,
			"componentType":5123,
			"count":2250,
			"type":"SCALAR"
		},
		{
			"bufferView":33,
			"componentType":5126,
			"count":1791,
			"max":[
				30.563140869140625,
				57.20781326293945,
				99.28730773925781
			],
			"min":[
				-473.597900390625,
				-3.704944610595703,
				-360.10638427734375
			],
			"type":"VEC3"
		},
		{
			"bufferView":34,
			"componentType":5126,
			"count":1791,
			"type":"VEC3"
		},
		{
			"bufferView":35,
			"componentType":5123,
			"count":2691,
			"type":"SCALAR"
		},
		{
			"bufferView":36,
			"componentType":5126,
			"count":54,
			"max":[
				75.92012023925781,
				2.2693066596984863,
				7.089937686920166
			],
			"min":[
				15.015121459960938,
				0.09782925993204117,
				-7.119385242462158
			],
			"type":"VEC3"
		},
		{
			"bufferView":37,
			"componentType":5126,
			"count":54,
			"type":"VEC3"
		},
		{
			"bufferView":38,
			"componentType":5123,
			"count":132,
			"type":"SCALAR"
		},
		{
			"bufferView":39,
			"componentType":5126,
			"count":122,
			"max":[
				15.075027465820312,
				2.2693066596984863,
				13.586873054504395
			],
			"min":[
				-18.2686824798584,
				-0.08577537536621094,
				-13.554789543151855
			],
			"type":"VEC3"
		},
		{
			"bufferView":40,
			"componentType":5126,
			"count":122,
			"type":"VEC3"
		},
		{
			"bufferView":41,
			"componentType":5126,
			"count":122,
			"type":"VEC4"
		},
		{
			"bufferView":42,
			"componentType":5123,
			"count":468,
			"type":"SCALAR"
		},
		{
			"bufferView":43,
			"componentType":5126,
			"count":2763,
			"max":[
				79.49861145019531,
				17.77081298828125,
				77.5784912109375
			],
			"min":[
				-80.16252136230469,
				-12.0025634765625,
				-106.8612289428711
			],
			"type":"VEC3"
		},
		{
			"bufferView":44,
			"componentType":5126,
			"count":2763,
			"type":"VEC3"
		},
		{
			"bufferView":45,
			"componentType":5123,
			"count":14820,
			"type":"SCALAR"
		},
		{
			"bufferView":46,
			"componentType":5126,
			"count":351,
			"max":[
				336.80633544921875,
				0.6094642281532288,
				634.47265625
			],
			"min":[
				13.26388931274414,
				-18.485084533691406,
				-5.69891357421875
			],
			"type":"VEC3"
		},
		{
			"bufferView":47,
			"componentType":5126,
			"count":351,
			"type":"VEC3"
		},
		{
			"bufferView":48,
			"componentType":5123,
			"count":1557,
			"type":"SCALAR"
		},
		{
			"bufferView":49,
			"componentType":5126,
			"count":81,
			"max":[
				17.769384384155273,
				0.6094642281532288,
				18.298891067504883
			],
			"min":[
				-18.355045318603516,
				-1.337289810180664,
				-75.75390625
			],
			"type":"VEC3"
		},
		{
			"bufferView":50,
			"componentType":5126,
			"count":81,
			"type":"VEC3"
		},
		{
			"bufferView":51,
			"componentType":5123,
			"count":318,
			"type":"SCALAR"
		},
		{
			"bufferView":52,
			"componentType":5126,
			"count":100,
			"max":[
				7.1185150146484375,
				1.660247802734375,
				74.69277954101562
			],
			"min":[
				-7.046706676483154,
				-0.6490192413330078,
				-73.48297119140625
			],
			"type":"VEC3"
		},
		{
			"bufferView":53,
			"componentType":5126,
			"count":100,
			"type":"VEC3"
		},
		{
			"bufferView":54,
			"componentType":5123,
			"count":378,
			"type":"SCALAR"
		},
		{
			"bufferView":55,
			"componentType":5126,
			"count":567,
			"max":[
				117.75114440917969,
				21.839370727539062,
				389.7618408203125
			],
			"min":[
				-60.930267333984375,
				-1.1170635223388672,
				73.62118530273438
			],
			"type":"VEC3"
		},
		{
			"bufferView":56,
			"componentType":5126,
			"count":567,
			"type":"VEC3"
		},
		{
			"bufferView":57,
			"componentType":5123,
			"count":855,
			"type":"SCALAR"
		},
		{
			"bufferView":58,
			"componentType":5126,
			"count":549,
			"max":[
				75.0488052368164,
				1.8434853553771973,
				78.21707153320312
			],
			"min":[
				-75.4759750366211,
				-3.3379435539245605,
				-75.00000762939453
			],
			"type":"VEC3"
		},
		{
			"bufferView":59,
			"componentType":5126,
			"count":549,
			"type":"VEC3"
		},
		{
			"bufferView":60,
			"componentType":5126,
			"count":549,
			"type":"VEC4"
		},
		{
			"bufferView":61,
			"componentType":5123,
			"count":2472,
			"type":"SCALAR"
		},
		{
			"bufferView":62,
			"componentType":5126,
			"count":55,
			"max":[
				1.1133451461791992,
				1.5002241134643555,
				0.8975045680999756
			],
			"min":[
				-1.1133780479431152,
				-0.12524032592773438,
				-1.1046717166900635
			],
			"type":"VEC3"
		},
		{
			"bufferView":63,
			"componentType":5126,
			"count":55,
			"type":"VEC3"
		},
		{
			"bufferView":64,
			"componentType":5123,
			"count":120,
			"type":"SCALAR"
		}
	],
	"bufferViews":[
		{
			"buffer":0,
			"byteLength":528,
			"byteOffset":0,
			"target":34962
		},
		{
			"buffer":0,
			"byteLength":528,
			"byteOffset":528,
			"target":34962
		},
		{
			"buffer":0,
			"byteLength":704,
			"byteOffset":1056,
			"target":34962
		},
		{
			"buffer":0,
			"byteLength":288,
			"byteOffset":1760,
			"target":34963
		},
		{
			"buffer":0,
			"byteLength":288,
			"byteOffset":2048,
			"target":34962
		},
		{
			"buffer":0,
			"byteLength":288,
			"byteOffset":2336,
			"target":34962
		},
		{
			"buffer":0,
			"byteLength":384,
			"byteOffset":2624,
			"target":34962
		},
		{
			"buffer":0,
			"byteLength":72,
			"byteOffset":3008,
			"target":34963
		},
		{
			"buffer":0,
			"byteLength":636,
			"byteOffset":3080,
			"target":34962
		},
		{
			"buffer":0,
			"byteLength":636,
			"byteOffset":3716,
			"target":34962
		},
		{
			"buffer":0,
			"byteLength":848,
			"byteOffset":4352,
			"target":34962
		},
		{
			"buffer":0,
			"byteLength":168,
			"byteOffset":5200,
			"target":34963
		},
		{
			"buffer":0,
			"byteLength":288,
			"byteOffset":5368,
			"target":34962
		},
		{
			"buffer":0,
			"byteLength":288,
			"byteOffset":5656,
			"target":34962
		},
		{
			"buffer":0,
			"byteLength":384,
			"byteOffset":5944,
			"target":34962
		},
		{
			"buffer":0,
			"byteLength":72,
			"byteOffset":6328,
			"target":34963
		},
		{
			"buffer":0,
			"byteLength":288,
			"byteOffset":6400,
			"target":34962
		},
		{
			"buffer":0,
			"byteLength":288,
			"byteOffset":6688,
			"target":34962
		},
		{
			"buffer":0,
			"byteLength":384,
			"byteOffset":6976,
			"target":34962
		},
		{
			"buffer":0,
			"byteLength":696,
			"byteOffset":7360,
			"target":34962
		},
		{
			"buffer":0,
			"byteLength":696,
			"byteOffset":8056,
			"target":34962
		},
		{
			"buffer":0,
			"byteLength":928,
			"byteOffset":8752,
			"target":34962
		},
		{
			"buffer":0,
			"byteLength":216,
			"byteOffset":9680,
			"target":34963
		},
		{
			"buffer":0,
			"byteLength":552,
			"byteOffset":9896,
			"target":34962
		},
		{
			"buffer":0,
			"byteLength":552,
			"byteOffset":10448,
			"target":34962
		},
		{
			"buffer":0,
			"byteLength":318,
			"byteOffset":11000,
			"target":34963
		},
		{
			"buffer":0,
			"byteLength":1752,
			"byteOffset":11320,
			"target":34962
		},
		{
			"buffer":0,
			"byteLength":1752,
			"byteOffset":13072,
			"target":34962
		},
		{
			"buffer":0,
			"byteLength":2336,
			"byteOffset":14824,
			"target":34962
		},
		{
			"buffer":0,
			"byteLength":552,
			"byteOffset":17160,
			"target":34963
		},
		{
			"buffer":0,
			"byteLength":6096,
			"byteOffset":17712,
			"target":34962
		},
		{
			"buffer":0,
			"byteLength":6096,
			"byteOffset":23808,
			"target":34962
		},
		{
			"buffer":0,
			"byteLength":4500,
			"byteOffset":29904,
			"target":34963
		},
		{
			"buffer":0,
			"byteLength":21492,
			"byteOffset":34404,
			"target":34962
		},
		{
			"buffer":0,
			"byteLength":21492,
			"byteOffset":55896,
			"target":34962
		},
		{
			"buffer":0,
			"byteLength":5382,
			"byteOffset":77388,
			"target":34963
		},
		{
			"buffer":0,
			"byteLength":648,
			"byteOffset":82772,
			"target":34962
		},
		{
			"buffer":0,
			"byteLength":648,
			"byteOffset":83420,
			"target":34962
		},
		{
			"buffer":0,
			"byteLength":264,
			"byteOffset":84068,
			"target":34963
		},
		{
			"buffer":0,
			"byteLength":1464,
			"byteOffset":84332,
			"target":34962
		},
		{
			"buffer":0,
			"byteLength":1464,
			"byteOffset":85796,
			"target":34962
		},
		{
			"buffer":0,
			"byteLength":1952,
			"byteOffset":87260,
			"target":34962
		},
		{
			"buffer":0,
			"byteLength":936,
			"byteOffset":89212,
			"target":34963
		},
		{
			"buffer":0,
			"byteLength":33156,
			"byteOffset":90148,
			"target":34962
		},
		{
			"buffer":0,
			"byteLength":33156,
			"byteOffset":123304,
			"target":34962
		},
		{
			"buffer":0,
			"byteLength":29640,
			"byteOffset":156460,
			"target":34963
		},
		{
			"buffer":0,
			"byteLength":4212,
			"byteOffset":186100,
			"target":34962
		},
		{
			"buffer":0,
			"byteLength":4212,
			"byteOffset":190312,
			"target":34962
		},
		{
			"buffer":0,
			"byteLength":3114,
			"byteOffset":194524,
			"target":34963
		},
		{
			"buffer":0,
			"byteLength":972,
			"byteOffset":197640,
			"target":34962
		},
		{
			"buffer":0,
			"byteLength":972,
			"byteOffset":198612,
			"target":34962
		},
		{
			"buffer":0,
			"byteLength":636,
			"byteOffset":199584,
			"target":34963
		},
		{
			"buffer":0,
			"byteLength":1200,
			"byteOffset":200220,
			"target":34962
		},
		{
			"buffer":0,
			"byteLength":1200,
			"byteOffset":201420,
			"target":34962
		},
		{
			"buffer":0,
			"byteLength":756,
			"byteOffset":202620,
			"target":34963
		},
		{
			"buffer":0,
			"byteLength":6804,
			"byteOffset":203376,
			"target":34962
		},
		{
			"buffer":0,
			"byteLength":6804,
			"byteOffset":210180,
			"target":34962
		},
		{
			"buffer":0,
			"byteLength":1710,
			"byteOffset":216984,
			"target":34963
		},
		{
			"buffer":0,
			"byteLength":6588,
			"byteOffset":218696,
			"target":34962
		},
		{
			"buffer":0,
			"byteLength":6588,
			"byteOffset":225284,
			"target":34962
		},
		{
			"buffer":0,
			"byteLength":8784,
			"byteOffset":231872,
			"target":34962
		},
		{
			"buffer":0,
			"byteLength":4944,
			"byteOffset":240656,
			"target":34963
		},
		{
			"buffer":0,
			"byteLength":660,
			"byteOffset":245600,
			"target":34962
		},
		{
			"buffer":0,
			"byteLength":660,
			"byteOffset":246260,
			"target":34962
		},
		{
			"buffer":0,
			"byteLength":240,
			"byteOffset":246920,
			"target":34963
		}
	],
	"buffers":[
		{
			"byteLength":247160,
			"uri":"road_asteroid_road_ground_collider.bin"
		}
	]
}
