{
	"asset":{
		"copyright":"@serufu_yua",
		"generator":"Khronos glTF Blender I/O v3.6.28",
		"version":"2.0"
	},
	"scene":0,
	"scenes":[
		{
			"name":"Scene",
			"nodes":[
				0,
				10,
				11,
				12,
				13,
				14,
				15,
				16,
				17,
				18,
				19,
				20,
				21,
				22,
				23,
				24,
				25,
				26,
				27,
				28,
				29,
				30,
				31,
				32
			]
		}
	],
	"nodes":[
		{
			"mesh":0,
			"name":"access_way.collider",
			"translation":[
				0,
				-0.058300018310546875,
				-12.82598876953125
			]
		},
		{
			"mesh":1,
			"name":"container_box.collider"
		},
		{
			"mesh":2,
			"name":"hovel.collider"
		},
		{
			"mesh":3,
			"name":"wood_plank.003",
			"rotation":[
				0.05495018884539604,
				0,
				0,
				0.9984892010688782
			],
			"translation":[
				-0.5247001647949219,
				-0.058300018310546875,
				4.08099365234375
			]
		},
		{
			"mesh":3,
			"name":"wood_plank.004",
			"rotation":[
				0,
				0.7372773289680481,
				0,
				0.6755902171134949
			],
			"translation":[
				2.27740478515625,
				-0.058300018310546875,
				3.2434463500976562
			]
		},
		{
			"mesh":4,
			"name":"tube.stay.collider.001",
			"translation":[
				-2.4486007690429688,
				-0.17490005493164062,
				4.4716033935546875
			]
		},
		{
			"mesh":4,
			"name":"tube.stay.collider.002",
			"translation":[
				2.4486007690429688,
				-0.17490005493164062,
				4.4716033935546875
			]
		},
		{
			"mesh":5,
			"name":"lighter.collider",
			"translation":[
				0,
				2,
				4.215087890625
			]
		},
		{
			"mesh":6,
			"name":"concrete_ramp.collider",
			"translation":[
				0,
				-0.17490005493164062,
				4.08099365234375
			]
		},
		{
			"mesh":7,
			"name":"Cube",
			"translation":[
				-1.3117485046386719,
				2.6234970092773438,
				0
			]
		},
		{
			"children":[
				1,
				2,
				3,
				4,
				5,
				6,
				7,
				8,
				9
			],
			"name":"home.collider",
			"translation":[
				0,
				0.11660003662109375,
				-25.9434814453125
			]
		},
		{
			"mesh":8,
			"name":"ghots_road.collider.ground.001",
			"translation":[
				0,
				14,
				-240
			]
		},
		{
			"mesh":9,
			"name":"ghots_road.collider.ground.004",
			"rotation":[
				0,
				-0.13052619993686676,
				0,
				0.9914448857307434
			],
			"translation":[
				20,
				-20,
				0
			]
		},
		{
			"mesh":10,
			"name":"ghots_road.collider.ground.005",
			"translation":[
				-155.1215057373047,
				0,
				0
			]
		},
		{
			"mesh":11,
			"name":"Island.collider.ground.002",
			"translation":[
				-155.1215057373047,
				0,
				0
			]
		},
		{
			"mesh":12,
			"name":"asteroid.ground.collider"
		},
		{
			"mesh":13,
			"name":"ghots_road.collider.ground.003",
			"translation":[
				0,
				14,
				-240
			]
		},
		{
			"mesh":14,
			"name":"Island.collider.ground.001",
			"translation":[
				0,
				14,
				-240
			]
		},
		{
			"mesh":15,
			"name":"tunnel.collider.ground",
			"rotation":[
				0,
				-0.13052619993686676,
				0,
				0.9914448857307434
			],
			"translation":[
				20,
				-20,
				0
			]
		},
		{
			"mesh":16,
			"name":"ghots_road.collider.ground.002",
			"rotation":[
				0,
				-0.13052619993686676,
				0,
				0.9914448857307434
			],
			"translation":[
				20,
				-20,
				0
			]
		},
		{
			"mesh":17,
			"name":"lake_island.collider.ground",
			"translation":[
				110,
				0,
				400
			]
		},
		{
			"mesh":18,
			"name":"BushA.collider.001",
			"rotation":[
				0.0037409435026347637,
				-0.994286298751831,
				-0.015426103956997395,
				0.10555949062108994
			],
			"translation":[
				136.65879821777344,
				-0.2318868637084961,
				354.9798583984375
			]
		},
		{
			"mesh":18,
			"name":"BushB.collider.001",
			"rotation":[
				-0.0040910206735134125,
				-0.7073426246643066,
				-0.013684730045497417,
				0.706726610660553
			],
			"translation":[
				156.58016967773438,
				-0.02691817283630371,
				351.95068359375
			]
		},
		{
			"mesh":18,
			"name":"BushA.collider.002",
			"rotation":[
				0.021777529269456863,
				0.7103382349014282,
				-0.008579726330935955,
				0.7034712433815002
			],
			"translation":[
				60.044891357421875,
				1.0285873413085938,
				373.15570068359375
			]
		},
		{
			"mesh":18,
			"name":"BushA.collider.003",
			"rotation":[
				-0.08882662653923035,
				-0.6260216236114502,
				0.017616113647818565,
				0.7745298147201538
			],
			"translation":[
				69.45394897460938,
				-0.3095855712890625,
				455.31719970703125
			]
		},
		{
			"mesh":18,
			"name":"BushA.collider.004",
			"rotation":[
				-0.0003657517663668841,
				0.3827551603317261,
				0.0762237012386322,
				0.9206998944282532
			],
			"translation":[
				156.82398986816406,
				-0.43610382080078125,
				442.71575927734375
			]
		},
		{
			"mesh":18,
			"name":"BushA.collider.005",
			"rotation":[
				-0.09302777796983719,
				0.975848913192749,
				0.01822960004210472,
				0.1968056708574295
			],
			"translation":[
				144.89462280273438,
				-1.1634702682495117,
				417.3448486328125
			]
		},
		{
			"mesh":18,
			"name":"BushA.collider.006",
			"rotation":[
				0.03806956484913826,
				-0.6060256361961365,
				0.03629905357956886,
				0.7937039732933044
			],
			"translation":[
				141.03018188476562,
				-1.7799034118652344,
				398.52667236328125
			]
		},
		{
			"mesh":18,
			"name":"BushB.collider.002",
			"rotation":[
				-0.01726922206580639,
				0.674745500087738,
				0.015896545723080635,
				0.7376772165298462
			],
			"translation":[
				164.048828125,
				-0.22375059127807617,
				375.676025390625
			]
		},
		{
			"mesh":18,
			"name":"BushB.collider.003",
			"rotation":[
				-0.04336882382631302,
				-0.9004374742507935,
				0.02882649563252926,
				0.4318571984767914
			],
			"translation":[
				55.004302978515625,
				-1.0994482040405273,
				442.043701171875
			]
		},
		{
			"mesh":18,
			"name":"BushB.collider.004",
			"rotation":[
				-0.01613003946840763,
				0.4317246973514557,
				0.02349657379090786,
				0.9015551209449768
			],
			"translation":[
				160.18438720703125,
				-0.29630374908447266,
				452.96490478515625
			]
		},
		{
			"mesh":18,
			"name":"BushB.collider.005",
			"rotation":[
				-0.0373714305460453,
				-0.986805260181427,
				0.04487527906894684,
				0.15101340413093567
			],
			"translation":[
				57.3565673828125,
				0.06274795532226562,
				452.6288757324219
			]
		},
		{
			"mesh":18,
			"name":"BushB.collider.006",
			"rotation":[
				0.02363417111337185,
				0.5901439785957336,
				0.014563020318746567,
				0.8068205714225769
			],
			"translation":[
				46.7713623046875,
				-0.11037349700927734,
				396.51043701171875
			]
		}
	],
	"meshes":[
		{
			"name":"Plane.004",
			"primitives":[
				{
					"attributes":{
						"POSITION":0,
						"NORMAL":1
					},
					"indices":2
				}
			]
		},
		{
			"name":"Cube.016",
			"primitives":[
				{
					"attributes":{
						"POSITION":3,
						"NORMAL":4
					},
					"indices":5
				}
			]
		},
		{
			"name":"Cube.019",
			"primitives":[
				{
					"attributes":{
						"POSITION":6,
						"NORMAL":7
					},
					"indices":8
				}
			]
		},
		{
			"name":"Cube.020",
			"primitives":[
				{
					"attributes":{
						"POSITION":9,
						"NORMAL":10
					},
					"indices":11
				}
			]
		},
		{
			"name":"Cube.022",
			"primitives":[
				{
					"attributes":{
						"POSITION":12,
						"NORMAL":13
					},
					"indices":5
				}
			]
		},
		{
			"name":"Cube.023",
			"primitives":[
				{
					"attributes":{
						"POSITION":14,
						"NORMAL":15
					},
					"indices":16
				}
			]
		},
		{
			"name":"Plane.004",
			"primitives":[
				{
					"attributes":{
						"POSITION":17,
						"NORMAL":18
					},
					"indices":19
				}
			]
		},
		{
			"name":"Cube.024",
			"primitives":[
				{
					"attributes":{
						"POSITION":20,
						"NORMAL":21
					},
					"indices":22
				}
			]
		},
		{
			"name":"Plane.033",
			"primitives":[
				{
					"attributes":{
						"POSITION":23,
						"NORMAL":24
					},
					"indices":25
				}
			]
		},
		{
			"name":"Cube.029",
			"primitives":[
				{
					"attributes":{
						"POSITION":26,
						"NORMAL":27
					},
					"indices":28
				}
			]
		},
		{
			"name":"Plane.035",
			"primitives":[
				{
					"attributes":{
						"POSITION":29,
						"NORMAL":30
					},
					"indices":31
				}
			]
		},
		{
			"name":"Plane.037",
			"primitives":[
				{
					"attributes":{
						"POSITION":32,
						"NORMAL":33
					},
					"indices":34
				}
			]
		},
		{
			"name":"Plane.039",
			"primitives":[
				{
					"attributes":{
						"POSITION":35,
						"NORMAL":36
					},
					"indices":37
				}
			]
		},
		{
			"name":"Plane.030",
			"primitives":[
				{
					"attributes":{
						"POSITION":38,
						"NORMAL":39
					},
					"indices":40
				}
			]
		},
		{
			"name":"Plane.028",
			"primitives":[
				{
					"attributes":{
						"POSITION":41,
						"NORMAL":42
					},
					"indices":43
				}
			]
		},
		{
			"name":"Cube.025",
			"primitives":[
				{
					"attributes":{
						"POSITION":44,
						"NORMAL":45
					},
					"indices":46
				}
			]
		},
		{
			"name":"Cube.027",
			"primitives":[
				{
					"attributes":{
						"POSITION":47,
						"NORMAL":48
					},
					"indices":49
				}
			]
		},
		{
			"name":"Plane.025",
			"primitives":[
				{
					"attributes":{
						"POSITION":50,
						"NORMAL":51
					},
					"indices":52
				}
			]
		},
		{
			"name":"Plane.015",
			"primitives":[
				{
					"attributes":{
						"POSITION":53,
						"NORMAL":54
					},
					"indices":55
				}
			]
		}
	],
	"accessors":[
		{
			"bufferView":0,
			"componentType":5126,
			"count":36,
			"max":[
				2.061882972717285,
				0.058300018310546875,
				8.366052627563477
			],
			"min":[
				-2.061882972717285,
				-1.7791753634810448e-06,
				-7.783052444458008
			],
			"type":"VEC3"
		},
		{
			"bufferView":1,
			"componentType":5126,
			"count":36,
			"type":"VEC3"
		},
		{
			"bufferView":2,
			"componentType":5123,
			"count":144,
			"type":"SCALAR"
		},
		{
			"bufferView":3,
			"componentType":5126,
			"count":24,
			"max":[
				2.623500108718872,
				2.6526501178741455,
				3.0607500076293945
			],
			"min":[
				-2.623500108718872,
				-0.17489999532699585,
				-3.0607500076293945
			],
			"type":"VEC3"
		},
		{
			"bufferView":4,
			"componentType":5126,
			"count":24,
			"type":"VEC3"
		},
		{
			"bufferView":5,
			"componentType":5123,
			"count":36,
			"type":"SCALAR"
		},
		{
			"bufferView":6,
			"componentType":5126,
			"count":48,
			"max":[
				2.6823132038116455,
				2.669769287109375,
				4.537317276000977
			],
			"min":[
				-2.682310104370117,
				2.2708675861358643,
				3.060746431350708
			],
			"type":"VEC3"
		},
		{
			"bufferView":7,
			"componentType":5126,
			"count":48,
			"type":"VEC3"
		},
		{
			"bufferView":8,
			"componentType":5123,
			"count":84,
			"type":"SCALAR"
		},
		{
			"bufferView":9,
			"componentType":5126,
			"count":24,
			"max":[
				0.1457500457763672,
				0.029150009155273438,
				0.029150009155273438
			],
			"min":[
				-0.1457500457763672,
				-0.029150009155273438,
				-1.0785503387451172
			],
			"type":"VEC3"
		},
		{
			"bufferView":10,
			"componentType":5126,
			"count":24,
			"type":"VEC3"
		},
		{
			"bufferView":11,
			"componentType":5123,
			"count":36,
			"type":"SCALAR"
		},
		{
			"bufferView":12,
			"componentType":5126,
			"count":24,
			"max":[
				0.019999995827674866,
				2.549999952316284,
				0.019999995827674866
			],
			"min":[
				-0.019999995827674866,
				0,
				-0.019999999552965164
			],
			"type":"VEC3"
		},
		{
			"bufferView":13,
			"componentType":5126,
			"count":24,
			"type":"VEC3"
		},
		{
			"bufferView":14,
			"componentType":5126,
			"count":56,
			"max":[
				0.11500000208616257,
				0.27000004053115845,
				0.17500001192092896
			],
			"min":[
				-0.11500000953674316,
				-0.16499999165534973,
				-0.17499999701976776
			],
			"type":"VEC3"
		},
		{
			"bufferView":15,
			"componentType":5126,
			"count":56,
			"type":"VEC3"
		},
		{
			"bufferView":16,
			"componentType":5123,
			"count":108,
			"type":"SCALAR"
		},
		{
			"bufferView":17,
			"componentType":5126,
			"count":46,
			"max":[
				3.7776029109954834,
				0.08745002746582031,
				1.7339491844177246
			],
			"min":[
				-3.7137367725372314,
				0,
				-1.905092716217041
			],
			"type":"VEC3"
		},
		{
			"bufferView":18,
			"componentType":5126,
			"count":46,
			"type":"VEC3"
		},
		{
			"bufferView":19,
			"componentType":5123,
			"count":159,
			"type":"SCALAR"
		},
		{
			"bufferView":20,
			"componentType":5126,
			"count":136,
			"max":[
				0.2149999588727951,
				4.300000190734863,
				0.1499999612569809
			],
			"min":[
				-0.22499996423721313,
				0,
				-0.1499999612569809
			],
			"type":"VEC3"
		},
		{
			"bufferView":21,
			"componentType":5126,
			"count":136,
			"type":"VEC3"
		},
		{
			"bufferView":22,
			"componentType":5123,
			"count":276,
			"type":"SCALAR"
		},
		{
			"bufferView":23,
			"componentType":5126,
			"count":508,
			"max":[
				198.61233520507812,
				3.0609130859375,
				480.2859191894531
			],
			"min":[
				-267.78326416015625,
				-15.023904800415039,
				-4.4860382080078125
			],
			"type":"VEC3"
		},
		{
			"bufferView":24,
			"componentType":5126,
			"count":508,
			"type":"VEC3"
		},
		{
			"bufferView":25,
			"componentType":5123,
			"count":2250,
			"type":"SCALAR"
		},
		{
			"bufferView":26,
			"componentType":5126,
			"count":1791,
			"max":[
				30.563140869140625,
				57.20781326293945,
				99.28730773925781
			],
			"min":[
				-473.597900390625,
				-3.704944610595703,
				-360.10638427734375
			],
			"type":"VEC3"
		},
		{
			"bufferView":27,
			"componentType":5126,
			"count":1791,
			"type":"VEC3"
		},
		{
			"bufferView":28,
			"componentType":5123,
			"count":2691,
			"type":"SCALAR"
		},
		{
			"bufferView":29,
			"componentType":5126,
			"count":54,
			"max":[
				75.92012023925781,
				2.2693066596984863,
				7.089937686920166
			],
			"min":[
				15.015121459960938,
				0.09782925993204117,
				-7.119385242462158
			],
			"type":"VEC3"
		},
		{
			"bufferView":30,
			"componentType":5126,
			"count":54,
			"type":"VEC3"
		},
		{
			"bufferView":31,
			"componentType":5123,
			"count":132,
			"type":"SCALAR"
		},
		{
			"bufferView":32,
			"componentType":5126,
			"count":100,
			"max":[
				15.075027465820312,
				2.2693066596984863,
				13.586873054504395
			],
			"min":[
				-18.2686824798584,
				-0.08577537536621094,
				-13.554789543151855
			],
			"type":"VEC3"
		},
		{
			"bufferView":33,
			"componentType":5126,
			"count":100,
			"type":"VEC3"
		},
		{
			"bufferView":34,
			"componentType":5123,
			"count":468,
			"type":"SCALAR"
		},
		{
			"bufferView":35,
			"componentType":5126,
			"count":2763,
			"max":[
				79.49861145019531,
				17.77081298828125,
				77.5784912109375
			],
			"min":[
				-80.16252136230469,
				-12.0025634765625,
				-106.8612289428711
			],
			"type":"VEC3"
		},
		{
			"bufferView":36,
			"componentType":5126,
			"count":2763,
			"type":"VEC3"
		},
		{
			"bufferView":37,
			"componentType":5123,
			"count":14820,
			"type":"SCALAR"
		},
		{
			"bufferView":38,
			"componentType":5126,
			"count":351,
			"max":[
				336.80633544921875,
				0.6094642281532288,
				634.47265625
			],
			"min":[
				13.26388931274414,
				-18.485084533691406,
				-5.69891357421875
			],
			"type":"VEC3"
		},
		{
			"bufferView":39,
			"componentType":5126,
			"count":351,
			"type":"VEC3"
		},
		{
			"bufferView":40,
			"componentType":5123,
			"count":1557,
			"type":"SCALAR"
		},
		{
			"bufferView":41,
			"componentType":5126,
			"count":81,
			"max":[
				17.769384384155273,
				0.6094642281532288,
				18.298891067504883
			],
			"min":[
				-18.355045318603516,
				-1.337289810180664,
				-75.75390625
			],
			"type":"VEC3"
		},
		{
			"bufferView":42,
			"componentType":5126,
			"count":81,
			"type":"VEC3"
		},
		{
			"bufferView":43,
			"componentType":5123,
			"count":318,
			"type":"SCALAR"
		},
		{
			"bufferView":44,
			"componentType":5126,
			"count":100,
			"max":[
				7.1185150146484375,
				1.660247802734375,
				74.69277954101562
			],
			"min":[
				-7.046706676483154,
				-0.6490192413330078,
				-73.48297119140625
			],
			"type":"VEC3"
		},
		{
			"bufferView":45,
			"componentType":5126,
			"count":100,
			"type":"VEC3"
		},
		{
			"bufferView":46,
			"componentType":5123,
			"count":378,
			"type":"SCALAR"
		},
		{
			"bufferView":47,
			"componentType":5126,
			"count":567,
			"max":[
				117.75114440917969,
				21.839370727539062,
				389.7618408203125
			],
			"min":[
				-60.930267333984375,
				-1.1170635223388672,
				73.62118530273438
			],
			"type":"VEC3"
		},
		{
			"bufferView":48,
			"componentType":5126,
			"count":567,
			"type":"VEC3"
		},
		{
			"bufferView":49,
			"componentType":5123,
			"count":855,
			"type":"SCALAR"
		},
		{
			"bufferView":50,
			"componentType":5126,
			"count":577,
			"max":[
				75.0488052368164,
				1.8434853553771973,
				78.21707153320312
			],
			"min":[
				-75.4759750366211,
				-3.3379435539245605,
				-75.00000762939453
			],
			"type":"VEC3"
		},
		{
			"bufferView":51,
			"componentType":5126,
			"count":577,
			"type":"VEC3"
		},
		{
			"bufferView":52,
			"componentType":5123,
			"count":3096,
			"type":"SCALAR"
		},
		{
			"bufferView":53,
			"componentType":5126,
			"count":55,
			"max":[
				1.1133451461791992,
				1.5002241134643555,
				0.8975045680999756
			],
			"min":[
				-1.1133780479431152,
				-0.12524032592773438,
				-1.1046717166900635
			],
			"type":"VEC3"
		},
		{
			"bufferView":54,
			"componentType":5126,
			"count":55,
			"type":"VEC3"
		},
		{
			"bufferView":55,
			"componentType":5123,
			"count":120,
			"type":"SCALAR"
		}
	],
	"bufferViews":[
		{
			"buffer":0,
			"byteLength":432,
			"byteOffset":0,
			"target":34962
		},
		{
			"buffer":0,
			"byteLength":432,
			"byteOffset":432,
			"target":34962
		},
		{
			"buffer":0,
			"byteLength":288,
			"byteOffset":864,
			"target":34963
		},
		{
			"buffer":0,
			"byteLength":288,
			"byteOffset":1152,
			"target":34962
		},
		{
			"buffer":0,
			"byteLength":288,
			"byteOffset":1440,
			"target":34962
		},
		{
			"buffer":0,
			"byteLength":72,
			"byteOffset":1728,
			"target":34963
		},
		{
			"buffer":0,
			"byteLength":576,
			"byteOffset":1800,
			"target":34962
		},
		{
			"buffer":0,
			"byteLength":576,
			"byteOffset":2376,
			"target":34962
		},
		{
			"buffer":0,
			"byteLength":168,
			"byteOffset":2952,
			"target":34963
		},
		{
			"buffer":0,
			"byteLength":288,
			"byteOffset":3120,
			"target":34962
		},
		{
			"buffer":0,
			"byteLength":288,
			"byteOffset":3408,
			"target":34962
		},
		{
			"buffer":0,
			"byteLength":72,
			"byteOffset":3696,
			"target":34963
		},
		{
			"buffer":0,
			"byteLength":288,
			"byteOffset":3768,
			"target":34962
		},
		{
			"buffer":0,
			"byteLength":288,
			"byteOffset":4056,
			"target":34962
		},
		{
			"buffer":0,
			"byteLength":672,
			"byteOffset":4344,
			"target":34962
		},
		{
			"buffer":0,
			"byteLength":672,
			"byteOffset":5016,
			"target":34962
		},
		{
			"buffer":0,
			"byteLength":216,
			"byteOffset":5688,
			"target":34963
		},
		{
			"buffer":0,
			"byteLength":552,
			"byteOffset":5904,
			"target":34962
		},
		{
			"buffer":0,
			"byteLength":552,
			"byteOffset":6456,
			"target":34962
		},
		{
			"buffer":0,
			"byteLength":318,
			"byteOffset":7008,
			"target":34963
		},
		{
			"buffer":0,
			"byteLength":1632,
			"byteOffset":7328,
			"target":34962
		},
		{
			"buffer":0,
			"byteLength":1632,
			"byteOffset":8960,
			"target":34962
		},
		{
			"buffer":0,
			"byteLength":552,
			"byteOffset":10592,
			"target":34963
		},
		{
			"buffer":0,
			"byteLength":6096,
			"byteOffset":11144,
			"target":34962
		},
		{
			"buffer":0,
			"byteLength":6096,
			"byteOffset":17240,
			"target":34962
		},
		{
			"buffer":0,
			"byteLength":4500,
			"byteOffset":23336,
			"target":34963
		},
		{
			"buffer":0,
			"byteLength":21492,
			"byteOffset":27836,
			"target":34962
		},
		{
			"buffer":0,
			"byteLength":21492,
			"byteOffset":49328,
			"target":34962
		},
		{
			"buffer":0,
			"byteLength":5382,
			"byteOffset":70820,
			"target":34963
		},
		{
			"buffer":0,
			"byteLength":648,
			"byteOffset":76204,
			"target":34962
		},
		{
			"buffer":0,
			"byteLength":648,
			"byteOffset":76852,
			"target":34962
		},
		{
			"buffer":0,
			"byteLength":264,
			"byteOffset":77500,
			"target":34963
		},
		{
			"buffer":0,
			"byteLength":1200,
			"byteOffset":77764,
			"target":34962
		},
		{
			"buffer":0,
			"byteLength":1200,
			"byteOffset":78964,
			"target":34962
		},
		{
			"buffer":0,
			"byteLength":936,
			"byteOffset":80164,
			"target":34963
		},
		{
			"buffer":0,
			"byteLength":33156,
			"byteOffset":81100,
			"target":34962
		},
		{
			"buffer":0,
			"byteLength":33156,
			"byteOffset":114256,
			"target":34962
		},
		{
			"buffer":0,
			"byteLength":29640,
			"byteOffset":147412,
			"target":34963
		},
		{
			"buffer":0,
			"byteLength":4212,
			"byteOffset":177052,
			"target":34962
		},
		{
			"buffer":0,
			"byteLength":4212,
			"byteOffset":181264,
			"target":34962
		},
		{
			"buffer":0,
			"byteLength":3114,
			"byteOffset":185476,
			"target":34963
		},
		{
			"buffer":0,
			"byteLength":972,
			"byteOffset":188592,
			"target":34962
		},
		{
			"buffer":0,
			"byteLength":972,
			"byteOffset":189564,
			"target":34962
		},
		{
			"buffer":0,
			"byteLength":636,
			"byteOffset":190536,
			"target":34963
		},
		{
			"buffer":0,
			"byteLength":1200,
			"byteOffset":191172,
			"target":34962
		},
		{
			"buffer":0,
			"byteLength":1200,
			"byteOffset":192372,
			"target":34962
		},
		{
			"buffer":0,
			"byteLength":756,
			"byteOffset":193572,
			"target":34963
		},
		{
			"buffer":0,
			"byteLength":6804,
			"byteOffset":194328,
			"target":34962
		},
		{
			"buffer":0,
			"byteLength":6804,
			"byteOffset":201132,
			"target":34962
		},
		{
			"buffer":0,
			"byteLength":1710,
			"byteOffset":207936,
			"target":34963
		},
		{
			"buffer":0,
			"byteLength":6924,
			"byteOffset":209648,
			"target":34962
		},
		{
			"buffer":0,
			"byteLength":6924,
			"byteOffset":216572,
			"target":34962
		},
		{
			"buffer":0,
			"byteLength":6192,
			"byteOffset":223496,
			"target":34963
		},
		{
			"buffer":0,
			"byteLength":660,
			"byteOffset":229688,
			"target":34962
		},
		{
			"buffer":0,
			"byteLength":660,
			"byteOffset":230348,
			"target":34962
		},
		{
			"buffer":0,
			"byteLength":240,
			"byteOffset":231008,
			"target":34963
		}
	],
	"buffers":[
		{
			"byteLength":231248,
			"uri":"road_asteroid_road_ground_collider.bin"
		}
	]
}
