{
	"asset":{
		"copyright":"@serufu_yua",
		"generator":"Khronos glTF Blender I/O v3.6.28",
		"version":"2.0"
	},
	"scene":0,
	"scenes":[
		{
			"name":"Scene",
			"nodes":[
				0,
				1,
				2,
				3,
				4
			]
		}
	],
	"nodes":[
		{
			"mesh":0,
			"name":"motor-road.ground.collider"
		},
		{
			"mesh":1,
			"name":"access_way.collider",
			"translation":[
				0,
				-0.058300018310546875,
				-12.82598876953125
			]
		},
		{
			"mesh":2,
			"name":"Island.collider.ground.001",
			"translation":[
				0,
				14,
				-240
			]
		},
		{
			"mesh":3,
			"name":"Island.collider.ground.002",
			"translation":[
				-155.1215057373047,
				0,
				0
			]
		},
		{
			"mesh":4,
			"name":"tunnel.collider.ground",
			"rotation":[
				0,
				-0.13052619993686676,
				0,
				0.9914448857307434
			],
			"translation":[
				20,
				-20,
				0
			]
		}
	],
	"meshes":[
		{
			"name":"Plane.016",
			"primitives":[
				{
					"attributes":{
						"POSITION":0,
						"NORMAL":1
					},
					"indices":2
				}
			]
		},
		{
			"name":"Plane.004",
			"primitives":[
				{
					"attributes":{
						"POSITION":3,
						"NORMAL":4,
						"TANGENT":5
					},
					"indices":6
				}
			]
		},
		{
			"name":"Plane.017",
			"primitives":[
				{
					"attributes":{
						"POSITION":7,
						"NORMAL":8
					},
					"indices":9
				}
			]
		},
		{
			"name":"Plane.018",
			"primitives":[
				{
					"attributes":{
						"POSITION":10,
						"NORMAL":11
					},
					"indices":12
				}
			]
		},
		{
			"name":"Cube.016",
			"primitives":[
				{
					"attributes":{
						"POSITION":13,
						"NORMAL":14
					},
					"indices":15
				}
			]
		}
	],
	"accessors":[
		{
			"bufferView":0,
			"componentType":5126,
			"count":2799,
			"max":[
				198.5535430908203,
				17.77081298828125,
				240.20079040527344
			],
			"min":[
				-263.71307373046875,
				-12.0025634765625,
				-106.8612289428711
			],
			"type":"VEC3"
		},
		{
			"bufferView":1,
			"componentType":5126,
			"count":2799,
			"type":"VEC3"
		},
		{
			"bufferView":2,
			"componentType":5123,
			"count":15147,
			"type":"SCALAR"
		},
		{
			"bufferView":3,
			"componentType":5126,
			"count":44,
			"max":[
				2.061882972717285,
				0.058300018310546875,
				8.366052627563477
			],
			"min":[
				-2.061882972717285,
				-1.7791753634810448e-06,
				-7.783052444458008
			],
			"type":"VEC3"
		},
		{
			"bufferView":4,
			"componentType":5126,
			"count":44,
			"type":"VEC3"
		},
		{
			"bufferView":5,
			"componentType":5126,
			"count":44,
			"type":"VEC4"
		},
		{
			"bufferView":6,
			"componentType":5123,
			"count":144,
			"type":"SCALAR"
		},
		{
			"bufferView":7,
			"componentType":5126,
			"count":395,
			"max":[
				299.63525390625,
				2.496471405029297,
				249.9951934814453
			],
			"min":[
				-265.4222106933594,
				-13.44615650177002,
				-75.75390625
			],
			"type":"VEC3"
		},
		{
			"bufferView":8,
			"componentType":5126,
			"count":395,
			"type":"VEC3"
		},
		{
			"bufferView":9,
			"componentType":5123,
			"count":1758,
			"type":"SCALAR"
		},
		{
			"bufferView":10,
			"componentType":5126,
			"count":537,
			"max":[
				148.93310546875,
				37.78713607788086,
				13.586873054504395
			],
			"min":[
				-266.9580078125,
				-23.65021514892578,
				-378.2850646972656
			],
			"type":"VEC3"
		},
		{
			"bufferView":11,
			"componentType":5126,
			"count":537,
			"type":"VEC3"
		},
		{
			"bufferView":12,
			"componentType":5123,
			"count":2469,
			"type":"SCALAR"
		},
		{
			"bufferView":13,
			"componentType":5126,
			"count":647,
			"max":[
				326.2588195800781,
				22.083003997802734,
				385.7695617675781
			],
			"min":[
				-123.00699615478516,
				-0.89300537109375,
				-359.8038024902344
			],
			"type":"VEC3"
		},
		{
			"bufferView":14,
			"componentType":5126,
			"count":647,
			"type":"VEC3"
		},
		{
			"bufferView":15,
			"componentType":5123,
			"count":2847,
			"type":"SCALAR"
		}
	],
	"bufferViews":[
		{
			"buffer":0,
			"byteLength":33588,
			"byteOffset":0,
			"target":34962
		},
		{
			"buffer":0,
			"byteLength":33588,
			"byteOffset":33588,
			"target":34962
		},
		{
			"buffer":0,
			"byteLength":30294,
			"byteOffset":67176,
			"target":34963
		},
		{
			"buffer":0,
			"byteLength":528,
			"byteOffset":97472,
			"target":34962
		},
		{
			"buffer":0,
			"byteLength":528,
			"byteOffset":98000,
			"target":34962
		},
		{
			"buffer":0,
			"byteLength":704,
			"byteOffset":98528,
			"target":34962
		},
		{
			"buffer":0,
			"byteLength":288,
			"byteOffset":99232,
			"target":34963
		},
		{
			"buffer":0,
			"byteLength":4740,
			"byteOffset":99520,
			"target":34962
		},
		{
			"buffer":0,
			"byteLength":4740,
			"byteOffset":104260,
			"target":34962
		},
		{
			"buffer":0,
			"byteLength":3516,
			"byteOffset":109000,
			"target":34963
		},
		{
			"buffer":0,
			"byteLength":6444,
			"byteOffset":112516,
			"target":34962
		},
		{
			"buffer":0,
			"byteLength":6444,
			"byteOffset":118960,
			"target":34962
		},
		{
			"buffer":0,
			"byteLength":4938,
			"byteOffset":125404,
			"target":34963
		},
		{
			"buffer":0,
			"byteLength":7764,
			"byteOffset":130344,
			"target":34962
		},
		{
			"buffer":0,
			"byteLength":7764,
			"byteOffset":138108,
			"target":34962
		},
		{
			"buffer":0,
			"byteLength":5694,
			"byteOffset":145872,
			"target":34963
		}
	],
	"buffers":[
		{
			"byteLength":151568,
			"uri":"road_asteroid_road_ground_collider.bin"
		}
	]
}
