{
	"asset":{
		"copyright":"@serufu_yua",
		"generator":"Khronos glTF Blender I/O v3.6.28",
		"version":"2.0"
	},
	"scene":0,
	"scenes":[
		{
			"name":"Scene",
			"nodes":[
				0,
				10,
				11,
				12,
				13,
				14,
				15,
				16,
				17,
				18
			]
		}
	],
	"nodes":[
		{
			"mesh":0,
			"name":"motor-road.collider"
		},
		{
			"mesh":1,
			"name":"container_box.collider"
		},
		{
			"mesh":2,
			"name":"hovel.collider"
		},
		{
			"mesh":3,
			"name":"wood_plank.003",
			"rotation":[
				0.05495018884539604,
				0,
				0,
				0.9984892010688782
			],
			"translation":[
				-0.5247001647949219,
				-0.058300018310546875,
				4.08099365234375
			]
		},
		{
			"mesh":3,
			"name":"wood_plank.004",
			"rotation":[
				0,
				0.7372773289680481,
				0,
				0.6755902171134949
			],
			"translation":[
				2.27740478515625,
				-0.058300018310546875,
				3.2434463500976562
			]
		},
		{
			"mesh":4,
			"name":"tube.stay.collider.001",
			"translation":[
				-2.4486007690429688,
				-0.17490005493164062,
				4.4716033935546875
			]
		},
		{
			"mesh":4,
			"name":"tube.stay.collider.002",
			"translation":[
				2.4486007690429688,
				-0.17490005493164062,
				4.4716033935546875
			]
		},
		{
			"mesh":5,
			"name":"lighter.collider",
			"translation":[
				0,
				2,
				4.215087890625
			]
		},
		{
			"mesh":6,
			"name":"concrete_ramp.collider",
			"translation":[
				0,
				-0.17490005493164062,
				4.08099365234375
			]
		},
		{
			"mesh":7,
			"name":"Cube",
			"translation":[
				-1.3117485046386719,
				2.6234970092773438,
				0
			]
		},
		{
			"children":[
				1,
				2,
				3,
				4,
				5,
				6,
				7,
				8,
				9
			],
			"name":"home.collider",
			"translation":[
				0,
				0.11660003662109375,
				-25.9434814453125
			]
		},
		{
			"mesh":8,
			"name":"Island.collider.001",
			"translation":[
				0,
				14,
				-240
			]
		},
		{
			"mesh":9,
			"name":"power_pylon.collider.001",
			"translation":[
				5.1625823974609375,
				-0.056742310523986816,
				-8.827972412109375
			]
		},
		{
			"mesh":9,
			"name":"power_pylon.collider.002",
			"translation":[
				33.37255859375,
				0.7192916870117188,
				-9.853485107421875
			]
		},
		{
			"mesh":9,
			"name":"power_pylon.collider.003",
			"translation":[
				62.849853515625,
				0.3077545166015625,
				-10.564483642578125
			]
		},
		{
			"mesh":9,
			"name":"power_pylon.collider.004",
			"translation":[
				-23.59320068359375,
				-0.28658103942871094,
				-9.888824462890625
			]
		},
		{
			"mesh":9,
			"name":"power_pylon.collider.005",
			"translation":[
				-53.5404052734375,
				-0.5036849975585938,
				-11.56207275390625
			]
		},
		{
			"mesh":10,
			"name":"Island.collider.002",
			"translation":[
				-155.1215057373047,
				0,
				0
			]
		},
		{
			"mesh":11,
			"name":"tunnel.collider",
			"rotation":[
				0,
				-0.13052619993686676,
				0,
				0.9914448857307434
			],
			"translation":[
				20,
				-20,
				0
			]
		}
	],
	"meshes":[
		{
			"name":"Plane.002",
			"primitives":[
				{
					"attributes":{
						"POSITION":0,
						"NORMAL":1
					},
					"indices":2
				}
			]
		},
		{
			"name":"Cube.016",
			"primitives":[
				{
					"attributes":{
						"POSITION":3,
						"NORMAL":4,
						"TANGENT":5
					},
					"indices":6
				}
			]
		},
		{
			"name":"Cube.019",
			"primitives":[
				{
					"attributes":{
						"POSITION":7,
						"NORMAL":8,
						"TANGENT":9
					},
					"indices":10
				}
			]
		},
		{
			"name":"Cube.020",
			"primitives":[
				{
					"attributes":{
						"POSITION":11,
						"NORMAL":12,
						"TANGENT":13
					},
					"indices":14
				}
			]
		},
		{
			"name":"Cube.022",
			"primitives":[
				{
					"attributes":{
						"POSITION":15,
						"NORMAL":16,
						"TANGENT":17
					},
					"indices":6
				}
			]
		},
		{
			"name":"Cube.023",
			"primitives":[
				{
					"attributes":{
						"POSITION":18,
						"NORMAL":19,
						"TANGENT":20
					},
					"indices":21
				}
			]
		},
		{
			"name":"Plane.004",
			"primitives":[
				{
					"attributes":{
						"POSITION":22,
						"NORMAL":23
					},
					"indices":24
				}
			]
		},
		{
			"name":"Cube.024",
			"primitives":[
				{
					"attributes":{
						"POSITION":25,
						"NORMAL":26,
						"TANGENT":27
					},
					"indices":28
				}
			]
		},
		{
			"name":"Plane.015",
			"primitives":[
				{
					"attributes":{
						"POSITION":29,
						"NORMAL":30
					},
					"indices":31
				}
			]
		},
		{
			"name":"Cube.001",
			"primitives":[
				{
					"attributes":{
						"POSITION":32,
						"NORMAL":33,
						"TANGENT":34
					},
					"indices":35
				}
			]
		},
		{
			"name":"Plane.013",
			"primitives":[
				{
					"attributes":{
						"POSITION":36,
						"NORMAL":37
					},
					"indices":38
				}
			]
		},
		{
			"name":"Cube.017",
			"primitives":[
				{
					"attributes":{
						"POSITION":39,
						"NORMAL":40
					},
					"indices":41
				}
			]
		}
	],
	"accessors":[
		{
			"bufferView":0,
			"componentType":5126,
			"count":1680,
			"max":[
				198.5535430908203,
				34.72294998168945,
				240.20079040527344
			],
			"min":[
				-263.71307373046875,
				-12.0025634765625,
				-106.8612289428711
			],
			"type":"VEC3"
		},
		{
			"bufferView":1,
			"componentType":5126,
			"count":1680,
			"type":"VEC3"
		},
		{
			"bufferView":2,
			"componentType":5123,
			"count":8445,
			"type":"SCALAR"
		},
		{
			"bufferView":3,
			"componentType":5126,
			"count":24,
			"max":[
				2.623500108718872,
				2.6526501178741455,
				3.0607500076293945
			],
			"min":[
				-2.623500108718872,
				-0.17489999532699585,
				-3.0607500076293945
			],
			"type":"VEC3"
		},
		{
			"bufferView":4,
			"componentType":5126,
			"count":24,
			"type":"VEC3"
		},
		{
			"bufferView":5,
			"componentType":5126,
			"count":24,
			"type":"VEC4"
		},
		{
			"bufferView":6,
			"componentType":5123,
			"count":36,
			"type":"SCALAR"
		},
		{
			"bufferView":7,
			"componentType":5126,
			"count":53,
			"max":[
				2.6823132038116455,
				2.669769287109375,
				4.537317276000977
			],
			"min":[
				-2.682310104370117,
				2.2708675861358643,
				3.060746431350708
			],
			"type":"VEC3"
		},
		{
			"bufferView":8,
			"componentType":5126,
			"count":53,
			"type":"VEC3"
		},
		{
			"bufferView":9,
			"componentType":5126,
			"count":53,
			"type":"VEC4"
		},
		{
			"bufferView":10,
			"componentType":5123,
			"count":84,
			"type":"SCALAR"
		},
		{
			"bufferView":11,
			"componentType":5126,
			"count":24,
			"max":[
				0.1457500457763672,
				0.029150009155273438,
				0.029150009155273438
			],
			"min":[
				-0.1457500457763672,
				-0.029150009155273438,
				-1.0785503387451172
			],
			"type":"VEC3"
		},
		{
			"bufferView":12,
			"componentType":5126,
			"count":24,
			"type":"VEC3"
		},
		{
			"bufferView":13,
			"componentType":5126,
			"count":24,
			"type":"VEC4"
		},
		{
			"bufferView":14,
			"componentType":5123,
			"count":36,
			"type":"SCALAR"
		},
		{
			"bufferView":15,
			"componentType":5126,
			"count":24,
			"max":[
				0.019999995827674866,
				2.549999952316284,
				0.019999995827674866
			],
			"min":[
				-0.019999995827674866,
				0,
				-0.019999999552965164
			],
			"type":"VEC3"
		},
		{
			"bufferView":16,
			"componentType":5126,
			"count":24,
			"type":"VEC3"
		},
		{
			"bufferView":17,
			"componentType":5126,
			"count":24,
			"type":"VEC4"
		},
		{
			"bufferView":18,
			"componentType":5126,
			"count":58,
			"max":[
				0.11500000208616257,
				0.27000004053115845,
				0.17500001192092896
			],
			"min":[
				-0.11500000953674316,
				-0.16499999165534973,
				-0.17499999701976776
			],
			"type":"VEC3"
		},
		{
			"bufferView":19,
			"componentType":5126,
			"count":58,
			"type":"VEC3"
		},
		{
			"bufferView":20,
			"componentType":5126,
			"count":58,
			"type":"VEC4"
		},
		{
			"bufferView":21,
			"componentType":5123,
			"count":108,
			"type":"SCALAR"
		},
		{
			"bufferView":22,
			"componentType":5126,
			"count":46,
			"max":[
				3.7776029109954834,
				0.08745002746582031,
				1.7339491844177246
			],
			"min":[
				-3.7137367725372314,
				0,
				-1.905092716217041
			],
			"type":"VEC3"
		},
		{
			"bufferView":23,
			"componentType":5126,
			"count":46,
			"type":"VEC3"
		},
		{
			"bufferView":24,
			"componentType":5123,
			"count":159,
			"type":"SCALAR"
		},
		{
			"bufferView":25,
			"componentType":5126,
			"count":146,
			"max":[
				0.2149999588727951,
				4.300000190734863,
				0.1499999612569809
			],
			"min":[
				-0.22499996423721313,
				0,
				-0.1499999612569809
			],
			"type":"VEC3"
		},
		{
			"bufferView":26,
			"componentType":5126,
			"count":146,
			"type":"VEC3"
		},
		{
			"bufferView":27,
			"componentType":5126,
			"count":146,
			"type":"VEC4"
		},
		{
			"bufferView":28,
			"componentType":5123,
			"count":276,
			"type":"SCALAR"
		},
		{
			"bufferView":29,
			"componentType":5126,
			"count":563,
			"max":[
				300.1820983886719,
				19.343000411987305,
				250.1658477783203
			],
			"min":[
				-265.4222106933594,
				-12.53626537322998,
				-75.75390625
			],
			"type":"VEC3"
		},
		{
			"bufferView":30,
			"componentType":5126,
			"count":563,
			"type":"VEC3"
		},
		{
			"bufferView":31,
			"componentType":5123,
			"count":2754,
			"type":"SCALAR"
		},
		{
			"bufferView":32,
			"componentType":5126,
			"count":68,
			"max":[
				0.10000002384185791,
				7.559999942779541,
				1
			],
			"min":[
				-0.24000002443790436,
				0,
				-1
			],
			"type":"VEC3"
		},
		{
			"bufferView":33,
			"componentType":5126,
			"count":68,
			"type":"VEC3"
		},
		{
			"bufferView":34,
			"componentType":5126,
			"count":68,
			"type":"VEC4"
		},
		{
			"bufferView":35,
			"componentType":5123,
			"count":324,
			"type":"SCALAR"
		},
		{
			"bufferView":36,
			"componentType":5126,
			"count":719,
			"max":[
				148.93310546875,
				48.504005432128906,
				13.586873054504395
			],
			"min":[
				-266.9580078125,
				-22.825593948364258,
				-378.2850646972656
			],
			"type":"VEC3"
		},
		{
			"bufferView":37,
			"componentType":5126,
			"count":719,
			"type":"VEC3"
		},
		{
			"bufferView":38,
			"componentType":5123,
			"count":3552,
			"type":"SCALAR"
		},
		{
			"bufferView":39,
			"componentType":5126,
			"count":1163,
			"max":[
				326.8301086425781,
				32.976470947265625,
				386.1648254394531
			],
			"min":[
				-123.90621185302734,
				-0.20633316040039062,
				-359.8038024902344
			],
			"type":"VEC3"
		},
		{
			"bufferView":40,
			"componentType":5126,
			"count":1163,
			"type":"VEC3"
		},
		{
			"bufferView":41,
			"componentType":5123,
			"count":5931,
			"type":"SCALAR"
		}
	],
	"bufferViews":[
		{
			"buffer":0,
			"byteLength":20160,
			"byteOffset":0,
			"target":34962
		},
		{
			"buffer":0,
			"byteLength":20160,
			"byteOffset":20160,
			"target":34962
		},
		{
			"buffer":0,
			"byteLength":16890,
			"byteOffset":40320,
			"target":34963
		},
		{
			"buffer":0,
			"byteLength":288,
			"byteOffset":57212,
			"target":34962
		},
		{
			"buffer":0,
			"byteLength":288,
			"byteOffset":57500,
			"target":34962
		},
		{
			"buffer":0,
			"byteLength":384,
			"byteOffset":57788,
			"target":34962
		},
		{
			"buffer":0,
			"byteLength":72,
			"byteOffset":58172,
			"target":34963
		},
		{
			"buffer":0,
			"byteLength":636,
			"byteOffset":58244,
			"target":34962
		},
		{
			"buffer":0,
			"byteLength":636,
			"byteOffset":58880,
			"target":34962
		},
		{
			"buffer":0,
			"byteLength":848,
			"byteOffset":59516,
			"target":34962
		},
		{
			"buffer":0,
			"byteLength":168,
			"byteOffset":60364,
			"target":34963
		},
		{
			"buffer":0,
			"byteLength":288,
			"byteOffset":60532,
			"target":34962
		},
		{
			"buffer":0,
			"byteLength":288,
			"byteOffset":60820,
			"target":34962
		},
		{
			"buffer":0,
			"byteLength":384,
			"byteOffset":61108,
			"target":34962
		},
		{
			"buffer":0,
			"byteLength":72,
			"byteOffset":61492,
			"target":34963
		},
		{
			"buffer":0,
			"byteLength":288,
			"byteOffset":61564,
			"target":34962
		},
		{
			"buffer":0,
			"byteLength":288,
			"byteOffset":61852,
			"target":34962
		},
		{
			"buffer":0,
			"byteLength":384,
			"byteOffset":62140,
			"target":34962
		},
		{
			"buffer":0,
			"byteLength":696,
			"byteOffset":62524,
			"target":34962
		},
		{
			"buffer":0,
			"byteLength":696,
			"byteOffset":63220,
			"target":34962
		},
		{
			"buffer":0,
			"byteLength":928,
			"byteOffset":63916,
			"target":34962
		},
		{
			"buffer":0,
			"byteLength":216,
			"byteOffset":64844,
			"target":34963
		},
		{
			"buffer":0,
			"byteLength":552,
			"byteOffset":65060,
			"target":34962
		},
		{
			"buffer":0,
			"byteLength":552,
			"byteOffset":65612,
			"target":34962
		},
		{
			"buffer":0,
			"byteLength":318,
			"byteOffset":66164,
			"target":34963
		},
		{
			"buffer":0,
			"byteLength":1752,
			"byteOffset":66484,
			"target":34962
		},
		{
			"buffer":0,
			"byteLength":1752,
			"byteOffset":68236,
			"target":34962
		},
		{
			"buffer":0,
			"byteLength":2336,
			"byteOffset":69988,
			"target":34962
		},
		{
			"buffer":0,
			"byteLength":552,
			"byteOffset":72324,
			"target":34963
		},
		{
			"buffer":0,
			"byteLength":6756,
			"byteOffset":72876,
			"target":34962
		},
		{
			"buffer":0,
			"byteLength":6756,
			"byteOffset":79632,
			"target":34962
		},
		{
			"buffer":0,
			"byteLength":5508,
			"byteOffset":86388,
			"target":34963
		},
		{
			"buffer":0,
			"byteLength":816,
			"byteOffset":91896,
			"target":34962
		},
		{
			"buffer":0,
			"byteLength":816,
			"byteOffset":92712,
			"target":34962
		},
		{
			"buffer":0,
			"byteLength":1088,
			"byteOffset":93528,
			"target":34962
		},
		{
			"buffer":0,
			"byteLength":648,
			"byteOffset":94616,
			"target":34963
		},
		{
			"buffer":0,
			"byteLength":8628,
			"byteOffset":95264,
			"target":34962
		},
		{
			"buffer":0,
			"byteLength":8628,
			"byteOffset":103892,
			"target":34962
		},
		{
			"buffer":0,
			"byteLength":7104,
			"byteOffset":112520,
			"target":34963
		},
		{
			"buffer":0,
			"byteLength":13956,
			"byteOffset":119624,
			"target":34962
		},
		{
			"buffer":0,
			"byteLength":13956,
			"byteOffset":133580,
			"target":34962
		},
		{
			"buffer":0,
			"byteLength":11862,
			"byteOffset":147536,
			"target":34963
		}
	],
	"buffers":[
		{
			"byteLength":159400,
			"uri":"road_asteroid_road_collider.bin"
		}
	]
}
