{
	"asset":{
		"copyright":"@serufu_yua",
		"generator":"Khronos glTF Blender I/O v3.6.28",
		"version":"2.0"
	},
	"extensionsUsed":[
		"KHR_materials_specular",
		"KHR_materials_ior"
	],
	"scene":0,
	"scenes":[
		{
			"name":"Scene",
			"nodes":[
				3
			]
		}
	],
	"nodes":[
		{
			"mesh":0,
			"name":"coverlet",
			"translation":[
				0,
				0.10000003129243851,
				0
			]
		},
		{
			"mesh":1,
			"name":"pillow.001",
			"rotation":[
				-0.05935690551996231,
				0.07868173718452454,
				-0.004693206399679184,
				0.9951200485229492
			],
			"translation":[
				-0.37072116136550903,
				0.44014912843704224,
				-0.7486867308616638
			]
		},
		{
			"mesh":2,
			"name":"pillow.002",
			"rotation":[
				-0.05569429695606232,
				-0.017330162227153778,
				-0.0005526813329197466,
				0.9982973337173462
			],
			"translation":[
				0.2817975878715515,
				0.44679513573646545,
				-0.7721543312072754
			]
		},
		{
			"children":[
				0,
				1,
				2
			],
			"mesh":3,
			"name":"bed"
		}
	],
	"materials":[
		{
			"doubleSided":true,
			"emissiveFactor":[
				0.02500000037252903,
				0.02500000037252903,
				0.02500000037252903
			],
			"emissiveTexture":{
				"index":0,
				"texCoord":2
			},
			"extensions":{
				"KHR_materials_specular":{
					"specularColorFactor":[
						0,
						0,
						0
					]
				},
				"KHR_materials_ior":{
					"ior":1.4500000476837158
				}
			},
			"name":"coverlet.tex",
			"normalTexture":{
				"index":1,
				"texCoord":1
			},
			"occlusionTexture":{
				"index":2,
				"texCoord":2
			},
			"pbrMetallicRoughness":{
				"baseColorFactor":[
					0.10347200185060501,
					0.13623300194740295,
					0.4437539875507355,
					1
				],
				"metallicFactor":0
			}
		},
		{
			"doubleSided":true,
			"emissiveFactor":[
				0.02500000037252903,
				0.02500000037252903,
				0.02500000037252903
			],
			"emissiveTexture":{
				"index":3,
				"texCoord":2
			},
			"extensions":{
				"KHR_materials_specular":{
					"specularColorFactor":[
						0,
						0,
						0
					]
				},
				"KHR_materials_ior":{
					"ior":1.4500000476837158
				}
			},
			"name":"pillow.tex",
			"normalTexture":{
				"index":4,
				"texCoord":1
			},
			"occlusionTexture":{
				"index":5,
				"texCoord":2
			},
			"pbrMetallicRoughness":{
				"baseColorFactor":[
					0.10347200185060501,
					0.13623300194740295,
					0.4437539875507355,
					1
				],
				"metallicFactor":0
			}
		},
		{
			"doubleSided":true,
			"emissiveFactor":[
				0.02500000037252903,
				0.02500000037252903,
				0.02500000037252903
			],
			"emissiveTexture":{
				"index":6,
				"texCoord":3
			},
			"name":"chassis.tex",
			"normalTexture":{
				"index":7,
				"texCoord":1
			},
			"occlusionTexture":{
				"index":8,
				"texCoord":3
			},
			"pbrMetallicRoughness":{
				"baseColorFactor":[
					0.800000011920929,
					0.800000011920929,
					0.800000011920929,
					1
				],
				"metallicFactor":0.8999999761581421,
				"roughnessFactor":0.25
			}
		},
		{
			"doubleSided":true,
			"emissiveFactor":[
				0.02500000037252903,
				0.02500000037252903,
				0.02500000037252903
			],
			"emissiveTexture":{
				"index":9,
				"texCoord":3
			},
			"extensions":{
				"KHR_materials_specular":{
					"specularColorFactor":[
						0,
						0,
						0
					]
				},
				"KHR_materials_ior":{
					"ior":1.4500000476837158
				}
			},
			"name":"mat.tex",
			"normalTexture":{
				"index":10,
				"texCoord":1
			},
			"occlusionTexture":{
				"index":11,
				"texCoord":3
			},
			"pbrMetallicRoughness":{
				"baseColorFactor":[
					0.10347200185060501,
					0.13623300194740295,
					0.4437539875507355,
					1
				],
				"metallicFactor":0
			}
		}
	],
	"meshes":[
		{
			"name":"Cube.005",
			"primitives":[
				{
					"attributes":{
						"POSITION":0,
						"NORMAL":1,
						"TEXCOORD_0":2,
						"TEXCOORD_1":3,
						"TEXCOORD_2":4,
						"TANGENT":5
					},
					"indices":6,
					"material":0
				}
			]
		},
		{
			"name":"Cube.007",
			"primitives":[
				{
					"attributes":{
						"POSITION":7,
						"NORMAL":8,
						"TEXCOORD_0":9,
						"TEXCOORD_1":10,
						"TEXCOORD_2":11,
						"TANGENT":12
					},
					"indices":13,
					"material":1
				}
			]
		},
		{
			"name":"Cube.008",
			"primitives":[
				{
					"attributes":{
						"POSITION":14,
						"NORMAL":15,
						"TEXCOORD_0":16,
						"TEXCOORD_1":17,
						"TEXCOORD_2":18,
						"TANGENT":19
					},
					"indices":13,
					"material":1
				}
			]
		},
		{
			"name":"Cube",
			"primitives":[
				{
					"attributes":{
						"POSITION":20,
						"NORMAL":21,
						"TEXCOORD_0":22,
						"TEXCOORD_1":23,
						"TEXCOORD_2":24,
						"TEXCOORD_3":25
					},
					"indices":26,
					"material":2
				},
				{
					"attributes":{
						"POSITION":27,
						"NORMAL":28,
						"TEXCOORD_0":29,
						"TEXCOORD_1":30,
						"TEXCOORD_2":31,
						"TEXCOORD_3":32
					},
					"indices":33,
					"material":3
				}
			]
		}
	],
	"textures":[
		{
			"sampler":0,
			"source":0
		},
		{
			"sampler":0,
			"source":1
		},
		{
			"sampler":0,
			"source":0
		},
		{
			"sampler":0,
			"source":0
		},
		{
			"sampler":0,
			"source":1
		},
		{
			"sampler":0,
			"source":0
		},
		{
			"sampler":0,
			"source":0
		},
		{
			"sampler":0,
			"source":2
		},
		{
			"sampler":0,
			"source":0
		},
		{
			"sampler":0,
			"source":0
		},
		{
			"sampler":0,
			"source":1
		},
		{
			"sampler":0,
			"source":0
		}
	],
	"images":[
		{
			"mimeType":"image/png",
			"name":"bed_lightmap",
			"uri":"bed_lightmap.png"
		},
		{
			"mimeType":"image/png",
			"name":"mat_n",
			"uri":"mat_n.png"
		},
		{
			"mimeType":"image/png",
			"name":"chassis_n",
			"uri":"chassis_n.png"
		}
	],
	"accessors":[
		{
			"bufferView":0,
			"componentType":5126,
			"count":100,
			"max":[
				0.7601699829101562,
				0.24777507781982422,
				1.1245450973510742
			],
			"min":[
				-0.7601699829101562,
				0.028401007875800133,
				-0.6704502105712891
			],
			"type":"VEC3"
		},
		{
			"bufferView":1,
			"componentType":5126,
			"count":100,
			"type":"VEC3"
		},
		{
			"bufferView":2,
			"componentType":5126,
			"count":100,
			"type":"VEC2"
		},
		{
			"bufferView":3,
			"componentType":5126,
			"count":100,
			"type":"VEC2"
		},
		{
			"bufferView":4,
			"componentType":5126,
			"count":100,
			"type":"VEC2"
		},
		{
			"bufferView":5,
			"componentType":5126,
			"count":100,
			"type":"VEC4"
		},
		{
			"bufferView":6,
			"componentType":5123,
			"count":348,
			"type":"SCALAR"
		},
		{
			"bufferView":7,
			"componentType":5126,
			"count":45,
			"max":[
				0.3200625479221344,
				0.15982820093631744,
				0.18489493429660797
			],
			"min":[
				-0.31954801082611084,
				-0.16961483657360077,
				-0.29453396797180176
			],
			"type":"VEC3"
		},
		{
			"bufferView":8,
			"componentType":5126,
			"count":45,
			"type":"VEC3"
		},
		{
			"bufferView":9,
			"componentType":5126,
			"count":45,
			"type":"VEC2"
		},
		{
			"bufferView":10,
			"componentType":5126,
			"count":45,
			"type":"VEC2"
		},
		{
			"bufferView":11,
			"componentType":5126,
			"count":45,
			"type":"VEC2"
		},
		{
			"bufferView":12,
			"componentType":5126,
			"count":45,
			"type":"VEC4"
		},
		{
			"bufferView":13,
			"componentType":5123,
			"count":144,
			"type":"SCALAR"
		},
		{
			"bufferView":14,
			"componentType":5126,
			"count":45,
			"max":[
				0.3193301260471344,
				0.16076068580150604,
				0.19202959537506104
			],
			"min":[
				-0.3199053108692169,
				-0.1685965359210968,
				-0.2944601774215698
			],
			"type":"VEC3"
		},
		{
			"bufferView":15,
			"componentType":5126,
			"count":45,
			"type":"VEC3"
		},
		{
			"bufferView":16,
			"componentType":5126,
			"count":45,
			"type":"VEC2"
		},
		{
			"bufferView":17,
			"componentType":5126,
			"count":45,
			"type":"VEC2"
		},
		{
			"bufferView":18,
			"componentType":5126,
			"count":45,
			"type":"VEC2"
		},
		{
			"bufferView":19,
			"componentType":5126,
			"count":45,
			"type":"VEC4"
		},
		{
			"bufferView":20,
			"componentType":5126,
			"count":126,
			"max":[
				0.7433252334594727,
				0.6809049844741821,
				1.093125343322754
			],
			"min":[
				-0.7433252334594727,
				0,
				-1.2680253982543945
			],
			"type":"VEC3"
		},
		{
			"bufferView":21,
			"componentType":5126,
			"count":126,
			"type":"VEC3"
		},
		{
			"bufferView":22,
			"componentType":5126,
			"count":126,
			"type":"VEC2"
		},
		{
			"bufferView":23,
			"componentType":5126,
			"count":126,
			"type":"VEC2"
		},
		{
			"bufferView":24,
			"componentType":5126,
			"count":126,
			"type":"VEC2"
		},
		{
			"bufferView":25,
			"componentType":5126,
			"count":126,
			"type":"VEC2"
		},
		{
			"bufferView":26,
			"componentType":5123,
			"count":312,
			"type":"SCALAR"
		},
		{
			"bufferView":27,
			"componentType":5126,
			"count":79,
			"max":[
				0.7141752243041992,
				0.6518251299858093,
				1.0639753341674805
			],
			"min":[
				-0.7141752243041992,
				0.27490007877349854,
				-1.093125343322754
			],
			"type":"VEC3"
		},
		{
			"bufferView":28,
			"componentType":5126,
			"count":79,
			"type":"VEC3"
		},
		{
			"bufferView":29,
			"componentType":5126,
			"count":79,
			"type":"VEC2"
		},
		{
			"bufferView":30,
			"componentType":5126,
			"count":79,
			"type":"VEC2"
		},
		{
			"bufferView":31,
			"componentType":5126,
			"count":79,
			"type":"VEC2"
		},
		{
			"bufferView":32,
			"componentType":5126,
			"count":79,
			"type":"VEC2"
		},
		{
			"bufferView":33,
			"componentType":5123,
			"count":252,
			"type":"SCALAR"
		}
	],
	"bufferViews":[
		{
			"buffer":0,
			"byteLength":1200,
			"byteOffset":0,
			"target":34962
		},
		{
			"buffer":0,
			"byteLength":1200,
			"byteOffset":1200,
			"target":34962
		},
		{
			"buffer":0,
			"byteLength":800,
			"byteOffset":2400,
			"target":34962
		},
		{
			"buffer":0,
			"byteLength":800,
			"byteOffset":3200,
			"target":34962
		},
		{
			"buffer":0,
			"byteLength":800,
			"byteOffset":4000,
			"target":34962
		},
		{
			"buffer":0,
			"byteLength":1600,
			"byteOffset":4800,
			"target":34962
		},
		{
			"buffer":0,
			"byteLength":696,
			"byteOffset":6400,
			"target":34963
		},
		{
			"buffer":0,
			"byteLength":540,
			"byteOffset":7096,
			"target":34962
		},
		{
			"buffer":0,
			"byteLength":540,
			"byteOffset":7636,
			"target":34962
		},
		{
			"buffer":0,
			"byteLength":360,
			"byteOffset":8176,
			"target":34962
		},
		{
			"buffer":0,
			"byteLength":360,
			"byteOffset":8536,
			"target":34962
		},
		{
			"buffer":0,
			"byteLength":360,
			"byteOffset":8896,
			"target":34962
		},
		{
			"buffer":0,
			"byteLength":720,
			"byteOffset":9256,
			"target":34962
		},
		{
			"buffer":0,
			"byteLength":288,
			"byteOffset":9976,
			"target":34963
		},
		{
			"buffer":0,
			"byteLength":540,
			"byteOffset":10264,
			"target":34962
		},
		{
			"buffer":0,
			"byteLength":540,
			"byteOffset":10804,
			"target":34962
		},
		{
			"buffer":0,
			"byteLength":360,
			"byteOffset":11344,
			"target":34962
		},
		{
			"buffer":0,
			"byteLength":360,
			"byteOffset":11704,
			"target":34962
		},
		{
			"buffer":0,
			"byteLength":360,
			"byteOffset":12064,
			"target":34962
		},
		{
			"buffer":0,
			"byteLength":720,
			"byteOffset":12424,
			"target":34962
		},
		{
			"buffer":0,
			"byteLength":1512,
			"byteOffset":13144,
			"target":34962
		},
		{
			"buffer":0,
			"byteLength":1512,
			"byteOffset":14656,
			"target":34962
		},
		{
			"buffer":0,
			"byteLength":1008,
			"byteOffset":16168,
			"target":34962
		},
		{
			"buffer":0,
			"byteLength":1008,
			"byteOffset":17176,
			"target":34962
		},
		{
			"buffer":0,
			"byteLength":1008,
			"byteOffset":18184,
			"target":34962
		},
		{
			"buffer":0,
			"byteLength":1008,
			"byteOffset":19192,
			"target":34962
		},
		{
			"buffer":0,
			"byteLength":624,
			"byteOffset":20200,
			"target":34963
		},
		{
			"buffer":0,
			"byteLength":948,
			"byteOffset":20824,
			"target":34962
		},
		{
			"buffer":0,
			"byteLength":948,
			"byteOffset":21772,
			"target":34962
		},
		{
			"buffer":0,
			"byteLength":632,
			"byteOffset":22720,
			"target":34962
		},
		{
			"buffer":0,
			"byteLength":632,
			"byteOffset":23352,
			"target":34962
		},
		{
			"buffer":0,
			"byteLength":632,
			"byteOffset":23984,
			"target":34962
		},
		{
			"buffer":0,
			"byteLength":632,
			"byteOffset":24616,
			"target":34962
		},
		{
			"buffer":0,
			"byteLength":504,
			"byteOffset":25248,
			"target":34963
		}
	],
	"samplers":[
		{
			"magFilter":9729,
			"minFilter":9987
		}
	],
	"buffers":[
		{
			"byteLength":25752,
			"uri":"bed.bin"
		}
	]
}
