{
	"asset":{
		"copyright":"@serufu_yua",
		"generator":"Khronos glTF Blender I/O v3.6.28",
		"version":"2.0"
	},
	"extensionsUsed":[
		"KHR_materials_specular",
		"KHR_materials_ior"
	],
	"scene":0,
	"scenes":[
		{
			"name":"Scene",
			"nodes":[
				3
			]
		}
	],
	"nodes":[
		{
			"mesh":0,
			"name":"coverlet",
			"translation":[
				0,
				3.4305317401885986,
				0
			]
		},
		{
			"mesh":1,
			"name":"pillow.001",
			"rotation":[
				-0.059356898069381714,
				0.07868172973394394,
				-0.004693206399679184,
				0.9951200485229492
			],
			"scale":[
				1.5,
				1.5000001192092896,
				1.5
			],
			"translation":[
				-12.717702865600586,
				15.099451065063477,
				-25.683927536010742
			]
		},
		{
			"mesh":2,
			"name":"pillow.002",
			"rotation":[
				-0.05569429323077202,
				-0.01733016036450863,
				-0.0005526812165044248,
				0.9982973337173462
			],
			"scale":[
				1.4999998807907104,
				1.5,
				1.5000001192092896
			],
			"translation":[
				9.667152404785156,
				15.327444076538086,
				-26.488990783691406
			]
		},
		{
			"children":[
				0,
				1,
				2
			],
			"mesh":3,
			"name":"bed"
		}
	],
	"materials":[
		{
			"doubleSided":true,
			"emissiveFactor":[
				0.02500000037252903,
				0.02500000037252903,
				0.02500000037252903
			],
			"emissiveTexture":{
				"index":0,
				"texCoord":2
			},
			"extensions":{
				"KHR_materials_specular":{
					"specularColorFactor":[
						0,
						0,
						0
					]
				},
				"KHR_materials_ior":{
					"ior":1.4500000476837158
				}
			},
			"name":"coverlet.tex",
			"normalTexture":{
				"index":1,
				"texCoord":1
			},
			"occlusionTexture":{
				"index":2,
				"texCoord":2
			},
			"pbrMetallicRoughness":{
				"baseColorFactor":[
					0.10347200185060501,
					0.13623300194740295,
					0.4437539875507355,
					1
				],
				"metallicFactor":0
			}
		},
		{
			"doubleSided":true,
			"emissiveFactor":[
				0.02500000037252903,
				0.02500000037252903,
				0.02500000037252903
			],
			"emissiveTexture":{
				"index":3,
				"texCoord":2
			},
			"extensions":{
				"KHR_materials_specular":{
					"specularColorFactor":[
						0,
						0,
						0
					]
				},
				"KHR_materials_ior":{
					"ior":1.4500000476837158
				}
			},
			"name":"pillow.tex",
			"normalTexture":{
				"index":4,
				"texCoord":1
			},
			"occlusionTexture":{
				"index":5,
				"texCoord":2
			},
			"pbrMetallicRoughness":{
				"baseColorFactor":[
					0.10347200185060501,
					0.13623300194740295,
					0.4437539875507355,
					1
				],
				"metallicFactor":0
			}
		},
		{
			"doubleSided":true,
			"emissiveFactor":[
				0.02500000037252903,
				0.02500000037252903,
				0.02500000037252903
			],
			"emissiveTexture":{
				"index":6,
				"texCoord":3
			},
			"name":"chassis.tex",
			"normalTexture":{
				"index":7,
				"texCoord":1
			},
			"occlusionTexture":{
				"index":8,
				"texCoord":3
			},
			"pbrMetallicRoughness":{
				"baseColorFactor":[
					0.800000011920929,
					0.800000011920929,
					0.800000011920929,
					1
				],
				"metallicFactor":0.8999999761581421,
				"roughnessFactor":0.25
			}
		},
		{
			"doubleSided":true,
			"emissiveFactor":[
				0.02500000037252903,
				0.02500000037252903,
				0.02500000037252903
			],
			"emissiveTexture":{
				"index":9,
				"texCoord":3
			},
			"extensions":{
				"KHR_materials_specular":{
					"specularColorFactor":[
						0,
						0,
						0
					]
				},
				"KHR_materials_ior":{
					"ior":1.4500000476837158
				}
			},
			"name":"mat.tex",
			"normalTexture":{
				"index":10,
				"texCoord":1
			},
			"occlusionTexture":{
				"index":11,
				"texCoord":3
			},
			"pbrMetallicRoughness":{
				"baseColorFactor":[
					0.10347200185060501,
					0.13623300194740295,
					0.4437539875507355,
					1
				],
				"metallicFactor":0
			}
		}
	],
	"meshes":[
		{
			"name":"Cube.005",
			"primitives":[
				{
					"attributes":{
						"POSITION":0,
						"NORMAL":1,
						"TEXCOORD_0":2,
						"TEXCOORD_1":3,
						"TEXCOORD_2":4
					},
					"indices":5,
					"material":0
				}
			]
		},
		{
			"name":"Cube.007",
			"primitives":[
				{
					"attributes":{
						"POSITION":6,
						"NORMAL":7,
						"TEXCOORD_0":8,
						"TEXCOORD_1":9,
						"TEXCOORD_2":10
					},
					"indices":11,
					"material":1
				}
			]
		},
		{
			"name":"Cube.008",
			"primitives":[
				{
					"attributes":{
						"POSITION":12,
						"NORMAL":13,
						"TEXCOORD_0":14,
						"TEXCOORD_1":15,
						"TEXCOORD_2":16
					},
					"indices":11,
					"material":1
				}
			]
		},
		{
			"name":"Cube",
			"primitives":[
				{
					"attributes":{
						"POSITION":17,
						"NORMAL":18,
						"TEXCOORD_0":19,
						"TEXCOORD_1":20,
						"TEXCOORD_2":21,
						"TEXCOORD_3":22
					},
					"indices":23,
					"material":2
				},
				{
					"attributes":{
						"POSITION":24,
						"NORMAL":25,
						"TEXCOORD_0":26,
						"TEXCOORD_1":27,
						"TEXCOORD_2":28,
						"TEXCOORD_3":29
					},
					"indices":30,
					"material":3
				}
			]
		}
	],
	"textures":[
		{
			"sampler":0,
			"source":0
		},
		{
			"sampler":0,
			"source":1
		},
		{
			"sampler":0,
			"source":0
		},
		{
			"sampler":0,
			"source":0
		},
		{
			"sampler":0,
			"source":1
		},
		{
			"sampler":0,
			"source":0
		},
		{
			"sampler":0,
			"source":0
		},
		{
			"sampler":0,
			"source":2
		},
		{
			"sampler":0,
			"source":0
		},
		{
			"sampler":0,
			"source":0
		},
		{
			"sampler":0,
			"source":1
		},
		{
			"sampler":0,
			"source":0
		}
	],
	"images":[
		{
			"mimeType":"image/png",
			"name":"bed_lightmap",
			"uri":"bed_lightmap.png"
		},
		{
			"mimeType":"image/png",
			"name":"mat_n",
			"uri":"mat_n.png"
		},
		{
			"mimeType":"image/png",
			"name":"chassis_n",
			"uri":"chassis_n.png"
		}
	],
	"accessors":[
		{
			"bufferView":0,
			"componentType":5126,
			"count":100,
			"max":[
				26.077863693237305,
				8.5,
				38.57786560058594
			],
			"min":[
				-26.077863693237305,
				0.974305272102356,
				-23
			],
			"type":"VEC3"
		},
		{
			"bufferView":1,
			"componentType":5126,
			"count":100,
			"type":"VEC3"
		},
		{
			"bufferView":2,
			"componentType":5126,
			"count":100,
			"type":"VEC2"
		},
		{
			"bufferView":3,
			"componentType":5126,
			"count":100,
			"type":"VEC2"
		},
		{
			"bufferView":4,
			"componentType":5126,
			"count":100,
			"type":"VEC2"
		},
		{
			"bufferView":5,
			"componentType":5123,
			"count":348,
			"type":"SCALAR"
		},
		{
			"bufferView":6,
			"componentType":5126,
			"count":45,
			"max":[
				7.3198957443237305,
				3.655303716659546,
				4.2285847663879395
			],
			"min":[
				-7.308128356933594,
				-3.8791258335113525,
				-6.7360520362854
			],
			"type":"VEC3"
		},
		{
			"bufferView":7,
			"componentType":5126,
			"count":45,
			"type":"VEC3"
		},
		{
			"bufferView":8,
			"componentType":5126,
			"count":45,
			"type":"VEC2"
		},
		{
			"bufferView":9,
			"componentType":5126,
			"count":45,
			"type":"VEC2"
		},
		{
			"bufferView":10,
			"componentType":5126,
			"count":45,
			"type":"VEC2"
		},
		{
			"bufferView":11,
			"componentType":5123,
			"count":144,
			"type":"SCALAR"
		},
		{
			"bufferView":12,
			"componentType":5126,
			"count":45,
			"max":[
				7.303145885467529,
				3.6766297817230225,
				4.3917555809021
			],
			"min":[
				-7.316300392150879,
				-3.855837345123291,
				-6.734363555908203
			],
			"type":"VEC3"
		},
		{
			"bufferView":13,
			"componentType":5126,
			"count":45,
			"type":"VEC3"
		},
		{
			"bufferView":14,
			"componentType":5126,
			"count":45,
			"type":"VEC2"
		},
		{
			"bufferView":15,
			"componentType":5126,
			"count":45,
			"type":"VEC2"
		},
		{
			"bufferView":16,
			"componentType":5126,
			"count":45,
			"type":"VEC2"
		},
		{
			"bufferView":17,
			"componentType":5126,
			"count":126,
			"max":[
				25.5,
				23.358654022216797,
				37.5
			],
			"min":[
				-25.5,
				0,
				-43.5
			],
			"type":"VEC3"
		},
		{
			"bufferView":18,
			"componentType":5126,
			"count":126,
			"type":"VEC3"
		},
		{
			"bufferView":19,
			"componentType":5126,
			"count":126,
			"type":"VEC2"
		},
		{
			"bufferView":20,
			"componentType":5126,
			"count":126,
			"type":"VEC2"
		},
		{
			"bufferView":21,
			"componentType":5126,
			"count":126,
			"type":"VEC2"
		},
		{
			"bufferView":22,
			"componentType":5126,
			"count":126,
			"type":"VEC2"
		},
		{
			"bufferView":23,
			"componentType":5123,
			"count":312,
			"type":"SCALAR"
		},
		{
			"bufferView":24,
			"componentType":5126,
			"count":79,
			"max":[
				24.5,
				22.361061096191406,
				36.5
			],
			"min":[
				-24.5,
				9.43053150177002,
				-37.5
			],
			"type":"VEC3"
		},
		{
			"bufferView":25,
			"componentType":5126,
			"count":79,
			"type":"VEC3"
		},
		{
			"bufferView":26,
			"componentType":5126,
			"count":79,
			"type":"VEC2"
		},
		{
			"bufferView":27,
			"componentType":5126,
			"count":79,
			"type":"VEC2"
		},
		{
			"bufferView":28,
			"componentType":5126,
			"count":79,
			"type":"VEC2"
		},
		{
			"bufferView":29,
			"componentType":5126,
			"count":79,
			"type":"VEC2"
		},
		{
			"bufferView":30,
			"componentType":5123,
			"count":252,
			"type":"SCALAR"
		}
	],
	"bufferViews":[
		{
			"buffer":0,
			"byteLength":1200,
			"byteOffset":0,
			"target":34962
		},
		{
			"buffer":0,
			"byteLength":1200,
			"byteOffset":1200,
			"target":34962
		},
		{
			"buffer":0,
			"byteLength":800,
			"byteOffset":2400,
			"target":34962
		},
		{
			"buffer":0,
			"byteLength":800,
			"byteOffset":3200,
			"target":34962
		},
		{
			"buffer":0,
			"byteLength":800,
			"byteOffset":4000,
			"target":34962
		},
		{
			"buffer":0,
			"byteLength":696,
			"byteOffset":4800,
			"target":34963
		},
		{
			"buffer":0,
			"byteLength":540,
			"byteOffset":5496,
			"target":34962
		},
		{
			"buffer":0,
			"byteLength":540,
			"byteOffset":6036,
			"target":34962
		},
		{
			"buffer":0,
			"byteLength":360,
			"byteOffset":6576,
			"target":34962
		},
		{
			"buffer":0,
			"byteLength":360,
			"byteOffset":6936,
			"target":34962
		},
		{
			"buffer":0,
			"byteLength":360,
			"byteOffset":7296,
			"target":34962
		},
		{
			"buffer":0,
			"byteLength":288,
			"byteOffset":7656,
			"target":34963
		},
		{
			"buffer":0,
			"byteLength":540,
			"byteOffset":7944,
			"target":34962
		},
		{
			"buffer":0,
			"byteLength":540,
			"byteOffset":8484,
			"target":34962
		},
		{
			"buffer":0,
			"byteLength":360,
			"byteOffset":9024,
			"target":34962
		},
		{
			"buffer":0,
			"byteLength":360,
			"byteOffset":9384,
			"target":34962
		},
		{
			"buffer":0,
			"byteLength":360,
			"byteOffset":9744,
			"target":34962
		},
		{
			"buffer":0,
			"byteLength":1512,
			"byteOffset":10104,
			"target":34962
		},
		{
			"buffer":0,
			"byteLength":1512,
			"byteOffset":11616,
			"target":34962
		},
		{
			"buffer":0,
			"byteLength":1008,
			"byteOffset":13128,
			"target":34962
		},
		{
			"buffer":0,
			"byteLength":1008,
			"byteOffset":14136,
			"target":34962
		},
		{
			"buffer":0,
			"byteLength":1008,
			"byteOffset":15144,
			"target":34962
		},
		{
			"buffer":0,
			"byteLength":1008,
			"byteOffset":16152,
			"target":34962
		},
		{
			"buffer":0,
			"byteLength":624,
			"byteOffset":17160,
			"target":34963
		},
		{
			"buffer":0,
			"byteLength":948,
			"byteOffset":17784,
			"target":34962
		},
		{
			"buffer":0,
			"byteLength":948,
			"byteOffset":18732,
			"target":34962
		},
		{
			"buffer":0,
			"byteLength":632,
			"byteOffset":19680,
			"target":34962
		},
		{
			"buffer":0,
			"byteLength":632,
			"byteOffset":20312,
			"target":34962
		},
		{
			"buffer":0,
			"byteLength":632,
			"byteOffset":20944,
			"target":34962
		},
		{
			"buffer":0,
			"byteLength":632,
			"byteOffset":21576,
			"target":34962
		},
		{
			"buffer":0,
			"byteLength":504,
			"byteOffset":22208,
			"target":34963
		}
	],
	"samplers":[
		{
			"magFilter":9729,
			"minFilter":9987
		}
	],
	"buffers":[
		{
			"byteLength":22712,
			"uri":"bed.bin"
		}
	]
}
