{
	"asset":{
		"copyright":"@serufu_yua",
		"generator":"Khronos glTF Blender I/O v3.6.28",
		"version":"2.0"
	},
	"extensionsUsed":[
		"KHR_materials_specular",
		"KHR_materials_ior"
	],
	"scene":0,
	"scenes":[
		{
			"name":"Scene",
			"nodes":[
				2
			]
		}
	],
	"nodes":[
		{
			"name":"Bone"
		},
		{
			"mesh":0,
			"name":"hair.boy",
			"skin":0
		},
		{
			"children":[
				1,
				0
			],
			"name":"Skeleton.Hair.Boy"
		}
	],
	"materials":[
		{
			"alphaCutoff":0.5,
			"alphaMode":"MASK",
			"doubleSided":true,
			"extensions":{
				"KHR_materials_specular":{
					"specularColorFactor":[
						0,
						0,
						0
					]
				},
				"KHR_materials_ior":{
					"ior":1.4500000476837158
				}
			},
			"name":"hair.tex",
			"pbrMetallicRoughness":{
				"baseColorTexture":{
					"index":0,
					"texCoord":1
				},
				"metallicFactor":0
			}
		}
	],
	"meshes":[
		{
			"name":"hair.boy",
			"primitives":[
				{
					"attributes":{
						"POSITION":0,
						"NORMAL":1,
						"TEXCOORD_0":2,
						"TEXCOORD_1":3,
						"JOINTS_0":4,
						"WEIGHTS_0":5
					},
					"indices":6,
					"material":0
				}
			]
		}
	],
	"textures":[
		{
			"sampler":0,
			"source":0
		}
	],
	"images":[
		{
			"mimeType":"image/png",
			"name":"hair",
			"uri":"hair.png"
		}
	],
	"skins":[
		{
			"inverseBindMatrices":7,
			"joints":[
				0
			],
			"name":"Skeleton.Hair.Boy"
		}
	],
	"accessors":[
		{
			"bufferView":0,
			"componentType":5126,
			"count":1403,
			"max":[
				7.115396022796631,
				11.369498252868652,
				7.171228885650635
			],
			"min":[
				-7.115396022796631,
				-3.4007670879364014,
				-7.572914123535156
			],
			"type":"VEC3"
		},
		{
			"bufferView":1,
			"componentType":5126,
			"count":1403,
			"type":"VEC3"
		},
		{
			"bufferView":2,
			"componentType":5126,
			"count":1403,
			"type":"VEC2"
		},
		{
			"bufferView":3,
			"componentType":5126,
			"count":1403,
			"type":"VEC2"
		},
		{
			"bufferView":4,
			"componentType":5121,
			"count":1403,
			"type":"VEC4"
		},
		{
			"bufferView":5,
			"componentType":5126,
			"count":1403,
			"type":"VEC4"
		},
		{
			"bufferView":6,
			"componentType":5123,
			"count":3936,
			"type":"SCALAR"
		},
		{
			"bufferView":7,
			"componentType":5126,
			"count":1,
			"type":"MAT4"
		}
	],
	"bufferViews":[
		{
			"buffer":0,
			"byteLength":16836,
			"byteOffset":0,
			"target":34962
		},
		{
			"buffer":0,
			"byteLength":16836,
			"byteOffset":16836,
			"target":34962
		},
		{
			"buffer":0,
			"byteLength":11224,
			"byteOffset":33672,
			"target":34962
		},
		{
			"buffer":0,
			"byteLength":11224,
			"byteOffset":44896,
			"target":34962
		},
		{
			"buffer":0,
			"byteLength":5612,
			"byteOffset":56120,
			"target":34962
		},
		{
			"buffer":0,
			"byteLength":22448,
			"byteOffset":61732,
			"target":34962
		},
		{
			"buffer":0,
			"byteLength":7872,
			"byteOffset":84180,
			"target":34963
		},
		{
			"buffer":0,
			"byteLength":64,
			"byteOffset":92052
		}
	],
	"samplers":[
		{
			"magFilter":9729,
			"minFilter":9987
		}
	],
	"buffers":[
		{
			"byteLength":92116,
			"uri":"hair.bin"
		}
	]
}
