{
	"asset":{
		"copyright":"@serufu_yua",
		"generator":"Khronos glTF Blender I/O v3.6.28",
		"version":"2.0"
	},
	"extensionsUsed":[
		"KHR_materials_specular",
		"KHR_materials_ior"
	],
	"scene":0,
	"scenes":[
		{
			"name":"Scene",
			"nodes":[
				29
			]
		}
	],
	"nodes":[
		{
			"name":"Front.001",
			"rotation":[
				0.9875136017799377,
				-1.7028944924480526e-16,
				5.631303732242347e-15,
				0.1575337052345276
			],
			"scale":[
				1,
				0.9999999403953552,
				1
			],
			"translation":[
				0,
				0.2830425500869751,
				0.153117835521698
			]
		},
		{
			"name":"Front.002.R",
			"rotation":[
				0.9575509428977966,
				-0.0021062311716377735,
				0.26936453580856323,
				0.10263751447200775
			],
			"scale":[
				1.000000238418579,
				1.0000001192092896,
				1.0000001192092896
			],
			"translation":[
				-0.08010534942150116,
				0.2383815199136734,
				0.15270072221755981
			]
		},
		{
			"name":"Front.002.L",
			"rotation":[
				0.9575509428977966,
				0.0021062311716377735,
				-0.26936453580856323,
				0.10263751447200775
			],
			"scale":[
				1.000000238418579,
				1.0000001192092896,
				1.0000001192092896
			],
			"translation":[
				0.08010534942150116,
				0.2383815199136734,
				0.15270072221755981
			]
		},
		{
			"name":"Front.003.R",
			"rotation":[
				0.8754944801330566,
				-0.004794166889041662,
				0.4818893373012543,
				0.03562444448471069
			],
			"scale":[
				1.0000001192092896,
				1.0000001192092896,
				1
			],
			"translation":[
				-0.1340203583240509,
				0.2241576910018921,
				0.10587912797927856
			]
		},
		{
			"name":"Front.003.L",
			"rotation":[
				0.8754944801330566,
				0.004794166889041662,
				-0.4818893373012543,
				0.03562444448471069
			],
			"scale":[
				1.0000001192092896,
				1.0000001192092896,
				1
			],
			"translation":[
				0.1340203583240509,
				0.2241576910018921,
				0.10587912797927856
			]
		},
		{
			"name":"Side.001.L",
			"rotation":[
				-0.7610658407211304,
				0.06579718738794327,
				0.6453171372413635,
				0.003912809770554304
			],
			"scale":[
				0.9999998211860657,
				1.0000001192092896,
				1.0000001192092896
			],
			"translation":[
				0.16461323201656342,
				0.16644777357578278,
				0.06831485033035278
			]
		},
		{
			"name":"Side.001.R",
			"rotation":[
				-0.7610658407211304,
				-0.06579718738794327,
				-0.6453171372413635,
				0.003912809770554304
			],
			"scale":[
				0.9999998211860657,
				1.0000001192092896,
				1.0000001192092896
			],
			"translation":[
				-0.16461323201656342,
				0.16644777357578278,
				0.06831485033035278
			]
		},
		{
			"name":"Side.002.R",
			"rotation":[
				-0.7527018785476685,
				-0.06018681079149246,
				-0.6551456451416016,
				0.02452813647687435
			],
			"scale":[
				0.9999998807907104,
				0.9999997019767761,
				0.9999999403953552
			],
			"translation":[
				-0.17734463512897491,
				0.16452692449092865,
				0.03351020812988281
			]
		},
		{
			"name":"Side.002.L",
			"rotation":[
				-0.7527018785476685,
				0.06018681079149246,
				0.6551456451416016,
				0.02452813647687435
			],
			"scale":[
				0.9999998807907104,
				0.9999997019767761,
				0.9999999403953552
			],
			"translation":[
				0.17734463512897491,
				0.16452692449092865,
				0.03351020812988281
			]
		},
		{
			"name":"Side.003.R",
			"rotation":[
				-0.6590568423271179,
				-0.05617649853229523,
				-0.74908846616745,
				0.036807164549827576
			],
			"scale":[
				1,
				1.0000001192092896,
				1.0000001192092896
			],
			"translation":[
				-0.18116198480129242,
				0.1577598750591278,
				-0.004083950538188219
			]
		},
		{
			"name":"Side.003.L",
			"rotation":[
				-0.6590568423271179,
				0.05617649853229523,
				0.74908846616745,
				0.036807164549827576
			],
			"scale":[
				1,
				1.0000001192092896,
				1.0000001192092896
			],
			"translation":[
				0.18116198480129242,
				0.1577598750591278,
				-0.004083950538188219
			]
		},
		{
			"name":"Side.004.R",
			"rotation":[
				0.726026713848114,
				0.19392359256744385,
				0.6576309204101562,
				0.05291903391480446
			],
			"scale":[
				0.9999997615814209,
				1,
				1
			],
			"translation":[
				-0.17234179377555847,
				0.1006329208612442,
				-0.049103718250989914
			]
		},
		{
			"name":"Side.004.L",
			"rotation":[
				0.726026713848114,
				-0.19392359256744385,
				-0.6576309204101562,
				0.05291903391480446
			],
			"scale":[
				0.9999997615814209,
				1,
				1
			],
			"translation":[
				0.17234179377555847,
				0.1006329208612442,
				-0.049103718250989914
			]
		},
		{
			"name":"Back.001.R",
			"rotation":[
				0.5678471326828003,
				0.23366546630859375,
				0.7892560362815857,
				0.004997396841645241
			],
			"scale":[
				1.0000001192092896,
				1,
				0.9999999403953552
			],
			"translation":[
				-0.15618646144866943,
				0.05465686321258545,
				-0.08174702525138855
			]
		},
		{
			"name":"Back.001.L",
			"rotation":[
				0.5678471326828003,
				-0.23366546630859375,
				-0.7892560362815857,
				0.004997396841645241
			],
			"scale":[
				1.0000001192092896,
				1,
				0.9999999403953552
			],
			"translation":[
				0.15618646144866943,
				0.05465686321258545,
				-0.08174702525138855
			]
		},
		{
			"name":"Back.002.R",
			"rotation":[
				-0.30172598361968994,
				-0.26214948296546936,
				-0.9166250824928284,
				0.006128963083028793
			],
			"translation":[
				-0.12121770530939102,
				0.033065032213926315,
				-0.12697957456111908
			]
		},
		{
			"name":"Back.002.L",
			"rotation":[
				-0.30172598361968994,
				0.26214948296546936,
				0.9166250824928284,
				0.006128963083028793
			],
			"translation":[
				0.12121770530939102,
				0.033065032213926315,
				-0.12697957456111908
			]
		},
		{
			"name":"Back.003.R",
			"rotation":[
				0.18866856396198273,
				0.28834033012390137,
				0.9386482238769531,
				0.014268218539655209
			],
			"scale":[
				1.0000004768371582,
				1.0000005960464478,
				1.0000004768371582
			],
			"translation":[
				-0.0755748599767685,
				0.018269266933202744,
				-0.15164634585380554
			]
		},
		{
			"name":"Back.003.L",
			"rotation":[
				0.18866856396198273,
				-0.28834033012390137,
				-0.9386482238769531,
				0.014268218539655209
			],
			"scale":[
				1.0000004768371582,
				1.0000005960464478,
				1.0000004768371582
			],
			"translation":[
				0.0755748599767685,
				0.018269266933202744,
				-0.15164634585380554
			]
		},
		{
			"name":"Back.004.R",
			"rotation":[
				0.06607811152935028,
				0.2880498468875885,
				0.9553015232086182,
				0.007741505745798349
			],
			"scale":[
				0.9999999403953552,
				0.9999998211860657,
				1
			],
			"translation":[
				-0.025456653907895088,
				0.012798024341464043,
				-0.16360992193222046
			]
		},
		{
			"name":"Back.004.L",
			"rotation":[
				0.06607811152935028,
				-0.2880498468875885,
				-0.9553015232086182,
				0.007741505745798349
			],
			"scale":[
				0.9999999403953552,
				0.9999998211860657,
				1
			],
			"translation":[
				0.025456653907895088,
				0.012798024341464043,
				-0.16360992193222046
			]
		},
		{
			"name":"Tail.001.R",
			"rotation":[
				0.6085127592086792,
				-0.2463628500699997,
				0.6783772110939026,
				0.32988181710243225
			],
			"scale":[
				0.9999999403953552,
				1.0000004768371582,
				0.9999999403953552
			],
			"translation":[
				-0.14200738072395325,
				0.2632989287376404,
				0.021090324968099594
			]
		},
		{
			"name":"Tail.001.L",
			"rotation":[
				0.6085127592086792,
				0.2463628500699997,
				-0.6783772110939026,
				0.32988181710243225
			],
			"scale":[
				0.9999999403953552,
				1.0000004768371582,
				0.9999999403953552
			],
			"translation":[
				0.14200738072395325,
				0.2632989287376404,
				0.021090324968099594
			]
		},
		{
			"name":"Tail.002.R",
			"rotation":[
				0.5937437415122986,
				-0.1563207060098648,
				0.7817022800445557,
				0.10942520201206207
			],
			"scale":[
				0.9999998211860657,
				0.9999996423721313,
				1
			],
			"translation":[
				-0.16783592104911804,
				0.2244749665260315,
				-0.0709470584988594
			]
		},
		{
			"name":"Tail.002.L",
			"rotation":[
				0.5937437415122986,
				0.1563207060098648,
				-0.7817022800445557,
				0.10942520201206207
			],
			"scale":[
				0.9999998211860657,
				0.9999996423721313,
				1
			],
			"translation":[
				0.16783592104911804,
				0.2244749665260315,
				-0.0709470584988594
			]
		},
		{
			"name":"Tail.003.R",
			"rotation":[
				0.11852455884218216,
				-0.12294730544090271,
				0.9849758148193359,
				0.025661688297986984
			],
			"scale":[
				1,
				0.9999996423721313,
				0.9999999403953552
			],
			"translation":[
				-0.06162592023611069,
				0.1595163345336914,
				-0.183779776096344
			]
		},
		{
			"name":"Tail.003.L",
			"rotation":[
				0.11852455884218216,
				0.12294730544090271,
				-0.9849758148193359,
				0.025661688297986984
			],
			"scale":[
				1,
				0.9999996423721313,
				0.9999999403953552
			],
			"translation":[
				0.06162592023611069,
				0.1595163345336914,
				-0.183779776096344
			]
		},
		{
			"children":[
				0,
				1,
				2,
				3,
				4,
				5,
				6,
				7,
				8,
				9,
				10,
				11,
				12,
				13,
				14,
				15,
				16,
				17,
				18,
				19,
				20,
				21,
				22,
				23,
				24,
				25,
				26
			],
			"name":"Bone",
			"rotation":[
				0.016126859933137894,
				0,
				0,
				0.9998699426651001
			]
		},
		{
			"mesh":0,
			"name":"hair.boy",
			"skin":0
		},
		{
			"children":[
				28,
				27
			],
			"name":"Skeleton.Hair.Boy"
		}
	],
	"materials":[
		{
			"alphaCutoff":0.5,
			"alphaMode":"MASK",
			"doubleSided":true,
			"extensions":{
				"KHR_materials_specular":{
					"specularColorFactor":[
						0,
						0,
						0
					]
				},
				"KHR_materials_ior":{
					"ior":1.4500000476837158
				}
			},
			"name":"hair.tex",
			"pbrMetallicRoughness":{
				"baseColorTexture":{
					"index":0,
					"texCoord":1
				},
				"metallicFactor":0
			}
		}
	],
	"meshes":[
		{
			"name":"hair.boy",
			"primitives":[
				{
					"attributes":{
						"POSITION":0,
						"NORMAL":1,
						"TEXCOORD_0":2,
						"TEXCOORD_1":3,
						"JOINTS_0":4,
						"WEIGHTS_0":5
					},
					"indices":6,
					"material":0
				}
			]
		}
	],
	"textures":[
		{
			"sampler":0,
			"source":0
		}
	],
	"images":[
		{
			"mimeType":"image/png",
			"name":"hair",
			"uri":"hair.png"
		}
	],
	"skins":[
		{
			"inverseBindMatrices":7,
			"joints":[
				27,
				0,
				1,
				2,
				3,
				4,
				5,
				6,
				7,
				8,
				9,
				10,
				11,
				12,
				13,
				14,
				15,
				16,
				17,
				18,
				19,
				20,
				21,
				22,
				23,
				24,
				25,
				26
			],
			"name":"Skeleton.Hair.Boy"
		}
	],
	"accessors":[
		{
			"bufferView":0,
			"componentType":5126,
			"count":1413,
			"max":[
				0.20741385221481323,
				0.33142098784446716,
				0.2190413922071457
			],
			"min":[
				-0.20741385221481323,
				-0.09913238883018494,
				-0.2107505053281784
			],
			"type":"VEC3"
		},
		{
			"bufferView":1,
			"componentType":5126,
			"count":1413,
			"type":"VEC3"
		},
		{
			"bufferView":2,
			"componentType":5126,
			"count":1413,
			"type":"VEC2"
		},
		{
			"bufferView":3,
			"componentType":5126,
			"count":1413,
			"type":"VEC2"
		},
		{
			"bufferView":4,
			"componentType":5121,
			"count":1413,
			"type":"VEC4"
		},
		{
			"bufferView":5,
			"componentType":5126,
			"count":1413,
			"type":"VEC4"
		},
		{
			"bufferView":6,
			"componentType":5123,
			"count":3936,
			"type":"SCALAR"
		},
		{
			"bufferView":7,
			"componentType":5126,
			"count":28,
			"type":"MAT4"
		}
	],
	"bufferViews":[
		{
			"buffer":0,
			"byteLength":16956,
			"byteOffset":0,
			"target":34962
		},
		{
			"buffer":0,
			"byteLength":16956,
			"byteOffset":16956,
			"target":34962
		},
		{
			"buffer":0,
			"byteLength":11304,
			"byteOffset":33912,
			"target":34962
		},
		{
			"buffer":0,
			"byteLength":11304,
			"byteOffset":45216,
			"target":34962
		},
		{
			"buffer":0,
			"byteLength":5652,
			"byteOffset":56520,
			"target":34962
		},
		{
			"buffer":0,
			"byteLength":22608,
			"byteOffset":62172,
			"target":34962
		},
		{
			"buffer":0,
			"byteLength":7872,
			"byteOffset":84780,
			"target":34963
		},
		{
			"buffer":0,
			"byteLength":1792,
			"byteOffset":92652
		}
	],
	"samplers":[
		{
			"magFilter":9729,
			"minFilter":9987
		}
	],
	"buffers":[
		{
			"byteLength":94444,
			"uri":"hair_intro.bin"
		}
	]
}
