{
	"asset":{
		"copyright":"@serufu_yua",
		"generator":"Khronos glTF Blender I/O v3.6.28",
		"version":"2.0"
	},
	"scene":0,
	"scenes":[
		{
			"name":"Scene",
			"nodes":[
				0,
				1,
				2,
				3,
				4,
				5,
				6,
				16
			]
		}
	],
	"nodes":[
		{
			"mesh":0,
			"name":"motor-road.collider"
		},
		{
			"mesh":1,
			"name":"access_way.collider",
			"translation":[
				0,
				-0.058300018310546875,
				-12.82598876953125
			]
		},
		{
			"mesh":2,
			"name":"power_pylon.collider.001",
			"translation":[
				5.1625823974609375,
				-0.056742310523986816,
				-8.827972412109375
			]
		},
		{
			"mesh":2,
			"name":"power_pylon.collider.002",
			"translation":[
				33.37255859375,
				0.7192916870117188,
				-9.853485107421875
			]
		},
		{
			"mesh":2,
			"name":"power_pylon.collider.003",
			"translation":[
				62.849853515625,
				0.3077545166015625,
				-10.564483642578125
			]
		},
		{
			"mesh":2,
			"name":"power_pylon.collider.004",
			"translation":[
				-23.59320068359375,
				-0.28658103942871094,
				-9.888824462890625
			]
		},
		{
			"mesh":2,
			"name":"power_pylon.collider.005",
			"translation":[
				-53.5404052734375,
				-0.5036849975585938,
				-11.56207275390625
			]
		},
		{
			"mesh":3,
			"name":"container_box.collider"
		},
		{
			"mesh":4,
			"name":"hovel.collider"
		},
		{
			"mesh":5,
			"name":"wood_plank.003",
			"rotation":[
				0.05495018884539604,
				0,
				0,
				0.9984892010688782
			],
			"translation":[
				-0.5247001647949219,
				-0.058300018310546875,
				4.08099365234375
			]
		},
		{
			"mesh":5,
			"name":"wood_plank.004",
			"rotation":[
				0,
				0.7372773289680481,
				0,
				0.6755902171134949
			],
			"translation":[
				2.27740478515625,
				-0.058300018310546875,
				3.2434463500976562
			]
		},
		{
			"mesh":6,
			"name":"tube.stay.collider.001",
			"translation":[
				-2.4486007690429688,
				-0.17490005493164062,
				4.4716033935546875
			]
		},
		{
			"mesh":6,
			"name":"tube.stay.collider.002",
			"translation":[
				2.4486007690429688,
				-0.17490005493164062,
				4.4716033935546875
			]
		},
		{
			"mesh":7,
			"name":"lighter.collider",
			"translation":[
				0,
				2,
				4.215087890625
			]
		},
		{
			"mesh":8,
			"name":"concrete_ramp.collider",
			"translation":[
				0,
				-0.17490005493164062,
				4.08099365234375
			]
		},
		{
			"mesh":9,
			"name":"Cube",
			"translation":[
				-1.3117485046386719,
				2.6234970092773438,
				0
			]
		},
		{
			"children":[
				7,
				8,
				9,
				10,
				11,
				12,
				13,
				14,
				15
			],
			"name":"home.collider",
			"translation":[
				0,
				0.11660003662109375,
				-25.9434814453125
			]
		}
	],
	"meshes":[
		{
			"name":"Plane.002",
			"primitives":[
				{
					"attributes":{
						"POSITION":0,
						"NORMAL":1
					},
					"indices":2
				}
			]
		},
		{
			"name":"Plane.004",
			"primitives":[
				{
					"attributes":{
						"POSITION":3,
						"NORMAL":4,
						"TANGENT":5
					},
					"indices":6
				}
			]
		},
		{
			"name":"Cube.001",
			"primitives":[
				{
					"attributes":{
						"POSITION":7,
						"NORMAL":8,
						"TANGENT":9
					},
					"indices":10
				}
			]
		},
		{
			"name":"Cube.016",
			"primitives":[
				{
					"attributes":{
						"POSITION":11,
						"NORMAL":12,
						"TANGENT":13
					},
					"indices":14
				}
			]
		},
		{
			"name":"Cube.019",
			"primitives":[
				{
					"attributes":{
						"POSITION":15,
						"NORMAL":16,
						"TANGENT":17
					},
					"indices":18
				}
			]
		},
		{
			"name":"Cube.020",
			"primitives":[
				{
					"attributes":{
						"POSITION":19,
						"NORMAL":20,
						"TANGENT":21
					},
					"indices":22
				}
			]
		},
		{
			"name":"Cube.022",
			"primitives":[
				{
					"attributes":{
						"POSITION":23,
						"NORMAL":24,
						"TANGENT":25
					},
					"indices":14
				}
			]
		},
		{
			"name":"Cube.023",
			"primitives":[
				{
					"attributes":{
						"POSITION":26,
						"NORMAL":27,
						"TANGENT":28
					},
					"indices":29
				}
			]
		},
		{
			"name":"Plane.004",
			"primitives":[
				{
					"attributes":{
						"POSITION":30,
						"NORMAL":31
					},
					"indices":32
				}
			]
		},
		{
			"name":"Cube.024",
			"primitives":[
				{
					"attributes":{
						"POSITION":33,
						"NORMAL":34,
						"TANGENT":35
					},
					"indices":36
				}
			]
		}
	],
	"accessors":[
		{
			"bufferView":0,
			"componentType":5126,
			"count":12428,
			"max":[
				79.49861145019531,
				34.72294998168945,
				77.5784912109375
			],
			"min":[
				-80.16252136230469,
				-12.0025634765625,
				-106.8612289428711
			],
			"type":"VEC3"
		},
		{
			"bufferView":1,
			"componentType":5126,
			"count":12428,
			"type":"VEC3"
		},
		{
			"bufferView":2,
			"componentType":5123,
			"count":19548,
			"type":"SCALAR"
		},
		{
			"bufferView":3,
			"componentType":5126,
			"count":44,
			"max":[
				2.061882972717285,
				0.058300018310546875,
				8.366052627563477
			],
			"min":[
				-2.061882972717285,
				-1.7791753634810448e-06,
				-7.783052444458008
			],
			"type":"VEC3"
		},
		{
			"bufferView":4,
			"componentType":5126,
			"count":44,
			"type":"VEC3"
		},
		{
			"bufferView":5,
			"componentType":5126,
			"count":44,
			"type":"VEC4"
		},
		{
			"bufferView":6,
			"componentType":5123,
			"count":144,
			"type":"SCALAR"
		},
		{
			"bufferView":7,
			"componentType":5126,
			"count":157,
			"max":[
				0.10000002384185791,
				7.559999942779541,
				1
			],
			"min":[
				-0.24000002443790436,
				0,
				-1
			],
			"type":"VEC3"
		},
		{
			"bufferView":8,
			"componentType":5126,
			"count":157,
			"type":"VEC3"
		},
		{
			"bufferView":9,
			"componentType":5126,
			"count":157,
			"type":"VEC4"
		},
		{
			"bufferView":10,
			"componentType":5123,
			"count":324,
			"type":"SCALAR"
		},
		{
			"bufferView":11,
			"componentType":5126,
			"count":24,
			"max":[
				2.623500108718872,
				2.6526501178741455,
				3.0607500076293945
			],
			"min":[
				-2.623500108718872,
				-0.17489999532699585,
				-3.0607500076293945
			],
			"type":"VEC3"
		},
		{
			"bufferView":12,
			"componentType":5126,
			"count":24,
			"type":"VEC3"
		},
		{
			"bufferView":13,
			"componentType":5126,
			"count":24,
			"type":"VEC4"
		},
		{
			"bufferView":14,
			"componentType":5123,
			"count":36,
			"type":"SCALAR"
		},
		{
			"bufferView":15,
			"componentType":5126,
			"count":53,
			"max":[
				2.6823132038116455,
				2.669769287109375,
				4.537317276000977
			],
			"min":[
				-2.682310104370117,
				2.2708675861358643,
				3.060746431350708
			],
			"type":"VEC3"
		},
		{
			"bufferView":16,
			"componentType":5126,
			"count":53,
			"type":"VEC3"
		},
		{
			"bufferView":17,
			"componentType":5126,
			"count":53,
			"type":"VEC4"
		},
		{
			"bufferView":18,
			"componentType":5123,
			"count":84,
			"type":"SCALAR"
		},
		{
			"bufferView":19,
			"componentType":5126,
			"count":24,
			"max":[
				0.1457500457763672,
				0.029150009155273438,
				0.029150009155273438
			],
			"min":[
				-0.1457500457763672,
				-0.029150009155273438,
				-1.0785503387451172
			],
			"type":"VEC3"
		},
		{
			"bufferView":20,
			"componentType":5126,
			"count":24,
			"type":"VEC3"
		},
		{
			"bufferView":21,
			"componentType":5126,
			"count":24,
			"type":"VEC4"
		},
		{
			"bufferView":22,
			"componentType":5123,
			"count":36,
			"type":"SCALAR"
		},
		{
			"bufferView":23,
			"componentType":5126,
			"count":24,
			"max":[
				0.019999995827674866,
				2.549999952316284,
				0.019999995827674866
			],
			"min":[
				-0.019999995827674866,
				0,
				-0.019999999552965164
			],
			"type":"VEC3"
		},
		{
			"bufferView":24,
			"componentType":5126,
			"count":24,
			"type":"VEC3"
		},
		{
			"bufferView":25,
			"componentType":5126,
			"count":24,
			"type":"VEC4"
		},
		{
			"bufferView":26,
			"componentType":5126,
			"count":58,
			"max":[
				0.11500000208616257,
				0.27000004053115845,
				0.17500001192092896
			],
			"min":[
				-0.11500000953674316,
				-0.16499999165534973,
				-0.17499999701976776
			],
			"type":"VEC3"
		},
		{
			"bufferView":27,
			"componentType":5126,
			"count":58,
			"type":"VEC3"
		},
		{
			"bufferView":28,
			"componentType":5126,
			"count":58,
			"type":"VEC4"
		},
		{
			"bufferView":29,
			"componentType":5123,
			"count":108,
			"type":"SCALAR"
		},
		{
			"bufferView":30,
			"componentType":5126,
			"count":46,
			"max":[
				3.7776029109954834,
				0.08745002746582031,
				1.7339491844177246
			],
			"min":[
				-3.7137367725372314,
				0,
				-1.905092716217041
			],
			"type":"VEC3"
		},
		{
			"bufferView":31,
			"componentType":5126,
			"count":46,
			"type":"VEC3"
		},
		{
			"bufferView":32,
			"componentType":5123,
			"count":159,
			"type":"SCALAR"
		},
		{
			"bufferView":33,
			"componentType":5126,
			"count":146,
			"max":[
				0.2149999588727951,
				4.300000190734863,
				0.1499999612569809
			],
			"min":[
				-0.22499996423721313,
				0,
				-0.1499999612569809
			],
			"type":"VEC3"
		},
		{
			"bufferView":34,
			"componentType":5126,
			"count":146,
			"type":"VEC3"
		},
		{
			"bufferView":35,
			"componentType":5126,
			"count":146,
			"type":"VEC4"
		},
		{
			"bufferView":36,
			"componentType":5123,
			"count":276,
			"type":"SCALAR"
		}
	],
	"bufferViews":[
		{
			"buffer":0,
			"byteLength":149136,
			"byteOffset":0,
			"target":34962
		},
		{
			"buffer":0,
			"byteLength":149136,
			"byteOffset":149136,
			"target":34962
		},
		{
			"buffer":0,
			"byteLength":39096,
			"byteOffset":298272,
			"target":34963
		},
		{
			"buffer":0,
			"byteLength":528,
			"byteOffset":337368,
			"target":34962
		},
		{
			"buffer":0,
			"byteLength":528,
			"byteOffset":337896,
			"target":34962
		},
		{
			"buffer":0,
			"byteLength":704,
			"byteOffset":338424,
			"target":34962
		},
		{
			"buffer":0,
			"byteLength":288,
			"byteOffset":339128,
			"target":34963
		},
		{
			"buffer":0,
			"byteLength":1884,
			"byteOffset":339416,
			"target":34962
		},
		{
			"buffer":0,
			"byteLength":1884,
			"byteOffset":341300,
			"target":34962
		},
		{
			"buffer":0,
			"byteLength":2512,
			"byteOffset":343184,
			"target":34962
		},
		{
			"buffer":0,
			"byteLength":648,
			"byteOffset":345696,
			"target":34963
		},
		{
			"buffer":0,
			"byteLength":288,
			"byteOffset":346344,
			"target":34962
		},
		{
			"buffer":0,
			"byteLength":288,
			"byteOffset":346632,
			"target":34962
		},
		{
			"buffer":0,
			"byteLength":384,
			"byteOffset":346920,
			"target":34962
		},
		{
			"buffer":0,
			"byteLength":72,
			"byteOffset":347304,
			"target":34963
		},
		{
			"buffer":0,
			"byteLength":636,
			"byteOffset":347376,
			"target":34962
		},
		{
			"buffer":0,
			"byteLength":636,
			"byteOffset":348012,
			"target":34962
		},
		{
			"buffer":0,
			"byteLength":848,
			"byteOffset":348648,
			"target":34962
		},
		{
			"buffer":0,
			"byteLength":168,
			"byteOffset":349496,
			"target":34963
		},
		{
			"buffer":0,
			"byteLength":288,
			"byteOffset":349664,
			"target":34962
		},
		{
			"buffer":0,
			"byteLength":288,
			"byteOffset":349952,
			"target":34962
		},
		{
			"buffer":0,
			"byteLength":384,
			"byteOffset":350240,
			"target":34962
		},
		{
			"buffer":0,
			"byteLength":72,
			"byteOffset":350624,
			"target":34963
		},
		{
			"buffer":0,
			"byteLength":288,
			"byteOffset":350696,
			"target":34962
		},
		{
			"buffer":0,
			"byteLength":288,
			"byteOffset":350984,
			"target":34962
		},
		{
			"buffer":0,
			"byteLength":384,
			"byteOffset":351272,
			"target":34962
		},
		{
			"buffer":0,
			"byteLength":696,
			"byteOffset":351656,
			"target":34962
		},
		{
			"buffer":0,
			"byteLength":696,
			"byteOffset":352352,
			"target":34962
		},
		{
			"buffer":0,
			"byteLength":928,
			"byteOffset":353048,
			"target":34962
		},
		{
			"buffer":0,
			"byteLength":216,
			"byteOffset":353976,
			"target":34963
		},
		{
			"buffer":0,
			"byteLength":552,
			"byteOffset":354192,
			"target":34962
		},
		{
			"buffer":0,
			"byteLength":552,
			"byteOffset":354744,
			"target":34962
		},
		{
			"buffer":0,
			"byteLength":318,
			"byteOffset":355296,
			"target":34963
		},
		{
			"buffer":0,
			"byteLength":1752,
			"byteOffset":355616,
			"target":34962
		},
		{
			"buffer":0,
			"byteLength":1752,
			"byteOffset":357368,
			"target":34962
		},
		{
			"buffer":0,
			"byteLength":2336,
			"byteOffset":359120,
			"target":34962
		},
		{
			"buffer":0,
			"byteLength":552,
			"byteOffset":361456,
			"target":34963
		}
	],
	"buffers":[
		{
			"byteLength":362008,
			"uri":"road_asteroid_collider.bin"
		}
	]
}
