{
	"asset":{
		"generator":"Khronos glTF Blender I/O v3.6.28",
		"version":"2.0"
	},
	"scene":0,
	"scenes":[
		{
			"name":"Scene",
			"nodes":[
				0
			]
		}
	],
	"nodes":[
		{
			"mesh":0,
			"name":"Solderer"
		}
	],
	"materials":[
		{
			"doubleSided":true,
			"name":"Material",
			"pbrMetallicRoughness":{
				"baseColorFactor":[
					0.013839971274137497,
					0.8000000715255737,
					0,
					1
				],
				"metallicFactor":0,
				"roughnessFactor":0.15000000596046448
			}
		},
		{
			"doubleSided":true,
			"name":"Needle",
			"pbrMetallicRoughness":{
				"baseColorFactor":[
					0.0785871148109436,
					0.025043979287147522,
					0.004119600635021925,
					1
				],
				"metallicFactor":0.7863636612892151,
				"roughnessFactor":0.9454545378684998
			}
		},
		{
			"doubleSided":true,
			"name":"Guard",
			"pbrMetallicRoughness":{
				"baseColorFactor":[
					0.02669548988342285,
					0.1483231484889984,
					0.004657921846956015,
					1
				],
				"metallicFactor":0,
				"roughnessFactor":0.75
			}
		}
	],
	"meshes":[
		{
			"name":"BezierCurve",
			"primitives":[
				{
					"attributes":{
						"POSITION":0,
						"NORMAL":1,
						"TEXCOORD_0":2
					},
					"indices":3,
					"material":0
				},
				{
					"attributes":{
						"POSITION":4,
						"NORMAL":5,
						"TEXCOORD_0":6
					},
					"indices":7,
					"material":1
				},
				{
					"attributes":{
						"POSITION":8,
						"NORMAL":9,
						"TEXCOORD_0":10
					},
					"indices":11,
					"material":2
				}
			]
		}
	],
	"accessors":[
		{
			"bufferView":0,
			"componentType":5126,
			"count":206,
			"max":[
				0.019999999552965164,
				0.019999999552965164,
				0.019999999552965164
			],
			"min":[
				-0.09999999403953552,
				-0.019999999552965164,
				-0.019999999552965164
			],
			"type":"VEC3"
		},
		{
			"bufferView":1,
			"componentType":5126,
			"count":206,
			"type":"VEC3"
		},
		{
			"bufferView":2,
			"componentType":5126,
			"count":206,
			"type":"VEC2"
		},
		{
			"bufferView":3,
			"componentType":5123,
			"count":504,
			"type":"SCALAR"
		},
		{
			"bufferView":4,
			"componentType":5126,
			"count":51,
			"max":[
				0.09999999403953552,
				0.004999999888241291,
				0.004999999888241291
			],
			"min":[
				0.059999994933605194,
				-0.004999999888241291,
				-0.004999999888241291
			],
			"type":"VEC3"
		},
		{
			"bufferView":5,
			"componentType":5126,
			"count":51,
			"type":"VEC3"
		},
		{
			"bufferView":6,
			"componentType":5126,
			"count":51,
			"type":"VEC2"
		},
		{
			"bufferView":7,
			"componentType":5123,
			"count":108,
			"type":"SCALAR"
		},
		{
			"bufferView":8,
			"componentType":5126,
			"count":181,
			"max":[
				0.059999994933605194,
				0.024000000208616257,
				0.024000000208616257
			],
			"min":[
				-0.10999999195337296,
				-0.024000000208616257,
				-0.024000000208616257
			],
			"type":"VEC3"
		},
		{
			"bufferView":9,
			"componentType":5126,
			"count":181,
			"type":"VEC3"
		},
		{
			"bufferView":10,
			"componentType":5126,
			"count":181,
			"type":"VEC2"
		},
		{
			"bufferView":11,
			"componentType":5123,
			"count":468,
			"type":"SCALAR"
		}
	],
	"bufferViews":[
		{
			"buffer":0,
			"byteLength":2472,
			"byteOffset":0,
			"target":34962
		},
		{
			"buffer":0,
			"byteLength":2472,
			"byteOffset":2472,
			"target":34962
		},
		{
			"buffer":0,
			"byteLength":1648,
			"byteOffset":4944,
			"target":34962
		},
		{
			"buffer":0,
			"byteLength":1008,
			"byteOffset":6592,
			"target":34963
		},
		{
			"buffer":0,
			"byteLength":612,
			"byteOffset":7600,
			"target":34962
		},
		{
			"buffer":0,
			"byteLength":612,
			"byteOffset":8212,
			"target":34962
		},
		{
			"buffer":0,
			"byteLength":408,
			"byteOffset":8824,
			"target":34962
		},
		{
			"buffer":0,
			"byteLength":216,
			"byteOffset":9232,
			"target":34963
		},
		{
			"buffer":0,
			"byteLength":2172,
			"byteOffset":9448,
			"target":34962
		},
		{
			"buffer":0,
			"byteLength":2172,
			"byteOffset":11620,
			"target":34962
		},
		{
			"buffer":0,
			"byteLength":1448,
			"byteOffset":13792,
			"target":34962
		},
		{
			"buffer":0,
			"byteLength":936,
			"byteOffset":15240,
			"target":34963
		}
	],
	"buffers":[
		{
			"byteLength":16176,
			"uri":"solderer.bin"
		}
	]
}
