{
	"asset":{
		"copyright":"@serufu_yua",
		"generator":"Khronos glTF Blender I/O v3.6.28",
		"version":"2.0"
	},
	"scene":0,
	"scenes":[
		{
			"name":"Scene",
			"nodes":[
				0
			]
		}
	],
	"nodes":[
		{
			"mesh":0,
			"name":"body"
		}
	],
	"materials":[
		{
			"doubleSided":true,
			"emissiveFactor":[
				1,
				1,
				1
			],
			"emissiveTexture":{
				"index":0
			},
			"name":"pda.tex",
			"normalTexture":{
				"index":1
			},
			"occlusionTexture":{
				"index":2
			},
			"pbrMetallicRoughness":{
				"baseColorTexture":{
					"index":3
				},
				"metallicFactor":0.20000000298023224,
				"roughnessFactor":0.8500000238418579
			}
		}
	],
	"meshes":[
		{
			"name":"Cube",
			"primitives":[
				{
					"attributes":{
						"POSITION":0,
						"NORMAL":1,
						"TEXCOORD_0":2,
						"TEXCOORD_1":3,
						"TEXCOORD_2":4,
						"TEXCOORD_3":5,
						"TEXCOORD_4":6
					},
					"indices":7,
					"material":0
				}
			]
		}
	],
	"textures":[
		{
			"sampler":0,
			"source":0
		},
		{
			"sampler":0,
			"source":1
		},
		{
			"sampler":0,
			"source":2
		},
		{
			"sampler":0,
			"source":3
		}
	],
	"images":[
		{
			"mimeType":"image/png",
			"name":"pda_e",
			"uri":"pda_e.png"
		},
		{
			"mimeType":"image/png",
			"name":"pda_n",
			"uri":"pda_n.png"
		},
		{
			"mimeType":"image/png",
			"name":"pda_o",
			"uri":"pda_o.png"
		},
		{
			"mimeType":"image/png",
			"name":"pda",
			"uri":"pda.png"
		}
	],
	"accessors":[
		{
			"bufferView":0,
			"componentType":5126,
			"count":116,
			"max":[
				0.07500002533197403,
				0.013000003062188625,
				0.050000011920928955
			],
			"min":[
				-0.07500002533197403,
				-0.010000000707805157,
				-0.057500019669532776
			],
			"type":"VEC3"
		},
		{
			"bufferView":1,
			"componentType":5126,
			"count":116,
			"type":"VEC3"
		},
		{
			"bufferView":2,
			"componentType":5126,
			"count":116,
			"type":"VEC2"
		},
		{
			"bufferView":3,
			"componentType":5126,
			"count":116,
			"type":"VEC2"
		},
		{
			"bufferView":4,
			"componentType":5126,
			"count":116,
			"type":"VEC2"
		},
		{
			"bufferView":5,
			"componentType":5126,
			"count":116,
			"type":"VEC2"
		},
		{
			"bufferView":6,
			"componentType":5126,
			"count":116,
			"type":"VEC2"
		},
		{
			"bufferView":7,
			"componentType":5123,
			"count":204,
			"type":"SCALAR"
		}
	],
	"bufferViews":[
		{
			"buffer":0,
			"byteLength":1392,
			"byteOffset":0,
			"target":34962
		},
		{
			"buffer":0,
			"byteLength":1392,
			"byteOffset":1392,
			"target":34962
		},
		{
			"buffer":0,
			"byteLength":928,
			"byteOffset":2784,
			"target":34962
		},
		{
			"buffer":0,
			"byteLength":928,
			"byteOffset":3712,
			"target":34962
		},
		{
			"buffer":0,
			"byteLength":928,
			"byteOffset":4640,
			"target":34962
		},
		{
			"buffer":0,
			"byteLength":928,
			"byteOffset":5568,
			"target":34962
		},
		{
			"buffer":0,
			"byteLength":928,
			"byteOffset":6496,
			"target":34962
		},
		{
			"buffer":0,
			"byteLength":408,
			"byteOffset":7424,
			"target":34963
		}
	],
	"samplers":[
		{
			"magFilter":9729,
			"minFilter":9987
		}
	],
	"buffers":[
		{
			"byteLength":7832,
			"uri":"pda_body.bin"
		}
	]
}
