{
	"asset":{
		"copyright":"@serufu_yua",
		"generator":"Khronos glTF Blender I/O v3.6.28",
		"version":"2.0"
	},
	"scene":0,
	"scenes":[
		{
			"name":"Scene",
			"nodes":[
				0,
				4
			]
		}
	],
	"nodes":[
		{
			"mesh":0,
			"name":"Room"
		},
		{
			"mesh":1,
			"name":"Door.Half.Open.R"
		},
		{
			"mesh":2,
			"name":"Door.Half.Open.L"
		},
		{
			"mesh":3,
			"name":"Frame.Half.Open"
		},
		{
			"children":[
				1,
				2,
				3
			],
			"name":"Door.Half.Open",
			"rotation":[
				0,
				0.7071067094802856,
				0,
				0.7071068286895752
			],
			"translation":[
				-5.099999904632568,
				0,
				0
			]
		}
	],
	"materials":[
		{
			"doubleSided":true,
			"name":"Aluminum_Flat",
			"normalTexture":{
				"index":0
			},
			"pbrMetallicRoughness":{
				"baseColorFactor":[
					0.800000011920929,
					0.800000011920929,
					0.800000011920929,
					1
				],
				"metallicFactor":0.9636363387107849,
				"roughnessFactor":0.44999998807907104
			}
		},
		{
			"doubleSided":true,
			"name":"Metal_White",
			"normalTexture":{
				"index":1
			},
			"pbrMetallicRoughness":{
				"metallicFactor":0.4272727370262146,
				"roughnessFactor":0.23636364936828613
			}
		},
		{
			"doubleSided":true,
			"emissiveFactor":[
				1,
				1,
				1
			],
			"emissiveTexture":{
				"index":2
			},
			"name":"Light.Open",
			"normalTexture":{
				"index":3
			},
			"pbrMetallicRoughness":{
				"baseColorTexture":{
					"index":4
				},
				"metallicFactor":0,
				"roughnessFactor":0.00909090880304575
			}
		}
	],
	"meshes":[
		{
			"name":"Cube.001",
			"primitives":[
				{
					"attributes":{
						"POSITION":0,
						"NORMAL":1,
						"TEXCOORD_0":2
					},
					"indices":3,
					"material":0
				},
				{
					"attributes":{
						"POSITION":4,
						"NORMAL":5,
						"TEXCOORD_0":6
					},
					"indices":7,
					"material":0
				}
			]
		},
		{
			"name":"Cube.009",
			"primitives":[
				{
					"attributes":{
						"POSITION":8,
						"NORMAL":9,
						"TEXCOORD_0":10
					},
					"indices":11,
					"material":1
				},
				{
					"attributes":{
						"POSITION":12,
						"NORMAL":13,
						"TEXCOORD_0":14
					},
					"indices":15,
					"material":2
				}
			]
		},
		{
			"name":"Cube.010",
			"primitives":[
				{
					"attributes":{
						"POSITION":16,
						"NORMAL":17,
						"TEXCOORD_0":18
					},
					"indices":19,
					"material":1
				},
				{
					"attributes":{
						"POSITION":20,
						"NORMAL":21,
						"TEXCOORD_0":22
					},
					"indices":23,
					"material":2
				}
			]
		},
		{
			"name":"Cube.014",
			"primitives":[
				{
					"attributes":{
						"POSITION":24,
						"NORMAL":25,
						"TEXCOORD_0":26,
						"TANGENT":27
					},
					"indices":28,
					"material":1
				}
			]
		}
	],
	"textures":[
		{
			"sampler":0,
			"source":0
		},
		{
			"sampler":0,
			"source":1
		},
		{
			"sampler":0,
			"source":2
		},
		{
			"sampler":0,
			"source":3
		},
		{
			"sampler":0,
			"source":2
		}
	],
	"images":[
		{
			"mimeType":"image/png",
			"name":"aluminum2_n",
			"uri":"aluminum2_n.png"
		},
		{
			"mimeType":"image/png",
			"name":"plastic.n",
			"uri":"plastic_n.png"
		},
		{
			"mimeType":"image/png",
			"name":"light_blue",
			"uri":"light_blue.png"
		},
		{
			"mimeType":"image/png",
			"name":"light_n",
			"uri":"light_n.png"
		}
	],
	"accessors":[
		{
			"bufferView":0,
			"componentType":5126,
			"count":96,
			"max":[
				5,
				5,
				5
			],
			"min":[
				-5.299999713897705,
				-3.725290298461914e-09,
				-5
			],
			"type":"VEC3"
		},
		{
			"bufferView":1,
			"componentType":5126,
			"count":96,
			"type":"VEC3"
		},
		{
			"bufferView":2,
			"componentType":5126,
			"count":96,
			"type":"VEC2"
		},
		{
			"bufferView":3,
			"componentType":5123,
			"count":240,
			"type":"SCALAR"
		},
		{
			"bufferView":4,
			"componentType":5126,
			"count":40,
			"max":[
				5,
				0.30000001192092896,
				5
			],
			"min":[
				-5,
				-1.862645149230957e-09,
				-5
			],
			"type":"VEC3"
		},
		{
			"bufferView":5,
			"componentType":5126,
			"count":40,
			"type":"VEC3"
		},
		{
			"bufferView":6,
			"componentType":5126,
			"count":40,
			"type":"VEC2"
		},
		{
			"bufferView":7,
			"componentType":5123,
			"count":60,
			"type":"SCALAR"
		},
		{
			"bufferView":8,
			"componentType":5126,
			"count":100,
			"max":[
				0.6000000238418579,
				2.200000047683716,
				0.07999999821186066
			],
			"min":[
				-0.5,
				0,
				-0.07999999821186066
			],
			"type":"VEC3"
		},
		{
			"bufferView":9,
			"componentType":5126,
			"count":100,
			"type":"VEC3"
		},
		{
			"bufferView":10,
			"componentType":5126,
			"count":100,
			"type":"VEC2"
		},
		{
			"bufferView":11,
			"componentType":5123,
			"count":198,
			"type":"SCALAR"
		},
		{
			"bufferView":12,
			"componentType":5126,
			"count":12,
			"max":[
				0.30000001192092896,
				1.6700000762939453,
				0.06000000238418579
			],
			"min":[
				-0.25909093022346497,
				0.5300000309944153,
				0.06000000238418579
			],
			"type":"VEC3"
		},
		{
			"bufferView":13,
			"componentType":5126,
			"count":12,
			"type":"VEC3"
		},
		{
			"bufferView":14,
			"componentType":5126,
			"count":12,
			"type":"VEC2"
		},
		{
			"bufferView":15,
			"componentType":5123,
			"count":18,
			"type":"SCALAR"
		},
		{
			"bufferView":16,
			"componentType":5126,
			"count":98,
			"max":[
				0.5,
				2.200000047683716,
				0.07999999821186066
			],
			"min":[
				-0.6000000238418579,
				0,
				-0.07999999821186066
			],
			"type":"VEC3"
		},
		{
			"bufferView":17,
			"componentType":5126,
			"count":98,
			"type":"VEC3"
		},
		{
			"bufferView":18,
			"componentType":5126,
			"count":98,
			"type":"VEC2"
		},
		{
			"bufferView":19,
			"componentType":5123,
			"count":192,
			"type":"SCALAR"
		},
		{
			"bufferView":20,
			"componentType":5126,
			"count":12,
			"max":[
				0.2590909004211426,
				1.6700000762939453,
				0.06000000238418579
			],
			"min":[
				-0.30000001192092896,
				0.5300000309944153,
				0.06000000238418579
			],
			"type":"VEC3"
		},
		{
			"bufferView":21,
			"componentType":5126,
			"count":12,
			"type":"VEC3"
		},
		{
			"bufferView":22,
			"componentType":5126,
			"count":12,
			"type":"VEC2"
		},
		{
			"bufferView":23,
			"componentType":5123,
			"count":18,
			"type":"SCALAR"
		},
		{
			"bufferView":24,
			"componentType":5126,
			"count":216,
			"max":[
				0.7496788501739502,
				2.3496789932250977,
				0.11499996483325958
			],
			"min":[
				-0.7496788501739502,
				-0.003266579005867243,
				-0.11499996483325958
			],
			"type":"VEC3"
		},
		{
			"bufferView":25,
			"componentType":5126,
			"count":216,
			"type":"VEC3"
		},
		{
			"bufferView":26,
			"componentType":5126,
			"count":216,
			"type":"VEC2"
		},
		{
			"bufferView":27,
			"componentType":5126,
			"count":216,
			"type":"VEC4"
		},
		{
			"bufferView":28,
			"componentType":5123,
			"count":786,
			"type":"SCALAR"
		}
	],
	"bufferViews":[
		{
			"buffer":0,
			"byteLength":1152,
			"byteOffset":0,
			"target":34962
		},
		{
			"buffer":0,
			"byteLength":1152,
			"byteOffset":1152,
			"target":34962
		},
		{
			"buffer":0,
			"byteLength":768,
			"byteOffset":2304,
			"target":34962
		},
		{
			"buffer":0,
			"byteLength":480,
			"byteOffset":3072,
			"target":34963
		},
		{
			"buffer":0,
			"byteLength":480,
			"byteOffset":3552,
			"target":34962
		},
		{
			"buffer":0,
			"byteLength":480,
			"byteOffset":4032,
			"target":34962
		},
		{
			"buffer":0,
			"byteLength":320,
			"byteOffset":4512,
			"target":34962
		},
		{
			"buffer":0,
			"byteLength":120,
			"byteOffset":4832,
			"target":34963
		},
		{
			"buffer":0,
			"byteLength":1200,
			"byteOffset":4952,
			"target":34962
		},
		{
			"buffer":0,
			"byteLength":1200,
			"byteOffset":6152,
			"target":34962
		},
		{
			"buffer":0,
			"byteLength":800,
			"byteOffset":7352,
			"target":34962
		},
		{
			"buffer":0,
			"byteLength":396,
			"byteOffset":8152,
			"target":34963
		},
		{
			"buffer":0,
			"byteLength":144,
			"byteOffset":8548,
			"target":34962
		},
		{
			"buffer":0,
			"byteLength":144,
			"byteOffset":8692,
			"target":34962
		},
		{
			"buffer":0,
			"byteLength":96,
			"byteOffset":8836,
			"target":34962
		},
		{
			"buffer":0,
			"byteLength":36,
			"byteOffset":8932,
			"target":34963
		},
		{
			"buffer":0,
			"byteLength":1176,
			"byteOffset":8968,
			"target":34962
		},
		{
			"buffer":0,
			"byteLength":1176,
			"byteOffset":10144,
			"target":34962
		},
		{
			"buffer":0,
			"byteLength":784,
			"byteOffset":11320,
			"target":34962
		},
		{
			"buffer":0,
			"byteLength":384,
			"byteOffset":12104,
			"target":34963
		},
		{
			"buffer":0,
			"byteLength":144,
			"byteOffset":12488,
			"target":34962
		},
		{
			"buffer":0,
			"byteLength":144,
			"byteOffset":12632,
			"target":34962
		},
		{
			"buffer":0,
			"byteLength":96,
			"byteOffset":12776,
			"target":34962
		},
		{
			"buffer":0,
			"byteLength":36,
			"byteOffset":12872,
			"target":34963
		},
		{
			"buffer":0,
			"byteLength":2592,
			"byteOffset":12908,
			"target":34962
		},
		{
			"buffer":0,
			"byteLength":2592,
			"byteOffset":15500,
			"target":34962
		},
		{
			"buffer":0,
			"byteLength":1728,
			"byteOffset":18092,
			"target":34962
		},
		{
			"buffer":0,
			"byteLength":3456,
			"byteOffset":19820,
			"target":34962
		},
		{
			"buffer":0,
			"byteLength":1572,
			"byteOffset":23276,
			"target":34963
		}
	],
	"samplers":[
		{
			"magFilter":9729,
			"minFilter":9987
		}
	],
	"buffers":[
		{
			"byteLength":24848,
			"uri":"abandoned_spaceship_lab_room.bin"
		}
	]
}
