{
	"asset":{
		"copyright":"@serufu_yua",
		"generator":"Khronos glTF Blender I/O v3.6.28",
		"version":"2.0"
	},
	"scene":0,
	"scenes":[
		{
			"name":"Scene",
			"nodes":[
				0,
				1,
				2,
				3,
				4,
				5,
				6,
				7,
				8,
				9,
				10
			]
		}
	],
	"nodes":[
		{
			"mesh":0,
			"name":"Room.Collider"
		},
		{
			"mesh":1,
			"name":"Bed.Collider",
			"translation":[
				2.5,
				0,
				3.2200000286102295
			]
		},
		{
			"mesh":2,
			"name":"Tbale.Collider",
			"rotation":[
				0,
				-0.5735764503479004,
				0,
				0.8191521763801575
			],
			"translation":[
				1.5999999046325684,
				0,
				-2.3500003814697266
			]
		},
		{
			"mesh":3,
			"name":"Chair.Collider.001",
			"rotation":[
				0,
				-0.5735764503479004,
				0,
				0.8191521763801575
			],
			"translation":[
				2.389376640319824,
				0,
				-2.5202503204345703
			]
		},
		{
			"mesh":4,
			"name":"Chair.Collider.002",
			"rotation":[
				0,
				-0.8660253882408142,
				0,
				0.5
			],
			"translation":[
				4.100000381469727,
				0,
				-0.4000002443790436
			]
		},
		{
			"mesh":5,
			"name":"Tabouret.Collider.001",
			"rotation":[
				0,
				0.3420201539993286,
				0,
				0.9396927356719971
			],
			"translation":[
				0.40000009536743164,
				0,
				3.200000047683716
			]
		},
		{
			"mesh":6,
			"name":"Box.Collider.001",
			"rotation":[
				0,
				-0.9914448857307434,
				0,
				0.13052619993686676
			],
			"translation":[
				-1.2999999523162842,
				0,
				4
			]
		},
		{
			"mesh":7,
			"name":"Box.Collider.002",
			"rotation":[
				0,
				0.9584676623344421,
				0,
				0.2852013409137726
			],
			"translation":[
				-2.75,
				0,
				3.799999952316284
			]
		},
		{
			"mesh":8,
			"name":"Box.Collider.003",
			"rotation":[
				0,
				0.7372773885726929,
				0,
				0.6755901575088501
			],
			"translation":[
				-2,
				1,
				4
			]
		},
		{
			"mesh":9,
			"name":"Box.Collider.004",
			"rotation":[
				0,
				-0.0871557667851448,
				0,
				0.9961947202682495
			],
			"translation":[
				-1,
				0,
				-3.75
			]
		},
		{
			"mesh":10,
			"name":"Box.Collider.005",
			"rotation":[
				0,
				0.21643958985805511,
				0,
				0.9762960076332092
			],
			"translation":[
				-2.5,
				0,
				-3.5
			]
		}
	],
	"meshes":[
		{
			"name":"Cube.003",
			"primitives":[
				{
					"attributes":{
						"POSITION":0,
						"NORMAL":1,
						"TEXCOORD_0":2,
						"TEXCOORD_1":3
					},
					"indices":4
				},
				{
					"attributes":{
						"POSITION":5,
						"NORMAL":6,
						"TEXCOORD_0":7,
						"TEXCOORD_1":8
					},
					"indices":9
				}
			]
		},
		{
			"name":"Cube",
			"primitives":[
				{
					"attributes":{
						"POSITION":10,
						"NORMAL":11,
						"TEXCOORD_0":12,
						"TANGENT":13
					},
					"indices":14
				}
			]
		},
		{
			"name":"Cube.002",
			"primitives":[
				{
					"attributes":{
						"POSITION":15,
						"NORMAL":16,
						"TEXCOORD_0":17,
						"TANGENT":18
					},
					"indices":19
				}
			]
		},
		{
			"name":"Cube.004",
			"primitives":[
				{
					"attributes":{
						"POSITION":20,
						"NORMAL":21,
						"TEXCOORD_0":22,
						"TANGENT":23
					},
					"indices":19
				}
			]
		},
		{
			"name":"Cube.005",
			"primitives":[
				{
					"attributes":{
						"POSITION":24,
						"NORMAL":25,
						"TEXCOORD_0":26,
						"TANGENT":27
					},
					"indices":19
				}
			]
		},
		{
			"name":"Cube.006",
			"primitives":[
				{
					"attributes":{
						"POSITION":28,
						"NORMAL":29,
						"TEXCOORD_0":30,
						"TANGENT":31
					},
					"indices":19
				}
			]
		},
		{
			"name":"Cube.007",
			"primitives":[
				{
					"attributes":{
						"POSITION":32,
						"NORMAL":33,
						"TEXCOORD_0":34,
						"TANGENT":35
					},
					"indices":19
				}
			]
		},
		{
			"name":"Cube.008",
			"primitives":[
				{
					"attributes":{
						"POSITION":36,
						"NORMAL":37,
						"TEXCOORD_0":38,
						"TANGENT":39
					},
					"indices":19
				}
			]
		},
		{
			"name":"Cube.009",
			"primitives":[
				{
					"attributes":{
						"POSITION":40,
						"NORMAL":41,
						"TEXCOORD_0":42,
						"TANGENT":43
					},
					"indices":19
				}
			]
		},
		{
			"name":"Cube.010",
			"primitives":[
				{
					"attributes":{
						"POSITION":44,
						"NORMAL":45,
						"TEXCOORD_0":46,
						"TANGENT":47
					},
					"indices":19
				}
			]
		},
		{
			"name":"Cube.012",
			"primitives":[
				{
					"attributes":{
						"POSITION":48,
						"NORMAL":49,
						"TEXCOORD_0":50,
						"TANGENT":51
					},
					"indices":19
				}
			]
		}
	],
	"accessors":[
		{
			"bufferView":0,
			"componentType":5126,
			"count":48,
			"max":[
				4.699999809265137,
				5,
				4.699999809265137
			],
			"min":[
				-5,
				-3.725290298461914e-09,
				-4.699999809265137
			],
			"type":"VEC3"
		},
		{
			"bufferView":1,
			"componentType":5126,
			"count":48,
			"type":"VEC3"
		},
		{
			"bufferView":2,
			"componentType":5126,
			"count":48,
			"type":"VEC2"
		},
		{
			"bufferView":3,
			"componentType":5126,
			"count":48,
			"type":"VEC2"
		},
		{
			"bufferView":4,
			"componentType":5123,
			"count":78,
			"type":"SCALAR"
		},
		{
			"bufferView":5,
			"componentType":5126,
			"count":20,
			"max":[
				4.699999809265137,
				2.4000000953674316,
				4.699999809265137
			],
			"min":[
				-4.699999809265137,
				-1.862645149230957e-09,
				-4.699999809265137
			],
			"type":"VEC3"
		},
		{
			"bufferView":6,
			"componentType":5126,
			"count":20,
			"type":"VEC3"
		},
		{
			"bufferView":7,
			"componentType":5126,
			"count":20,
			"type":"VEC2"
		},
		{
			"bufferView":8,
			"componentType":5126,
			"count":20,
			"type":"VEC2"
		},
		{
			"bufferView":9,
			"componentType":5123,
			"count":30,
			"type":"SCALAR"
		},
		{
			"bufferView":10,
			"componentType":5126,
			"count":56,
			"max":[
				1.2100000381469727,
				0.7999999523162842,
				1.4800000190734863
			],
			"min":[
				-1.2100000381469727,
				0,
				-1.399999976158142
			],
			"type":"VEC3"
		},
		{
			"bufferView":11,
			"componentType":5126,
			"count":56,
			"type":"VEC3"
		},
		{
			"bufferView":12,
			"componentType":5126,
			"count":56,
			"type":"VEC2"
		},
		{
			"bufferView":13,
			"componentType":5126,
			"count":56,
			"type":"VEC4"
		},
		{
			"bufferView":14,
			"componentType":5123,
			"count":108,
			"type":"SCALAR"
		},
		{
			"bufferView":15,
			"componentType":5126,
			"count":24,
			"max":[
				1,
				0.75,
				0.3500000238418579
			],
			"min":[
				-1,
				0,
				-0.3500000238418579
			],
			"type":"VEC3"
		},
		{
			"bufferView":16,
			"componentType":5126,
			"count":24,
			"type":"VEC3"
		},
		{
			"bufferView":17,
			"componentType":5126,
			"count":24,
			"type":"VEC2"
		},
		{
			"bufferView":18,
			"componentType":5126,
			"count":24,
			"type":"VEC4"
		},
		{
			"bufferView":19,
			"componentType":5123,
			"count":36,
			"type":"SCALAR"
		},
		{
			"bufferView":20,
			"componentType":5126,
			"count":24,
			"max":[
				0.3199999928474426,
				0.9700000286102295,
				0.27000001072883606
			],
			"min":[
				-0.3199999928474426,
				0,
				-0.2800000011920929
			],
			"type":"VEC3"
		},
		{
			"bufferView":21,
			"componentType":5126,
			"count":24,
			"type":"VEC3"
		},
		{
			"bufferView":22,
			"componentType":5126,
			"count":24,
			"type":"VEC2"
		},
		{
			"bufferView":23,
			"componentType":5126,
			"count":24,
			"type":"VEC4"
		},
		{
			"bufferView":24,
			"componentType":5126,
			"count":24,
			"max":[
				0.3199999928474426,
				0.9700000286102295,
				0.27000001072883606
			],
			"min":[
				-0.3199999928474426,
				0,
				-0.2800000011920929
			],
			"type":"VEC3"
		},
		{
			"bufferView":25,
			"componentType":5126,
			"count":24,
			"type":"VEC3"
		},
		{
			"bufferView":26,
			"componentType":5126,
			"count":24,
			"type":"VEC2"
		},
		{
			"bufferView":27,
			"componentType":5126,
			"count":24,
			"type":"VEC4"
		},
		{
			"bufferView":28,
			"componentType":5126,
			"count":24,
			"max":[
				0.19999998807907104,
				0.46000003814697266,
				0.19999998807907104
			],
			"min":[
				-0.19999998807907104,
				0,
				-0.19999998807907104
			],
			"type":"VEC3"
		},
		{
			"bufferView":29,
			"componentType":5126,
			"count":24,
			"type":"VEC3"
		},
		{
			"bufferView":30,
			"componentType":5126,
			"count":24,
			"type":"VEC2"
		},
		{
			"bufferView":31,
			"componentType":5126,
			"count":24,
			"type":"VEC4"
		},
		{
			"bufferView":32,
			"componentType":5126,
			"count":24,
			"max":[
				0.5,
				1,
				0.5
			],
			"min":[
				-0.5,
				0,
				-0.5
			],
			"type":"VEC3"
		},
		{
			"bufferView":33,
			"componentType":5126,
			"count":24,
			"type":"VEC3"
		},
		{
			"bufferView":34,
			"componentType":5126,
			"count":24,
			"type":"VEC2"
		},
		{
			"bufferView":35,
			"componentType":5126,
			"count":24,
			"type":"VEC4"
		},
		{
			"bufferView":36,
			"componentType":5126,
			"count":24,
			"max":[
				0.5,
				1,
				0.5
			],
			"min":[
				-0.5,
				0,
				-0.5
			],
			"type":"VEC3"
		},
		{
			"bufferView":37,
			"componentType":5126,
			"count":24,
			"type":"VEC3"
		},
		{
			"bufferView":38,
			"componentType":5126,
			"count":24,
			"type":"VEC2"
		},
		{
			"bufferView":39,
			"componentType":5126,
			"count":24,
			"type":"VEC4"
		},
		{
			"bufferView":40,
			"componentType":5126,
			"count":24,
			"max":[
				0.5,
				1,
				0.5
			],
			"min":[
				-0.5,
				0,
				-0.5
			],
			"type":"VEC3"
		},
		{
			"bufferView":41,
			"componentType":5126,
			"count":24,
			"type":"VEC3"
		},
		{
			"bufferView":42,
			"componentType":5126,
			"count":24,
			"type":"VEC2"
		},
		{
			"bufferView":43,
			"componentType":5126,
			"count":24,
			"type":"VEC4"
		},
		{
			"bufferView":44,
			"componentType":5126,
			"count":24,
			"max":[
				0.5,
				1,
				0.5
			],
			"min":[
				-0.5,
				0,
				-0.5
			],
			"type":"VEC3"
		},
		{
			"bufferView":45,
			"componentType":5126,
			"count":24,
			"type":"VEC3"
		},
		{
			"bufferView":46,
			"componentType":5126,
			"count":24,
			"type":"VEC2"
		},
		{
			"bufferView":47,
			"componentType":5126,
			"count":24,
			"type":"VEC4"
		},
		{
			"bufferView":48,
			"componentType":5126,
			"count":24,
			"max":[
				0.5,
				1,
				0.5
			],
			"min":[
				-0.5,
				0,
				-0.5
			],
			"type":"VEC3"
		},
		{
			"bufferView":49,
			"componentType":5126,
			"count":24,
			"type":"VEC3"
		},
		{
			"bufferView":50,
			"componentType":5126,
			"count":24,
			"type":"VEC2"
		},
		{
			"bufferView":51,
			"componentType":5126,
			"count":24,
			"type":"VEC4"
		}
	],
	"bufferViews":[
		{
			"buffer":0,
			"byteLength":576,
			"byteOffset":0,
			"target":34962
		},
		{
			"buffer":0,
			"byteLength":576,
			"byteOffset":576,
			"target":34962
		},
		{
			"buffer":0,
			"byteLength":384,
			"byteOffset":1152,
			"target":34962
		},
		{
			"buffer":0,
			"byteLength":384,
			"byteOffset":1536,
			"target":34962
		},
		{
			"buffer":0,
			"byteLength":156,
			"byteOffset":1920,
			"target":34963
		},
		{
			"buffer":0,
			"byteLength":240,
			"byteOffset":2076,
			"target":34962
		},
		{
			"buffer":0,
			"byteLength":240,
			"byteOffset":2316,
			"target":34962
		},
		{
			"buffer":0,
			"byteLength":160,
			"byteOffset":2556,
			"target":34962
		},
		{
			"buffer":0,
			"byteLength":160,
			"byteOffset":2716,
			"target":34962
		},
		{
			"buffer":0,
			"byteLength":60,
			"byteOffset":2876,
			"target":34963
		},
		{
			"buffer":0,
			"byteLength":672,
			"byteOffset":2936,
			"target":34962
		},
		{
			"buffer":0,
			"byteLength":672,
			"byteOffset":3608,
			"target":34962
		},
		{
			"buffer":0,
			"byteLength":448,
			"byteOffset":4280,
			"target":34962
		},
		{
			"buffer":0,
			"byteLength":896,
			"byteOffset":4728,
			"target":34962
		},
		{
			"buffer":0,
			"byteLength":216,
			"byteOffset":5624,
			"target":34963
		},
		{
			"buffer":0,
			"byteLength":288,
			"byteOffset":5840,
			"target":34962
		},
		{
			"buffer":0,
			"byteLength":288,
			"byteOffset":6128,
			"target":34962
		},
		{
			"buffer":0,
			"byteLength":192,
			"byteOffset":6416,
			"target":34962
		},
		{
			"buffer":0,
			"byteLength":384,
			"byteOffset":6608,
			"target":34962
		},
		{
			"buffer":0,
			"byteLength":72,
			"byteOffset":6992,
			"target":34963
		},
		{
			"buffer":0,
			"byteLength":288,
			"byteOffset":7064,
			"target":34962
		},
		{
			"buffer":0,
			"byteLength":288,
			"byteOffset":7352,
			"target":34962
		},
		{
			"buffer":0,
			"byteLength":192,
			"byteOffset":7640,
			"target":34962
		},
		{
			"buffer":0,
			"byteLength":384,
			"byteOffset":7832,
			"target":34962
		},
		{
			"buffer":0,
			"byteLength":288,
			"byteOffset":8216,
			"target":34962
		},
		{
			"buffer":0,
			"byteLength":288,
			"byteOffset":8504,
			"target":34962
		},
		{
			"buffer":0,
			"byteLength":192,
			"byteOffset":8792,
			"target":34962
		},
		{
			"buffer":0,
			"byteLength":384,
			"byteOffset":8984,
			"target":34962
		},
		{
			"buffer":0,
			"byteLength":288,
			"byteOffset":9368,
			"target":34962
		},
		{
			"buffer":0,
			"byteLength":288,
			"byteOffset":9656,
			"target":34962
		},
		{
			"buffer":0,
			"byteLength":192,
			"byteOffset":9944,
			"target":34962
		},
		{
			"buffer":0,
			"byteLength":384,
			"byteOffset":10136,
			"target":34962
		},
		{
			"buffer":0,
			"byteLength":288,
			"byteOffset":10520,
			"target":34962
		},
		{
			"buffer":0,
			"byteLength":288,
			"byteOffset":10808,
			"target":34962
		},
		{
			"buffer":0,
			"byteLength":192,
			"byteOffset":11096,
			"target":34962
		},
		{
			"buffer":0,
			"byteLength":384,
			"byteOffset":11288,
			"target":34962
		},
		{
			"buffer":0,
			"byteLength":288,
			"byteOffset":11672,
			"target":34962
		},
		{
			"buffer":0,
			"byteLength":288,
			"byteOffset":11960,
			"target":34962
		},
		{
			"buffer":0,
			"byteLength":192,
			"byteOffset":12248,
			"target":34962
		},
		{
			"buffer":0,
			"byteLength":384,
			"byteOffset":12440,
			"target":34962
		},
		{
			"buffer":0,
			"byteLength":288,
			"byteOffset":12824,
			"target":34962
		},
		{
			"buffer":0,
			"byteLength":288,
			"byteOffset":13112,
			"target":34962
		},
		{
			"buffer":0,
			"byteLength":192,
			"byteOffset":13400,
			"target":34962
		},
		{
			"buffer":0,
			"byteLength":384,
			"byteOffset":13592,
			"target":34962
		},
		{
			"buffer":0,
			"byteLength":288,
			"byteOffset":13976,
			"target":34962
		},
		{
			"buffer":0,
			"byteLength":288,
			"byteOffset":14264,
			"target":34962
		},
		{
			"buffer":0,
			"byteLength":192,
			"byteOffset":14552,
			"target":34962
		},
		{
			"buffer":0,
			"byteLength":384,
			"byteOffset":14744,
			"target":34962
		},
		{
			"buffer":0,
			"byteLength":288,
			"byteOffset":15128,
			"target":34962
		},
		{
			"buffer":0,
			"byteLength":288,
			"byteOffset":15416,
			"target":34962
		},
		{
			"buffer":0,
			"byteLength":192,
			"byteOffset":15704,
			"target":34962
		},
		{
			"buffer":0,
			"byteLength":384,
			"byteOffset":15896,
			"target":34962
		}
	],
	"buffers":[
		{
			"byteLength":16280,
			"uri":"abandoned_spaceship_lab_room_collider.bin"
		}
	]
}
