{
	"asset":{
		"copyright":"@serufu_yua",
		"generator":"Khronos glTF Blender I/O v3.6.28",
		"version":"2.0"
	},
	"scene":0,
	"scenes":[
		{
			"name":"Scene",
			"nodes":[
				0,
				1,
				2,
				3,
				4,
				5,
				6,
				7,
				8,
				9,
				10
			]
		}
	],
	"nodes":[
		{
			"mesh":0,
			"name":"Room.Collider"
		},
		{
			"mesh":1,
			"name":"Bed.Collider",
			"translation":[
				2.5,
				0,
				3.2200000286102295
			]
		},
		{
			"mesh":2,
			"name":"Tbale.Collider",
			"rotation":[
				0,
				-0.5735764503479004,
				0,
				0.8191521763801575
			],
			"translation":[
				1.5999999046325684,
				0,
				-2.3500003814697266
			]
		},
		{
			"mesh":3,
			"name":"Chair.Collider.001",
			"rotation":[
				0,
				-0.5735764503479004,
				0,
				0.8191521763801575
			],
			"translation":[
				2.389376640319824,
				0,
				-2.5202503204345703
			]
		},
		{
			"mesh":4,
			"name":"Chair.Collider.002",
			"rotation":[
				0,
				-0.8660253882408142,
				0,
				0.5
			],
			"translation":[
				4.100000381469727,
				0,
				-0.4000002443790436
			]
		},
		{
			"mesh":5,
			"name":"Tabouret.Collider.001",
			"rotation":[
				0,
				0.3420201539993286,
				0,
				0.9396927356719971
			],
			"translation":[
				0.40000009536743164,
				0,
				3.200000047683716
			]
		},
		{
			"mesh":6,
			"name":"Box.Collider.001",
			"rotation":[
				0,
				-0.9914448857307434,
				0,
				0.13052619993686676
			],
			"translation":[
				-1.2999999523162842,
				0,
				4
			]
		},
		{
			"mesh":7,
			"name":"Box.Collider.002",
			"rotation":[
				0,
				0.9584676623344421,
				0,
				0.2852013409137726
			],
			"translation":[
				-2.75,
				0,
				3.799999952316284
			]
		},
		{
			"mesh":8,
			"name":"Box.Collider.003",
			"rotation":[
				0,
				0.7372773885726929,
				0,
				0.6755901575088501
			],
			"translation":[
				-2,
				1,
				4
			]
		},
		{
			"mesh":9,
			"name":"Box.Collider.004",
			"rotation":[
				0,
				-0.0871557667851448,
				0,
				0.9961947202682495
			],
			"translation":[
				-1,
				0,
				-3.75
			]
		},
		{
			"mesh":10,
			"name":"Box.Collider.005",
			"rotation":[
				0,
				0.21643958985805511,
				0,
				0.9762960076332092
			],
			"translation":[
				-2.5,
				0,
				-3.5
			]
		}
	],
	"meshes":[
		{
			"name":"Cube.003",
			"primitives":[
				{
					"attributes":{
						"POSITION":0,
						"NORMAL":1
					},
					"indices":2
				}
			]
		},
		{
			"name":"Cube",
			"primitives":[
				{
					"attributes":{
						"POSITION":3,
						"NORMAL":4
					},
					"indices":5
				}
			]
		},
		{
			"name":"Cube.002",
			"primitives":[
				{
					"attributes":{
						"POSITION":6,
						"NORMAL":7
					},
					"indices":8
				}
			]
		},
		{
			"name":"Cube.004",
			"primitives":[
				{
					"attributes":{
						"POSITION":9,
						"NORMAL":10
					},
					"indices":8
				}
			]
		},
		{
			"name":"Cube.005",
			"primitives":[
				{
					"attributes":{
						"POSITION":11,
						"NORMAL":12
					},
					"indices":8
				}
			]
		},
		{
			"name":"Cube.006",
			"primitives":[
				{
					"attributes":{
						"POSITION":13,
						"NORMAL":14
					},
					"indices":8
				}
			]
		},
		{
			"name":"Cube.007",
			"primitives":[
				{
					"attributes":{
						"POSITION":15,
						"NORMAL":16
					},
					"indices":8
				}
			]
		},
		{
			"name":"Cube.008",
			"primitives":[
				{
					"attributes":{
						"POSITION":17,
						"NORMAL":18
					},
					"indices":8
				}
			]
		},
		{
			"name":"Cube.009",
			"primitives":[
				{
					"attributes":{
						"POSITION":19,
						"NORMAL":20
					},
					"indices":8
				}
			]
		},
		{
			"name":"Cube.010",
			"primitives":[
				{
					"attributes":{
						"POSITION":21,
						"NORMAL":22
					},
					"indices":8
				}
			]
		},
		{
			"name":"Cube.012",
			"primitives":[
				{
					"attributes":{
						"POSITION":23,
						"NORMAL":24
					},
					"indices":8
				}
			]
		}
	],
	"accessors":[
		{
			"bufferView":0,
			"componentType":5126,
			"count":56,
			"max":[
				4.699999809265137,
				5,
				4.699999809265137
			],
			"min":[
				-5,
				-3.725290298461914e-09,
				-4.699999809265137
			],
			"type":"VEC3"
		},
		{
			"bufferView":1,
			"componentType":5126,
			"count":56,
			"type":"VEC3"
		},
		{
			"bufferView":2,
			"componentType":5123,
			"count":108,
			"type":"SCALAR"
		},
		{
			"bufferView":3,
			"componentType":5126,
			"count":56,
			"max":[
				1.2100000381469727,
				0.7999999523162842,
				1.4800000190734863
			],
			"min":[
				-1.2100000381469727,
				0,
				-1.399999976158142
			],
			"type":"VEC3"
		},
		{
			"bufferView":4,
			"componentType":5126,
			"count":56,
			"type":"VEC3"
		},
		{
			"bufferView":5,
			"componentType":5123,
			"count":108,
			"type":"SCALAR"
		},
		{
			"bufferView":6,
			"componentType":5126,
			"count":24,
			"max":[
				1,
				0.75,
				0.3500000238418579
			],
			"min":[
				-1,
				0,
				-0.3500000238418579
			],
			"type":"VEC3"
		},
		{
			"bufferView":7,
			"componentType":5126,
			"count":24,
			"type":"VEC3"
		},
		{
			"bufferView":8,
			"componentType":5123,
			"count":36,
			"type":"SCALAR"
		},
		{
			"bufferView":9,
			"componentType":5126,
			"count":24,
			"max":[
				0.3199999928474426,
				0.9700000286102295,
				0.27000001072883606
			],
			"min":[
				-0.3199999928474426,
				0,
				-0.2800000011920929
			],
			"type":"VEC3"
		},
		{
			"bufferView":10,
			"componentType":5126,
			"count":24,
			"type":"VEC3"
		},
		{
			"bufferView":11,
			"componentType":5126,
			"count":24,
			"max":[
				0.3199999928474426,
				0.9700000286102295,
				0.27000001072883606
			],
			"min":[
				-0.3199999928474426,
				0,
				-0.2800000011920929
			],
			"type":"VEC3"
		},
		{
			"bufferView":12,
			"componentType":5126,
			"count":24,
			"type":"VEC3"
		},
		{
			"bufferView":13,
			"componentType":5126,
			"count":24,
			"max":[
				0.19999998807907104,
				0.46000003814697266,
				0.19999998807907104
			],
			"min":[
				-0.19999998807907104,
				0,
				-0.19999998807907104
			],
			"type":"VEC3"
		},
		{
			"bufferView":14,
			"componentType":5126,
			"count":24,
			"type":"VEC3"
		},
		{
			"bufferView":15,
			"componentType":5126,
			"count":24,
			"max":[
				0.5,
				1,
				0.5
			],
			"min":[
				-0.5,
				0,
				-0.5
			],
			"type":"VEC3"
		},
		{
			"bufferView":16,
			"componentType":5126,
			"count":24,
			"type":"VEC3"
		},
		{
			"bufferView":17,
			"componentType":5126,
			"count":24,
			"max":[
				0.5,
				1,
				0.5
			],
			"min":[
				-0.5,
				0,
				-0.5
			],
			"type":"VEC3"
		},
		{
			"bufferView":18,
			"componentType":5126,
			"count":24,
			"type":"VEC3"
		},
		{
			"bufferView":19,
			"componentType":5126,
			"count":24,
			"max":[
				0.5,
				1,
				0.5
			],
			"min":[
				-0.5,
				0,
				-0.5
			],
			"type":"VEC3"
		},
		{
			"bufferView":20,
			"componentType":5126,
			"count":24,
			"type":"VEC3"
		},
		{
			"bufferView":21,
			"componentType":5126,
			"count":24,
			"max":[
				0.5,
				1,
				0.5
			],
			"min":[
				-0.5,
				0,
				-0.5
			],
			"type":"VEC3"
		},
		{
			"bufferView":22,
			"componentType":5126,
			"count":24,
			"type":"VEC3"
		},
		{
			"bufferView":23,
			"componentType":5126,
			"count":24,
			"max":[
				0.5,
				1,
				0.5
			],
			"min":[
				-0.5,
				0,
				-0.5
			],
			"type":"VEC3"
		},
		{
			"bufferView":24,
			"componentType":5126,
			"count":24,
			"type":"VEC3"
		}
	],
	"bufferViews":[
		{
			"buffer":0,
			"byteLength":672,
			"byteOffset":0,
			"target":34962
		},
		{
			"buffer":0,
			"byteLength":672,
			"byteOffset":672,
			"target":34962
		},
		{
			"buffer":0,
			"byteLength":216,
			"byteOffset":1344,
			"target":34963
		},
		{
			"buffer":0,
			"byteLength":672,
			"byteOffset":1560,
			"target":34962
		},
		{
			"buffer":0,
			"byteLength":672,
			"byteOffset":2232,
			"target":34962
		},
		{
			"buffer":0,
			"byteLength":216,
			"byteOffset":2904,
			"target":34963
		},
		{
			"buffer":0,
			"byteLength":288,
			"byteOffset":3120,
			"target":34962
		},
		{
			"buffer":0,
			"byteLength":288,
			"byteOffset":3408,
			"target":34962
		},
		{
			"buffer":0,
			"byteLength":72,
			"byteOffset":3696,
			"target":34963
		},
		{
			"buffer":0,
			"byteLength":288,
			"byteOffset":3768,
			"target":34962
		},
		{
			"buffer":0,
			"byteLength":288,
			"byteOffset":4056,
			"target":34962
		},
		{
			"buffer":0,
			"byteLength":288,
			"byteOffset":4344,
			"target":34962
		},
		{
			"buffer":0,
			"byteLength":288,
			"byteOffset":4632,
			"target":34962
		},
		{
			"buffer":0,
			"byteLength":288,
			"byteOffset":4920,
			"target":34962
		},
		{
			"buffer":0,
			"byteLength":288,
			"byteOffset":5208,
			"target":34962
		},
		{
			"buffer":0,
			"byteLength":288,
			"byteOffset":5496,
			"target":34962
		},
		{
			"buffer":0,
			"byteLength":288,
			"byteOffset":5784,
			"target":34962
		},
		{
			"buffer":0,
			"byteLength":288,
			"byteOffset":6072,
			"target":34962
		},
		{
			"buffer":0,
			"byteLength":288,
			"byteOffset":6360,
			"target":34962
		},
		{
			"buffer":0,
			"byteLength":288,
			"byteOffset":6648,
			"target":34962
		},
		{
			"buffer":0,
			"byteLength":288,
			"byteOffset":6936,
			"target":34962
		},
		{
			"buffer":0,
			"byteLength":288,
			"byteOffset":7224,
			"target":34962
		},
		{
			"buffer":0,
			"byteLength":288,
			"byteOffset":7512,
			"target":34962
		},
		{
			"buffer":0,
			"byteLength":288,
			"byteOffset":7800,
			"target":34962
		},
		{
			"buffer":0,
			"byteLength":288,
			"byteOffset":8088,
			"target":34962
		}
	],
	"buffers":[
		{
			"byteLength":8376,
			"uri":"abandoned_spaceship_lab_room_collider.bin"
		}
	]
}
