{
	"asset":{
		"copyright":"@serufu_yua",
		"generator":"Khronos glTF Blender I/O v3.6.28",
		"version":"2.0"
	},
	"scene":0,
	"scenes":[
		{
			"name":"Scene",
			"nodes":[
				0,
				1,
				2,
				3,
				4,
				5,
				6,
				7,
				8,
				9,
				10
			]
		}
	],
	"nodes":[
		{
			"mesh":0,
			"name":"Room.Collider"
		},
		{
			"mesh":1,
			"name":"Bed.Collider",
			"translation":[
				2.5,
				0,
				3.2200000286102295
			]
		},
		{
			"mesh":2,
			"name":"Tbale.Collider",
			"rotation":[
				0,
				-0.5735764503479004,
				0,
				0.8191521763801575
			],
			"translation":[
				1.5999999046325684,
				0,
				-2.3500003814697266
			]
		},
		{
			"mesh":3,
			"name":"Chair.Collider.001",
			"rotation":[
				0,
				-0.5735764503479004,
				0,
				0.8191521763801575
			],
			"translation":[
				2.3004512786865234,
				0,
				-2.7645702362060547
			]
		},
		{
			"mesh":4,
			"name":"Chair.Collider.002",
			"rotation":[
				0,
				-0.8660253882408142,
				0,
				0.5
			],
			"translation":[
				4.100000381469727,
				0,
				-0.4000002443790436
			]
		},
		{
			"mesh":5,
			"name":"Tabouret.Collider.001",
			"rotation":[
				0,
				0.3420201539993286,
				0,
				0.9396927356719971
			],
			"translation":[
				0.40000009536743164,
				0,
				3.200000047683716
			]
		},
		{
			"mesh":6,
			"name":"Box.Collider.001",
			"rotation":[
				0,
				-0.9914448857307434,
				0,
				0.13052619993686676
			],
			"translation":[
				-1.343013048171997,
				0,
				3.908266067504883
			]
		},
		{
			"mesh":7,
			"name":"Box.Collider.002",
			"rotation":[
				0,
				0.9584676623344421,
				0,
				0.2852013409137726
			],
			"translation":[
				-2.7492809295654297,
				0,
				3.8069779872894287
			]
		},
		{
			"mesh":8,
			"name":"Box.Collider.003",
			"rotation":[
				0,
				0.7372773885726929,
				0,
				0.6755901575088501
			],
			"translation":[
				-2.101132869720459,
				1,
				4.059773921966553
			]
		},
		{
			"mesh":9,
			"name":"Box.Collider.004",
			"rotation":[
				0,
				-0.2588190734386444,
				0,
				0.965925931930542
			],
			"translation":[
				0.05181114375591278,
				0,
				-3.788123369216919
			]
		},
		{
			"mesh":10,
			"name":"Box.Collider.005",
			"rotation":[
				0,
				0.21643958985805511,
				0,
				0.9762960076332092
			],
			"translation":[
				-1.4886518716812134,
				0,
				-3.4953949451446533
			]
		}
	],
	"meshes":[
		{
			"name":"Cube.003",
			"primitives":[
				{
					"attributes":{
						"POSITION":0,
						"NORMAL":1
					},
					"indices":2
				}
			]
		},
		{
			"name":"Cube",
			"primitives":[
				{
					"attributes":{
						"POSITION":3,
						"NORMAL":4,
						"TANGENT":5
					},
					"indices":6
				}
			]
		},
		{
			"name":"Cube.002",
			"primitives":[
				{
					"attributes":{
						"POSITION":7,
						"NORMAL":8,
						"TANGENT":9
					},
					"indices":10
				}
			]
		},
		{
			"name":"Cube.004",
			"primitives":[
				{
					"attributes":{
						"POSITION":11,
						"NORMAL":12,
						"TANGENT":13
					},
					"indices":10
				}
			]
		},
		{
			"name":"Cube.005",
			"primitives":[
				{
					"attributes":{
						"POSITION":14,
						"NORMAL":15,
						"TANGENT":16
					},
					"indices":10
				}
			]
		},
		{
			"name":"Cube.006",
			"primitives":[
				{
					"attributes":{
						"POSITION":17,
						"NORMAL":18,
						"TANGENT":19
					},
					"indices":10
				}
			]
		},
		{
			"name":"Cube.007",
			"primitives":[
				{
					"attributes":{
						"POSITION":20,
						"NORMAL":21,
						"TANGENT":22
					},
					"indices":10
				}
			]
		},
		{
			"name":"Cube.008",
			"primitives":[
				{
					"attributes":{
						"POSITION":23,
						"NORMAL":24,
						"TANGENT":25
					},
					"indices":10
				}
			]
		},
		{
			"name":"Cube.009",
			"primitives":[
				{
					"attributes":{
						"POSITION":26,
						"NORMAL":27,
						"TANGENT":28
					},
					"indices":10
				}
			]
		},
		{
			"name":"Cube.010",
			"primitives":[
				{
					"attributes":{
						"POSITION":29,
						"NORMAL":30,
						"TANGENT":31
					},
					"indices":10
				}
			]
		},
		{
			"name":"Cube.012",
			"primitives":[
				{
					"attributes":{
						"POSITION":32,
						"NORMAL":33,
						"TANGENT":34
					},
					"indices":10
				}
			]
		}
	],
	"accessors":[
		{
			"bufferView":0,
			"componentType":5126,
			"count":56,
			"max":[
				4.699999809265137,
				5,
				4.699999809265137
			],
			"min":[
				-5,
				-3.725290298461914e-09,
				-4.699999809265137
			],
			"type":"VEC3"
		},
		{
			"bufferView":1,
			"componentType":5126,
			"count":56,
			"type":"VEC3"
		},
		{
			"bufferView":2,
			"componentType":5123,
			"count":108,
			"type":"SCALAR"
		},
		{
			"bufferView":3,
			"componentType":5126,
			"count":56,
			"max":[
				1.2100000381469727,
				0.7999999523162842,
				1.4800000190734863
			],
			"min":[
				-1.2100000381469727,
				0,
				-1.399999976158142
			],
			"type":"VEC3"
		},
		{
			"bufferView":4,
			"componentType":5126,
			"count":56,
			"type":"VEC3"
		},
		{
			"bufferView":5,
			"componentType":5126,
			"count":56,
			"type":"VEC4"
		},
		{
			"bufferView":6,
			"componentType":5123,
			"count":108,
			"type":"SCALAR"
		},
		{
			"bufferView":7,
			"componentType":5126,
			"count":24,
			"max":[
				1,
				0.75,
				0.3500000238418579
			],
			"min":[
				-1,
				0,
				-0.3500000238418579
			],
			"type":"VEC3"
		},
		{
			"bufferView":8,
			"componentType":5126,
			"count":24,
			"type":"VEC3"
		},
		{
			"bufferView":9,
			"componentType":5126,
			"count":24,
			"type":"VEC4"
		},
		{
			"bufferView":10,
			"componentType":5123,
			"count":36,
			"type":"SCALAR"
		},
		{
			"bufferView":11,
			"componentType":5126,
			"count":24,
			"max":[
				0.3199999928474426,
				0.9700000286102295,
				0.27000001072883606
			],
			"min":[
				-0.3199999928474426,
				0,
				-0.2800000011920929
			],
			"type":"VEC3"
		},
		{
			"bufferView":12,
			"componentType":5126,
			"count":24,
			"type":"VEC3"
		},
		{
			"bufferView":13,
			"componentType":5126,
			"count":24,
			"type":"VEC4"
		},
		{
			"bufferView":14,
			"componentType":5126,
			"count":24,
			"max":[
				0.3199999928474426,
				0.9700000286102295,
				0.27000001072883606
			],
			"min":[
				-0.3199999928474426,
				0,
				-0.2800000011920929
			],
			"type":"VEC3"
		},
		{
			"bufferView":15,
			"componentType":5126,
			"count":24,
			"type":"VEC3"
		},
		{
			"bufferView":16,
			"componentType":5126,
			"count":24,
			"type":"VEC4"
		},
		{
			"bufferView":17,
			"componentType":5126,
			"count":24,
			"max":[
				0.19999998807907104,
				0.46000003814697266,
				0.19999998807907104
			],
			"min":[
				-0.19999998807907104,
				0,
				-0.19999998807907104
			],
			"type":"VEC3"
		},
		{
			"bufferView":18,
			"componentType":5126,
			"count":24,
			"type":"VEC3"
		},
		{
			"bufferView":19,
			"componentType":5126,
			"count":24,
			"type":"VEC4"
		},
		{
			"bufferView":20,
			"componentType":5126,
			"count":24,
			"max":[
				0.5,
				1,
				0.5
			],
			"min":[
				-0.5,
				0,
				-0.5
			],
			"type":"VEC3"
		},
		{
			"bufferView":21,
			"componentType":5126,
			"count":24,
			"type":"VEC3"
		},
		{
			"bufferView":22,
			"componentType":5126,
			"count":24,
			"type":"VEC4"
		},
		{
			"bufferView":23,
			"componentType":5126,
			"count":24,
			"max":[
				0.5,
				1,
				0.5
			],
			"min":[
				-0.5,
				0,
				-0.5
			],
			"type":"VEC3"
		},
		{
			"bufferView":24,
			"componentType":5126,
			"count":24,
			"type":"VEC3"
		},
		{
			"bufferView":25,
			"componentType":5126,
			"count":24,
			"type":"VEC4"
		},
		{
			"bufferView":26,
			"componentType":5126,
			"count":24,
			"max":[
				0.5,
				1,
				0.5
			],
			"min":[
				-0.5,
				0,
				-0.5
			],
			"type":"VEC3"
		},
		{
			"bufferView":27,
			"componentType":5126,
			"count":24,
			"type":"VEC3"
		},
		{
			"bufferView":28,
			"componentType":5126,
			"count":24,
			"type":"VEC4"
		},
		{
			"bufferView":29,
			"componentType":5126,
			"count":24,
			"max":[
				0.5,
				1,
				0.5
			],
			"min":[
				-0.5,
				0,
				-0.5
			],
			"type":"VEC3"
		},
		{
			"bufferView":30,
			"componentType":5126,
			"count":24,
			"type":"VEC3"
		},
		{
			"bufferView":31,
			"componentType":5126,
			"count":24,
			"type":"VEC4"
		},
		{
			"bufferView":32,
			"componentType":5126,
			"count":24,
			"max":[
				0.5,
				1,
				0.5
			],
			"min":[
				-0.5,
				0,
				-0.5
			],
			"type":"VEC3"
		},
		{
			"bufferView":33,
			"componentType":5126,
			"count":24,
			"type":"VEC3"
		},
		{
			"bufferView":34,
			"componentType":5126,
			"count":24,
			"type":"VEC4"
		}
	],
	"bufferViews":[
		{
			"buffer":0,
			"byteLength":672,
			"byteOffset":0,
			"target":34962
		},
		{
			"buffer":0,
			"byteLength":672,
			"byteOffset":672,
			"target":34962
		},
		{
			"buffer":0,
			"byteLength":216,
			"byteOffset":1344,
			"target":34963
		},
		{
			"buffer":0,
			"byteLength":672,
			"byteOffset":1560,
			"target":34962
		},
		{
			"buffer":0,
			"byteLength":672,
			"byteOffset":2232,
			"target":34962
		},
		{
			"buffer":0,
			"byteLength":896,
			"byteOffset":2904,
			"target":34962
		},
		{
			"buffer":0,
			"byteLength":216,
			"byteOffset":3800,
			"target":34963
		},
		{
			"buffer":0,
			"byteLength":288,
			"byteOffset":4016,
			"target":34962
		},
		{
			"buffer":0,
			"byteLength":288,
			"byteOffset":4304,
			"target":34962
		},
		{
			"buffer":0,
			"byteLength":384,
			"byteOffset":4592,
			"target":34962
		},
		{
			"buffer":0,
			"byteLength":72,
			"byteOffset":4976,
			"target":34963
		},
		{
			"buffer":0,
			"byteLength":288,
			"byteOffset":5048,
			"target":34962
		},
		{
			"buffer":0,
			"byteLength":288,
			"byteOffset":5336,
			"target":34962
		},
		{
			"buffer":0,
			"byteLength":384,
			"byteOffset":5624,
			"target":34962
		},
		{
			"buffer":0,
			"byteLength":288,
			"byteOffset":6008,
			"target":34962
		},
		{
			"buffer":0,
			"byteLength":288,
			"byteOffset":6296,
			"target":34962
		},
		{
			"buffer":0,
			"byteLength":384,
			"byteOffset":6584,
			"target":34962
		},
		{
			"buffer":0,
			"byteLength":288,
			"byteOffset":6968,
			"target":34962
		},
		{
			"buffer":0,
			"byteLength":288,
			"byteOffset":7256,
			"target":34962
		},
		{
			"buffer":0,
			"byteLength":384,
			"byteOffset":7544,
			"target":34962
		},
		{
			"buffer":0,
			"byteLength":288,
			"byteOffset":7928,
			"target":34962
		},
		{
			"buffer":0,
			"byteLength":288,
			"byteOffset":8216,
			"target":34962
		},
		{
			"buffer":0,
			"byteLength":384,
			"byteOffset":8504,
			"target":34962
		},
		{
			"buffer":0,
			"byteLength":288,
			"byteOffset":8888,
			"target":34962
		},
		{
			"buffer":0,
			"byteLength":288,
			"byteOffset":9176,
			"target":34962
		},
		{
			"buffer":0,
			"byteLength":384,
			"byteOffset":9464,
			"target":34962
		},
		{
			"buffer":0,
			"byteLength":288,
			"byteOffset":9848,
			"target":34962
		},
		{
			"buffer":0,
			"byteLength":288,
			"byteOffset":10136,
			"target":34962
		},
		{
			"buffer":0,
			"byteLength":384,
			"byteOffset":10424,
			"target":34962
		},
		{
			"buffer":0,
			"byteLength":288,
			"byteOffset":10808,
			"target":34962
		},
		{
			"buffer":0,
			"byteLength":288,
			"byteOffset":11096,
			"target":34962
		},
		{
			"buffer":0,
			"byteLength":384,
			"byteOffset":11384,
			"target":34962
		},
		{
			"buffer":0,
			"byteLength":288,
			"byteOffset":11768,
			"target":34962
		},
		{
			"buffer":0,
			"byteLength":288,
			"byteOffset":12056,
			"target":34962
		},
		{
			"buffer":0,
			"byteLength":384,
			"byteOffset":12344,
			"target":34962
		}
	],
	"buffers":[
		{
			"byteLength":12728,
			"uri":"abandoned_spaceship_lab_room_collider.bin"
		}
	]
}
