{
	"asset":{
		"copyright":"@serufu_yua",
		"generator":"Khronos glTF Blender I/O v3.6.28",
		"version":"2.0"
	},
	"scene":0,
	"scenes":[
		{
			"name":"Scene",
			"nodes":[
				0,
				1
			]
		}
	],
	"nodes":[
		{
			"mesh":0,
			"name":"Room.Collider"
		},
		{
			"mesh":1,
			"name":"Bed.Collider",
			"translation":[
				2.5,
				0,
				3.2200000286102295
			]
		}
	],
	"meshes":[
		{
			"name":"Cube.003",
			"primitives":[
				{
					"attributes":{
						"POSITION":0,
						"NORMAL":1
					},
					"indices":2
				}
			]
		},
		{
			"name":"Cube",
			"primitives":[
				{
					"attributes":{
						"POSITION":3,
						"NORMAL":4,
						"TANGENT":5
					},
					"indices":6
				}
			]
		}
	],
	"accessors":[
		{
			"bufferView":0,
			"componentType":5126,
			"count":56,
			"max":[
				4.699999809265137,
				5,
				4.699999809265137
			],
			"min":[
				-5,
				-3.725290298461914e-09,
				-4.699999809265137
			],
			"type":"VEC3"
		},
		{
			"bufferView":1,
			"componentType":5126,
			"count":56,
			"type":"VEC3"
		},
		{
			"bufferView":2,
			"componentType":5123,
			"count":108,
			"type":"SCALAR"
		},
		{
			"bufferView":3,
			"componentType":5126,
			"count":56,
			"max":[
				1.2100000381469727,
				0.7999999523162842,
				1.4800000190734863
			],
			"min":[
				-1.2100000381469727,
				0,
				-1.399999976158142
			],
			"type":"VEC3"
		},
		{
			"bufferView":4,
			"componentType":5126,
			"count":56,
			"type":"VEC3"
		},
		{
			"bufferView":5,
			"componentType":5126,
			"count":56,
			"type":"VEC4"
		},
		{
			"bufferView":6,
			"componentType":5123,
			"count":108,
			"type":"SCALAR"
		}
	],
	"bufferViews":[
		{
			"buffer":0,
			"byteLength":672,
			"byteOffset":0,
			"target":34962
		},
		{
			"buffer":0,
			"byteLength":672,
			"byteOffset":672,
			"target":34962
		},
		{
			"buffer":0,
			"byteLength":216,
			"byteOffset":1344,
			"target":34963
		},
		{
			"buffer":0,
			"byteLength":672,
			"byteOffset":1560,
			"target":34962
		},
		{
			"buffer":0,
			"byteLength":672,
			"byteOffset":2232,
			"target":34962
		},
		{
			"buffer":0,
			"byteLength":896,
			"byteOffset":2904,
			"target":34962
		},
		{
			"buffer":0,
			"byteLength":216,
			"byteOffset":3800,
			"target":34963
		}
	],
	"buffers":[
		{
			"byteLength":4016,
			"uri":"abandoned_spaceship_lab_room_collider.bin"
		}
	]
}
