{
	"asset":{
		"copyright":"@serufu_yua",
		"generator":"Khronos glTF Blender I/O v3.6.28",
		"version":"2.0"
	},
	"extensionsUsed":[
		"KHR_materials_emissive_strength"
	],
	"scene":0,
	"scenes":[
		{
			"name":"Scene",
			"nodes":[
				0,
				4
			]
		}
	],
	"nodes":[
		{
			"mesh":0,
			"name":"Room"
		},
		{
			"mesh":1,
			"name":"Door.Half.Open.R"
		},
		{
			"mesh":2,
			"name":"Door.Half.Open.L"
		},
		{
			"mesh":3,
			"name":"Frame.Half.Open"
		},
		{
			"children":[
				1,
				2,
				3
			],
			"name":"Door.Half.Open",
			"rotation":[
				0,
				0.7071067094802856,
				0,
				0.7071068286895752
			],
			"translation":[
				-5.099999904632568,
				0,
				0
			]
		}
	],
	"materials":[
		{
			"doubleSided":true,
			"name":"Aluminum_Flat",
			"normalTexture":{
				"index":0
			},
			"pbrMetallicRoughness":{
				"baseColorFactor":[
					0.800000011920929,
					0.800000011920929,
					0.800000011920929,
					1
				],
				"metallicFactor":0.9636363387107849,
				"roughnessFactor":0.44999998807907104
			}
		},
		{
			"doubleSided":true,
			"name":"Plastic_Walls",
			"normalTexture":{
				"index":1
			},
			"pbrMetallicRoughness":{
				"baseColorFactor":[
					0.8308840394020081,
					0.8386510014533997,
					0.8815916180610657,
					1
				],
				"metallicFactor":0.2227272391319275,
				"roughnessFactor":0.27272725105285645
			}
		},
		{
			"doubleSided":true,
			"name":"Plastic_Corners",
			"normalTexture":{
				"index":2
			},
			"pbrMetallicRoughness":{
				"baseColorFactor":[
					0.8308840394020081,
					0.8386510014533997,
					0.8815916180610657,
					1
				],
				"metallicFactor":0.2227272391319275,
				"roughnessFactor":0.27272725105285645
			}
		},
		{
			"doubleSided":true,
			"name":"Plastic_Footstall",
			"normalTexture":{
				"index":3
			},
			"pbrMetallicRoughness":{
				"baseColorFactor":[
					0.8308840394020081,
					0.8386510014533997,
					0.8815916180610657,
					1
				],
				"metallicFactor":0.2227272391319275,
				"roughnessFactor":0.27272725105285645
			}
		},
		{
			"doubleSided":true,
			"name":"Plastic_Edge",
			"normalTexture":{
				"index":4
			},
			"pbrMetallicRoughness":{
				"baseColorFactor":[
					0,
					0.14483638107776642,
					0.20451954007148743,
					1
				],
				"metallicFactor":0.4272727370262146,
				"roughnessFactor":0.23636364936828613
			}
		},
		{
			"doubleSided":true,
			"name":"Plastic_TopEdge",
			"normalTexture":{
				"index":5
			},
			"pbrMetallicRoughness":{
				"baseColorFactor":[
					0.8308840394020081,
					0.8386510014533997,
					0.8815916180610657,
					1
				],
				"metallicFactor":0.2227272391319275,
				"roughnessFactor":0.27272725105285645
			}
		},
		{
			"doubleSided":true,
			"emissiveFactor":[
				1,
				1,
				1
			],
			"emissiveTexture":{
				"index":6
			},
			"extensions":{
				"KHR_materials_emissive_strength":{
					"emissiveStrength":2
				}
			},
			"name":"Flood_Lamps",
			"normalTexture":{
				"index":7
			},
			"pbrMetallicRoughness":{
				"baseColorFactor":[
					0.7518784403800964,
					0.8723642230033875,
					1,
					1
				],
				"metallicFactor":0,
				"roughnessFactor":0.009999999776482582
			}
		},
		{
			"doubleSided":true,
			"name":"Aluminum_Longth",
			"normalTexture":{
				"index":8
			},
			"pbrMetallicRoughness":{
				"baseColorFactor":[
					0.800000011920929,
					0.800000011920929,
					0.800000011920929,
					1
				],
				"metallicFactor":0.9636363387107849,
				"roughnessFactor":0.5
			}
		},
		{
			"doubleSided":true,
			"name":"Hex_Floor",
			"normalTexture":{
				"index":9
			},
			"occlusionTexture":{
				"index":10
			},
			"pbrMetallicRoughness":{
				"baseColorTexture":{
					"index":11
				},
				"metallicFactor":0.15454542636871338,
				"roughnessFactor":0.718181848526001
			}
		},
		{
			"doubleSided":true,
			"name":"Metal_White",
			"normalTexture":{
				"index":12
			},
			"pbrMetallicRoughness":{
				"metallicFactor":0.4272727370262146,
				"roughnessFactor":0.23636364936828613
			}
		},
		{
			"doubleSided":true,
			"emissiveFactor":[
				1,
				1,
				1
			],
			"emissiveTexture":{
				"index":13
			},
			"name":"Light.Open",
			"normalTexture":{
				"index":14
			},
			"pbrMetallicRoughness":{
				"baseColorTexture":{
					"index":15
				},
				"metallicFactor":0,
				"roughnessFactor":0.00909090880304575
			}
		}
	],
	"meshes":[
		{
			"name":"Cube.001",
			"primitives":[
				{
					"attributes":{
						"POSITION":0,
						"NORMAL":1,
						"TEXCOORD_0":2
					},
					"indices":3,
					"material":0
				},
				{
					"attributes":{
						"POSITION":4,
						"NORMAL":5,
						"TEXCOORD_0":6
					},
					"indices":7,
					"material":1
				},
				{
					"attributes":{
						"POSITION":8,
						"NORMAL":9,
						"TEXCOORD_0":10
					},
					"indices":11,
					"material":2
				},
				{
					"attributes":{
						"POSITION":12,
						"NORMAL":13,
						"TEXCOORD_0":14
					},
					"indices":15,
					"material":3
				},
				{
					"attributes":{
						"POSITION":16,
						"NORMAL":17,
						"TEXCOORD_0":18
					},
					"indices":19,
					"material":4
				},
				{
					"attributes":{
						"POSITION":20,
						"NORMAL":21,
						"TEXCOORD_0":22
					},
					"indices":23,
					"material":5
				},
				{
					"attributes":{
						"POSITION":24,
						"NORMAL":25,
						"TEXCOORD_0":26
					},
					"indices":27,
					"material":6
				},
				{
					"attributes":{
						"POSITION":28,
						"NORMAL":29,
						"TEXCOORD_0":30
					},
					"indices":31,
					"material":7
				},
				{
					"attributes":{
						"POSITION":32,
						"NORMAL":33,
						"TEXCOORD_0":34
					},
					"indices":35,
					"material":8
				}
			]
		},
		{
			"name":"Cube.009",
			"primitives":[
				{
					"attributes":{
						"POSITION":36,
						"NORMAL":37,
						"TEXCOORD_0":38
					},
					"indices":39,
					"material":9
				},
				{
					"attributes":{
						"POSITION":40,
						"NORMAL":41,
						"TEXCOORD_0":42
					},
					"indices":43,
					"material":10
				}
			]
		},
		{
			"name":"Cube.010",
			"primitives":[
				{
					"attributes":{
						"POSITION":44,
						"NORMAL":45,
						"TEXCOORD_0":46
					},
					"indices":47,
					"material":9
				},
				{
					"attributes":{
						"POSITION":48,
						"NORMAL":49,
						"TEXCOORD_0":50
					},
					"indices":51,
					"material":10
				}
			]
		},
		{
			"name":"Cube.014",
			"primitives":[
				{
					"attributes":{
						"POSITION":52,
						"NORMAL":53,
						"TEXCOORD_0":54,
						"TANGENT":55
					},
					"indices":56,
					"material":9
				}
			]
		}
	],
	"textures":[
		{
			"sampler":0,
			"source":0
		},
		{
			"sampler":0,
			"source":1
		},
		{
			"sampler":0,
			"source":2
		},
		{
			"sampler":0,
			"source":3
		},
		{
			"sampler":0,
			"source":4
		},
		{
			"sampler":0,
			"source":5
		},
		{
			"sampler":0,
			"source":6
		},
		{
			"sampler":0,
			"source":0
		},
		{
			"sampler":0,
			"source":7
		},
		{
			"sampler":0,
			"source":8
		},
		{
			"sampler":0,
			"source":9
		},
		{
			"sampler":0,
			"source":10
		},
		{
			"sampler":0,
			"source":4
		},
		{
			"sampler":0,
			"source":11
		},
		{
			"sampler":0,
			"source":12
		},
		{
			"sampler":0,
			"source":11
		}
	],
	"images":[
		{
			"mimeType":"image/png",
			"name":"aluminum2_n",
			"uri":"aluminum2_n.png"
		},
		{
			"mimeType":"image/png",
			"name":"plastic2_n",
			"uri":"plastic2_n.png"
		},
		{
			"mimeType":"image/png",
			"name":"plastic3_n",
			"uri":"plastic3_n.png"
		},
		{
			"mimeType":"image/png",
			"name":"aluminum_n",
			"uri":"aluminum_n.png"
		},
		{
			"mimeType":"image/png",
			"name":"plastic.n",
			"uri":"plastic_n.png"
		},
		{
			"mimeType":"image/png",
			"name":"plastic31_n",
			"uri":"plastic31_n.png"
		},
		{
			"mimeType":"image/png",
			"name":"flood_lamps_emiss",
			"uri":"flood_lamps_emiss.png"
		},
		{
			"mimeType":"image/png",
			"name":"aluminum_bulge_n",
			"uri":"aluminum_bulge_n.png"
		},
		{
			"mimeType":"image/png",
			"name":"hex_plates_floor_n",
			"uri":"hex_plates_floor_n.png"
		},
		{
			"mimeType":"image/png",
			"name":"hex_plates_floor_ao",
			"uri":"hex_plates_floor_ao.png"
		},
		{
			"mimeType":"image/png",
			"name":"hex_plates_floor_room",
			"uri":"hex_plates_floor_room.png"
		},
		{
			"mimeType":"image/png",
			"name":"light_blue",
			"uri":"light_blue.png"
		},
		{
			"mimeType":"image/png",
			"name":"light_n",
			"uri":"light_n.png"
		}
	],
	"accessors":[
		{
			"bufferView":0,
			"componentType":5126,
			"count":350,
			"max":[
				4.95432710647583,
				5,
				4.95432710647583
			],
			"min":[
				-5.299999713897705,
				-3.725290298461914e-09,
				-4.95432710647583
			],
			"type":"VEC3"
		},
		{
			"bufferView":1,
			"componentType":5126,
			"count":350,
			"type":"VEC3"
		},
		{
			"bufferView":2,
			"componentType":5126,
			"count":350,
			"type":"VEC2"
		},
		{
			"bufferView":3,
			"componentType":5123,
			"count":1140,
			"type":"SCALAR"
		},
		{
			"bufferView":4,
			"componentType":5126,
			"count":414,
			"max":[
				5,
				5.000207424163818,
				5
			],
			"min":[
				-5.000003337860107,
				0.24000132083892822,
				-5
			],
			"type":"VEC3"
		},
		{
			"bufferView":5,
			"componentType":5126,
			"count":414,
			"type":"VEC3"
		},
		{
			"bufferView":6,
			"componentType":5126,
			"count":414,
			"type":"VEC2"
		},
		{
			"bufferView":7,
			"componentType":5123,
			"count":1236,
			"type":"SCALAR"
		},
		{
			"bufferView":8,
			"componentType":5126,
			"count":40,
			"max":[
				5,
				4.400000095367432,
				5
			],
			"min":[
				-5,
				0.30000001192092896,
				-5
			],
			"type":"VEC3"
		},
		{
			"bufferView":9,
			"componentType":5126,
			"count":40,
			"type":"VEC3"
		},
		{
			"bufferView":10,
			"componentType":5126,
			"count":40,
			"type":"VEC2"
		},
		{
			"bufferView":11,
			"componentType":5123,
			"count":96,
			"type":"SCALAR"
		},
		{
			"bufferView":12,
			"componentType":5126,
			"count":840,
			"max":[
				5,
				5.099999904632568,
				5
			],
			"min":[
				-5.000003337860107,
				-1.8335413187742233e-09,
				-5
			],
			"type":"VEC3"
		},
		{
			"bufferView":13,
			"componentType":5126,
			"count":840,
			"type":"VEC3"
		},
		{
			"bufferView":14,
			"componentType":5126,
			"count":840,
			"type":"VEC2"
		},
		{
			"bufferView":15,
			"componentType":5123,
			"count":2496,
			"type":"SCALAR"
		},
		{
			"bufferView":16,
			"componentType":5126,
			"count":88,
			"max":[
				4.748733997344971,
				0.30000001192092896,
				4.748922824859619
			],
			"min":[
				-5.000003337860107,
				0.24000009894371033,
				-4.748922824859619
			],
			"type":"VEC3"
		},
		{
			"bufferView":17,
			"componentType":5126,
			"count":88,
			"type":"VEC3"
		},
		{
			"bufferView":18,
			"componentType":5126,
			"count":88,
			"type":"VEC2"
		},
		{
			"bufferView":19,
			"componentType":5123,
			"count":312,
			"type":"SCALAR"
		},
		{
			"bufferView":20,
			"componentType":5126,
			"count":42,
			"max":[
				5,
				4.62960958480835,
				5
			],
			"min":[
				-5,
				4.400000095367432,
				-5
			],
			"type":"VEC3"
		},
		{
			"bufferView":21,
			"componentType":5126,
			"count":42,
			"type":"VEC3"
		},
		{
			"bufferView":22,
			"componentType":5126,
			"count":42,
			"type":"VEC2"
		},
		{
			"bufferView":23,
			"componentType":5123,
			"count":120,
			"type":"SCALAR"
		},
		{
			"bufferView":24,
			"componentType":5126,
			"count":384,
			"max":[
				3.2186825275421143,
				5.025012016296387,
				3.2186827659606934
			],
			"min":[
				-3.2186825275421143,
				4.9747724533081055,
				-3.2186827659606934
			],
			"type":"VEC3"
		},
		{
			"bufferView":25,
			"componentType":5126,
			"count":384,
			"type":"VEC3"
		},
		{
			"bufferView":26,
			"componentType":5126,
			"count":384,
			"type":"VEC2"
		},
		{
			"bufferView":27,
			"componentType":5123,
			"count":1704,
			"type":"SCALAR"
		},
		{
			"bufferView":28,
			"componentType":5126,
			"count":438,
			"max":[
				4.199999809265137,
				5.025012016296387,
				4.199999809265137
			],
			"min":[
				-4.199999809265137,
				-1.86853021943989e-09,
				-4.199999809265137
			],
			"type":"VEC3"
		},
		{
			"bufferView":29,
			"componentType":5126,
			"count":438,
			"type":"VEC3"
		},
		{
			"bufferView":30,
			"componentType":5126,
			"count":438,
			"type":"VEC2"
		},
		{
			"bufferView":31,
			"componentType":5123,
			"count":1284,
			"type":"SCALAR"
		},
		{
			"bufferView":32,
			"componentType":5126,
			"count":22,
			"max":[
				4.099999904632568,
				3.633876755060328e-09,
				4.099999904632568
			],
			"min":[
				-4.099999904632568,
				-1.86853021943989e-09,
				-4.099999904632568
			],
			"type":"VEC3"
		},
		{
			"bufferView":33,
			"componentType":5126,
			"count":22,
			"type":"VEC3"
		},
		{
			"bufferView":34,
			"componentType":5126,
			"count":22,
			"type":"VEC2"
		},
		{
			"bufferView":35,
			"componentType":5123,
			"count":60,
			"type":"SCALAR"
		},
		{
			"bufferView":36,
			"componentType":5126,
			"count":100,
			"max":[
				0.6000000238418579,
				2.200000047683716,
				0.07999999821186066
			],
			"min":[
				-0.5,
				0,
				-0.07999999821186066
			],
			"type":"VEC3"
		},
		{
			"bufferView":37,
			"componentType":5126,
			"count":100,
			"type":"VEC3"
		},
		{
			"bufferView":38,
			"componentType":5126,
			"count":100,
			"type":"VEC2"
		},
		{
			"bufferView":39,
			"componentType":5123,
			"count":198,
			"type":"SCALAR"
		},
		{
			"bufferView":40,
			"componentType":5126,
			"count":12,
			"max":[
				0.30000001192092896,
				1.6700000762939453,
				0.06000000238418579
			],
			"min":[
				-0.25909093022346497,
				0.5300000309944153,
				0.06000000238418579
			],
			"type":"VEC3"
		},
		{
			"bufferView":41,
			"componentType":5126,
			"count":12,
			"type":"VEC3"
		},
		{
			"bufferView":42,
			"componentType":5126,
			"count":12,
			"type":"VEC2"
		},
		{
			"bufferView":43,
			"componentType":5123,
			"count":18,
			"type":"SCALAR"
		},
		{
			"bufferView":44,
			"componentType":5126,
			"count":98,
			"max":[
				0.5,
				2.200000047683716,
				0.07999999821186066
			],
			"min":[
				-0.6000000238418579,
				0,
				-0.07999999821186066
			],
			"type":"VEC3"
		},
		{
			"bufferView":45,
			"componentType":5126,
			"count":98,
			"type":"VEC3"
		},
		{
			"bufferView":46,
			"componentType":5126,
			"count":98,
			"type":"VEC2"
		},
		{
			"bufferView":47,
			"componentType":5123,
			"count":192,
			"type":"SCALAR"
		},
		{
			"bufferView":48,
			"componentType":5126,
			"count":12,
			"max":[
				0.2590909004211426,
				1.6700000762939453,
				0.06000000238418579
			],
			"min":[
				-0.30000001192092896,
				0.5300000309944153,
				0.06000000238418579
			],
			"type":"VEC3"
		},
		{
			"bufferView":49,
			"componentType":5126,
			"count":12,
			"type":"VEC3"
		},
		{
			"bufferView":50,
			"componentType":5126,
			"count":12,
			"type":"VEC2"
		},
		{
			"bufferView":51,
			"componentType":5123,
			"count":18,
			"type":"SCALAR"
		},
		{
			"bufferView":52,
			"componentType":5126,
			"count":216,
			"max":[
				0.7496788501739502,
				2.3496789932250977,
				0.11499996483325958
			],
			"min":[
				-0.7496788501739502,
				-0.003266579005867243,
				-0.11499996483325958
			],
			"type":"VEC3"
		},
		{
			"bufferView":53,
			"componentType":5126,
			"count":216,
			"type":"VEC3"
		},
		{
			"bufferView":54,
			"componentType":5126,
			"count":216,
			"type":"VEC2"
		},
		{
			"bufferView":55,
			"componentType":5126,
			"count":216,
			"type":"VEC4"
		},
		{
			"bufferView":56,
			"componentType":5123,
			"count":786,
			"type":"SCALAR"
		}
	],
	"bufferViews":[
		{
			"buffer":0,
			"byteLength":4200,
			"byteOffset":0,
			"target":34962
		},
		{
			"buffer":0,
			"byteLength":4200,
			"byteOffset":4200,
			"target":34962
		},
		{
			"buffer":0,
			"byteLength":2800,
			"byteOffset":8400,
			"target":34962
		},
		{
			"buffer":0,
			"byteLength":2280,
			"byteOffset":11200,
			"target":34963
		},
		{
			"buffer":0,
			"byteLength":4968,
			"byteOffset":13480,
			"target":34962
		},
		{
			"buffer":0,
			"byteLength":4968,
			"byteOffset":18448,
			"target":34962
		},
		{
			"buffer":0,
			"byteLength":3312,
			"byteOffset":23416,
			"target":34962
		},
		{
			"buffer":0,
			"byteLength":2472,
			"byteOffset":26728,
			"target":34963
		},
		{
			"buffer":0,
			"byteLength":480,
			"byteOffset":29200,
			"target":34962
		},
		{
			"buffer":0,
			"byteLength":480,
			"byteOffset":29680,
			"target":34962
		},
		{
			"buffer":0,
			"byteLength":320,
			"byteOffset":30160,
			"target":34962
		},
		{
			"buffer":0,
			"byteLength":192,
			"byteOffset":30480,
			"target":34963
		},
		{
			"buffer":0,
			"byteLength":10080,
			"byteOffset":30672,
			"target":34962
		},
		{
			"buffer":0,
			"byteLength":10080,
			"byteOffset":40752,
			"target":34962
		},
		{
			"buffer":0,
			"byteLength":6720,
			"byteOffset":50832,
			"target":34962
		},
		{
			"buffer":0,
			"byteLength":4992,
			"byteOffset":57552,
			"target":34963
		},
		{
			"buffer":0,
			"byteLength":1056,
			"byteOffset":62544,
			"target":34962
		},
		{
			"buffer":0,
			"byteLength":1056,
			"byteOffset":63600,
			"target":34962
		},
		{
			"buffer":0,
			"byteLength":704,
			"byteOffset":64656,
			"target":34962
		},
		{
			"buffer":0,
			"byteLength":624,
			"byteOffset":65360,
			"target":34963
		},
		{
			"buffer":0,
			"byteLength":504,
			"byteOffset":65984,
			"target":34962
		},
		{
			"buffer":0,
			"byteLength":504,
			"byteOffset":66488,
			"target":34962
		},
		{
			"buffer":0,
			"byteLength":336,
			"byteOffset":66992,
			"target":34962
		},
		{
			"buffer":0,
			"byteLength":240,
			"byteOffset":67328,
			"target":34963
		},
		{
			"buffer":0,
			"byteLength":4608,
			"byteOffset":67568,
			"target":34962
		},
		{
			"buffer":0,
			"byteLength":4608,
			"byteOffset":72176,
			"target":34962
		},
		{
			"buffer":0,
			"byteLength":3072,
			"byteOffset":76784,
			"target":34962
		},
		{
			"buffer":0,
			"byteLength":3408,
			"byteOffset":79856,
			"target":34963
		},
		{
			"buffer":0,
			"byteLength":5256,
			"byteOffset":83264,
			"target":34962
		},
		{
			"buffer":0,
			"byteLength":5256,
			"byteOffset":88520,
			"target":34962
		},
		{
			"buffer":0,
			"byteLength":3504,
			"byteOffset":93776,
			"target":34962
		},
		{
			"buffer":0,
			"byteLength":2568,
			"byteOffset":97280,
			"target":34963
		},
		{
			"buffer":0,
			"byteLength":264,
			"byteOffset":99848,
			"target":34962
		},
		{
			"buffer":0,
			"byteLength":264,
			"byteOffset":100112,
			"target":34962
		},
		{
			"buffer":0,
			"byteLength":176,
			"byteOffset":100376,
			"target":34962
		},
		{
			"buffer":0,
			"byteLength":120,
			"byteOffset":100552,
			"target":34963
		},
		{
			"buffer":0,
			"byteLength":1200,
			"byteOffset":100672,
			"target":34962
		},
		{
			"buffer":0,
			"byteLength":1200,
			"byteOffset":101872,
			"target":34962
		},
		{
			"buffer":0,
			"byteLength":800,
			"byteOffset":103072,
			"target":34962
		},
		{
			"buffer":0,
			"byteLength":396,
			"byteOffset":103872,
			"target":34963
		},
		{
			"buffer":0,
			"byteLength":144,
			"byteOffset":104268,
			"target":34962
		},
		{
			"buffer":0,
			"byteLength":144,
			"byteOffset":104412,
			"target":34962
		},
		{
			"buffer":0,
			"byteLength":96,
			"byteOffset":104556,
			"target":34962
		},
		{
			"buffer":0,
			"byteLength":36,
			"byteOffset":104652,
			"target":34963
		},
		{
			"buffer":0,
			"byteLength":1176,
			"byteOffset":104688,
			"target":34962
		},
		{
			"buffer":0,
			"byteLength":1176,
			"byteOffset":105864,
			"target":34962
		},
		{
			"buffer":0,
			"byteLength":784,
			"byteOffset":107040,
			"target":34962
		},
		{
			"buffer":0,
			"byteLength":384,
			"byteOffset":107824,
			"target":34963
		},
		{
			"buffer":0,
			"byteLength":144,
			"byteOffset":108208,
			"target":34962
		},
		{
			"buffer":0,
			"byteLength":144,
			"byteOffset":108352,
			"target":34962
		},
		{
			"buffer":0,
			"byteLength":96,
			"byteOffset":108496,
			"target":34962
		},
		{
			"buffer":0,
			"byteLength":36,
			"byteOffset":108592,
			"target":34963
		},
		{
			"buffer":0,
			"byteLength":2592,
			"byteOffset":108628,
			"target":34962
		},
		{
			"buffer":0,
			"byteLength":2592,
			"byteOffset":111220,
			"target":34962
		},
		{
			"buffer":0,
			"byteLength":1728,
			"byteOffset":113812,
			"target":34962
		},
		{
			"buffer":0,
			"byteLength":3456,
			"byteOffset":115540,
			"target":34962
		},
		{
			"buffer":0,
			"byteLength":1572,
			"byteOffset":118996,
			"target":34963
		}
	],
	"samplers":[
		{
			"magFilter":9729,
			"minFilter":9987
		}
	],
	"buffers":[
		{
			"byteLength":120568,
			"uri":"abandoned_spaceship_lab_room.bin"
		}
	]
}
