{
	"asset":{
		"copyright":"@serufu_yua",
		"generator":"Khronos glTF Blender I/O v3.6.28",
		"version":"2.0"
	},
	"scene":0,
	"scenes":[
		{
			"name":"Scene",
			"nodes":[
				0,
				1,
				2,
				3,
				4
			]
		}
	],
	"nodes":[
		{
			"mesh":0,
			"name":"Room.Collider"
		},
		{
			"mesh":1,
			"name":"Bed.Collider",
			"translation":[
				2.5,
				0,
				3.2200000286102295
			]
		},
		{
			"mesh":2,
			"name":"Tbale.Collider",
			"rotation":[
				0,
				-0.7071066498756409,
				0,
				0.70710688829422
			],
			"translation":[
				1.5999999046325684,
				0,
				-2.3500003814697266
			]
		},
		{
			"mesh":3,
			"name":"Chair.Collider.001",
			"rotation":[
				0,
				-0.7071066498756409,
				0,
				0.70710688829422
			],
			"translation":[
				2.4000000953674316,
				0,
				-2.500000238418579
			]
		},
		{
			"mesh":4,
			"name":"Chair.Collider.002",
			"rotation":[
				0,
				0.9396926164627075,
				0,
				0.3420201539993286
			],
			"translation":[
				0.10000014305114746,
				0,
				3.5999999046325684
			]
		}
	],
	"meshes":[
		{
			"name":"Cube.003",
			"primitives":[
				{
					"attributes":{
						"POSITION":0,
						"NORMAL":1
					},
					"indices":2
				}
			]
		},
		{
			"name":"Cube",
			"primitives":[
				{
					"attributes":{
						"POSITION":3,
						"NORMAL":4,
						"TANGENT":5
					},
					"indices":6
				}
			]
		},
		{
			"name":"Cube.002",
			"primitives":[
				{
					"attributes":{
						"POSITION":7,
						"NORMAL":8,
						"TANGENT":9
					},
					"indices":10
				}
			]
		},
		{
			"name":"Cube.004",
			"primitives":[
				{
					"attributes":{
						"POSITION":11,
						"NORMAL":12,
						"TANGENT":13
					},
					"indices":10
				}
			]
		},
		{
			"name":"Cube.005",
			"primitives":[
				{
					"attributes":{
						"POSITION":14,
						"NORMAL":15,
						"TANGENT":16
					},
					"indices":10
				}
			]
		}
	],
	"accessors":[
		{
			"bufferView":0,
			"componentType":5126,
			"count":56,
			"max":[
				4.699999809265137,
				5,
				4.699999809265137
			],
			"min":[
				-5,
				-3.725290298461914e-09,
				-4.699999809265137
			],
			"type":"VEC3"
		},
		{
			"bufferView":1,
			"componentType":5126,
			"count":56,
			"type":"VEC3"
		},
		{
			"bufferView":2,
			"componentType":5123,
			"count":108,
			"type":"SCALAR"
		},
		{
			"bufferView":3,
			"componentType":5126,
			"count":56,
			"max":[
				1.2100000381469727,
				0.7999999523162842,
				1.4800000190734863
			],
			"min":[
				-1.2100000381469727,
				0,
				-1.399999976158142
			],
			"type":"VEC3"
		},
		{
			"bufferView":4,
			"componentType":5126,
			"count":56,
			"type":"VEC3"
		},
		{
			"bufferView":5,
			"componentType":5126,
			"count":56,
			"type":"VEC4"
		},
		{
			"bufferView":6,
			"componentType":5123,
			"count":108,
			"type":"SCALAR"
		},
		{
			"bufferView":7,
			"componentType":5126,
			"count":24,
			"max":[
				1,
				0.75,
				0.3500000238418579
			],
			"min":[
				-1,
				0,
				-0.3500000238418579
			],
			"type":"VEC3"
		},
		{
			"bufferView":8,
			"componentType":5126,
			"count":24,
			"type":"VEC3"
		},
		{
			"bufferView":9,
			"componentType":5126,
			"count":24,
			"type":"VEC4"
		},
		{
			"bufferView":10,
			"componentType":5123,
			"count":36,
			"type":"SCALAR"
		},
		{
			"bufferView":11,
			"componentType":5126,
			"count":24,
			"max":[
				0.3199999928474426,
				0.9700000286102295,
				0.27000001072883606
			],
			"min":[
				-0.3199999928474426,
				0,
				-0.2800000011920929
			],
			"type":"VEC3"
		},
		{
			"bufferView":12,
			"componentType":5126,
			"count":24,
			"type":"VEC3"
		},
		{
			"bufferView":13,
			"componentType":5126,
			"count":24,
			"type":"VEC4"
		},
		{
			"bufferView":14,
			"componentType":5126,
			"count":24,
			"max":[
				0.3199999928474426,
				0.9700000286102295,
				0.27000001072883606
			],
			"min":[
				-0.3199999928474426,
				0,
				-0.2800000011920929
			],
			"type":"VEC3"
		},
		{
			"bufferView":15,
			"componentType":5126,
			"count":24,
			"type":"VEC3"
		},
		{
			"bufferView":16,
			"componentType":5126,
			"count":24,
			"type":"VEC4"
		}
	],
	"bufferViews":[
		{
			"buffer":0,
			"byteLength":672,
			"byteOffset":0,
			"target":34962
		},
		{
			"buffer":0,
			"byteLength":672,
			"byteOffset":672,
			"target":34962
		},
		{
			"buffer":0,
			"byteLength":216,
			"byteOffset":1344,
			"target":34963
		},
		{
			"buffer":0,
			"byteLength":672,
			"byteOffset":1560,
			"target":34962
		},
		{
			"buffer":0,
			"byteLength":672,
			"byteOffset":2232,
			"target":34962
		},
		{
			"buffer":0,
			"byteLength":896,
			"byteOffset":2904,
			"target":34962
		},
		{
			"buffer":0,
			"byteLength":216,
			"byteOffset":3800,
			"target":34963
		},
		{
			"buffer":0,
			"byteLength":288,
			"byteOffset":4016,
			"target":34962
		},
		{
			"buffer":0,
			"byteLength":288,
			"byteOffset":4304,
			"target":34962
		},
		{
			"buffer":0,
			"byteLength":384,
			"byteOffset":4592,
			"target":34962
		},
		{
			"buffer":0,
			"byteLength":72,
			"byteOffset":4976,
			"target":34963
		},
		{
			"buffer":0,
			"byteLength":288,
			"byteOffset":5048,
			"target":34962
		},
		{
			"buffer":0,
			"byteLength":288,
			"byteOffset":5336,
			"target":34962
		},
		{
			"buffer":0,
			"byteLength":384,
			"byteOffset":5624,
			"target":34962
		},
		{
			"buffer":0,
			"byteLength":288,
			"byteOffset":6008,
			"target":34962
		},
		{
			"buffer":0,
			"byteLength":288,
			"byteOffset":6296,
			"target":34962
		},
		{
			"buffer":0,
			"byteLength":384,
			"byteOffset":6584,
			"target":34962
		}
	],
	"buffers":[
		{
			"byteLength":6968,
			"uri":"abandoned_spaceship_lab_room_collider.bin"
		}
	]
}
