{
	"asset":{
		"copyright":"@serufu_yua",
		"generator":"Khronos glTF Blender I/O v3.6.28",
		"version":"2.0"
	},
	"extensionsUsed":[
		"KHR_materials_emissive_strength"
	],
	"scene":0,
	"scenes":[
		{
			"name":"Scene",
			"nodes":[
				0
			]
		}
	],
	"nodes":[
		{
			"mesh":0,
			"name":"Hall.Lamp.001"
		}
	],
	"materials":[
		{
			"doubleSided":true,
			"emissiveFactor":[
				1,
				1,
				1
			],
			"emissiveTexture":{
				"index":0
			},
			"extensions":{
				"KHR_materials_emissive_strength":{
					"emissiveStrength":2
				}
			},
			"name":"Flood_Lamp.ON",
			"normalTexture":{
				"index":1
			},
			"pbrMetallicRoughness":{
				"baseColorFactor":[
					0.7518784403800964,
					0.8723642230033875,
					1,
					1
				],
				"metallicFactor":0,
				"roughnessFactor":0.009999999776482582
			}
		},
		{
			"doubleSided":true,
			"name":"Flood_Lamp.OFF",
			"normalTexture":{
				"index":2
			},
			"pbrMetallicRoughness":{
				"baseColorFactor":[
					0.7518784403800964,
					0.8723642230033875,
					1,
					1
				],
				"metallicFactor":0,
				"roughnessFactor":0.009999999776482582
			}
		}
	],
	"meshes":[
		{
			"name":"Mesh.001",
			"primitives":[
				{
					"attributes":{
						"POSITION":0,
						"NORMAL":1,
						"TEXCOORD_0":2
					},
					"indices":3,
					"material":0
				},
				{
					"attributes":{
						"POSITION":4,
						"NORMAL":5,
						"TEXCOORD_0":6
					},
					"indices":7,
					"material":1
				}
			]
		}
	],
	"textures":[
		{
			"sampler":0,
			"source":0
		},
		{
			"sampler":0,
			"source":1
		},
		{
			"sampler":0,
			"source":1
		}
	],
	"images":[
		{
			"mimeType":"image/png",
			"name":"flood_lamps_emiss",
			"uri":"flood_lamps_emiss.png"
		},
		{
			"mimeType":"image/png",
			"name":"aluminum2_n",
			"uri":"aluminum2_n.png"
		}
	],
	"accessors":[
		{
			"bufferView":0,
			"componentType":5126,
			"count":144,
			"max":[
				0.6186819076538086,
				3.337860107421875e-06,
				0.6186809539794922
			],
			"min":[
				-0.6186838150024414,
				-0.05023646354675293,
				-0.6186847686767578
			],
			"type":"VEC3"
		},
		{
			"bufferView":1,
			"componentType":5126,
			"count":144,
			"type":"VEC3"
		},
		{
			"bufferView":2,
			"componentType":5126,
			"count":144,
			"type":"VEC2"
		},
		{
			"bufferView":3,
			"componentType":5123,
			"count":426,
			"type":"SCALAR"
		},
		{
			"bufferView":4,
			"componentType":5126,
			"count":256,
			"max":[
				0.6186819076538086,
				0.10000333935022354,
				0.6186809539794922
			],
			"min":[
				-0.6186838150024414,
				-2.384185791015625e-06,
				-0.6186847686767578
			],
			"type":"VEC3"
		},
		{
			"bufferView":5,
			"componentType":5126,
			"count":256,
			"type":"VEC3"
		},
		{
			"bufferView":6,
			"componentType":5126,
			"count":256,
			"type":"VEC2"
		},
		{
			"bufferView":7,
			"componentType":5123,
			"count":714,
			"type":"SCALAR"
		}
	],
	"bufferViews":[
		{
			"buffer":0,
			"byteLength":1728,
			"byteOffset":0,
			"target":34962
		},
		{
			"buffer":0,
			"byteLength":1728,
			"byteOffset":1728,
			"target":34962
		},
		{
			"buffer":0,
			"byteLength":1152,
			"byteOffset":3456,
			"target":34962
		},
		{
			"buffer":0,
			"byteLength":852,
			"byteOffset":4608,
			"target":34963
		},
		{
			"buffer":0,
			"byteLength":3072,
			"byteOffset":5460,
			"target":34962
		},
		{
			"buffer":0,
			"byteLength":3072,
			"byteOffset":8532,
			"target":34962
		},
		{
			"buffer":0,
			"byteLength":2048,
			"byteOffset":11604,
			"target":34962
		},
		{
			"buffer":0,
			"byteLength":1428,
			"byteOffset":13652,
			"target":34963
		}
	],
	"samplers":[
		{
			"magFilter":9729,
			"minFilter":9987
		}
	],
	"buffers":[
		{
			"byteLength":15080,
			"uri":"indoor_lamp_on.bin"
		}
	]
}
