{
	"asset":{
		"copyright":"@serufu_yua",
		"generator":"Khronos glTF Blender I/O v3.6.28",
		"version":"2.0"
	},
	"extensionsUsed":[
		"KHR_materials_specular",
		"KHR_materials_ior"
	],
	"scene":0,
	"scenes":[
		{
			"name":"Scene",
			"nodes":[
				22
			]
		}
	],
	"nodes":[
		{
			"name":"Front.001",
			"rotation":[
				0.993882417678833,
				2.2088371132156226e-09,
				2.2097204066540144e-09,
				0.11044342815876007
			],
			"scale":[
				1,
				0.9999999403953552,
				0.9999999403953552
			],
			"translation":[
				0,
				0.307262122631073,
				0.16622668504714966
			]
		},
		{
			"name":"Front.002.R",
			"rotation":[
				0.9667549729347229,
				-0.006622086279094219,
				0.22786441445350647,
				0.11583937704563141
			],
			"scale":[
				1,
				1.0000001192092896,
				0.9999999403953552
			],
			"translation":[
				-0.02710016630589962,
				0.3050086200237274,
				0.1619996577501297
			]
		},
		{
			"name":"Front.002.L",
			"rotation":[
				0.9667549729347229,
				0.006622086279094219,
				-0.22786441445350647,
				0.11583937704563141
			],
			"scale":[
				1,
				1.0000001192092896,
				0.9999999403953552
			],
			"translation":[
				0.02710016630589962,
				0.3050086200237274,
				0.1619996577501297
			]
		},
		{
			"name":"Front.003.R",
			"rotation":[
				0.9444457292556763,
				-0.04335203394293785,
				0.2785032093524933,
				0.1690526157617569
			],
			"scale":[
				1,
				1,
				0.9999997615814209
			],
			"translation":[
				-0.06442606449127197,
				0.28720298409461975,
				0.14582392573356628
			]
		},
		{
			"name":"Front.003.L",
			"rotation":[
				0.9444457292556763,
				0.04335203394293785,
				-0.2785032093524933,
				0.1690526157617569
			],
			"scale":[
				1,
				1,
				0.9999997615814209
			],
			"translation":[
				0.06442606449127197,
				0.28720298409461975,
				0.14582392573356628
			]
		},
		{
			"name":"Front.004.R",
			"rotation":[
				0.8918202519416809,
				-0.019242336973547935,
				0.4243681728839874,
				0.15555737912654877
			],
			"scale":[
				1,
				0.9999998807907104,
				1
			],
			"translation":[
				-0.09338273853063583,
				0.28561094403266907,
				0.11380035430192947
			]
		},
		{
			"name":"Front.004.L",
			"rotation":[
				0.8918202519416809,
				0.019242336973547935,
				-0.4243681728839874,
				0.15555737912654877
			],
			"scale":[
				1,
				0.9999998807907104,
				1
			],
			"translation":[
				0.09338273853063583,
				0.28561094403266907,
				0.11380035430192947
			]
		},
		{
			"name":"Side.001.R",
			"rotation":[
				0.8637272715568542,
				-0.006852676626294851,
				0.48719868063926697,
				0.12870758771896362
			],
			"scale":[
				1,
				1.000000238418579,
				1.0000001192092896
			],
			"translation":[
				-0.1250675916671753,
				0.26707735657691956,
				0.08655650168657303
			]
		},
		{
			"name":"Side.001.L",
			"rotation":[
				0.8637272715568542,
				0.006852676626294851,
				-0.48719868063926697,
				0.12870758771896362
			],
			"scale":[
				1,
				1.000000238418579,
				1.0000001192092896
			],
			"translation":[
				0.1250675916671753,
				0.26707735657691956,
				0.08655650168657303
			]
		},
		{
			"name":"Side.002.R",
			"rotation":[
				0.7725021839141846,
				0.02489594928920269,
				0.6337171792984009,
				0.031987618654966354
			],
			"scale":[
				0.9999998211860657,
				1,
				0.9999998807907104
			],
			"translation":[
				-0.1536884307861328,
				0.2380034625530243,
				0.04918103665113449
			]
		},
		{
			"name":"Side.002.L",
			"rotation":[
				0.7725021839141846,
				-0.02489594928920269,
				-0.6337171792984009,
				0.031987618654966354
			],
			"scale":[
				0.9999998211860657,
				1,
				0.9999998807907104
			],
			"translation":[
				0.1536884307861328,
				0.2380034625530243,
				0.04918103665113449
			]
		},
		{
			"name":"Side.003.R",
			"rotation":[
				-0.6940705180168152,
				-0.007010895758867264,
				-0.7195659279823303,
				0.021021373569965363
			],
			"scale":[
				0.9999999403953552,
				1,
				0.9999999403953552
			],
			"translation":[
				-0.1704472005367279,
				0.20980162918567657,
				-0.0010338512947782874
			]
		},
		{
			"name":"Side.003.L",
			"rotation":[
				-0.6940705180168152,
				0.007010895758867264,
				0.7195659279823303,
				0.021021373569965363
			],
			"scale":[
				0.9999999403953552,
				1,
				0.9999999403953552
			],
			"translation":[
				0.1704472005367279,
				0.20980162918567657,
				-0.0010338512947782874
			]
		},
		{
			"name":"Back.001.R",
			"rotation":[
				-0.5932095646858215,
				-0.03385277837514877,
				-0.8037877678871155,
				0.02969212271273136
			],
			"scale":[
				1.000000238418579,
				1,
				1.000000238418579
			],
			"translation":[
				-0.17019231617450714,
				0.1806989163160324,
				-0.07546529918909073
			]
		},
		{
			"name":"Back.001.L",
			"rotation":[
				-0.5932095646858215,
				0.03385277837514877,
				0.8037877678871155,
				0.02969212271273136
			],
			"scale":[
				1.000000238418579,
				1,
				1.000000238418579
			],
			"translation":[
				0.17019231617450714,
				0.1806989163160324,
				-0.07546529918909073
			]
		},
		{
			"name":"Back.002.R",
			"rotation":[
				-0.3671606481075287,
				-0.03367127105593681,
				-0.9294748902320862,
				0.011653263121843338
			],
			"scale":[
				1.0000001192092896,
				0.9999997019767761,
				1
			],
			"translation":[
				-0.12475075572729111,
				0.177202045917511,
				-0.14392869174480438
			]
		},
		{
			"name":"Back.002.L",
			"rotation":[
				-0.3671606481075287,
				0.03367127105593681,
				0.9294748902320862,
				0.011653263121843338
			],
			"scale":[
				1.0000001192092896,
				0.9999997019767761,
				1
			],
			"translation":[
				0.12475075572729111,
				0.177202045917511,
				-0.14392869174480438
			]
		},
		{
			"name":"Back.003.R",
			"rotation":[
				0.1846683770418167,
				0.03864055126905441,
				0.9820224642753601,
				0.006032133009284735
			],
			"scale":[
				0.9999999403953552,
				1.0000001192092896,
				0.9999996423721313
			],
			"translation":[
				-0.06193516030907631,
				0.17200766503810883,
				-0.1860814392566681
			]
		},
		{
			"name":"Back.003.L",
			"rotation":[
				0.1846683770418167,
				-0.03864055126905441,
				-0.9820224642753601,
				0.006032133009284735
			],
			"scale":[
				0.9999999403953552,
				1.0000001192092896,
				0.9999996423721313
			],
			"translation":[
				0.06193516030907631,
				0.17200766503810883,
				-0.1860814392566681
			]
		},
		{
			"name":"Back.004",
			"rotation":[
				3.1298063163376355e-07,
				-0.030404960736632347,
				-0.9995377063751221,
				1.0630503588515694e-08
			],
			"scale":[
				1,
				1.0000001192092896,
				0.9999999403953552
			],
			"translation":[
				-7.579477601105111e-10,
				0.1716146171092987,
				-0.19918763637542725
			]
		},
		{
			"children":[
				0,
				1,
				2,
				3,
				4,
				5,
				6,
				7,
				8,
				9,
				10,
				11,
				12,
				13,
				14,
				15,
				16,
				17,
				18,
				19
			],
			"name":"Bone",
			"rotation":[
				-0.00019986066035926342,
				0,
				0,
				1
			],
			"scale":[
				1,
				0.9999999403953552,
				0.9999999403953552
			]
		},
		{
			"mesh":0,
			"name":"hair.girl",
			"skin":0
		},
		{
			"children":[
				21,
				20
			],
			"name":"Skeleton.Hair.Girl"
		}
	],
	"materials":[
		{
			"alphaCutoff":0.5,
			"alphaMode":"MASK",
			"doubleSided":true,
			"extensions":{
				"KHR_materials_specular":{
					"specularColorFactor":[
						2.371357614441398,
						2.371357614441398,
						2.371357614441398
					]
				},
				"KHR_materials_ior":{
					"ior":1.4500000476837158
				}
			},
			"name":"hair.tex",
			"pbrMetallicRoughness":{
				"baseColorTexture":{
					"index":0,
					"texCoord":2
				},
				"metallicFactor":0,
				"roughnessFactor":0.5
			}
		}
	],
	"meshes":[
		{
			"name":"hair.girl.001",
			"primitives":[
				{
					"attributes":{
						"POSITION":0,
						"NORMAL":1,
						"TEXCOORD_0":2,
						"TEXCOORD_1":3,
						"TEXCOORD_2":4,
						"JOINTS_0":5,
						"WEIGHTS_0":6
					},
					"indices":7,
					"material":0
				}
			]
		}
	],
	"textures":[
		{
			"sampler":0,
			"source":0
		}
	],
	"images":[
		{
			"mimeType":"image/png",
			"name":"hair",
			"uri":"hair.png"
		}
	],
	"skins":[
		{
			"inverseBindMatrices":8,
			"joints":[
				20,
				0,
				1,
				2,
				3,
				4,
				5,
				6,
				7,
				8,
				9,
				10,
				11,
				12,
				13,
				14,
				15,
				16,
				17,
				18,
				19
			],
			"name":"Skeleton.Hair.Girl"
		}
	],
	"accessors":[
		{
			"bufferView":0,
			"componentType":5126,
			"count":1468,
			"max":[
				0.1915205717086792,
				0.3264271914958954,
				0.22423836588859558
			],
			"min":[
				-0.1915205717086792,
				-0.16942034661769867,
				-0.21476978063583374
			],
			"type":"VEC3"
		},
		{
			"bufferView":1,
			"componentType":5126,
			"count":1468,
			"type":"VEC3"
		},
		{
			"bufferView":2,
			"componentType":5126,
			"count":1468,
			"type":"VEC2"
		},
		{
			"bufferView":3,
			"componentType":5126,
			"count":1468,
			"type":"VEC2"
		},
		{
			"bufferView":4,
			"componentType":5126,
			"count":1468,
			"type":"VEC2"
		},
		{
			"bufferView":5,
			"componentType":5121,
			"count":1468,
			"type":"VEC4"
		},
		{
			"bufferView":6,
			"componentType":5126,
			"count":1468,
			"type":"VEC4"
		},
		{
			"bufferView":7,
			"componentType":5123,
			"count":4512,
			"type":"SCALAR"
		},
		{
			"bufferView":8,
			"componentType":5126,
			"count":21,
			"type":"MAT4"
		}
	],
	"bufferViews":[
		{
			"buffer":0,
			"byteLength":17616,
			"byteOffset":0,
			"target":34962
		},
		{
			"buffer":0,
			"byteLength":17616,
			"byteOffset":17616,
			"target":34962
		},
		{
			"buffer":0,
			"byteLength":11744,
			"byteOffset":35232,
			"target":34962
		},
		{
			"buffer":0,
			"byteLength":11744,
			"byteOffset":46976,
			"target":34962
		},
		{
			"buffer":0,
			"byteLength":11744,
			"byteOffset":58720,
			"target":34962
		},
		{
			"buffer":0,
			"byteLength":5872,
			"byteOffset":70464,
			"target":34962
		},
		{
			"buffer":0,
			"byteLength":23488,
			"byteOffset":76336,
			"target":34962
		},
		{
			"buffer":0,
			"byteLength":9024,
			"byteOffset":99824,
			"target":34963
		},
		{
			"buffer":0,
			"byteLength":1344,
			"byteOffset":108848
		}
	],
	"samplers":[
		{
			"magFilter":9729,
			"minFilter":9987
		}
	],
	"buffers":[
		{
			"byteLength":110192,
			"uri":"hair_intro.bin"
		}
	]
}
