{
	"asset":{
		"generator":"Khronos glTF Blender I/O v3.6.28",
		"version":"2.0"
	},
	"extensionsUsed":[
		"KHR_materials_specular",
		"KHR_materials_ior"
	],
	"scene":0,
	"scenes":[
		{
			"name":"Scene",
			"nodes":[
				2
			]
		}
	],
	"nodes":[
		{
			"name":"Bone"
		},
		{
			"mesh":0,
			"name":"hair",
			"skin":0
		},
		{
			"children":[
				1,
				0
			],
			"name":"Skeleton.Hair"
		}
	],
	"materials":[
		{
			"alphaCutoff":0.5,
			"alphaMode":"MASK",
			"doubleSided":true,
			"extensions":{
				"KHR_materials_specular":{
					"specularColorFactor":[
						2.371357614441398,
						2.371357614441398,
						2.371357614441398
					]
				},
				"KHR_materials_ior":{
					"ior":1.4500000476837158
				}
			},
			"name":"hair.tex",
			"pbrMetallicRoughness":{
				"baseColorTexture":{
					"index":0,
					"texCoord":2
				},
				"metallicFactor":0,
				"roughnessFactor":0.5
			}
		}
	],
	"meshes":[
		{
			"name":"hair",
			"primitives":[
				{
					"attributes":{
						"POSITION":0,
						"NORMAL":1,
						"TEXCOORD_0":2,
						"TEXCOORD_1":3,
						"TEXCOORD_2":4,
						"JOINTS_0":5,
						"WEIGHTS_0":6
					},
					"indices":7,
					"material":0
				}
			]
		}
	],
	"textures":[
		{
			"sampler":0,
			"source":0
		}
	],
	"images":[
		{
			"mimeType":"image/png",
			"name":"hair_Ru",
			"uri":"hair_Ru.png"
		}
	],
	"skins":[
		{
			"inverseBindMatrices":8,
			"joints":[
				0
			],
			"name":"Skeleton.Hair"
		}
	],
	"accessors":[
		{
			"bufferView":0,
			"componentType":5126,
			"count":1446,
			"max":[
				6.57017183303833,
				11.198184967041016,
				7.691923141479492
			],
			"min":[
				-6.57017183303833,
				-5.81201696395874,
				-7.710796356201172
			],
			"type":"VEC3"
		},
		{
			"bufferView":1,
			"componentType":5126,
			"count":1446,
			"type":"VEC3"
		},
		{
			"bufferView":2,
			"componentType":5126,
			"count":1446,
			"type":"VEC2"
		},
		{
			"bufferView":3,
			"componentType":5126,
			"count":1446,
			"type":"VEC2"
		},
		{
			"bufferView":4,
			"componentType":5126,
			"count":1446,
			"type":"VEC2"
		},
		{
			"bufferView":5,
			"componentType":5121,
			"count":1446,
			"type":"VEC4"
		},
		{
			"bufferView":6,
			"componentType":5126,
			"count":1446,
			"type":"VEC4"
		},
		{
			"bufferView":7,
			"componentType":5123,
			"count":4470,
			"type":"SCALAR"
		},
		{
			"bufferView":8,
			"componentType":5126,
			"count":1,
			"type":"MAT4"
		}
	],
	"bufferViews":[
		{
			"buffer":0,
			"byteLength":17352,
			"byteOffset":0,
			"target":34962
		},
		{
			"buffer":0,
			"byteLength":17352,
			"byteOffset":17352,
			"target":34962
		},
		{
			"buffer":0,
			"byteLength":11568,
			"byteOffset":34704,
			"target":34962
		},
		{
			"buffer":0,
			"byteLength":11568,
			"byteOffset":46272,
			"target":34962
		},
		{
			"buffer":0,
			"byteLength":11568,
			"byteOffset":57840,
			"target":34962
		},
		{
			"buffer":0,
			"byteLength":5784,
			"byteOffset":69408,
			"target":34962
		},
		{
			"buffer":0,
			"byteLength":23136,
			"byteOffset":75192,
			"target":34962
		},
		{
			"buffer":0,
			"byteLength":8940,
			"byteOffset":98328,
			"target":34963
		},
		{
			"buffer":0,
			"byteLength":64,
			"byteOffset":107268
		}
	],
	"samplers":[
		{
			"magFilter":9729,
			"minFilter":9987
		}
	],
	"buffers":[
		{
			"byteLength":107332,
			"uri":"hair.bin"
		}
	]
}
