{
	"asset":{
		"copyright":"@serufu_yua",
		"generator":"Khronos glTF Blender I/O v3.6.28",
		"version":"2.0"
	},
	"extensionsUsed":[
		"KHR_materials_specular",
		"KHR_materials_ior"
	],
	"scene":0,
	"scenes":[
		{
			"name":"Scene",
			"nodes":[
				8
			]
		}
	],
	"nodes":[
		{
			"mesh":0,
			"name":"helmet.clench.001",
			"rotation":[
				0.6598033308982849,
				0,
				0,
				0.7514383792877197
			],
			"translation":[
				0,
				0.17942705750465393,
				0.19223760068416595
			]
		},
		{
			"mesh":0,
			"name":"helmet.clench.002",
			"rotation":[
				0.6305476427078247,
				-0.21744026243686676,
				0.25013643503189087,
				0.7018270492553711
			],
			"translation":[
				-0.10673058778047562,
				0.17095869779586792,
				0.1555054783821106
			]
		},
		{
			"mesh":0,
			"name":"helmet.clench.003",
			"rotation":[
				0.6305476427078247,
				0.21744024753570557,
				-0.2501364052295685,
				0.7018270492553711
			],
			"translation":[
				0.10673058778047562,
				0.17095869779586792,
				0.1555054783821106
			]
		},
		{
			"mesh":0,
			"name":"helmet.clench.004",
			"rotation":[
				0.6621797680854797,
				-0.41691359877586365,
				0.4796042740345001,
				0.397090345621109
			],
			"translation":[
				-0.1533266007900238,
				0.05769404023885727,
				0.05751391872763634
			]
		},
		{
			"mesh":0,
			"name":"helmet.clench.005",
			"rotation":[
				0.6621797680854797,
				0.41691359877586365,
				-0.4796042740345001,
				0.3970904052257538
			],
			"translation":[
				0.1533266007900238,
				0.05769404023885727,
				0.05751391872763634
			]
		},
		{
			"mesh":1,
			"name":"helmet.glass"
		},
		{
			"mesh":2,
			"name":"helmet.hair.girl"
		},
		{
			"mesh":3,
			"name":"helmet.strap",
			"rotation":[
				-0.1736481487751007,
				0,
				0,
				0.9848077893257141
			],
			"translation":[
				0,
				-0.07000000029802322,
				0.07999999821186066
			]
		},
		{
			"children":[
				0,
				1,
				2,
				3,
				4,
				5,
				6,
				7
			],
			"mesh":4,
			"name":"helmet"
		}
	],
	"materials":[
		{
			"doubleSided":true,
			"name":"Helmet.Metall",
			"pbrMetallicRoughness":{
				"baseColorTexture":{
					"index":0
				},
				"metallicFactor":0.9681817889213562,
				"roughnessFactor":0.11818182468414307
			}
		},
		{
			"alphaMode":"BLEND",
			"name":"Helmet.Glass",
			"pbrMetallicRoughness":{
				"baseColorFactor":[
					0.10218079388141632,
					0.10218079388141632,
					0.10218079388141632,
					0.20000000298023224
				],
				"metallicFactor":0,
				"roughnessFactor":0
			}
		},
		{
			"alphaCutoff":0.5,
			"alphaMode":"MASK",
			"doubleSided":true,
			"extensions":{
				"KHR_materials_specular":{
					"specularColorFactor":[
						2.371357614441398,
						2.371357614441398,
						2.371357614441398
					]
				},
				"KHR_materials_ior":{
					"ior":1.4500000476837158
				}
			},
			"name":"hair.tex",
			"normalTexture":{
				"index":1,
				"texCoord":2
			},
			"pbrMetallicRoughness":{
				"baseColorTexture":{
					"index":2,
					"texCoord":2
				},
				"metallicFactor":0,
				"roughnessFactor":0.5
			}
		},
		{
			"doubleSided":true,
			"name":"Helmet.Line.Tex",
			"normalTexture":{
				"index":3,
				"texCoord":1
			},
			"pbrMetallicRoughness":{
				"baseColorTexture":{
					"index":4,
					"texCoord":1
				},
				"metallicRoughnessTexture":{
					"index":5,
					"texCoord":1
				},
				"roughnessFactor":0.5
			}
		},
		{
			"doubleSided":true,
			"name":"Helmet.Line.Tex",
			"normalTexture":{
				"index":6
			},
			"pbrMetallicRoughness":{
				"baseColorTexture":{
					"index":7
				},
				"metallicRoughnessTexture":{
					"index":8
				},
				"roughnessFactor":0.5
			}
		}
	],
	"meshes":[
		{
			"name":"Cylinder",
			"primitives":[
				{
					"attributes":{
						"POSITION":0,
						"NORMAL":1,
						"TEXCOORD_0":2,
						"TANGENT":3
					},
					"indices":4,
					"material":0
				}
			]
		},
		{
			"name":"Plane.001",
			"primitives":[
				{
					"attributes":{
						"POSITION":5,
						"NORMAL":6,
						"TEXCOORD_0":7,
						"TANGENT":8
					},
					"indices":9,
					"material":1
				}
			]
		},
		{
			"name":"hair.girl.002",
			"primitives":[
				{
					"attributes":{
						"POSITION":10,
						"NORMAL":11,
						"TEXCOORD_0":12,
						"TEXCOORD_1":13,
						"TEXCOORD_2":14
					},
					"indices":15,
					"material":2
				}
			]
		},
		{
			"name":"Plane.002",
			"primitives":[
				{
					"attributes":{
						"POSITION":16,
						"NORMAL":17,
						"TEXCOORD_0":18,
						"TEXCOORD_1":19,
						"TANGENT":20
					},
					"indices":21,
					"material":3
				}
			]
		},
		{
			"name":"Icosphere",
			"primitives":[
				{
					"attributes":{
						"POSITION":22,
						"NORMAL":23,
						"TEXCOORD_0":24,
						"TEXCOORD_1":25,
						"TEXCOORD_2":26,
						"TANGENT":27
					},
					"indices":28,
					"material":4
				}
			]
		}
	],
	"textures":[
		{
			"sampler":0,
			"source":0
		},
		{
			"sampler":0,
			"source":1
		},
		{
			"sampler":0,
			"source":2
		},
		{
			"sampler":0,
			"source":3
		},
		{
			"sampler":0,
			"source":4
		},
		{
			"sampler":0,
			"source":5
		},
		{
			"sampler":0,
			"source":3
		},
		{
			"sampler":0,
			"source":4
		},
		{
			"sampler":0,
			"source":5
		}
	],
	"images":[
		{
			"mimeType":"image/png",
			"name":"metall",
			"uri":"metall.png"
		},
		{
			"mimeType":"image/png",
			"name":"hair_n",
			"uri":"hair_n.png"
		},
		{
			"mimeType":"image/png",
			"name":"hair",
			"uri":"hair.png"
		},
		{
			"mimeType":"image/png",
			"name":"helmet_line_n",
			"uri":"helmet_line_n.png"
		},
		{
			"mimeType":"image/png",
			"name":"helmet_line",
			"uri":"helmet_line.png"
		},
		{
			"mimeType":"image/png",
			"name":"helmet_line_m",
			"uri":"helmet_line_m.png"
		}
	],
	"accessors":[
		{
			"bufferView":0,
			"componentType":5126,
			"count":17,
			"max":[
				0.009510565549135208,
				0.014199492521584034,
				0.008090170100331306
			],
			"min":[
				-0.009510565549135208,
				0,
				-0.009999999776482582
			],
			"type":"VEC3"
		},
		{
			"bufferView":1,
			"componentType":5126,
			"count":17,
			"type":"VEC3"
		},
		{
			"bufferView":2,
			"componentType":5126,
			"count":17,
			"type":"VEC2"
		},
		{
			"bufferView":3,
			"componentType":5126,
			"count":17,
			"type":"VEC4"
		},
		{
			"bufferView":4,
			"componentType":5123,
			"count":45,
			"type":"SCALAR"
		},
		{
			"bufferView":5,
			"componentType":5126,
			"count":152,
			"max":[
				0.18249480426311493,
				0.1984879970550537,
				0.20551641285419464
			],
			"min":[
				-0.18249480426311493,
				-0.0723164975643158,
				0.038507044315338135
			],
			"type":"VEC3"
		},
		{
			"bufferView":6,
			"componentType":5126,
			"count":152,
			"type":"VEC3"
		},
		{
			"bufferView":7,
			"componentType":5126,
			"count":152,
			"type":"VEC2"
		},
		{
			"bufferView":8,
			"componentType":5126,
			"count":152,
			"type":"VEC4"
		},
		{
			"bufferView":9,
			"componentType":5123,
			"count":528,
			"type":"SCALAR"
		},
		{
			"bufferView":10,
			"componentType":5126,
			"count":468,
			"max":[
				0.12544985115528107,
				0.1976730227470398,
				0.1568213552236557
			],
			"min":[
				-0.12544985115528107,
				-0.14326389133930206,
				-0.15319396555423737
			],
			"type":"VEC3"
		},
		{
			"bufferView":11,
			"componentType":5126,
			"count":468,
			"type":"VEC3"
		},
		{
			"bufferView":12,
			"componentType":5126,
			"count":468,
			"type":"VEC2"
		},
		{
			"bufferView":13,
			"componentType":5126,
			"count":468,
			"type":"VEC2"
		},
		{
			"bufferView":14,
			"componentType":5126,
			"count":468,
			"type":"VEC2"
		},
		{
			"bufferView":15,
			"componentType":5123,
			"count":954,
			"type":"SCALAR"
		},
		{
			"bufferView":16,
			"componentType":5126,
			"count":24,
			"max":[
				0.09374911338090897,
				0.07561346888542175,
				0.01627425104379654
			],
			"min":[
				-0.09374911338090897,
				0.011271409690380096,
				-0.021533967927098274
			],
			"type":"VEC3"
		},
		{
			"bufferView":17,
			"componentType":5126,
			"count":24,
			"type":"VEC3"
		},
		{
			"bufferView":18,
			"componentType":5126,
			"count":24,
			"type":"VEC2"
		},
		{
			"bufferView":19,
			"componentType":5126,
			"count":24,
			"type":"VEC2"
		},
		{
			"bufferView":20,
			"componentType":5126,
			"count":24,
			"type":"VEC4"
		},
		{
			"bufferView":21,
			"componentType":5123,
			"count":60,
			"type":"SCALAR"
		},
		{
			"bufferView":22,
			"componentType":5126,
			"count":238,
			"max":[
				0.1817234754562378,
				0.33949998021125793,
				0.1939333826303482
			],
			"min":[
				-0.1817234754562378,
				-0.014642043970525265,
				-0.19441020488739014
			],
			"type":"VEC3"
		},
		{
			"bufferView":23,
			"componentType":5126,
			"count":238,
			"type":"VEC3"
		},
		{
			"bufferView":24,
			"componentType":5126,
			"count":238,
			"type":"VEC2"
		},
		{
			"bufferView":25,
			"componentType":5126,
			"count":238,
			"type":"VEC2"
		},
		{
			"bufferView":26,
			"componentType":5126,
			"count":238,
			"type":"VEC2"
		},
		{
			"bufferView":27,
			"componentType":5126,
			"count":238,
			"type":"VEC4"
		},
		{
			"bufferView":28,
			"componentType":5123,
			"count":1026,
			"type":"SCALAR"
		}
	],
	"bufferViews":[
		{
			"buffer":0,
			"byteLength":204,
			"byteOffset":0,
			"target":34962
		},
		{
			"buffer":0,
			"byteLength":204,
			"byteOffset":204,
			"target":34962
		},
		{
			"buffer":0,
			"byteLength":136,
			"byteOffset":408,
			"target":34962
		},
		{
			"buffer":0,
			"byteLength":272,
			"byteOffset":544,
			"target":34962
		},
		{
			"buffer":0,
			"byteLength":90,
			"byteOffset":816,
			"target":34963
		},
		{
			"buffer":0,
			"byteLength":1824,
			"byteOffset":908,
			"target":34962
		},
		{
			"buffer":0,
			"byteLength":1824,
			"byteOffset":2732,
			"target":34962
		},
		{
			"buffer":0,
			"byteLength":1216,
			"byteOffset":4556,
			"target":34962
		},
		{
			"buffer":0,
			"byteLength":2432,
			"byteOffset":5772,
			"target":34962
		},
		{
			"buffer":0,
			"byteLength":1056,
			"byteOffset":8204,
			"target":34963
		},
		{
			"buffer":0,
			"byteLength":5616,
			"byteOffset":9260,
			"target":34962
		},
		{
			"buffer":0,
			"byteLength":5616,
			"byteOffset":14876,
			"target":34962
		},
		{
			"buffer":0,
			"byteLength":3744,
			"byteOffset":20492,
			"target":34962
		},
		{
			"buffer":0,
			"byteLength":3744,
			"byteOffset":24236,
			"target":34962
		},
		{
			"buffer":0,
			"byteLength":3744,
			"byteOffset":27980,
			"target":34962
		},
		{
			"buffer":0,
			"byteLength":1908,
			"byteOffset":31724,
			"target":34963
		},
		{
			"buffer":0,
			"byteLength":288,
			"byteOffset":33632,
			"target":34962
		},
		{
			"buffer":0,
			"byteLength":288,
			"byteOffset":33920,
			"target":34962
		},
		{
			"buffer":0,
			"byteLength":192,
			"byteOffset":34208,
			"target":34962
		},
		{
			"buffer":0,
			"byteLength":192,
			"byteOffset":34400,
			"target":34962
		},
		{
			"buffer":0,
			"byteLength":384,
			"byteOffset":34592,
			"target":34962
		},
		{
			"buffer":0,
			"byteLength":120,
			"byteOffset":34976,
			"target":34963
		},
		{
			"buffer":0,
			"byteLength":2856,
			"byteOffset":35096,
			"target":34962
		},
		{
			"buffer":0,
			"byteLength":2856,
			"byteOffset":37952,
			"target":34962
		},
		{
			"buffer":0,
			"byteLength":1904,
			"byteOffset":40808,
			"target":34962
		},
		{
			"buffer":0,
			"byteLength":1904,
			"byteOffset":42712,
			"target":34962
		},
		{
			"buffer":0,
			"byteLength":1904,
			"byteOffset":44616,
			"target":34962
		},
		{
			"buffer":0,
			"byteLength":3808,
			"byteOffset":46520,
			"target":34962
		},
		{
			"buffer":0,
			"byteLength":2052,
			"byteOffset":50328,
			"target":34963
		}
	],
	"samplers":[
		{
			"magFilter":9729,
			"minFilter":9987
		}
	],
	"buffers":[
		{
			"byteLength":52380,
			"uri":"helmet_line.bin"
		}
	]
}
