{
	"asset":{
		"copyright":"@serufu_yua",
		"generator":"Khronos glTF Blender I/O v3.6.28",
		"version":"2.0"
	},
	"scene":0,
	"scenes":[
		{
			"name":"Scene",
			"nodes":[
				2
			]
		}
	],
	"nodes":[
		{
			"mesh":0,
			"name":"Disk.001",
			"rotation":[
				0,
				0,
				-0.7071068286895752,
				0.7071068286895752
			],
			"translation":[
				0,
				0.30000001192092896,
				-0.699999988079071
			]
		},
		{
			"mesh":0,
			"name":"Disk.002",
			"rotation":[
				0.7071068286895752,
				-0.7071068286895752,
				0,
				5.338509012631221e-08
			],
			"translation":[
				0,
				0.30000001192092896,
				0.699999988079071
			]
		},
		{
			"children":[
				0,
				1
			],
			"mesh":1,
			"name":"blockage",
			"translation":[
				0,
				0.9000000357627869,
				0
			]
		}
	],
	"materials":[
		{
			"doubleSided":true,
			"name":"Blockage.Tex",
			"normalTexture":{
				"index":0,
				"texCoord":1
			},
			"pbrMetallicRoughness":{
				"baseColorTexture":{
					"index":1,
					"texCoord":1
				},
				"metallicFactor":0,
				"metallicRoughnessTexture":{
					"index":2,
					"texCoord":1
				},
				"roughnessFactor":4
			}
		}
	],
	"meshes":[
		{
			"name":"Circle.001",
			"primitives":[
				{
					"attributes":{
						"POSITION":0,
						"NORMAL":1,
						"TEXCOORD_0":2,
						"TEXCOORD_1":3
					},
					"indices":4,
					"material":0
				},
				{
					"attributes":{
						"POSITION":5,
						"NORMAL":6,
						"TEXCOORD_0":7,
						"TEXCOORD_1":8
					},
					"indices":9,
					"material":0
				}
			]
		},
		{
			"name":"Cube",
			"primitives":[
				{
					"attributes":{
						"POSITION":10,
						"NORMAL":11,
						"TEXCOORD_0":12,
						"TEXCOORD_1":13
					},
					"indices":14,
					"material":0
				},
				{
					"attributes":{
						"POSITION":15,
						"NORMAL":16,
						"TEXCOORD_0":17,
						"TEXCOORD_1":18
					},
					"indices":19,
					"material":0
				}
			]
		}
	],
	"textures":[
		{
			"sampler":0,
			"source":0
		},
		{
			"sampler":0,
			"source":1
		},
		{
			"sampler":0,
			"source":2
		}
	],
	"images":[
		{
			"mimeType":"image/png",
			"name":"blockage_n",
			"uri":"blockage_n.png"
		},
		{
			"mimeType":"image/png",
			"name":"blockage",
			"uri":"blockage.png"
		},
		{
			"mimeType":"image/png",
			"name":"blockage_r",
			"uri":"blockage_r.png"
		}
	],
	"accessors":[
		{
			"bufferView":0,
			"componentType":5126,
			"count":58,
			"max":[
				0.14870591461658478,
				0.005000000819563866,
				0.15000000596046448
			],
			"min":[
				-0.15000000596046448,
				-0.004999998956918716,
				-0.15000000596046448
			],
			"type":"VEC3"
		},
		{
			"bufferView":1,
			"componentType":5126,
			"count":58,
			"type":"VEC3"
		},
		{
			"bufferView":2,
			"componentType":5126,
			"count":58,
			"type":"VEC2"
		},
		{
			"bufferView":3,
			"componentType":5126,
			"count":58,
			"type":"VEC2"
		},
		{
			"bufferView":4,
			"componentType":5123,
			"count":138,
			"type":"SCALAR"
		},
		{
			"bufferView":5,
			"componentType":5126,
			"count":16,
			"max":[
				0.20000000298023224,
				0.005000003147870302,
				0.004829628858715296
			],
			"min":[
				0.14870591461658478,
				-0.004999998956918716,
				-0.004829628858715296
			],
			"type":"VEC3"
		},
		{
			"bufferView":6,
			"componentType":5126,
			"count":16,
			"type":"VEC3"
		},
		{
			"bufferView":7,
			"componentType":5126,
			"count":16,
			"type":"VEC2"
		},
		{
			"bufferView":8,
			"componentType":5126,
			"count":16,
			"type":"VEC2"
		},
		{
			"bufferView":9,
			"componentType":5123,
			"count":24,
			"type":"SCALAR"
		},
		{
			"bufferView":10,
			"componentType":5126,
			"count":36,
			"max":[
				0.05000000074505806,
				0.10000000149011612,
				1.2000000476837158
			],
			"min":[
				-0.05000000447034836,
				-0.10000000894069672,
				-1.2000000476837158
			],
			"type":"VEC3"
		},
		{
			"bufferView":11,
			"componentType":5126,
			"count":36,
			"type":"VEC3"
		},
		{
			"bufferView":12,
			"componentType":5126,
			"count":36,
			"type":"VEC2"
		},
		{
			"bufferView":13,
			"componentType":5126,
			"count":36,
			"type":"VEC2"
		},
		{
			"bufferView":14,
			"componentType":5123,
			"count":84,
			"type":"SCALAR"
		},
		{
			"bufferView":15,
			"componentType":5126,
			"count":88,
			"max":[
				0.39003023505210876,
				-0.10000000149011612,
				0.8700000047683716
			],
			"min":[
				-0.39003023505210876,
				-0.9060032963752747,
				-0.8700001239776611
			],
			"type":"VEC3"
		},
		{
			"bufferView":16,
			"componentType":5126,
			"count":88,
			"type":"VEC3"
		},
		{
			"bufferView":17,
			"componentType":5126,
			"count":88,
			"type":"VEC2"
		},
		{
			"bufferView":18,
			"componentType":5126,
			"count":88,
			"type":"VEC2"
		},
		{
			"bufferView":19,
			"componentType":5123,
			"count":144,
			"type":"SCALAR"
		}
	],
	"bufferViews":[
		{
			"buffer":0,
			"byteLength":696,
			"byteOffset":0,
			"target":34962
		},
		{
			"buffer":0,
			"byteLength":696,
			"byteOffset":696,
			"target":34962
		},
		{
			"buffer":0,
			"byteLength":464,
			"byteOffset":1392,
			"target":34962
		},
		{
			"buffer":0,
			"byteLength":464,
			"byteOffset":1856,
			"target":34962
		},
		{
			"buffer":0,
			"byteLength":276,
			"byteOffset":2320,
			"target":34963
		},
		{
			"buffer":0,
			"byteLength":192,
			"byteOffset":2596,
			"target":34962
		},
		{
			"buffer":0,
			"byteLength":192,
			"byteOffset":2788,
			"target":34962
		},
		{
			"buffer":0,
			"byteLength":128,
			"byteOffset":2980,
			"target":34962
		},
		{
			"buffer":0,
			"byteLength":128,
			"byteOffset":3108,
			"target":34962
		},
		{
			"buffer":0,
			"byteLength":48,
			"byteOffset":3236,
			"target":34963
		},
		{
			"buffer":0,
			"byteLength":432,
			"byteOffset":3284,
			"target":34962
		},
		{
			"buffer":0,
			"byteLength":432,
			"byteOffset":3716,
			"target":34962
		},
		{
			"buffer":0,
			"byteLength":288,
			"byteOffset":4148,
			"target":34962
		},
		{
			"buffer":0,
			"byteLength":288,
			"byteOffset":4436,
			"target":34962
		},
		{
			"buffer":0,
			"byteLength":168,
			"byteOffset":4724,
			"target":34963
		},
		{
			"buffer":0,
			"byteLength":1056,
			"byteOffset":4892,
			"target":34962
		},
		{
			"buffer":0,
			"byteLength":1056,
			"byteOffset":5948,
			"target":34962
		},
		{
			"buffer":0,
			"byteLength":704,
			"byteOffset":7004,
			"target":34962
		},
		{
			"buffer":0,
			"byteLength":704,
			"byteOffset":7708,
			"target":34962
		},
		{
			"buffer":0,
			"byteLength":288,
			"byteOffset":8412,
			"target":34963
		}
	],
	"samplers":[
		{
			"magFilter":9729,
			"minFilter":9987
		}
	],
	"buffers":[
		{
			"byteLength":8700,
			"uri":"blockage.bin"
		}
	]
}
