{
    "asset" : {
        "generator" : "Khronos glTF Blender I/O v1.2.75",
        "version" : "2.0"
    },
    "scene" : 0,
    "scenes" : [
        {
            "name" : "Scene",
            "nodes" : [
                0
            ]
        }
    ],
    "nodes" : [
        {
            "mesh" : 0,
            "name" : "Railing",
            "translation" : [
                0,
                0.9842519760131836,
                -4.921259880065918
            ]
        }
    ],
    "materials" : [
        {
            "doubleSided" : true,
            "emissiveFactor" : [
                0,
                0,
                0
            ],
            "name" : "MetalTube.Tex",
            "normalTexture" : {
                "index" : 0,
                "texCoord" : 0
            },
            "pbrMetallicRoughness" : {
                "baseColorTexture" : {
                    "index" : 1,
                    "texCoord" : 0
                },
                "metallicRoughnessTexture" : {
                    "index" : 2,
                    "texCoord" : 0
                }
            }
        }
    ],
    "meshes" : [
        {
            "name" : "Plane.005",
            "primitives" : [
                {
                    "attributes" : {
                        "POSITION" : 0,
                        "NORMAL" : 1,
                        "TEXCOORD_0" : 2
                    },
                    "indices" : 3,
                    "material" : 0
                }
            ]
        }
    ],
    "textures" : [
        {
            "source" : 0
        },
        {
            "source" : 1
        },
        {
            "source" : 2
        }
    ],
    "images" : [
        {
            "mimeType" : "image/png",
            "name" : "railing_n",
            "uri" : "railing_n.png"
        },
        {
            "mimeType" : "image/png",
            "name" : "railing",
            "uri" : "railing.png"
        },
        {
            "mimeType" : "image/png",
            "name" : "railing_g-railing_rg",
            "uri" : "railing_g-railing_rg.png"
        }
    ],
    "accessors" : [
        {
            "bufferView" : 0,
            "componentType" : 5126,
            "count" : 691,
            "max" : [
                20.669292449951172,
                14.107611656188965,
                10.17060375213623
            ],
            "min" : [
                -20.669292449951172,
                -0.9842521548271179,
                -10.17060375213623
            ],
            "type" : "VEC3"
        },
        {
            "bufferView" : 1,
            "componentType" : 5126,
            "count" : 691,
            "type" : "VEC3"
        },
        {
            "bufferView" : 2,
            "componentType" : 5126,
            "count" : 691,
            "type" : "VEC2"
        },
        {
            "bufferView" : 3,
            "componentType" : 5123,
            "count" : 2052,
            "type" : "SCALAR"
        }
    ],
    "bufferViews" : [
        {
            "buffer" : 0,
            "byteLength" : 8292,
            "byteOffset" : 0
        },
        {
            "buffer" : 0,
            "byteLength" : 8292,
            "byteOffset" : 8292
        },
        {
            "buffer" : 0,
            "byteLength" : 5528,
            "byteOffset" : 16584
        },
        {
            "buffer" : 0,
            "byteLength" : 4104,
            "byteOffset" : 22112
        }
    ],
    "buffers" : [
        {
            "byteLength" : 26216,
            "uri" : "railing.bin"
        }
    ]
}
