{
	"asset":{
		"copyright":"@serufu_yua",
		"generator":"Khronos glTF Blender I/O v3.6.28",
		"version":"2.0"
	},
	"scene":0,
	"scenes":[
		{
			"name":"Scene",
			"nodes":[
				0
			]
		}
	],
	"nodes":[
		{
			"mesh":0,
			"name":"Railing",
			"translation":[
				0,
				0.02869093418121338,
				-0.14345455169677734
			]
		}
	],
	"materials":[
		{
			"doubleSided":true,
			"name":"MetalTube.Tex",
			"normalTexture":{
				"index":0
			},
			"pbrMetallicRoughness":{
				"baseColorTexture":{
					"index":1
				},
				"metallicRoughnessTexture":{
					"index":2
				}
			}
		}
	],
	"meshes":[
		{
			"name":"Plane.005",
			"primitives":[
				{
					"attributes":{
						"POSITION":0,
						"NORMAL":1,
						"TEXCOORD_0":2
					},
					"indices":3,
					"material":0
				}
			]
		}
	],
	"textures":[
		{
			"sampler":0,
			"source":0
		},
		{
			"sampler":0,
			"source":1
		},
		{
			"sampler":0,
			"source":2
		}
	],
	"images":[
		{
			"mimeType":"image/png",
			"name":"railing_n",
			"uri":"railing_n.png"
		},
		{
			"mimeType":"image/png",
			"name":"railing",
			"uri":"railing.png"
		},
		{
			"mimeType":"image/png",
			"name":"railing_m-railing_r",
			"uri":"railing_m-railing_r.png"
		}
	],
	"accessors":[
		{
			"bufferView":0,
			"componentType":5126,
			"count":691,
			"max":[
				0.6025100350379944,
				0.4112370014190674,
				0.2964732050895691
			],
			"min":[
				-0.6025100350379944,
				-0.02869095839560032,
				-0.2964732050895691
			],
			"type":"VEC3"
		},
		{
			"bufferView":1,
			"componentType":5126,
			"count":691,
			"type":"VEC3"
		},
		{
			"bufferView":2,
			"componentType":5126,
			"count":691,
			"type":"VEC2"
		},
		{
			"bufferView":3,
			"componentType":5123,
			"count":2052,
			"type":"SCALAR"
		}
	],
	"bufferViews":[
		{
			"buffer":0,
			"byteLength":8292,
			"byteOffset":0,
			"target":34962
		},
		{
			"buffer":0,
			"byteLength":8292,
			"byteOffset":8292,
			"target":34962
		},
		{
			"buffer":0,
			"byteLength":5528,
			"byteOffset":16584,
			"target":34962
		},
		{
			"buffer":0,
			"byteLength":4104,
			"byteOffset":22112,
			"target":34963
		}
	],
	"samplers":[
		{
			"magFilter":9729,
			"minFilter":9987
		}
	],
	"buffers":[
		{
			"byteLength":26216,
			"uri":"railing.bin"
		}
	]
}
