{
	"asset":{
		"copyright":"@serufu_yua",
		"generator":"Khronos glTF Blender I/O v3.6.28",
		"version":"2.0"
	},
	"extensionsUsed":[
		"KHR_materials_emissive_strength"
	],
	"scene":0,
	"scenes":[
		{
			"name":"Scene",
			"nodes":[
				6
			]
		}
	],
	"nodes":[
		{
			"mesh":0,
			"name":"headlight2.big.Light"
		},
		{
			"children":[
				0
			],
			"mesh":1,
			"name":"headlight2.big.ON",
			"rotation":[
				0.28760629892349243,
				0.28760626912117004,
				-0.6459742188453674,
				0.6459741592407227
			],
			"translation":[
				0,
				0.04613661393523216,
				0.14272060990333557
			]
		},
		{
			"children":[
				1
			],
			"mesh":2,
			"name":"headlight2.big.support.ON",
			"rotation":[
				-0.40673667192459106,
				0,
				0,
				0.9135454297065735
			],
			"translation":[
				-0.058299943804740906,
				0.08883523941040039,
				0.0015363991260528564
			]
		},
		{
			"mesh":3,
			"name":"headlight2.small.ON.001"
		},
		{
			"children":[
				3
			],
			"mesh":4,
			"name":"headlight2.small.ON",
			"rotation":[
				0.28760629892349243,
				0.28760626912117004,
				-0.6459742188453674,
				0.6459741592407227
			],
			"translation":[
				0,
				0.026631174609065056,
				0.12105809897184372
			]
		},
		{
			"children":[
				4
			],
			"mesh":5,
			"name":"headlight2.small.support.ON",
			"rotation":[
				-0.40673667192459106,
				0,
				0,
				0.9135454297065735
			],
			"translation":[
				0.07287505269050598,
				0.08883529901504517,
				0.0015362799167633057
			]
		},
		{
			"children":[
				2,
				5
			],
			"name":"headlight.root.ON"
		}
	],
	"materials":[
		{
			"alphaMode":"BLEND",
			"doubleSided":true,
			"emissiveFactor":[
				1,
				1,
				1
			],
			"extensions":{
				"KHR_materials_emissive_strength":{
					"emissiveStrength":4
				}
			},
			"name":"rayon",
			"pbrMetallicRoughness":{
				"baseColorTexture":{
					"index":0
				},
				"metallicFactor":0,
				"roughnessFactor":0.5
			}
		},
		{
			"doubleSided":true,
			"name":"moto_main_color",
			"pbrMetallicRoughness":{
				"baseColorFactor":[
					0.8000000715255737,
					0.030141625553369522,
					0,
					1
				],
				"metallicFactor":0.6000000238418579,
				"roughnessFactor":0.5
			}
		},
		{
			"doubleSided":true,
			"emissiveFactor":[
				1,
				1,
				1
			],
			"emissiveTexture":{
				"index":1
			},
			"name":"headlight2_lens.big,ON",
			"pbrMetallicRoughness":{
				"baseColorTexture":{
					"index":2
				},
				"metallicFactor":0.6000000238418579,
				"roughnessFactor":0.5
			}
		},
		{
			"doubleSided":true,
			"name":"frame.aluminum",
			"normalTexture":{
				"index":3,
				"scale":0.10000000149011612
			},
			"pbrMetallicRoughness":{
				"baseColorTexture":{
					"index":4
				},
				"metallicFactor":0.949999988079071,
				"roughnessFactor":0.3499999940395355
			}
		},
		{
			"alphaMode":"BLEND",
			"doubleSided":true,
			"emissiveFactor":[
				1,
				0.8399837017059326,
				0.202877476811409
			],
			"extensions":{
				"KHR_materials_emissive_strength":{
					"emissiveStrength":4
				}
			},
			"name":"rayon.yellow",
			"pbrMetallicRoughness":{
				"baseColorFactor":[
					1,
					0.8399837017059326,
					0.202877476811409,
					1
				],
				"baseColorTexture":{
					"index":5
				},
				"metallicFactor":0,
				"roughnessFactor":0.5
			}
		},
		{
			"doubleSided":true,
			"emissiveFactor":[
				1,
				1,
				1
			],
			"emissiveTexture":{
				"index":6
			},
			"name":"headlight2_lens.small.ON",
			"pbrMetallicRoughness":{
				"baseColorTexture":{
					"index":7
				},
				"metallicFactor":0.6000000238418579,
				"roughnessFactor":0.5
			}
		}
	],
	"meshes":[
		{
			"name":"BezierCircle.008",
			"primitives":[
				{
					"attributes":{
						"POSITION":0,
						"NORMAL":1,
						"TEXCOORD_0":2,
						"TANGENT":3
					},
					"indices":4,
					"material":0
				}
			]
		},
		{
			"name":"BezierCircle.004",
			"primitives":[
				{
					"attributes":{
						"POSITION":5,
						"NORMAL":6,
						"TEXCOORD_0":7,
						"TANGENT":8
					},
					"indices":9,
					"material":1
				},
				{
					"attributes":{
						"POSITION":10,
						"NORMAL":11,
						"TEXCOORD_0":12,
						"TANGENT":13
					},
					"indices":14,
					"material":2
				}
			]
		},
		{
			"name":"Cube.011",
			"primitives":[
				{
					"attributes":{
						"POSITION":15,
						"NORMAL":16,
						"TEXCOORD_0":17
					},
					"indices":18,
					"material":3
				}
			]
		},
		{
			"name":"BezierCircle.002",
			"primitives":[
				{
					"attributes":{
						"POSITION":19,
						"NORMAL":20,
						"TEXCOORD_0":21,
						"TANGENT":22
					},
					"indices":23,
					"material":4
				}
			]
		},
		{
			"name":"BezierCircle.006",
			"primitives":[
				{
					"attributes":{
						"POSITION":24,
						"NORMAL":25,
						"TEXCOORD_0":26,
						"TANGENT":27
					},
					"indices":28,
					"material":1
				},
				{
					"attributes":{
						"POSITION":29,
						"NORMAL":30,
						"TEXCOORD_0":31,
						"TANGENT":32
					},
					"indices":33,
					"material":5
				}
			]
		},
		{
			"name":"Cube.012",
			"primitives":[
				{
					"attributes":{
						"POSITION":34,
						"NORMAL":35,
						"TEXCOORD_0":36
					},
					"indices":18,
					"material":3
				}
			]
		}
	],
	"textures":[
		{
			"sampler":0,
			"source":0
		},
		{
			"sampler":0,
			"source":1
		},
		{
			"sampler":0,
			"source":2
		},
		{
			"sampler":0,
			"source":3
		},
		{
			"sampler":0,
			"source":4
		},
		{
			"sampler":0,
			"source":0
		},
		{
			"sampler":0,
			"source":5
		},
		{
			"sampler":0,
			"source":6
		}
	],
	"images":[
		{
			"mimeType":"image/png",
			"name":"lihgt_gradient",
			"uri":"lihgt_gradient.png"
		},
		{
			"mimeType":"image/png",
			"name":"headlight2_big_ON_emis",
			"uri":"headlight2_big_ON_emis.png"
		},
		{
			"mimeType":"image/png",
			"name":"headlight2_big_ON",
			"uri":"headlight2_big_ON.png"
		},
		{
			"mimeType":"image/png",
			"name":"aluminum_n",
			"uri":"aluminum_n.png"
		},
		{
			"mimeType":"image/png",
			"name":"aluminum",
			"uri":"aluminum.png"
		},
		{
			"mimeType":"image/png",
			"name":"headlight2_small_ON_emis",
			"uri":"headlight2_small_ON_emis.png"
		},
		{
			"mimeType":"image/png",
			"name":"headlight2_small_ON",
			"uri":"headlight2_small_ON.png"
		}
	],
	"accessors":[
		{
			"bufferView":0,
			"componentType":5126,
			"count":34,
			"max":[
				0.2479555755853653,
				0.24795562028884888,
				0.514185905456543
			],
			"min":[
				-0.2479555755853653,
				-0.2479555308818817,
				0.014185934327542782
			],
			"type":"VEC3"
		},
		{
			"bufferView":1,
			"componentType":5126,
			"count":34,
			"type":"VEC3"
		},
		{
			"bufferView":2,
			"componentType":5126,
			"count":34,
			"type":"VEC2"
		},
		{
			"bufferView":3,
			"componentType":5126,
			"count":34,
			"type":"VEC4"
		},
		{
			"bufferView":4,
			"componentType":5123,
			"count":96,
			"type":"SCALAR"
		},
		{
			"bufferView":5,
			"componentType":5126,
			"count":81,
			"max":[
				0.08617530763149261,
				0.08617530763149261,
				-0.01776009239256382
			],
			"min":[
				-0.08617530018091202,
				-0.08617530763149261,
				-0.11660003662109375
			],
			"type":"VEC3"
		},
		{
			"bufferView":6,
			"componentType":5126,
			"count":81,
			"type":"VEC3"
		},
		{
			"bufferView":7,
			"componentType":5126,
			"count":81,
			"type":"VEC2"
		},
		{
			"bufferView":8,
			"componentType":5126,
			"count":81,
			"type":"VEC4"
		},
		{
			"bufferView":9,
			"componentType":5123,
			"count":336,
			"type":"SCALAR"
		},
		{
			"bufferView":10,
			"componentType":5126,
			"count":97,
			"max":[
				0.08745002746582031,
				0.08745002746582031,
				0.023724643513560295
			],
			"min":[
				-0.08745002746582031,
				-0.08745002746582031,
				-0.01776009611785412
			],
			"type":"VEC3"
		},
		{
			"bufferView":11,
			"componentType":5126,
			"count":97,
			"type":"VEC3"
		},
		{
			"bufferView":12,
			"componentType":5126,
			"count":97,
			"type":"VEC2"
		},
		{
			"bufferView":13,
			"componentType":5126,
			"count":97,
			"type":"VEC4"
		},
		{
			"bufferView":14,
			"componentType":5123,
			"count":336,
			"type":"SCALAR"
		},
		{
			"bufferView":15,
			"componentType":5126,
			"count":17,
			"max":[
				0.005830001551657915,
				0.0728750228881836,
				0.058300018310546875
			],
			"min":[
				-0.005830001551657915,
				0,
				-0.029150009155273438
			],
			"type":"VEC3"
		},
		{
			"bufferView":16,
			"componentType":5126,
			"count":17,
			"type":"VEC3"
		},
		{
			"bufferView":17,
			"componentType":5126,
			"count":17,
			"type":"VEC2"
		},
		{
			"bufferView":18,
			"componentType":5123,
			"count":27,
			"type":"SCALAR"
		},
		{
			"bufferView":19,
			"componentType":5126,
			"count":30,
			"max":[
				0.16561433672904968,
				0.16146205365657806,
				0.407286137342453
			],
			"min":[
				-0.16561433672904968,
				-0.16146203875541687,
				0.007286470849066973
			],
			"type":"VEC3"
		},
		{
			"bufferView":20,
			"componentType":5126,
			"count":30,
			"type":"VEC3"
		},
		{
			"bufferView":21,
			"componentType":5126,
			"count":30,
			"type":"VEC2"
		},
		{
			"bufferView":22,
			"componentType":5126,
			"count":30,
			"type":"VEC4"
		},
		{
			"bufferView":23,
			"componentType":5123,
			"count":84,
			"type":"SCALAR"
		},
		{
			"bufferView":24,
			"componentType":5126,
			"count":71,
			"max":[
				0.04537978395819664,
				0.0442420169711113,
				-0.00941902119666338
			],
			"min":[
				-0.04537978395819664,
				-0.0442420169711113,
				-0.09036502242088318
			],
			"type":"VEC3"
		},
		{
			"bufferView":25,
			"componentType":5126,
			"count":71,
			"type":"VEC3"
		},
		{
			"bufferView":26,
			"componentType":5126,
			"count":71,
			"type":"VEC2"
		},
		{
			"bufferView":27,
			"componentType":5126,
			"count":71,
			"type":"VEC4"
		},
		{
			"bufferView":28,
			"componentType":5123,
			"count":294,
			"type":"SCALAR"
		},
		{
			"bufferView":29,
			"componentType":5126,
			"count":43,
			"max":[
				0.04537978395819664,
				0.0442420169711113,
				0.014979643747210503
			],
			"min":[
				-0.04537978395819664,
				-0.0442420169711113,
				-0.00941902119666338
			],
			"type":"VEC3"
		},
		{
			"bufferView":30,
			"componentType":5126,
			"count":43,
			"type":"VEC3"
		},
		{
			"bufferView":31,
			"componentType":5126,
			"count":43,
			"type":"VEC2"
		},
		{
			"bufferView":32,
			"componentType":5126,
			"count":43,
			"type":"VEC4"
		},
		{
			"bufferView":33,
			"componentType":5123,
			"count":210,
			"type":"SCALAR"
		},
		{
			"bufferView":34,
			"componentType":5126,
			"count":17,
			"max":[
				0.002915000542998314,
				0.05538501590490341,
				0.06996002048254013
			],
			"min":[
				-0.002915000542998314,
				0,
				-0.020405005663633347
			],
			"type":"VEC3"
		},
		{
			"bufferView":35,
			"componentType":5126,
			"count":17,
			"type":"VEC3"
		},
		{
			"bufferView":36,
			"componentType":5126,
			"count":17,
			"type":"VEC2"
		}
	],
	"bufferViews":[
		{
			"buffer":0,
			"byteLength":408,
			"byteOffset":0,
			"target":34962
		},
		{
			"buffer":0,
			"byteLength":408,
			"byteOffset":408,
			"target":34962
		},
		{
			"buffer":0,
			"byteLength":272,
			"byteOffset":816,
			"target":34962
		},
		{
			"buffer":0,
			"byteLength":544,
			"byteOffset":1088,
			"target":34962
		},
		{
			"buffer":0,
			"byteLength":192,
			"byteOffset":1632,
			"target":34963
		},
		{
			"buffer":0,
			"byteLength":972,
			"byteOffset":1824,
			"target":34962
		},
		{
			"buffer":0,
			"byteLength":972,
			"byteOffset":2796,
			"target":34962
		},
		{
			"buffer":0,
			"byteLength":648,
			"byteOffset":3768,
			"target":34962
		},
		{
			"buffer":0,
			"byteLength":1296,
			"byteOffset":4416,
			"target":34962
		},
		{
			"buffer":0,
			"byteLength":672,
			"byteOffset":5712,
			"target":34963
		},
		{
			"buffer":0,
			"byteLength":1164,
			"byteOffset":6384,
			"target":34962
		},
		{
			"buffer":0,
			"byteLength":1164,
			"byteOffset":7548,
			"target":34962
		},
		{
			"buffer":0,
			"byteLength":776,
			"byteOffset":8712,
			"target":34962
		},
		{
			"buffer":0,
			"byteLength":1552,
			"byteOffset":9488,
			"target":34962
		},
		{
			"buffer":0,
			"byteLength":672,
			"byteOffset":11040,
			"target":34963
		},
		{
			"buffer":0,
			"byteLength":204,
			"byteOffset":11712,
			"target":34962
		},
		{
			"buffer":0,
			"byteLength":204,
			"byteOffset":11916,
			"target":34962
		},
		{
			"buffer":0,
			"byteLength":136,
			"byteOffset":12120,
			"target":34962
		},
		{
			"buffer":0,
			"byteLength":54,
			"byteOffset":12256,
			"target":34963
		},
		{
			"buffer":0,
			"byteLength":360,
			"byteOffset":12312,
			"target":34962
		},
		{
			"buffer":0,
			"byteLength":360,
			"byteOffset":12672,
			"target":34962
		},
		{
			"buffer":0,
			"byteLength":240,
			"byteOffset":13032,
			"target":34962
		},
		{
			"buffer":0,
			"byteLength":480,
			"byteOffset":13272,
			"target":34962
		},
		{
			"buffer":0,
			"byteLength":168,
			"byteOffset":13752,
			"target":34963
		},
		{
			"buffer":0,
			"byteLength":852,
			"byteOffset":13920,
			"target":34962
		},
		{
			"buffer":0,
			"byteLength":852,
			"byteOffset":14772,
			"target":34962
		},
		{
			"buffer":0,
			"byteLength":568,
			"byteOffset":15624,
			"target":34962
		},
		{
			"buffer":0,
			"byteLength":1136,
			"byteOffset":16192,
			"target":34962
		},
		{
			"buffer":0,
			"byteLength":588,
			"byteOffset":17328,
			"target":34963
		},
		{
			"buffer":0,
			"byteLength":516,
			"byteOffset":17916,
			"target":34962
		},
		{
			"buffer":0,
			"byteLength":516,
			"byteOffset":18432,
			"target":34962
		},
		{
			"buffer":0,
			"byteLength":344,
			"byteOffset":18948,
			"target":34962
		},
		{
			"buffer":0,
			"byteLength":688,
			"byteOffset":19292,
			"target":34962
		},
		{
			"buffer":0,
			"byteLength":420,
			"byteOffset":19980,
			"target":34963
		},
		{
			"buffer":0,
			"byteLength":204,
			"byteOffset":20400,
			"target":34962
		},
		{
			"buffer":0,
			"byteLength":204,
			"byteOffset":20604,
			"target":34962
		},
		{
			"buffer":0,
			"byteLength":136,
			"byteOffset":20808,
			"target":34962
		}
	],
	"samplers":[
		{
			"magFilter":9729,
			"minFilter":9987
		}
	],
	"buffers":[
		{
			"byteLength":20944,
			"uri":"motorbike_headlight_ON.bin"
		}
	]
}
