{
	"asset":{
		"copyright":"@serufu_yua",
		"generator":"Khronos glTF Blender I/O v3.6.28",
		"version":"2.0"
	},
	"scene":0,
	"scenes":[
		{
			"name":"Scene",
			"nodes":[
				2
			]
		}
	],
	"nodes":[
		{
			"mesh":0,
			"name":"headlight2.main",
			"rotation":[
				0,
				0,
				-0.7071068286895752,
				0.7071068286895752
			],
			"translation":[
				-0.058300018310546875,
				0.22576886415481567,
				0.06274905800819397
			]
		},
		{
			"mesh":1,
			"name":"headlight2.small.001",
			"rotation":[
				0,
				0,
				-0.7071068286895752,
				0.7071068286895752
			],
			"translation":[
				0.0728750079870224,
				0.19661873579025269,
				0.06274917721748352
			]
		},
		{
			"children":[
				0,
				1
			],
			"name":"headlight.root.ON"
		}
	],
	"materials":[
		{
			"alphaMode":"BLEND",
			"doubleSided":true,
			"emissiveFactor":[
				1,
				1,
				1
			],
			"emissiveTexture":{
				"index":0
			},
			"name":"rayon.white-blue",
			"pbrMetallicRoughness":{
				"baseColorFactor":[
					0,
					0,
					0,
					1
				]
			}
		},
		{
			"alphaMode":"BLEND",
			"doubleSided":true,
			"emissiveFactor":[
				1,
				1,
				1
			],
			"emissiveTexture":{
				"index":1
			},
			"name":"rayon.yellow",
			"pbrMetallicRoughness":{
				"baseColorFactor":[
					0,
					0,
					0,
					1
				]
			}
		}
	],
	"meshes":[
		{
			"name":"BezierCircle.008",
			"primitives":[
				{
					"attributes":{
						"POSITION":0,
						"NORMAL":1,
						"TEXCOORD_0":2
					},
					"indices":3,
					"material":0
				}
			]
		},
		{
			"name":"BezierCircle.002",
			"primitives":[
				{
					"attributes":{
						"POSITION":4,
						"NORMAL":5,
						"TEXCOORD_0":6
					},
					"indices":7,
					"material":1
				}
			]
		}
	],
	"textures":[
		{
			"sampler":0,
			"source":0
		},
		{
			"sampler":0,
			"source":1
		}
	],
	"images":[
		{
			"mimeType":"image/png",
			"name":"lihgt_gradient_white",
			"uri":"lihgt_gradient_white.png"
		},
		{
			"mimeType":"image/png",
			"name":"lihgt_gradient_yellow",
			"uri":"lihgt_gradient_yellow.png"
		}
	],
	"accessors":[
		{
			"bufferView":0,
			"componentType":5126,
			"count":131,
			"max":[
				0.2479555755853653,
				0.24795562028884888,
				0.514185905456543
			],
			"min":[
				-0.2479555755853653,
				-0.2479555308818817,
				0.014185934327542782
			],
			"type":"VEC3"
		},
		{
			"bufferView":1,
			"componentType":5126,
			"count":131,
			"type":"VEC3"
		},
		{
			"bufferView":2,
			"componentType":5126,
			"count":131,
			"type":"VEC2"
		},
		{
			"bufferView":3,
			"componentType":5123,
			"count":330,
			"type":"SCALAR"
		},
		{
			"bufferView":4,
			"componentType":5126,
			"count":115,
			"max":[
				0.16561433672904968,
				0.16146205365657806,
				0.407286137342453
			],
			"min":[
				-0.16561433672904968,
				-0.16146203875541687,
				0.007286470849066973
			],
			"type":"VEC3"
		},
		{
			"bufferView":5,
			"componentType":5126,
			"count":115,
			"type":"VEC3"
		},
		{
			"bufferView":6,
			"componentType":5126,
			"count":115,
			"type":"VEC2"
		},
		{
			"bufferView":7,
			"componentType":5123,
			"count":288,
			"type":"SCALAR"
		}
	],
	"bufferViews":[
		{
			"buffer":0,
			"byteLength":1572,
			"byteOffset":0,
			"target":34962
		},
		{
			"buffer":0,
			"byteLength":1572,
			"byteOffset":1572,
			"target":34962
		},
		{
			"buffer":0,
			"byteLength":1048,
			"byteOffset":3144,
			"target":34962
		},
		{
			"buffer":0,
			"byteLength":660,
			"byteOffset":4192,
			"target":34963
		},
		{
			"buffer":0,
			"byteLength":1380,
			"byteOffset":4852,
			"target":34962
		},
		{
			"buffer":0,
			"byteLength":1380,
			"byteOffset":6232,
			"target":34962
		},
		{
			"buffer":0,
			"byteLength":920,
			"byteOffset":7612,
			"target":34962
		},
		{
			"buffer":0,
			"byteLength":576,
			"byteOffset":8532,
			"target":34963
		}
	],
	"samplers":[
		{
			"magFilter":9729,
			"minFilter":9987
		}
	],
	"buffers":[
		{
			"byteLength":9108,
			"uri":"motorbike_headlight_ON.bin"
		}
	]
}
