{
	"asset":{
		"copyright":"@serufu_yua",
		"generator":"Khronos glTF Blender I/O v3.6.28",
		"version":"2.0"
	},
	"scene":0,
	"scenes":[
		{
			"name":"Scene",
			"nodes":[
				4
			]
		}
	],
	"nodes":[
		{
			"mesh":0,
			"name":"headlight2.big",
			"rotation":[
				0.28760629892349243,
				0.28760626912117004,
				-0.6459742188453674,
				0.6459741592407227
			],
			"translation":[
				0,
				0.04613661393523216,
				0.14272060990333557
			]
		},
		{
			"children":[
				0
			],
			"mesh":1,
			"name":"headlight2.big.support",
			"rotation":[
				-0.40673667192459106,
				0,
				0,
				0.9135454297065735
			],
			"translation":[
				-0.058299943804740906,
				0.08883523941040039,
				0.0015363991260528564
			]
		},
		{
			"mesh":2,
			"name":"headlight2.small",
			"rotation":[
				0.28760629892349243,
				0.28760626912117004,
				-0.6459742188453674,
				0.6459741592407227
			],
			"translation":[
				0,
				0.026631174609065056,
				0.12105809897184372
			]
		},
		{
			"children":[
				2
			],
			"mesh":3,
			"name":"headlight2.small.support",
			"rotation":[
				-0.40673667192459106,
				0,
				0,
				0.9135454297065735
			],
			"translation":[
				0.07287505269050598,
				0.08883529901504517,
				0.0015362799167633057
			]
		},
		{
			"children":[
				1,
				3
			],
			"name":"headlight.root"
		}
	],
	"materials":[
		{
			"doubleSided":true,
			"name":"moto_main_color",
			"pbrMetallicRoughness":{
				"baseColorFactor":[
					0.8000000715255737,
					0.030141625553369522,
					0,
					1
				],
				"metallicFactor":0.6000000238418579,
				"roughnessFactor":0.5
			}
		},
		{
			"doubleSided":true,
			"name":"headlight2_lens.big,OFF",
			"pbrMetallicRoughness":{
				"baseColorTexture":{
					"index":0
				},
				"metallicFactor":0.6000000238418579,
				"roughnessFactor":0.5
			}
		},
		{
			"doubleSided":true,
			"name":"frame.aluminum",
			"normalTexture":{
				"index":1,
				"scale":0.10000000149011612
			},
			"pbrMetallicRoughness":{
				"baseColorTexture":{
					"index":2
				},
				"metallicFactor":0.949999988079071,
				"roughnessFactor":0.3499999940395355
			}
		},
		{
			"doubleSided":true,
			"name":"headlight2_lens.small.OFF",
			"pbrMetallicRoughness":{
				"baseColorTexture":{
					"index":3
				},
				"metallicFactor":0.6000000238418579,
				"roughnessFactor":0.5
			}
		}
	],
	"meshes":[
		{
			"name":"BezierCircle.005",
			"primitives":[
				{
					"attributes":{
						"POSITION":0,
						"NORMAL":1,
						"TEXCOORD_0":2
					},
					"indices":3,
					"material":0
				},
				{
					"attributes":{
						"POSITION":4,
						"NORMAL":5,
						"TEXCOORD_0":6
					},
					"indices":7,
					"material":1
				}
			]
		},
		{
			"name":"Cube.009",
			"primitives":[
				{
					"attributes":{
						"POSITION":8,
						"NORMAL":9,
						"TEXCOORD_0":10
					},
					"indices":11,
					"material":2
				}
			]
		},
		{
			"name":"BezierCircle.007",
			"primitives":[
				{
					"attributes":{
						"POSITION":12,
						"NORMAL":13,
						"TEXCOORD_0":14
					},
					"indices":15,
					"material":0
				},
				{
					"attributes":{
						"POSITION":16,
						"NORMAL":17,
						"TEXCOORD_0":18
					},
					"indices":19,
					"material":3
				}
			]
		},
		{
			"name":"Cube.010",
			"primitives":[
				{
					"attributes":{
						"POSITION":20,
						"NORMAL":21,
						"TEXCOORD_0":22
					},
					"indices":11,
					"material":2
				}
			]
		}
	],
	"textures":[
		{
			"sampler":0,
			"source":0
		},
		{
			"sampler":0,
			"source":1
		},
		{
			"sampler":0,
			"source":2
		},
		{
			"sampler":0,
			"source":3
		}
	],
	"images":[
		{
			"mimeType":"image/png",
			"name":"headlight2_big_OFF",
			"uri":"headlight2_big_OFF.png"
		},
		{
			"mimeType":"image/png",
			"name":"aluminum_n",
			"uri":"aluminum_n.png"
		},
		{
			"mimeType":"image/png",
			"name":"aluminum",
			"uri":"aluminum.png"
		},
		{
			"mimeType":"image/png",
			"name":"headlight2_small_OFF",
			"uri":"headlight2_small_OFF.png"
		}
	],
	"accessors":[
		{
			"bufferView":0,
			"componentType":5126,
			"count":65,
			"max":[
				0.08617530763149261,
				0.08617530763149261,
				-0.01776009239256382
			],
			"min":[
				-0.08617530018091202,
				-0.08617530763149261,
				-0.11660003662109375
			],
			"type":"VEC3"
		},
		{
			"bufferView":1,
			"componentType":5126,
			"count":65,
			"type":"VEC3"
		},
		{
			"bufferView":2,
			"componentType":5126,
			"count":65,
			"type":"VEC2"
		},
		{
			"bufferView":3,
			"componentType":5123,
			"count":336,
			"type":"SCALAR"
		},
		{
			"bufferView":4,
			"componentType":5126,
			"count":65,
			"max":[
				0.08745002746582031,
				0.08745002746582031,
				0.023724643513560295
			],
			"min":[
				-0.08745002746582031,
				-0.08745002746582031,
				-0.01776009611785412
			],
			"type":"VEC3"
		},
		{
			"bufferView":5,
			"componentType":5126,
			"count":65,
			"type":"VEC3"
		},
		{
			"bufferView":6,
			"componentType":5126,
			"count":65,
			"type":"VEC2"
		},
		{
			"bufferView":7,
			"componentType":5123,
			"count":336,
			"type":"SCALAR"
		},
		{
			"bufferView":8,
			"componentType":5126,
			"count":17,
			"max":[
				0.005830001551657915,
				0.0728750228881836,
				0.058300018310546875
			],
			"min":[
				-0.005830001551657915,
				0,
				-0.029150009155273438
			],
			"type":"VEC3"
		},
		{
			"bufferView":9,
			"componentType":5126,
			"count":17,
			"type":"VEC3"
		},
		{
			"bufferView":10,
			"componentType":5126,
			"count":17,
			"type":"VEC2"
		},
		{
			"bufferView":11,
			"componentType":5123,
			"count":27,
			"type":"SCALAR"
		},
		{
			"bufferView":12,
			"componentType":5126,
			"count":57,
			"max":[
				0.04537978395819664,
				0.0442420169711113,
				-0.00941902119666338
			],
			"min":[
				-0.04537978395819664,
				-0.0442420169711113,
				-0.09036502242088318
			],
			"type":"VEC3"
		},
		{
			"bufferView":13,
			"componentType":5126,
			"count":57,
			"type":"VEC3"
		},
		{
			"bufferView":14,
			"componentType":5126,
			"count":57,
			"type":"VEC2"
		},
		{
			"bufferView":15,
			"componentType":5123,
			"count":294,
			"type":"SCALAR"
		},
		{
			"bufferView":16,
			"componentType":5126,
			"count":43,
			"max":[
				0.04537978395819664,
				0.0442420169711113,
				0.014979643747210503
			],
			"min":[
				-0.04537978395819664,
				-0.0442420169711113,
				-0.00941902119666338
			],
			"type":"VEC3"
		},
		{
			"bufferView":17,
			"componentType":5126,
			"count":43,
			"type":"VEC3"
		},
		{
			"bufferView":18,
			"componentType":5126,
			"count":43,
			"type":"VEC2"
		},
		{
			"bufferView":19,
			"componentType":5123,
			"count":210,
			"type":"SCALAR"
		},
		{
			"bufferView":20,
			"componentType":5126,
			"count":17,
			"max":[
				0.002915000542998314,
				0.05538501590490341,
				0.06996002048254013
			],
			"min":[
				-0.002915000542998314,
				0,
				-0.020405005663633347
			],
			"type":"VEC3"
		},
		{
			"bufferView":21,
			"componentType":5126,
			"count":17,
			"type":"VEC3"
		},
		{
			"bufferView":22,
			"componentType":5126,
			"count":17,
			"type":"VEC2"
		}
	],
	"bufferViews":[
		{
			"buffer":0,
			"byteLength":780,
			"byteOffset":0,
			"target":34962
		},
		{
			"buffer":0,
			"byteLength":780,
			"byteOffset":780,
			"target":34962
		},
		{
			"buffer":0,
			"byteLength":520,
			"byteOffset":1560,
			"target":34962
		},
		{
			"buffer":0,
			"byteLength":672,
			"byteOffset":2080,
			"target":34963
		},
		{
			"buffer":0,
			"byteLength":780,
			"byteOffset":2752,
			"target":34962
		},
		{
			"buffer":0,
			"byteLength":780,
			"byteOffset":3532,
			"target":34962
		},
		{
			"buffer":0,
			"byteLength":520,
			"byteOffset":4312,
			"target":34962
		},
		{
			"buffer":0,
			"byteLength":672,
			"byteOffset":4832,
			"target":34963
		},
		{
			"buffer":0,
			"byteLength":204,
			"byteOffset":5504,
			"target":34962
		},
		{
			"buffer":0,
			"byteLength":204,
			"byteOffset":5708,
			"target":34962
		},
		{
			"buffer":0,
			"byteLength":136,
			"byteOffset":5912,
			"target":34962
		},
		{
			"buffer":0,
			"byteLength":54,
			"byteOffset":6048,
			"target":34963
		},
		{
			"buffer":0,
			"byteLength":684,
			"byteOffset":6104,
			"target":34962
		},
		{
			"buffer":0,
			"byteLength":684,
			"byteOffset":6788,
			"target":34962
		},
		{
			"buffer":0,
			"byteLength":456,
			"byteOffset":7472,
			"target":34962
		},
		{
			"buffer":0,
			"byteLength":588,
			"byteOffset":7928,
			"target":34963
		},
		{
			"buffer":0,
			"byteLength":516,
			"byteOffset":8516,
			"target":34962
		},
		{
			"buffer":0,
			"byteLength":516,
			"byteOffset":9032,
			"target":34962
		},
		{
			"buffer":0,
			"byteLength":344,
			"byteOffset":9548,
			"target":34962
		},
		{
			"buffer":0,
			"byteLength":420,
			"byteOffset":9892,
			"target":34963
		},
		{
			"buffer":0,
			"byteLength":204,
			"byteOffset":10312,
			"target":34962
		},
		{
			"buffer":0,
			"byteLength":204,
			"byteOffset":10516,
			"target":34962
		},
		{
			"buffer":0,
			"byteLength":136,
			"byteOffset":10720,
			"target":34962
		}
	],
	"samplers":[
		{
			"magFilter":9729,
			"minFilter":9987
		}
	],
	"buffers":[
		{
			"byteLength":10856,
			"uri":"motorbike_headlight.bin"
		}
	]
}
