{
	"asset":{
		"copyright":"@serufu_yua",
		"generator":"Khronos glTF Blender I/O v3.6.28",
		"version":"2.0"
	},
	"scene":0,
	"scenes":[
		{
			"name":"Scene",
			"nodes":[
				4
			]
		}
	],
	"nodes":[
		{
			"mesh":0,
			"name":"headlight2.big.OFF",
			"rotation":[
				0.28760629892349243,
				0.28760626912117004,
				-0.6459742188453674,
				0.6459741592407227
			],
			"translation":[
				0,
				0.04613661393523216,
				0.14272060990333557
			]
		},
		{
			"children":[
				0
			],
			"mesh":1,
			"name":"headlight2.big.support.OFF",
			"rotation":[
				-0.40673667192459106,
				0,
				0,
				0.9135454297065735
			],
			"translation":[
				-0.058299943804740906,
				0.08883523941040039,
				0.0015363991260528564
			]
		},
		{
			"mesh":2,
			"name":"headlight2.small.OFF",
			"rotation":[
				0.28760629892349243,
				0.28760626912117004,
				-0.6459742188453674,
				0.6459741592407227
			],
			"translation":[
				0,
				0.026631174609065056,
				0.12105809897184372
			]
		},
		{
			"children":[
				2
			],
			"mesh":3,
			"name":"headlight2.small.support.OFF",
			"rotation":[
				-0.40673667192459106,
				0,
				0,
				0.9135454297065735
			],
			"translation":[
				0.07287505269050598,
				0.08883529901504517,
				0.0015362799167633057
			]
		},
		{
			"children":[
				1,
				3
			],
			"name":"headlight.root.OFF"
		}
	],
	"materials":[
		{
			"doubleSided":true,
			"name":"moto_main_color",
			"pbrMetallicRoughness":{
				"baseColorFactor":[
					0.8000000715255737,
					0.030141625553369522,
					0,
					1
				],
				"metallicFactor":0.6000000238418579,
				"roughnessFactor":0.5
			}
		},
		{
			"doubleSided":true,
			"name":"headlight2_lens.big,OFF",
			"pbrMetallicRoughness":{
				"baseColorTexture":{
					"index":0
				},
				"metallicFactor":0.6000000238418579,
				"roughnessFactor":0.5
			}
		},
		{
			"doubleSided":true,
			"name":"frame.aluminum",
			"normalTexture":{
				"index":1,
				"scale":0.10000000149011612
			},
			"pbrMetallicRoughness":{
				"baseColorTexture":{
					"index":2
				},
				"metallicFactor":0.949999988079071,
				"roughnessFactor":0.3499999940395355
			}
		},
		{
			"doubleSided":true,
			"name":"headlight2_lens.small.OFF",
			"pbrMetallicRoughness":{
				"baseColorTexture":{
					"index":3
				},
				"metallicFactor":0.6000000238418579,
				"roughnessFactor":0.5
			}
		}
	],
	"meshes":[
		{
			"name":"BezierCircle.005",
			"primitives":[
				{
					"attributes":{
						"POSITION":0,
						"NORMAL":1,
						"TEXCOORD_0":2,
						"TANGENT":3
					},
					"indices":4,
					"material":0
				},
				{
					"attributes":{
						"POSITION":5,
						"NORMAL":6,
						"TEXCOORD_0":7,
						"TANGENT":8
					},
					"indices":9,
					"material":1
				}
			]
		},
		{
			"name":"Cube.009",
			"primitives":[
				{
					"attributes":{
						"POSITION":10,
						"NORMAL":11,
						"TEXCOORD_0":12
					},
					"indices":13,
					"material":2
				}
			]
		},
		{
			"name":"BezierCircle.007",
			"primitives":[
				{
					"attributes":{
						"POSITION":14,
						"NORMAL":15,
						"TEXCOORD_0":16,
						"TANGENT":17
					},
					"indices":18,
					"material":0
				},
				{
					"attributes":{
						"POSITION":19,
						"NORMAL":20,
						"TEXCOORD_0":21,
						"TANGENT":22
					},
					"indices":23,
					"material":3
				}
			]
		},
		{
			"name":"Cube.010",
			"primitives":[
				{
					"attributes":{
						"POSITION":24,
						"NORMAL":25,
						"TEXCOORD_0":26
					},
					"indices":13,
					"material":2
				}
			]
		}
	],
	"textures":[
		{
			"sampler":0,
			"source":0
		},
		{
			"sampler":0,
			"source":1
		},
		{
			"sampler":0,
			"source":2
		},
		{
			"sampler":0,
			"source":3
		}
	],
	"images":[
		{
			"mimeType":"image/png",
			"name":"headlight2_big_OFF",
			"uri":"headlight2_big_OFF.png"
		},
		{
			"mimeType":"image/png",
			"name":"aluminum_n",
			"uri":"aluminum_n.png"
		},
		{
			"mimeType":"image/png",
			"name":"aluminum",
			"uri":"aluminum.png"
		},
		{
			"mimeType":"image/png",
			"name":"headlight2_small_OFF",
			"uri":"headlight2_small_OFF.png"
		}
	],
	"accessors":[
		{
			"bufferView":0,
			"componentType":5126,
			"count":81,
			"max":[
				0.08617530763149261,
				0.08617530763149261,
				-0.01776009239256382
			],
			"min":[
				-0.08617530018091202,
				-0.08617530763149261,
				-0.11660003662109375
			],
			"type":"VEC3"
		},
		{
			"bufferView":1,
			"componentType":5126,
			"count":81,
			"type":"VEC3"
		},
		{
			"bufferView":2,
			"componentType":5126,
			"count":81,
			"type":"VEC2"
		},
		{
			"bufferView":3,
			"componentType":5126,
			"count":81,
			"type":"VEC4"
		},
		{
			"bufferView":4,
			"componentType":5123,
			"count":336,
			"type":"SCALAR"
		},
		{
			"bufferView":5,
			"componentType":5126,
			"count":97,
			"max":[
				0.08745002746582031,
				0.08745002746582031,
				0.023724643513560295
			],
			"min":[
				-0.08745002746582031,
				-0.08745002746582031,
				-0.01776009611785412
			],
			"type":"VEC3"
		},
		{
			"bufferView":6,
			"componentType":5126,
			"count":97,
			"type":"VEC3"
		},
		{
			"bufferView":7,
			"componentType":5126,
			"count":97,
			"type":"VEC2"
		},
		{
			"bufferView":8,
			"componentType":5126,
			"count":97,
			"type":"VEC4"
		},
		{
			"bufferView":9,
			"componentType":5123,
			"count":336,
			"type":"SCALAR"
		},
		{
			"bufferView":10,
			"componentType":5126,
			"count":17,
			"max":[
				0.005830001551657915,
				0.0728750228881836,
				0.058300018310546875
			],
			"min":[
				-0.005830001551657915,
				0,
				-0.029150009155273438
			],
			"type":"VEC3"
		},
		{
			"bufferView":11,
			"componentType":5126,
			"count":17,
			"type":"VEC3"
		},
		{
			"bufferView":12,
			"componentType":5126,
			"count":17,
			"type":"VEC2"
		},
		{
			"bufferView":13,
			"componentType":5123,
			"count":27,
			"type":"SCALAR"
		},
		{
			"bufferView":14,
			"componentType":5126,
			"count":71,
			"max":[
				0.04537978395819664,
				0.0442420169711113,
				-0.00941902119666338
			],
			"min":[
				-0.04537978395819664,
				-0.0442420169711113,
				-0.09036502242088318
			],
			"type":"VEC3"
		},
		{
			"bufferView":15,
			"componentType":5126,
			"count":71,
			"type":"VEC3"
		},
		{
			"bufferView":16,
			"componentType":5126,
			"count":71,
			"type":"VEC2"
		},
		{
			"bufferView":17,
			"componentType":5126,
			"count":71,
			"type":"VEC4"
		},
		{
			"bufferView":18,
			"componentType":5123,
			"count":294,
			"type":"SCALAR"
		},
		{
			"bufferView":19,
			"componentType":5126,
			"count":43,
			"max":[
				0.04537978395819664,
				0.0442420169711113,
				0.014979643747210503
			],
			"min":[
				-0.04537978395819664,
				-0.0442420169711113,
				-0.00941902119666338
			],
			"type":"VEC3"
		},
		{
			"bufferView":20,
			"componentType":5126,
			"count":43,
			"type":"VEC3"
		},
		{
			"bufferView":21,
			"componentType":5126,
			"count":43,
			"type":"VEC2"
		},
		{
			"bufferView":22,
			"componentType":5126,
			"count":43,
			"type":"VEC4"
		},
		{
			"bufferView":23,
			"componentType":5123,
			"count":210,
			"type":"SCALAR"
		},
		{
			"bufferView":24,
			"componentType":5126,
			"count":17,
			"max":[
				0.002915000542998314,
				0.05538501590490341,
				0.06996002048254013
			],
			"min":[
				-0.002915000542998314,
				0,
				-0.020405005663633347
			],
			"type":"VEC3"
		},
		{
			"bufferView":25,
			"componentType":5126,
			"count":17,
			"type":"VEC3"
		},
		{
			"bufferView":26,
			"componentType":5126,
			"count":17,
			"type":"VEC2"
		}
	],
	"bufferViews":[
		{
			"buffer":0,
			"byteLength":972,
			"byteOffset":0,
			"target":34962
		},
		{
			"buffer":0,
			"byteLength":972,
			"byteOffset":972,
			"target":34962
		},
		{
			"buffer":0,
			"byteLength":648,
			"byteOffset":1944,
			"target":34962
		},
		{
			"buffer":0,
			"byteLength":1296,
			"byteOffset":2592,
			"target":34962
		},
		{
			"buffer":0,
			"byteLength":672,
			"byteOffset":3888,
			"target":34963
		},
		{
			"buffer":0,
			"byteLength":1164,
			"byteOffset":4560,
			"target":34962
		},
		{
			"buffer":0,
			"byteLength":1164,
			"byteOffset":5724,
			"target":34962
		},
		{
			"buffer":0,
			"byteLength":776,
			"byteOffset":6888,
			"target":34962
		},
		{
			"buffer":0,
			"byteLength":1552,
			"byteOffset":7664,
			"target":34962
		},
		{
			"buffer":0,
			"byteLength":672,
			"byteOffset":9216,
			"target":34963
		},
		{
			"buffer":0,
			"byteLength":204,
			"byteOffset":9888,
			"target":34962
		},
		{
			"buffer":0,
			"byteLength":204,
			"byteOffset":10092,
			"target":34962
		},
		{
			"buffer":0,
			"byteLength":136,
			"byteOffset":10296,
			"target":34962
		},
		{
			"buffer":0,
			"byteLength":54,
			"byteOffset":10432,
			"target":34963
		},
		{
			"buffer":0,
			"byteLength":852,
			"byteOffset":10488,
			"target":34962
		},
		{
			"buffer":0,
			"byteLength":852,
			"byteOffset":11340,
			"target":34962
		},
		{
			"buffer":0,
			"byteLength":568,
			"byteOffset":12192,
			"target":34962
		},
		{
			"buffer":0,
			"byteLength":1136,
			"byteOffset":12760,
			"target":34962
		},
		{
			"buffer":0,
			"byteLength":588,
			"byteOffset":13896,
			"target":34963
		},
		{
			"buffer":0,
			"byteLength":516,
			"byteOffset":14484,
			"target":34962
		},
		{
			"buffer":0,
			"byteLength":516,
			"byteOffset":15000,
			"target":34962
		},
		{
			"buffer":0,
			"byteLength":344,
			"byteOffset":15516,
			"target":34962
		},
		{
			"buffer":0,
			"byteLength":688,
			"byteOffset":15860,
			"target":34962
		},
		{
			"buffer":0,
			"byteLength":420,
			"byteOffset":16548,
			"target":34963
		},
		{
			"buffer":0,
			"byteLength":204,
			"byteOffset":16968,
			"target":34962
		},
		{
			"buffer":0,
			"byteLength":204,
			"byteOffset":17172,
			"target":34962
		},
		{
			"buffer":0,
			"byteLength":136,
			"byteOffset":17376,
			"target":34962
		}
	],
	"samplers":[
		{
			"magFilter":9729,
			"minFilter":9987
		}
	],
	"buffers":[
		{
			"byteLength":17512,
			"uri":"motorbike_headlight_OFF.bin"
		}
	]
}
