{
	"asset":{
		"copyright":"@serufu_yua",
		"generator":"Khronos glTF Blender I/O v3.6.28",
		"version":"2.0"
	},
	"extensionsUsed":[
		"KHR_materials_specular",
		"KHR_materials_ior"
	],
	"scene":0,
	"scenes":[
		{
			"name":"Scene",
			"nodes":[
				0
			]
		}
	],
	"nodes":[
		{
			"mesh":0,
			"name":"wheel.front"
		}
	],
	"materials":[
		{
			"doubleSided":true,
			"name":"wheel.aluminum",
			"pbrMetallicRoughness":{
				"baseColorFactor":[
					0.6382718682289124,
					0.6382718682289124,
					0.6382718682289124,
					1
				],
				"metallicFactor":0.8999999761581421,
				"roughnessFactor":0.15000000596046448
			}
		},
		{
			"doubleSided":true,
			"extensions":{
				"KHR_materials_specular":{
					"specularColorFactor":[
						0.474271529955476,
						0.474271529955476,
						0.474271529955476
					]
				},
				"KHR_materials_ior":{
					"ior":1.4500000476837158
				}
			},
			"name":"wheel.rubber.front",
			"normalTexture":{
				"index":0
			},
			"occlusionTexture":{
				"index":1
			},
			"pbrMetallicRoughness":{
				"baseColorFactor":[
					0,
					0,
					0,
					1
				],
				"metallicFactor":0,
				"roughnessFactor":0.949999988079071
			}
		}
	],
	"meshes":[
		{
			"name":"wheel.front",
			"primitives":[
				{
					"attributes":{
						"POSITION":0,
						"NORMAL":1,
						"TEXCOORD_0":2
					},
					"indices":3,
					"material":0
				},
				{
					"attributes":{
						"POSITION":4,
						"NORMAL":5,
						"TEXCOORD_0":6
					},
					"indices":7,
					"material":1
				}
			]
		}
	],
	"textures":[
		{
			"sampler":0,
			"source":0
		},
		{
			"sampler":0,
			"source":1
		}
	],
	"images":[
		{
			"mimeType":"image/png",
			"name":"tread_front_n",
			"uri":"tread_front_n.png"
		},
		{
			"mimeType":"image/png",
			"name":"tread_front_o",
			"uri":"tread_front_o.png"
		}
	],
	"accessors":[
		{
			"bufferView":0,
			"componentType":5126,
			"count":466,
			"max":[
				0.08568178117275238,
				0.2865472733974457,
				0.2856813073158264
			],
			"min":[
				-0.08568178862333298,
				-0.2865472435951233,
				-0.286836177110672
			],
			"type":"VEC3"
		},
		{
			"bufferView":1,
			"componentType":5126,
			"count":466,
			"type":"VEC3"
		},
		{
			"bufferView":2,
			"componentType":5126,
			"count":466,
			"type":"VEC2"
		},
		{
			"bufferView":3,
			"componentType":5123,
			"count":1218,
			"type":"SCALAR"
		},
		{
			"bufferView":4,
			"componentType":5126,
			"count":396,
			"max":[
				0.04914185032248497,
				0.36400821805000305,
				0.3629082441329956
			],
			"min":[
				-0.04914185032248497,
				-0.36400821805000305,
				-0.36437511444091797
			],
			"type":"VEC3"
		},
		{
			"bufferView":5,
			"componentType":5126,
			"count":396,
			"type":"VEC3"
		},
		{
			"bufferView":6,
			"componentType":5126,
			"count":396,
			"type":"VEC2"
		},
		{
			"bufferView":7,
			"componentType":5123,
			"count":1680,
			"type":"SCALAR"
		}
	],
	"bufferViews":[
		{
			"buffer":0,
			"byteLength":5592,
			"byteOffset":0,
			"target":34962
		},
		{
			"buffer":0,
			"byteLength":5592,
			"byteOffset":5592,
			"target":34962
		},
		{
			"buffer":0,
			"byteLength":3728,
			"byteOffset":11184,
			"target":34962
		},
		{
			"buffer":0,
			"byteLength":2436,
			"byteOffset":14912,
			"target":34963
		},
		{
			"buffer":0,
			"byteLength":4752,
			"byteOffset":17348,
			"target":34962
		},
		{
			"buffer":0,
			"byteLength":4752,
			"byteOffset":22100,
			"target":34962
		},
		{
			"buffer":0,
			"byteLength":3168,
			"byteOffset":26852,
			"target":34962
		},
		{
			"buffer":0,
			"byteLength":3360,
			"byteOffset":30020,
			"target":34963
		}
	],
	"samplers":[
		{
			"magFilter":9729,
			"minFilter":9987
		}
	],
	"buffers":[
		{
			"byteLength":33380,
			"uri":"motorbike_wheel_front.bin"
		}
	]
}
