{
	"asset":{
		"copyright":"@serufu_yua",
		"generator":"Khronos glTF Blender I/O v3.6.28",
		"version":"2.0"
	},
	"extensionsUsed":[
		"KHR_materials_specular",
		"KHR_materials_ior"
	],
	"scene":0,
	"scenes":[
		{
			"name":"Scene",
			"nodes":[
				1
			]
		}
	],
	"nodes":[
		{
			"mesh":0,
			"name":"nut.003",
			"rotation":[
				0,
				0,
				-0.7071068286895752,
				0.7071068286895752
			],
			"translation":[
				-0.11660005152225494,
				0,
				0
			]
		},
		{
			"children":[
				0
			],
			"mesh":1,
			"name":"wheel.rear"
		}
	],
	"materials":[
		{
			"doubleSided":true,
			"name":"chrome",
			"pbrMetallicRoughness":{
				"baseColorFactor":[
					0.8379366397857666,
					0.8379366397857666,
					0.8379366397857666,
					1
				],
				"metallicFactor":0.8999999761581421,
				"roughnessFactor":0.20000000298023224
			}
		},
		{
			"doubleSided":true,
			"name":"wheel.aluminum",
			"pbrMetallicRoughness":{
				"baseColorFactor":[
					0.6382718682289124,
					0.6382718682289124,
					0.6382718682289124,
					1
				],
				"metallicFactor":0.8999999761581421,
				"roughnessFactor":0.15000000596046448
			}
		},
		{
			"doubleSided":true,
			"extensions":{
				"KHR_materials_specular":{
					"specularColorFactor":[
						0.474271529955476,
						0.474271529955476,
						0.474271529955476
					]
				},
				"KHR_materials_ior":{
					"ior":1.4500000476837158
				}
			},
			"name":"wheel.rubber.rear",
			"normalTexture":{
				"index":0
			},
			"occlusionTexture":{
				"index":1
			},
			"pbrMetallicRoughness":{
				"baseColorFactor":[
					0,
					0,
					0,
					1
				],
				"metallicFactor":0,
				"roughnessFactor":0.949999988079071
			}
		}
	],
	"meshes":[
		{
			"name":"Cylinder.003",
			"primitives":[
				{
					"attributes":{
						"POSITION":0,
						"NORMAL":1,
						"TEXCOORD_0":2
					},
					"indices":3,
					"material":0
				}
			]
		},
		{
			"name":"BezierCircle",
			"primitives":[
				{
					"attributes":{
						"POSITION":4,
						"NORMAL":5,
						"TEXCOORD_0":6
					},
					"indices":7,
					"material":1
				},
				{
					"attributes":{
						"POSITION":8,
						"NORMAL":9,
						"TEXCOORD_0":10
					},
					"indices":11,
					"material":2
				}
			]
		}
	],
	"textures":[
		{
			"sampler":0,
			"source":0
		},
		{
			"sampler":0,
			"source":1
		}
	],
	"images":[
		{
			"mimeType":"image/png",
			"name":"tread_rear_n",
			"uri":"tread_rear_n.png"
		},
		{
			"mimeType":"image/png",
			"name":"tread_rear_o",
			"uri":"tread_rear_o.png"
		}
	],
	"accessors":[
		{
			"bufferView":0,
			"componentType":5126,
			"count":30,
			"max":[
				0.030293578281998634,
				0,
				0.034980013966560364
			],
			"min":[
				-0.030293578281998634,
				-0.014575004577636719,
				-0.034980013966560364
			],
			"type":"VEC3"
		},
		{
			"bufferView":1,
			"componentType":5126,
			"count":30,
			"type":"VEC3"
		},
		{
			"bufferView":2,
			"componentType":5126,
			"count":30,
			"type":"VEC2"
		},
		{
			"bufferView":3,
			"componentType":5123,
			"count":48,
			"type":"SCALAR"
		},
		{
			"bufferView":4,
			"componentType":5126,
			"count":559,
			"max":[
				0.08527514338493347,
				0.14697422087192535,
				0.14697425067424774
			],
			"min":[
				-0.12153599411249161,
				-0.14697426557540894,
				-0.14697422087192535
			],
			"type":"VEC3"
		},
		{
			"bufferView":5,
			"componentType":5126,
			"count":559,
			"type":"VEC3"
		},
		{
			"bufferView":6,
			"componentType":5126,
			"count":559,
			"type":"VEC2"
		},
		{
			"bufferView":7,
			"componentType":5123,
			"count":1716,
			"type":"SCALAR"
		},
		{
			"bufferView":8,
			"componentType":5126,
			"count":363,
			"max":[
				0.09864363074302673,
				0.2915000915527344,
				0.2915000915527344
			],
			"min":[
				-0.09864363074302673,
				-0.2915000915527344,
				-0.2915000915527344
			],
			"type":"VEC3"
		},
		{
			"bufferView":9,
			"componentType":5126,
			"count":363,
			"type":"VEC3"
		},
		{
			"bufferView":10,
			"componentType":5126,
			"count":363,
			"type":"VEC2"
		},
		{
			"bufferView":11,
			"componentType":5123,
			"count":1536,
			"type":"SCALAR"
		}
	],
	"bufferViews":[
		{
			"buffer":0,
			"byteLength":360,
			"byteOffset":0,
			"target":34962
		},
		{
			"buffer":0,
			"byteLength":360,
			"byteOffset":360,
			"target":34962
		},
		{
			"buffer":0,
			"byteLength":240,
			"byteOffset":720,
			"target":34962
		},
		{
			"buffer":0,
			"byteLength":96,
			"byteOffset":960,
			"target":34963
		},
		{
			"buffer":0,
			"byteLength":6708,
			"byteOffset":1056,
			"target":34962
		},
		{
			"buffer":0,
			"byteLength":6708,
			"byteOffset":7764,
			"target":34962
		},
		{
			"buffer":0,
			"byteLength":4472,
			"byteOffset":14472,
			"target":34962
		},
		{
			"buffer":0,
			"byteLength":3432,
			"byteOffset":18944,
			"target":34963
		},
		{
			"buffer":0,
			"byteLength":4356,
			"byteOffset":22376,
			"target":34962
		},
		{
			"buffer":0,
			"byteLength":4356,
			"byteOffset":26732,
			"target":34962
		},
		{
			"buffer":0,
			"byteLength":2904,
			"byteOffset":31088,
			"target":34962
		},
		{
			"buffer":0,
			"byteLength":3072,
			"byteOffset":33992,
			"target":34963
		}
	],
	"samplers":[
		{
			"magFilter":9729,
			"minFilter":9987
		}
	],
	"buffers":[
		{
			"byteLength":37064,
			"uri":"motorbike_wheel_rear.bin"
		}
	]
}
