{
	"asset":{
		"copyright":"@serufu_yua",
		"generator":"Khronos glTF Blender I/O v3.6.28",
		"version":"2.0"
	},
	"extensionsUsed":[
		"KHR_texture_transform"
	],
	"extensionsRequired":[
		"KHR_texture_transform"
	],
	"scene":0,
	"scenes":[
		{
			"name":"Scene",
			"nodes":[
				0,
				3
			]
		}
	],
	"nodes":[
		{
			"mesh":0,
			"name":"hall.001"
		},
		{
			"mesh":1,
			"name":"Frame"
		},
		{
			"mesh":2,
			"name":"Doors"
		},
		{
			"children":[
				1,
				2
			],
			"name":"Door"
		}
	],
	"materials":[
		{
			"doubleSided":true,
			"name":"Aluminum",
			"normalTexture":{
				"index":0
			},
			"pbrMetallicRoughness":{
				"baseColorFactor":[
					0.800000011920929,
					0.800000011920929,
					0.800000011920929,
					1
				],
				"metallicFactor":0.9636363387107849,
				"roughnessFactor":0.29545456171035767
			}
		},
		{
			"doubleSided":true,
			"name":"Aluminum2",
			"normalTexture":{
				"index":1
			},
			"pbrMetallicRoughness":{
				"baseColorFactor":[
					0.800000011920929,
					0.800000011920929,
					0.800000011920929,
					1
				],
				"metallicFactor":0.9636363387107849,
				"roughnessFactor":0.29545456171035767
			}
		},
		{
			"doubleSided":true,
			"name":"Rough_Metal",
			"normalTexture":{
				"extensions":{
					"KHR_texture_transform":{
						"offset":[
							0,
							-1
						],
						"scale":[
							2,
							2
						]
					}
				},
				"index":2
			},
			"pbrMetallicRoughness":{
				"baseColorFactor":[
					0.800000011920929,
					0.800000011920929,
					0.800000011920929,
					1
				],
				"metallicFactor":0.9636363387107849,
				"roughnessFactor":0.29545456171035767
			}
		},
		{
			"doubleSided":true,
			"name":"Metal_Line",
			"normalTexture":{
				"index":3
			},
			"occlusionTexture":{
				"index":4
			},
			"pbrMetallicRoughness":{
				"baseColorTexture":{
					"index":5
				},
				"metallicFactor":0.9636363387107849,
				"roughnessFactor":0.29545456171035767
			}
		},
		{
			"doubleSided":true,
			"emissiveFactor":[
				1,
				1,
				1
			],
			"emissiveTexture":{
				"index":6
			},
			"name":"Light",
			"normalTexture":{
				"index":7
			},
			"pbrMetallicRoughness":{
				"baseColorTexture":{
					"index":8
				},
				"metallicFactor":0,
				"roughnessFactor":0.00909090880304575
			}
		},
		{
			"doubleSided":true,
			"name":"Old_Metal",
			"normalTexture":{
				"index":9
			},
			"occlusionTexture":{
				"index":10
			},
			"pbrMetallicRoughness":{
				"baseColorTexture":{
					"index":11
				},
				"metallicFactor":0.9636363387107849,
				"roughnessFactor":0.29545456171035767
			}
		},
		{
			"doubleSided":true,
			"name":"Aluminum2",
			"normalTexture":{
				"index":12
			},
			"pbrMetallicRoughness":{
				"baseColorFactor":[
					0.800000011920929,
					0.800000011920929,
					0.800000011920929,
					1
				],
				"metallicFactor":0.9636363387107849,
				"roughnessFactor":0.29545456171035767
			}
		},
		{
			"doubleSided":true,
			"name":"Rough_Metal",
			"normalTexture":{
				"extensions":{
					"KHR_texture_transform":{
						"offset":[
							0,
							-1
						],
						"scale":[
							2,
							2
						]
					}
				},
				"index":13
			},
			"pbrMetallicRoughness":{
				"baseColorFactor":[
					0.800000011920929,
					0.800000011920929,
					0.800000011920929,
					1
				],
				"metallicFactor":0.9636363387107849,
				"roughnessFactor":0.29545456171035767
			}
		},
		{
			"doubleSided":true,
			"emissiveFactor":[
				1,
				1,
				1
			],
			"emissiveTexture":{
				"index":14
			},
			"name":"Light",
			"normalTexture":{
				"index":15
			},
			"pbrMetallicRoughness":{
				"baseColorTexture":{
					"index":16
				},
				"metallicFactor":0,
				"roughnessFactor":0.00909090880304575
			}
		}
	],
	"meshes":[
		{
			"name":"Cube.001",
			"primitives":[
				{
					"attributes":{
						"POSITION":0,
						"NORMAL":1,
						"TEXCOORD_0":2,
						"TANGENT":3
					},
					"indices":4,
					"material":0
				},
				{
					"attributes":{
						"POSITION":5,
						"NORMAL":6,
						"TEXCOORD_0":7,
						"TANGENT":8
					},
					"indices":9,
					"material":1
				}
			]
		},
		{
			"name":"Cube.002",
			"primitives":[
				{
					"attributes":{
						"POSITION":10,
						"NORMAL":11,
						"TEXCOORD_0":12
					},
					"indices":13,
					"material":0
				},
				{
					"attributes":{
						"POSITION":14,
						"NORMAL":15,
						"TEXCOORD_0":16
					},
					"indices":17,
					"material":2
				},
				{
					"attributes":{
						"POSITION":18,
						"NORMAL":19,
						"TEXCOORD_0":20
					},
					"indices":21,
					"material":3
				},
				{
					"attributes":{
						"POSITION":22,
						"NORMAL":23,
						"TEXCOORD_0":24
					},
					"indices":25,
					"material":4
				}
			]
		},
		{
			"name":"Cube.003",
			"primitives":[
				{
					"attributes":{
						"POSITION":26,
						"NORMAL":27,
						"TEXCOORD_0":28
					},
					"indices":29,
					"material":5
				},
				{
					"attributes":{
						"POSITION":30,
						"NORMAL":31,
						"TEXCOORD_0":32
					},
					"indices":33,
					"material":6
				},
				{
					"attributes":{
						"POSITION":34,
						"NORMAL":35,
						"TEXCOORD_0":36
					},
					"indices":37,
					"material":7
				},
				{
					"attributes":{
						"POSITION":38,
						"NORMAL":39,
						"TEXCOORD_0":40
					},
					"indices":41,
					"material":8
				}
			]
		}
	],
	"textures":[
		{
			"sampler":0,
			"source":0
		},
		{
			"sampler":0,
			"source":1
		},
		{
			"sampler":0,
			"source":2
		},
		{
			"sampler":0,
			"source":3
		},
		{
			"sampler":0,
			"source":4
		},
		{
			"sampler":0,
			"source":5
		},
		{
			"sampler":0,
			"source":6
		},
		{
			"sampler":0,
			"source":7
		},
		{
			"sampler":0,
			"source":6
		},
		{
			"sampler":0,
			"source":8
		},
		{
			"sampler":0,
			"source":9
		},
		{
			"sampler":0,
			"source":10
		},
		{
			"sampler":0,
			"source":1
		},
		{
			"sampler":0,
			"source":2
		},
		{
			"sampler":0,
			"source":6
		},
		{
			"sampler":0,
			"source":7
		},
		{
			"sampler":0,
			"source":6
		}
	],
	"images":[
		{
			"mimeType":"image/png",
			"name":"aluminum_n",
			"uri":"aluminum_n.png"
		},
		{
			"mimeType":"image/png",
			"name":"aluminum2_n",
			"uri":"aluminum2_n.png"
		},
		{
			"mimeType":"image/png",
			"name":"rough_metal_n",
			"uri":"rough_metal_n.png"
		},
		{
			"mimeType":"image/png",
			"name":"metal_line_n",
			"uri":"metal_line_n.png"
		},
		{
			"mimeType":"image/png",
			"name":"metal_line_ao",
			"uri":"metal_line_ao.png"
		},
		{
			"mimeType":"image/png",
			"name":"metal_line",
			"uri":"metal_line.png"
		},
		{
			"mimeType":"image/png",
			"name":"light_red",
			"uri":"light_red.png"
		},
		{
			"mimeType":"image/png",
			"name":"light_n",
			"uri":"light_n.png"
		},
		{
			"mimeType":"image/png",
			"name":"old_metal_n",
			"uri":"old_metal_n.png"
		},
		{
			"mimeType":"image/png",
			"name":"old_metal_ao",
			"uri":"old_metal_ao.png"
		},
		{
			"mimeType":"image/png",
			"name":"old_metal",
			"uri":"old_metal.png"
		}
	],
	"accessors":[
		{
			"bufferView":0,
			"componentType":5126,
			"count":16,
			"max":[
				3,
				3.5,
				0
			],
			"min":[
				-3,
				0,
				-7
			],
			"type":"VEC3"
		},
		{
			"bufferView":1,
			"componentType":5126,
			"count":16,
			"type":"VEC3"
		},
		{
			"bufferView":2,
			"componentType":5126,
			"count":16,
			"type":"VEC2"
		},
		{
			"bufferView":3,
			"componentType":5126,
			"count":16,
			"type":"VEC4"
		},
		{
			"bufferView":4,
			"componentType":5123,
			"count":24,
			"type":"SCALAR"
		},
		{
			"bufferView":5,
			"componentType":5126,
			"count":8,
			"max":[
				3,
				3.5,
				0
			],
			"min":[
				-3,
				0,
				-7
			],
			"type":"VEC3"
		},
		{
			"bufferView":6,
			"componentType":5126,
			"count":8,
			"type":"VEC3"
		},
		{
			"bufferView":7,
			"componentType":5126,
			"count":8,
			"type":"VEC2"
		},
		{
			"bufferView":8,
			"componentType":5126,
			"count":8,
			"type":"VEC4"
		},
		{
			"bufferView":9,
			"componentType":5123,
			"count":12,
			"type":"SCALAR"
		},
		{
			"bufferView":10,
			"componentType":5126,
			"count":272,
			"max":[
				1.282842755317688,
				2.4828426837921143,
				0.30000001192092896
			],
			"min":[
				-1.282842755317688,
				-0.2828427255153656,
				-0.30000001192092896
			],
			"type":"VEC3"
		},
		{
			"bufferView":11,
			"componentType":5126,
			"count":272,
			"type":"VEC3"
		},
		{
			"bufferView":12,
			"componentType":5126,
			"count":272,
			"type":"VEC2"
		},
		{
			"bufferView":13,
			"componentType":5123,
			"count":420,
			"type":"SCALAR"
		},
		{
			"bufferView":14,
			"componentType":5126,
			"count":1050,
			"max":[
				1.2688008546829224,
				2.4688010215759277,
				0.30001795291900635
			],
			"min":[
				-1.2688008546829224,
				1.8834725618362427,
				-0.30001795291900635
			],
			"type":"VEC3"
		},
		{
			"bufferView":15,
			"componentType":5126,
			"count":1050,
			"type":"VEC3"
		},
		{
			"bufferView":16,
			"componentType":5126,
			"count":1050,
			"type":"VEC2"
		},
		{
			"bufferView":17,
			"componentType":5123,
			"count":1746,
			"type":"SCALAR"
		},
		{
			"bufferView":18,
			"componentType":5126,
			"count":64,
			"max":[
				0.9700000286102295,
				2.1700000762939453,
				0.27000001072883606
			],
			"min":[
				-0.9700000286102295,
				0.029999999329447746,
				-0.27000001072883606
			],
			"type":"VEC3"
		},
		{
			"bufferView":19,
			"componentType":5126,
			"count":64,
			"type":"VEC3"
		},
		{
			"bufferView":20,
			"componentType":5126,
			"count":64,
			"type":"VEC2"
		},
		{
			"bufferView":21,
			"componentType":5123,
			"count":96,
			"type":"SCALAR"
		},
		{
			"bufferView":22,
			"componentType":5126,
			"count":192,
			"max":[
				1.2331196069717407,
				2.433120012283325,
				0.2850313186645508
			],
			"min":[
				-1.2331196069717407,
				2.0245201587677,
				-0.2850313186645508
			],
			"type":"VEC3"
		},
		{
			"bufferView":23,
			"componentType":5126,
			"count":192,
			"type":"VEC3"
		},
		{
			"bufferView":24,
			"componentType":5126,
			"count":192,
			"type":"VEC2"
		},
		{
			"bufferView":25,
			"componentType":5123,
			"count":360,
			"type":"SCALAR"
		},
		{
			"bufferView":26,
			"componentType":5126,
			"count":48,
			"max":[
				0.8700000047683716,
				2.070000171661377,
				0.1900000125169754
			],
			"min":[
				-0.8700000047683716,
				0.12999999523162842,
				-0.18999998271465302
			],
			"type":"VEC3"
		},
		{
			"bufferView":27,
			"componentType":5126,
			"count":48,
			"type":"VEC3"
		},
		{
			"bufferView":28,
			"componentType":5126,
			"count":48,
			"type":"VEC2"
		},
		{
			"bufferView":29,
			"componentType":5123,
			"count":120,
			"type":"SCALAR"
		},
		{
			"bufferView":30,
			"componentType":5126,
			"count":464,
			"max":[
				1,
				2.200000047683716,
				0.2199999839067459
			],
			"min":[
				-1,
				0,
				-0.2200000137090683
			],
			"type":"VEC3"
		},
		{
			"bufferView":31,
			"componentType":5126,
			"count":464,
			"type":"VEC3"
		},
		{
			"bufferView":32,
			"componentType":5126,
			"count":464,
			"type":"VEC2"
		},
		{
			"bufferView":33,
			"componentType":5123,
			"count":852,
			"type":"SCALAR"
		},
		{
			"bufferView":34,
			"componentType":5126,
			"count":272,
			"max":[
				0.19999998807907104,
				1.1666667461395264,
				0.2199999839067459
			],
			"min":[
				-0.19999998807907104,
				0.7333333492279053,
				-0.2199999839067459
			],
			"type":"VEC3"
		},
		{
			"bufferView":35,
			"componentType":5126,
			"count":272,
			"type":"VEC3"
		},
		{
			"bufferView":36,
			"componentType":5126,
			"count":272,
			"type":"VEC2"
		},
		{
			"bufferView":37,
			"componentType":5123,
			"count":492,
			"type":"SCALAR"
		},
		{
			"bufferView":38,
			"componentType":5126,
			"count":32,
			"max":[
				0.13999997079372406,
				1.0756741762161255,
				0.20499998331069946
			],
			"min":[
				-0.13999997079372406,
				0.8243259787559509,
				-0.20499998331069946
			],
			"type":"VEC3"
		},
		{
			"bufferView":39,
			"componentType":5126,
			"count":32,
			"type":"VEC3"
		},
		{
			"bufferView":40,
			"componentType":5126,
			"count":32,
			"type":"VEC2"
		},
		{
			"bufferView":41,
			"componentType":5123,
			"count":48,
			"type":"SCALAR"
		}
	],
	"bufferViews":[
		{
			"buffer":0,
			"byteLength":192,
			"byteOffset":0,
			"target":34962
		},
		{
			"buffer":0,
			"byteLength":192,
			"byteOffset":192,
			"target":34962
		},
		{
			"buffer":0,
			"byteLength":128,
			"byteOffset":384,
			"target":34962
		},
		{
			"buffer":0,
			"byteLength":256,
			"byteOffset":512,
			"target":34962
		},
		{
			"buffer":0,
			"byteLength":48,
			"byteOffset":768,
			"target":34963
		},
		{
			"buffer":0,
			"byteLength":96,
			"byteOffset":816,
			"target":34962
		},
		{
			"buffer":0,
			"byteLength":96,
			"byteOffset":912,
			"target":34962
		},
		{
			"buffer":0,
			"byteLength":64,
			"byteOffset":1008,
			"target":34962
		},
		{
			"buffer":0,
			"byteLength":128,
			"byteOffset":1072,
			"target":34962
		},
		{
			"buffer":0,
			"byteLength":24,
			"byteOffset":1200,
			"target":34963
		},
		{
			"buffer":0,
			"byteLength":3264,
			"byteOffset":1224,
			"target":34962
		},
		{
			"buffer":0,
			"byteLength":3264,
			"byteOffset":4488,
			"target":34962
		},
		{
			"buffer":0,
			"byteLength":2176,
			"byteOffset":7752,
			"target":34962
		},
		{
			"buffer":0,
			"byteLength":840,
			"byteOffset":9928,
			"target":34963
		},
		{
			"buffer":0,
			"byteLength":12600,
			"byteOffset":10768,
			"target":34962
		},
		{
			"buffer":0,
			"byteLength":12600,
			"byteOffset":23368,
			"target":34962
		},
		{
			"buffer":0,
			"byteLength":8400,
			"byteOffset":35968,
			"target":34962
		},
		{
			"buffer":0,
			"byteLength":3492,
			"byteOffset":44368,
			"target":34963
		},
		{
			"buffer":0,
			"byteLength":768,
			"byteOffset":47860,
			"target":34962
		},
		{
			"buffer":0,
			"byteLength":768,
			"byteOffset":48628,
			"target":34962
		},
		{
			"buffer":0,
			"byteLength":512,
			"byteOffset":49396,
			"target":34962
		},
		{
			"buffer":0,
			"byteLength":192,
			"byteOffset":49908,
			"target":34963
		},
		{
			"buffer":0,
			"byteLength":2304,
			"byteOffset":50100,
			"target":34962
		},
		{
			"buffer":0,
			"byteLength":2304,
			"byteOffset":52404,
			"target":34962
		},
		{
			"buffer":0,
			"byteLength":1536,
			"byteOffset":54708,
			"target":34962
		},
		{
			"buffer":0,
			"byteLength":720,
			"byteOffset":56244,
			"target":34963
		},
		{
			"buffer":0,
			"byteLength":576,
			"byteOffset":56964,
			"target":34962
		},
		{
			"buffer":0,
			"byteLength":576,
			"byteOffset":57540,
			"target":34962
		},
		{
			"buffer":0,
			"byteLength":384,
			"byteOffset":58116,
			"target":34962
		},
		{
			"buffer":0,
			"byteLength":240,
			"byteOffset":58500,
			"target":34963
		},
		{
			"buffer":0,
			"byteLength":5568,
			"byteOffset":58740,
			"target":34962
		},
		{
			"buffer":0,
			"byteLength":5568,
			"byteOffset":64308,
			"target":34962
		},
		{
			"buffer":0,
			"byteLength":3712,
			"byteOffset":69876,
			"target":34962
		},
		{
			"buffer":0,
			"byteLength":1704,
			"byteOffset":73588,
			"target":34963
		},
		{
			"buffer":0,
			"byteLength":3264,
			"byteOffset":75292,
			"target":34962
		},
		{
			"buffer":0,
			"byteLength":3264,
			"byteOffset":78556,
			"target":34962
		},
		{
			"buffer":0,
			"byteLength":2176,
			"byteOffset":81820,
			"target":34962
		},
		{
			"buffer":0,
			"byteLength":984,
			"byteOffset":83996,
			"target":34963
		},
		{
			"buffer":0,
			"byteLength":384,
			"byteOffset":84980,
			"target":34962
		},
		{
			"buffer":0,
			"byteLength":384,
			"byteOffset":85364,
			"target":34962
		},
		{
			"buffer":0,
			"byteLength":256,
			"byteOffset":85748,
			"target":34962
		},
		{
			"buffer":0,
			"byteLength":96,
			"byteOffset":86004,
			"target":34963
		}
	],
	"samplers":[
		{
			"magFilter":9729,
			"minFilter":9987
		}
	],
	"buffers":[
		{
			"byteLength":86100,
			"uri":"abandoned_spaceship_indoors.bin"
		}
	]
}
