{
	"asset":{
		"copyright":"@serufu_yua",
		"generator":"Khronos glTF Blender I/O v3.6.28",
		"version":"2.0"
	},
	"scene":0,
	"scenes":[
		{
			"name":"Scene",
			"nodes":[
				0,
				1,
				2,
				3,
				4,
				5
			]
		}
	],
	"nodes":[
		{
			"mesh":0,
			"name":"door.collider.001"
		},
		{
			"mesh":1,
			"name":"hall.collider"
		},
		{
			"mesh":2,
			"name":"Bench.6x.collider.002",
			"rotation":[
				0.5416752099990845,
				0.4545195400714874,
				-0.4545195698738098,
				0.5416752696037292
			],
			"translation":[
				-9.600000381469727,
				0.23000000417232513,
				-15.5
			]
		},
		{
			"mesh":2,
			"name":"Bench.6x.collider.001",
			"rotation":[
				0,
				0.2164396345615387,
				0,
				0.976296067237854
			],
			"translation":[
				15.263406753540039,
				0,
				-13.978205680847168
			]
		},
		{
			"mesh":2,
			"name":"Bench.6x.collider.003",
			"rotation":[
				0,
				0.7071068286895752,
				0,
				0.7071068286895752
			],
			"translation":[
				11.5,
				0,
				-28.660600662231445
			]
		},
		{
			"mesh":3,
			"name":"Box.Collider",
			"rotation":[
				0,
				-0.537299633026123,
				0,
				0.8433914184570312
			],
			"translation":[
				16.058725357055664,
				0,
				-26.368953704833984
			]
		}
	],
	"meshes":[
		{
			"name":"Cube",
			"primitives":[
				{
					"attributes":{
						"POSITION":0,
						"NORMAL":1
					},
					"indices":2
				}
			]
		},
		{
			"name":"Mesh.003",
			"primitives":[
				{
					"attributes":{
						"POSITION":3,
						"NORMAL":4
					},
					"indices":5
				}
			]
		},
		{
			"name":"Cube.001",
			"primitives":[
				{
					"attributes":{
						"POSITION":6,
						"NORMAL":7
					},
					"indices":2
				}
			]
		},
		{
			"name":"Cube.003",
			"primitives":[
				{
					"attributes":{
						"POSITION":8,
						"NORMAL":9
					},
					"indices":2
				}
			]
		}
	],
	"accessors":[
		{
			"bufferView":0,
			"componentType":5126,
			"count":24,
			"max":[
				1.2828400135040283,
				2.482840061187744,
				0.30000001192092896
			],
			"min":[
				-1.2828401327133179,
				-0.2828429937362671,
				-0.30000001192092896
			],
			"type":"VEC3"
		},
		{
			"bufferView":1,
			"componentType":5126,
			"count":24,
			"type":"VEC3"
		},
		{
			"bufferView":2,
			"componentType":5123,
			"count":36,
			"type":"SCALAR"
		},
		{
			"bufferView":3,
			"componentType":5126,
			"count":644,
			"max":[
				17,
				3.5,
				-0.13989654183387756
			],
			"min":[
				-10,
				-3.2345099931774257e-09,
				-32
			],
			"type":"VEC3"
		},
		{
			"bufferView":4,
			"componentType":5126,
			"count":644,
			"type":"VEC3"
		},
		{
			"bufferView":5,
			"componentType":5123,
			"count":1290,
			"type":"SCALAR"
		},
		{
			"bufferView":6,
			"componentType":5126,
			"count":24,
			"max":[
				1.3799999952316284,
				0.46000003814697266,
				0.22999998927116394
			],
			"min":[
				-1.3799999952316284,
				0,
				-0.23000001907348633
			],
			"type":"VEC3"
		},
		{
			"bufferView":7,
			"componentType":5126,
			"count":24,
			"type":"VEC3"
		},
		{
			"bufferView":8,
			"componentType":5126,
			"count":24,
			"max":[
				0.5,
				1,
				0.5
			],
			"min":[
				-0.5,
				0,
				-0.5
			],
			"type":"VEC3"
		},
		{
			"bufferView":9,
			"componentType":5126,
			"count":24,
			"type":"VEC3"
		}
	],
	"bufferViews":[
		{
			"buffer":0,
			"byteLength":288,
			"byteOffset":0,
			"target":34962
		},
		{
			"buffer":0,
			"byteLength":288,
			"byteOffset":288,
			"target":34962
		},
		{
			"buffer":0,
			"byteLength":72,
			"byteOffset":576,
			"target":34963
		},
		{
			"buffer":0,
			"byteLength":7728,
			"byteOffset":648,
			"target":34962
		},
		{
			"buffer":0,
			"byteLength":7728,
			"byteOffset":8376,
			"target":34962
		},
		{
			"buffer":0,
			"byteLength":2580,
			"byteOffset":16104,
			"target":34963
		},
		{
			"buffer":0,
			"byteLength":288,
			"byteOffset":18684,
			"target":34962
		},
		{
			"buffer":0,
			"byteLength":288,
			"byteOffset":18972,
			"target":34962
		},
		{
			"buffer":0,
			"byteLength":288,
			"byteOffset":19260,
			"target":34962
		},
		{
			"buffer":0,
			"byteLength":288,
			"byteOffset":19548,
			"target":34962
		}
	],
	"buffers":[
		{
			"byteLength":19836,
			"uri":"abandoned_spaceship_indoors_collider.bin"
		}
	]
}
