{
	"asset":{
		"copyright":"@serufu_yua",
		"generator":"Khronos glTF Blender I/O v3.6.28",
		"version":"2.0"
	},
	"extensionsUsed":[
		"KHR_materials_emissive_strength",
		"KHR_texture_transform"
	],
	"extensionsRequired":[
		"KHR_texture_transform"
	],
	"scene":0,
	"scenes":[
		{
			"name":"Scene",
			"nodes":[
				0,
				3
			]
		}
	],
	"nodes":[
		{
			"mesh":0,
			"name":"Hall"
		},
		{
			"mesh":1,
			"name":"Frame"
		},
		{
			"mesh":2,
			"name":"Doors"
		},
		{
			"children":[
				1,
				2
			],
			"name":"Door"
		}
	],
	"materials":[
		{
			"doubleSided":true,
			"name":"Aluminum_Walls",
			"normalTexture":{
				"index":0
			},
			"pbrMetallicRoughness":{
				"baseColorFactor":[
					0.800000011920929,
					0.800000011920929,
					0.800000011920929,
					1
				],
				"metallicFactor":0.9636363387107849,
				"roughnessFactor":0.5
			}
		},
		{
			"doubleSided":true,
			"name":"Aluminum_Flat",
			"normalTexture":{
				"index":1
			},
			"pbrMetallicRoughness":{
				"baseColorFactor":[
					0.800000011920929,
					0.800000011920929,
					0.800000011920929,
					1
				],
				"metallicFactor":0.9636363387107849,
				"roughnessFactor":0.44999998807907104
			}
		},
		{
			"doubleSided":true,
			"emissiveFactor":[
				0.0731857493519783,
				0.40109775960445404,
				0.6000000089406967
			],
			"name":"Blue_Line",
			"normalTexture":{
				"index":2
			},
			"pbrMetallicRoughness":{
				"baseColorTexture":{
					"index":3
				},
				"metallicFactor":0.5227272510528564,
				"roughnessFactor":0.12272727489471436
			}
		},
		{
			"doubleSided":true,
			"emissiveFactor":[
				1,
				1,
				1
			],
			"emissiveTexture":{
				"index":4
			},
			"extensions":{
				"KHR_materials_emissive_strength":{
					"emissiveStrength":2
				}
			},
			"name":"Flood_Lamps",
			"normalTexture":{
				"index":5
			},
			"pbrMetallicRoughness":{
				"baseColorFactor":[
					0.7518784403800964,
					0.8723642230033875,
					1,
					1
				],
				"metallicFactor":0,
				"roughnessFactor":0.009999999776482582
			}
		},
		{
			"doubleSided":true,
			"name":"Inner_Edge",
			"normalTexture":{
				"index":6
			},
			"pbrMetallicRoughness":{
				"baseColorTexture":{
					"index":7
				},
				"metallicFactor":0.6727272868156433,
				"roughnessFactor":0.2818181812763214
			}
		},
		{
			"doubleSided":true,
			"name":"Aluminum",
			"normalTexture":{
				"index":8
			},
			"pbrMetallicRoughness":{
				"baseColorFactor":[
					0.800000011920929,
					0.800000011920929,
					0.800000011920929,
					1
				],
				"metallicFactor":0.9636363387107849,
				"roughnessFactor":0.29545456171035767
			}
		},
		{
			"doubleSided":true,
			"name":"Rough_Metal",
			"normalTexture":{
				"extensions":{
					"KHR_texture_transform":{
						"offset":[
							0,
							-1
						],
						"scale":[
							2,
							2
						]
					}
				},
				"index":9
			},
			"pbrMetallicRoughness":{
				"baseColorFactor":[
					0.800000011920929,
					0.800000011920929,
					0.800000011920929,
					1
				],
				"metallicFactor":0.9636363387107849,
				"roughnessFactor":0.29545456171035767
			}
		},
		{
			"doubleSided":true,
			"name":"Metal_Line",
			"normalTexture":{
				"index":10
			},
			"occlusionTexture":{
				"index":11
			},
			"pbrMetallicRoughness":{
				"baseColorTexture":{
					"index":12
				},
				"metallicFactor":0.9636363387107849,
				"roughnessFactor":0.29545456171035767
			}
		},
		{
			"doubleSided":true,
			"emissiveFactor":[
				1,
				1,
				1
			],
			"emissiveTexture":{
				"index":13
			},
			"name":"Light",
			"normalTexture":{
				"index":14
			},
			"pbrMetallicRoughness":{
				"baseColorTexture":{
					"index":15
				},
				"metallicFactor":0,
				"roughnessFactor":0.00909090880304575
			}
		},
		{
			"doubleSided":true,
			"name":"Old_Metal",
			"normalTexture":{
				"index":16
			},
			"occlusionTexture":{
				"index":17
			},
			"pbrMetallicRoughness":{
				"baseColorTexture":{
					"index":18
				},
				"metallicFactor":0.9636363387107849,
				"roughnessFactor":0.29545456171035767
			}
		},
		{
			"doubleSided":true,
			"name":"Aluminum2",
			"normalTexture":{
				"index":19
			},
			"pbrMetallicRoughness":{
				"baseColorFactor":[
					0.800000011920929,
					0.800000011920929,
					0.800000011920929,
					1
				],
				"metallicFactor":0.9636363387107849,
				"roughnessFactor":0.29545456171035767
			}
		},
		{
			"doubleSided":true,
			"name":"Rough_Metal",
			"normalTexture":{
				"extensions":{
					"KHR_texture_transform":{
						"offset":[
							0,
							-1
						],
						"scale":[
							2,
							2
						]
					}
				},
				"index":20
			},
			"pbrMetallicRoughness":{
				"baseColorFactor":[
					0.800000011920929,
					0.800000011920929,
					0.800000011920929,
					1
				],
				"metallicFactor":0.9636363387107849,
				"roughnessFactor":0.29545456171035767
			}
		},
		{
			"doubleSided":true,
			"emissiveFactor":[
				1,
				1,
				1
			],
			"emissiveTexture":{
				"index":21
			},
			"name":"Light",
			"normalTexture":{
				"index":22
			},
			"pbrMetallicRoughness":{
				"baseColorTexture":{
					"index":23
				},
				"metallicFactor":0,
				"roughnessFactor":0.00909090880304575
			}
		}
	],
	"meshes":[
		{
			"name":"Cube.001",
			"primitives":[
				{
					"attributes":{
						"POSITION":0,
						"NORMAL":1,
						"TEXCOORD_0":2,
						"TEXCOORD_1":3
					},
					"indices":4,
					"material":0
				},
				{
					"attributes":{
						"POSITION":5,
						"NORMAL":6,
						"TEXCOORD_0":7,
						"TEXCOORD_1":8
					},
					"indices":9,
					"material":1
				},
				{
					"attributes":{
						"POSITION":10,
						"NORMAL":11,
						"TEXCOORD_0":12,
						"TEXCOORD_1":13
					},
					"indices":14,
					"material":2
				},
				{
					"attributes":{
						"POSITION":15,
						"NORMAL":16,
						"TEXCOORD_0":17,
						"TEXCOORD_1":18
					},
					"indices":19,
					"material":3
				},
				{
					"attributes":{
						"POSITION":20,
						"NORMAL":21,
						"TEXCOORD_0":22,
						"TEXCOORD_1":23
					},
					"indices":24,
					"material":4
				}
			]
		},
		{
			"name":"Cube.002",
			"primitives":[
				{
					"attributes":{
						"POSITION":25,
						"NORMAL":26,
						"TEXCOORD_0":27
					},
					"indices":28,
					"material":5
				},
				{
					"attributes":{
						"POSITION":29,
						"NORMAL":30,
						"TEXCOORD_0":31
					},
					"indices":32,
					"material":6
				},
				{
					"attributes":{
						"POSITION":33,
						"NORMAL":34,
						"TEXCOORD_0":35
					},
					"indices":36,
					"material":7
				},
				{
					"attributes":{
						"POSITION":37,
						"NORMAL":38,
						"TEXCOORD_0":39
					},
					"indices":40,
					"material":8
				}
			]
		},
		{
			"name":"Cube.003",
			"primitives":[
				{
					"attributes":{
						"POSITION":41,
						"NORMAL":42,
						"TEXCOORD_0":43
					},
					"indices":44,
					"material":9
				},
				{
					"attributes":{
						"POSITION":45,
						"NORMAL":46,
						"TEXCOORD_0":47
					},
					"indices":48,
					"material":10
				},
				{
					"attributes":{
						"POSITION":49,
						"NORMAL":50,
						"TEXCOORD_0":51
					},
					"indices":52,
					"material":11
				},
				{
					"attributes":{
						"POSITION":53,
						"NORMAL":54,
						"TEXCOORD_0":55
					},
					"indices":56,
					"material":12
				}
			]
		}
	],
	"textures":[
		{
			"sampler":0,
			"source":0
		},
		{
			"sampler":0,
			"source":1
		},
		{
			"sampler":0,
			"source":2
		},
		{
			"sampler":0,
			"source":3
		},
		{
			"sampler":0,
			"source":4
		},
		{
			"sampler":0,
			"source":1
		},
		{
			"sampler":0,
			"source":5
		},
		{
			"sampler":0,
			"source":6
		},
		{
			"sampler":0,
			"source":0
		},
		{
			"sampler":0,
			"source":7
		},
		{
			"sampler":0,
			"source":8
		},
		{
			"sampler":0,
			"source":9
		},
		{
			"sampler":0,
			"source":10
		},
		{
			"sampler":0,
			"source":11
		},
		{
			"sampler":0,
			"source":12
		},
		{
			"sampler":0,
			"source":11
		},
		{
			"sampler":0,
			"source":13
		},
		{
			"sampler":0,
			"source":14
		},
		{
			"sampler":0,
			"source":15
		},
		{
			"sampler":0,
			"source":1
		},
		{
			"sampler":0,
			"source":7
		},
		{
			"sampler":0,
			"source":11
		},
		{
			"sampler":0,
			"source":12
		},
		{
			"sampler":0,
			"source":11
		}
	],
	"images":[
		{
			"mimeType":"image/png",
			"name":"aluminum_n",
			"uri":"aluminum_n.png"
		},
		{
			"mimeType":"image/png",
			"name":"aluminum2_n",
			"uri":"aluminum2_n.png"
		},
		{
			"mimeType":"image/png",
			"name":"line_smooth_n",
			"uri":"line_smooth_n.png"
		},
		{
			"mimeType":"image/png",
			"name":"blue_line_smooth",
			"uri":"blue_line_smooth.png"
		},
		{
			"mimeType":"image/png",
			"name":"flood_lamps_emiss",
			"uri":"flood_lamps_emiss.png"
		},
		{
			"mimeType":"image/png",
			"name":"inner_edge_n",
			"uri":"inner_edge_n.png"
		},
		{
			"mimeType":"image/png",
			"name":"inner_edge",
			"uri":"inner_edge.png"
		},
		{
			"mimeType":"image/png",
			"name":"rough_metal_n",
			"uri":"rough_metal_n.png"
		},
		{
			"mimeType":"image/png",
			"name":"metal_line_n",
			"uri":"metal_line_n.png"
		},
		{
			"mimeType":"image/png",
			"name":"metal_line_ao",
			"uri":"metal_line_ao.png"
		},
		{
			"mimeType":"image/png",
			"name":"metal_line",
			"uri":"metal_line.png"
		},
		{
			"mimeType":"image/png",
			"name":"light_red",
			"uri":"light_red.png"
		},
		{
			"mimeType":"image/png",
			"name":"light_n",
			"uri":"light_n.png"
		},
		{
			"mimeType":"image/png",
			"name":"old_metal_n",
			"uri":"old_metal_n.png"
		},
		{
			"mimeType":"image/png",
			"name":"old_metal_ao",
			"uri":"old_metal_ao.png"
		},
		{
			"mimeType":"image/png",
			"name":"old_metal",
			"uri":"old_metal.png"
		}
	],
	"accessors":[
		{
			"bufferView":0,
			"componentType":5126,
			"count":387,
			"max":[
				17,
				3.25,
				0
			],
			"min":[
				-10,
				0.20000000298023224,
				-32
			],
			"type":"VEC3"
		},
		{
			"bufferView":1,
			"componentType":5126,
			"count":387,
			"type":"VEC3"
		},
		{
			"bufferView":2,
			"componentType":5126,
			"count":387,
			"type":"VEC2"
		},
		{
			"bufferView":3,
			"componentType":5126,
			"count":387,
			"type":"VEC2"
		},
		{
			"bufferView":4,
			"componentType":5123,
			"count":1320,
			"type":"SCALAR"
		},
		{
			"bufferView":5,
			"componentType":5126,
			"count":2318,
			"max":[
				17,
				3.5999999046325684,
				0
			],
			"min":[
				-10,
				-1.2814998626708984e-06,
				-32
			],
			"type":"VEC3"
		},
		{
			"bufferView":6,
			"componentType":5126,
			"count":2318,
			"type":"VEC3"
		},
		{
			"bufferView":7,
			"componentType":5126,
			"count":2318,
			"type":"VEC2"
		},
		{
			"bufferView":8,
			"componentType":5126,
			"count":2318,
			"type":"VEC2"
		},
		{
			"bufferView":9,
			"componentType":5123,
			"count":7107,
			"type":"SCALAR"
		},
		{
			"bufferView":10,
			"componentType":5126,
			"count":114,
			"max":[
				16.933012008666992,
				3.4330127239227295,
				-0.0669872909784317
			],
			"min":[
				-9.933012962341309,
				3.25,
				-31.933013916015625
			],
			"type":"VEC3"
		},
		{
			"bufferView":11,
			"componentType":5126,
			"count":114,
			"type":"VEC3"
		},
		{
			"bufferView":12,
			"componentType":5126,
			"count":114,
			"type":"VEC2"
		},
		{
			"bufferView":13,
			"componentType":5126,
			"count":114,
			"type":"VEC2"
		},
		{
			"bufferView":14,
			"componentType":5123,
			"count":336,
			"type":"SCALAR"
		},
		{
			"bufferView":15,
			"componentType":5126,
			"count":1170,
			"max":[
				14.618682861328125,
				3.5248687267303467,
				-1.8880410194396973
			],
			"min":[
				-8.111959457397461,
				3.474564790725708,
				-30.111961364746094
			],
			"type":"VEC3"
		},
		{
			"bufferView":16,
			"componentType":5126,
			"count":1170,
			"type":"VEC3"
		},
		{
			"bufferView":17,
			"componentType":5126,
			"count":1170,
			"type":"VEC2"
		},
		{
			"bufferView":18,
			"componentType":5126,
			"count":1170,
			"type":"VEC2"
		},
		{
			"bufferView":19,
			"componentType":5123,
			"count":3429,
			"type":"SCALAR"
		},
		{
			"bufferView":20,
			"componentType":5126,
			"count":293,
			"max":[
				11,
				2.5999999046325684,
				-12.899999618530273
			],
			"min":[
				4.399999618530273,
				0.5999999046325684,
				-25.600000381469727
			],
			"type":"VEC3"
		},
		{
			"bufferView":21,
			"componentType":5126,
			"count":293,
			"type":"VEC3"
		},
		{
			"bufferView":22,
			"componentType":5126,
			"count":293,
			"type":"VEC2"
		},
		{
			"bufferView":23,
			"componentType":5126,
			"count":293,
			"type":"VEC2"
		},
		{
			"bufferView":24,
			"componentType":5123,
			"count":648,
			"type":"SCALAR"
		},
		{
			"bufferView":25,
			"componentType":5126,
			"count":272,
			"max":[
				1.282842755317688,
				2.4828426837921143,
				0.30000001192092896
			],
			"min":[
				-1.282842755317688,
				-0.2828427255153656,
				-0.30000001192092896
			],
			"type":"VEC3"
		},
		{
			"bufferView":26,
			"componentType":5126,
			"count":272,
			"type":"VEC3"
		},
		{
			"bufferView":27,
			"componentType":5126,
			"count":272,
			"type":"VEC2"
		},
		{
			"bufferView":28,
			"componentType":5123,
			"count":420,
			"type":"SCALAR"
		},
		{
			"bufferView":29,
			"componentType":5126,
			"count":1050,
			"max":[
				1.2688008546829224,
				2.4688010215759277,
				0.30001795291900635
			],
			"min":[
				-1.2688008546829224,
				1.8834725618362427,
				-0.30001795291900635
			],
			"type":"VEC3"
		},
		{
			"bufferView":30,
			"componentType":5126,
			"count":1050,
			"type":"VEC3"
		},
		{
			"bufferView":31,
			"componentType":5126,
			"count":1050,
			"type":"VEC2"
		},
		{
			"bufferView":32,
			"componentType":5123,
			"count":1746,
			"type":"SCALAR"
		},
		{
			"bufferView":33,
			"componentType":5126,
			"count":64,
			"max":[
				0.9700000286102295,
				2.1700000762939453,
				0.27000001072883606
			],
			"min":[
				-0.9700000286102295,
				0.029999999329447746,
				-0.27000001072883606
			],
			"type":"VEC3"
		},
		{
			"bufferView":34,
			"componentType":5126,
			"count":64,
			"type":"VEC3"
		},
		{
			"bufferView":35,
			"componentType":5126,
			"count":64,
			"type":"VEC2"
		},
		{
			"bufferView":36,
			"componentType":5123,
			"count":96,
			"type":"SCALAR"
		},
		{
			"bufferView":37,
			"componentType":5126,
			"count":192,
			"max":[
				1.2331196069717407,
				2.433120012283325,
				0.2850313186645508
			],
			"min":[
				-1.2331196069717407,
				2.0245201587677,
				-0.2850313186645508
			],
			"type":"VEC3"
		},
		{
			"bufferView":38,
			"componentType":5126,
			"count":192,
			"type":"VEC3"
		},
		{
			"bufferView":39,
			"componentType":5126,
			"count":192,
			"type":"VEC2"
		},
		{
			"bufferView":40,
			"componentType":5123,
			"count":360,
			"type":"SCALAR"
		},
		{
			"bufferView":41,
			"componentType":5126,
			"count":48,
			"max":[
				0.8700000047683716,
				2.070000171661377,
				0.1900000125169754
			],
			"min":[
				-0.8700000047683716,
				0.12999999523162842,
				-0.18999998271465302
			],
			"type":"VEC3"
		},
		{
			"bufferView":42,
			"componentType":5126,
			"count":48,
			"type":"VEC3"
		},
		{
			"bufferView":43,
			"componentType":5126,
			"count":48,
			"type":"VEC2"
		},
		{
			"bufferView":44,
			"componentType":5123,
			"count":120,
			"type":"SCALAR"
		},
		{
			"bufferView":45,
			"componentType":5126,
			"count":464,
			"max":[
				1,
				2.200000047683716,
				0.2199999839067459
			],
			"min":[
				-1,
				0,
				-0.2200000137090683
			],
			"type":"VEC3"
		},
		{
			"bufferView":46,
			"componentType":5126,
			"count":464,
			"type":"VEC3"
		},
		{
			"bufferView":47,
			"componentType":5126,
			"count":464,
			"type":"VEC2"
		},
		{
			"bufferView":48,
			"componentType":5123,
			"count":852,
			"type":"SCALAR"
		},
		{
			"bufferView":49,
			"componentType":5126,
			"count":272,
			"max":[
				0.19999998807907104,
				1.1666667461395264,
				0.2199999839067459
			],
			"min":[
				-0.19999998807907104,
				0.7333333492279053,
				-0.2199999839067459
			],
			"type":"VEC3"
		},
		{
			"bufferView":50,
			"componentType":5126,
			"count":272,
			"type":"VEC3"
		},
		{
			"bufferView":51,
			"componentType":5126,
			"count":272,
			"type":"VEC2"
		},
		{
			"bufferView":52,
			"componentType":5123,
			"count":492,
			"type":"SCALAR"
		},
		{
			"bufferView":53,
			"componentType":5126,
			"count":32,
			"max":[
				0.13999997079372406,
				1.0756741762161255,
				0.20499998331069946
			],
			"min":[
				-0.13999997079372406,
				0.8243259787559509,
				-0.20499998331069946
			],
			"type":"VEC3"
		},
		{
			"bufferView":54,
			"componentType":5126,
			"count":32,
			"type":"VEC3"
		},
		{
			"bufferView":55,
			"componentType":5126,
			"count":32,
			"type":"VEC2"
		},
		{
			"bufferView":56,
			"componentType":5123,
			"count":48,
			"type":"SCALAR"
		}
	],
	"bufferViews":[
		{
			"buffer":0,
			"byteLength":4644,
			"byteOffset":0,
			"target":34962
		},
		{
			"buffer":0,
			"byteLength":4644,
			"byteOffset":4644,
			"target":34962
		},
		{
			"buffer":0,
			"byteLength":3096,
			"byteOffset":9288,
			"target":34962
		},
		{
			"buffer":0,
			"byteLength":3096,
			"byteOffset":12384,
			"target":34962
		},
		{
			"buffer":0,
			"byteLength":2640,
			"byteOffset":15480,
			"target":34963
		},
		{
			"buffer":0,
			"byteLength":27816,
			"byteOffset":18120,
			"target":34962
		},
		{
			"buffer":0,
			"byteLength":27816,
			"byteOffset":45936,
			"target":34962
		},
		{
			"buffer":0,
			"byteLength":18544,
			"byteOffset":73752,
			"target":34962
		},
		{
			"buffer":0,
			"byteLength":18544,
			"byteOffset":92296,
			"target":34962
		},
		{
			"buffer":0,
			"byteLength":14214,
			"byteOffset":110840,
			"target":34963
		},
		{
			"buffer":0,
			"byteLength":1368,
			"byteOffset":125056,
			"target":34962
		},
		{
			"buffer":0,
			"byteLength":1368,
			"byteOffset":126424,
			"target":34962
		},
		{
			"buffer":0,
			"byteLength":912,
			"byteOffset":127792,
			"target":34962
		},
		{
			"buffer":0,
			"byteLength":912,
			"byteOffset":128704,
			"target":34962
		},
		{
			"buffer":0,
			"byteLength":672,
			"byteOffset":129616,
			"target":34963
		},
		{
			"buffer":0,
			"byteLength":14040,
			"byteOffset":130288,
			"target":34962
		},
		{
			"buffer":0,
			"byteLength":14040,
			"byteOffset":144328,
			"target":34962
		},
		{
			"buffer":0,
			"byteLength":9360,
			"byteOffset":158368,
			"target":34962
		},
		{
			"buffer":0,
			"byteLength":9360,
			"byteOffset":167728,
			"target":34962
		},
		{
			"buffer":0,
			"byteLength":6858,
			"byteOffset":177088,
			"target":34963
		},
		{
			"buffer":0,
			"byteLength":3516,
			"byteOffset":183948,
			"target":34962
		},
		{
			"buffer":0,
			"byteLength":3516,
			"byteOffset":187464,
			"target":34962
		},
		{
			"buffer":0,
			"byteLength":2344,
			"byteOffset":190980,
			"target":34962
		},
		{
			"buffer":0,
			"byteLength":2344,
			"byteOffset":193324,
			"target":34962
		},
		{
			"buffer":0,
			"byteLength":1296,
			"byteOffset":195668,
			"target":34963
		},
		{
			"buffer":0,
			"byteLength":3264,
			"byteOffset":196964,
			"target":34962
		},
		{
			"buffer":0,
			"byteLength":3264,
			"byteOffset":200228,
			"target":34962
		},
		{
			"buffer":0,
			"byteLength":2176,
			"byteOffset":203492,
			"target":34962
		},
		{
			"buffer":0,
			"byteLength":840,
			"byteOffset":205668,
			"target":34963
		},
		{
			"buffer":0,
			"byteLength":12600,
			"byteOffset":206508,
			"target":34962
		},
		{
			"buffer":0,
			"byteLength":12600,
			"byteOffset":219108,
			"target":34962
		},
		{
			"buffer":0,
			"byteLength":8400,
			"byteOffset":231708,
			"target":34962
		},
		{
			"buffer":0,
			"byteLength":3492,
			"byteOffset":240108,
			"target":34963
		},
		{
			"buffer":0,
			"byteLength":768,
			"byteOffset":243600,
			"target":34962
		},
		{
			"buffer":0,
			"byteLength":768,
			"byteOffset":244368,
			"target":34962
		},
		{
			"buffer":0,
			"byteLength":512,
			"byteOffset":245136,
			"target":34962
		},
		{
			"buffer":0,
			"byteLength":192,
			"byteOffset":245648,
			"target":34963
		},
		{
			"buffer":0,
			"byteLength":2304,
			"byteOffset":245840,
			"target":34962
		},
		{
			"buffer":0,
			"byteLength":2304,
			"byteOffset":248144,
			"target":34962
		},
		{
			"buffer":0,
			"byteLength":1536,
			"byteOffset":250448,
			"target":34962
		},
		{
			"buffer":0,
			"byteLength":720,
			"byteOffset":251984,
			"target":34963
		},
		{
			"buffer":0,
			"byteLength":576,
			"byteOffset":252704,
			"target":34962
		},
		{
			"buffer":0,
			"byteLength":576,
			"byteOffset":253280,
			"target":34962
		},
		{
			"buffer":0,
			"byteLength":384,
			"byteOffset":253856,
			"target":34962
		},
		{
			"buffer":0,
			"byteLength":240,
			"byteOffset":254240,
			"target":34963
		},
		{
			"buffer":0,
			"byteLength":5568,
			"byteOffset":254480,
			"target":34962
		},
		{
			"buffer":0,
			"byteLength":5568,
			"byteOffset":260048,
			"target":34962
		},
		{
			"buffer":0,
			"byteLength":3712,
			"byteOffset":265616,
			"target":34962
		},
		{
			"buffer":0,
			"byteLength":1704,
			"byteOffset":269328,
			"target":34963
		},
		{
			"buffer":0,
			"byteLength":3264,
			"byteOffset":271032,
			"target":34962
		},
		{
			"buffer":0,
			"byteLength":3264,
			"byteOffset":274296,
			"target":34962
		},
		{
			"buffer":0,
			"byteLength":2176,
			"byteOffset":277560,
			"target":34962
		},
		{
			"buffer":0,
			"byteLength":984,
			"byteOffset":279736,
			"target":34963
		},
		{
			"buffer":0,
			"byteLength":384,
			"byteOffset":280720,
			"target":34962
		},
		{
			"buffer":0,
			"byteLength":384,
			"byteOffset":281104,
			"target":34962
		},
		{
			"buffer":0,
			"byteLength":256,
			"byteOffset":281488,
			"target":34962
		},
		{
			"buffer":0,
			"byteLength":96,
			"byteOffset":281744,
			"target":34963
		}
	],
	"samplers":[
		{
			"magFilter":9729,
			"minFilter":9987
		}
	],
	"buffers":[
		{
			"byteLength":281840,
			"uri":"abandoned_spaceship_indoors.bin"
		}
	]
}
