{
	"asset":{
		"copyright":"@serufu_yua",
		"generator":"Khronos glTF Blender I/O v3.6.28",
		"version":"2.0"
	},
	"extensionsUsed":[
		"KHR_materials_specular",
		"KHR_materials_ior"
	],
	"scene":0,
	"scenes":[
		{
			"name":"Scene",
			"nodes":[
				1
			]
		}
	],
	"nodes":[
		{
			"mesh":0,
			"name":"pillow.001"
		},
		{
			"children":[
				0
			],
			"name":"pillow.001"
		}
	],
	"materials":[
		{
			"doubleSided":true,
			"extensions":{
				"KHR_materials_specular":{
					"specularColorFactor":[
						0,
						0,
						0
					]
				},
				"KHR_materials_ior":{
					"ior":1.4500000476837158
				}
			},
			"name":"pillow.tex",
			"normalTexture":{
				"index":0,
				"texCoord":1
			},
			"pbrMetallicRoughness":{
				"baseColorFactor":[
					0.10347200185060501,
					0.13623300194740295,
					0.4437539875507355,
					1
				],
				"metallicFactor":0
			}
		}
	],
	"meshes":[
		{
			"name":"Cube.007",
			"primitives":[
				{
					"attributes":{
						"POSITION":0,
						"NORMAL":1,
						"TEXCOORD_0":2,
						"TEXCOORD_1":3,
						"TEXCOORD_2":4,
						"TANGENT":5
					},
					"indices":6,
					"material":0
				}
			]
		}
	],
	"textures":[
		{
			"sampler":0,
			"source":0
		}
	],
	"images":[
		{
			"mimeType":"image/png",
			"name":"mat_n",
			"uri":"mat_n.png"
		}
	],
	"accessors":[
		{
			"bufferView":0,
			"componentType":5126,
			"count":45,
			"max":[
				0.310569703578949,
				0.11887279152870178,
				0.24748513102531433
			],
			"min":[
				-0.3113492727279663,
				-0.13157255947589874,
				-0.2533133924007416
			],
			"type":"VEC3"
		},
		{
			"bufferView":1,
			"componentType":5126,
			"count":45,
			"type":"VEC3"
		},
		{
			"bufferView":2,
			"componentType":5126,
			"count":45,
			"type":"VEC2"
		},
		{
			"bufferView":3,
			"componentType":5126,
			"count":45,
			"type":"VEC2"
		},
		{
			"bufferView":4,
			"componentType":5126,
			"count":45,
			"type":"VEC2"
		},
		{
			"bufferView":5,
			"componentType":5126,
			"count":45,
			"type":"VEC4"
		},
		{
			"bufferView":6,
			"componentType":5123,
			"count":144,
			"type":"SCALAR"
		}
	],
	"bufferViews":[
		{
			"buffer":0,
			"byteLength":540,
			"byteOffset":0,
			"target":34962
		},
		{
			"buffer":0,
			"byteLength":540,
			"byteOffset":540,
			"target":34962
		},
		{
			"buffer":0,
			"byteLength":360,
			"byteOffset":1080,
			"target":34962
		},
		{
			"buffer":0,
			"byteLength":360,
			"byteOffset":1440,
			"target":34962
		},
		{
			"buffer":0,
			"byteLength":360,
			"byteOffset":1800,
			"target":34962
		},
		{
			"buffer":0,
			"byteLength":720,
			"byteOffset":2160,
			"target":34962
		},
		{
			"buffer":0,
			"byteLength":288,
			"byteOffset":2880,
			"target":34963
		}
	],
	"samplers":[
		{
			"magFilter":9729,
			"minFilter":9987
		}
	],
	"buffers":[
		{
			"byteLength":3168,
			"uri":"pillow.bin"
		}
	]
}
