{
	"asset":{
		"copyright":"@serufu_yua",
		"generator":"Khronos glTF Blender I/O v3.6.28",
		"version":"2.0"
	},
	"scene":0,
	"scenes":[
		{
			"name":"Scene",
			"nodes":[
				0
			]
		}
	],
	"nodes":[
		{
			"mesh":0,
			"name":"ghots_road.001"
		}
	],
	"materials":[
		{
			"alphaMode":"BLEND",
			"doubleSided":true,
			"emissiveFactor":[
				1,
				1,
				1
			],
			"emissiveTexture":{
				"index":0
			},
			"name":"ghost_road",
			"pbrMetallicRoughness":{
				"baseColorTexture":{
					"index":1
				},
				"metallicFactor":0,
				"roughnessFactor":0.5
			}
		}
	],
	"meshes":[
		{
			"name":"Cube.106",
			"primitives":[
				{
					"attributes":{
						"POSITION":0,
						"NORMAL":1,
						"TEXCOORD_0":2,
						"TANGENT":3
					},
					"indices":4,
					"material":0
				}
			]
		}
	],
	"textures":[
		{
			"sampler":0,
			"source":0
		},
		{
			"sampler":0,
			"source":0
		}
	],
	"images":[
		{
			"mimeType":"image/png",
			"name":"ghost_road",
			"uri":"ghost_road.png"
		}
	],
	"accessors":[
		{
			"bufferView":0,
			"componentType":5126,
			"count":4512,
			"max":[
				618.0286865234375,
				56.98200607299805,
				345.2585754394531
			],
			"min":[
				-130.9302978515625,
				-5.3810577392578125,
				-229.63233947753906
			],
			"type":"VEC3"
		},
		{
			"bufferView":1,
			"componentType":5126,
			"count":4512,
			"type":"VEC3"
		},
		{
			"bufferView":2,
			"componentType":5126,
			"count":4512,
			"type":"VEC2"
		},
		{
			"bufferView":3,
			"componentType":5126,
			"count":4512,
			"type":"VEC4"
		},
		{
			"bufferView":4,
			"componentType":5123,
			"count":6768,
			"type":"SCALAR"
		}
	],
	"bufferViews":[
		{
			"buffer":0,
			"byteLength":54144,
			"byteOffset":0,
			"target":34962
		},
		{
			"buffer":0,
			"byteLength":54144,
			"byteOffset":54144,
			"target":34962
		},
		{
			"buffer":0,
			"byteLength":36096,
			"byteOffset":108288,
			"target":34962
		},
		{
			"buffer":0,
			"byteLength":72192,
			"byteOffset":144384,
			"target":34962
		},
		{
			"buffer":0,
			"byteLength":13536,
			"byteOffset":216576,
			"target":34963
		}
	],
	"samplers":[
		{
			"magFilter":9729,
			"minFilter":9987
		}
	],
	"buffers":[
		{
			"byteLength":230112,
			"uri":"ghost_road_trace.bin"
		}
	]
}
