{
	"asset":{
		"copyright":"@serufu_yua",
		"generator":"Khronos glTF Blender I/O v3.6.28",
		"version":"2.0"
	},
	"scene":0,
	"scenes":[
		{
			"name":"Scene",
			"nodes":[
				0
			]
		}
	],
	"nodes":[
		{
			"mesh":0,
			"name":"ghots_road.shine.001"
		}
	],
	"meshes":[
		{
			"name":"Cube.100",
			"primitives":[
				{
					"attributes":{
						"POSITION":0,
						"NORMAL":1,
						"TANGENT":2
					},
					"indices":3
				}
			]
		}
	],
	"accessors":[
		{
			"bufferView":0,
			"componentType":5126,
			"count":14976,
			"max":[
				608.8348388671875,
				53.8302116394043,
				341.62646484375
			],
			"min":[
				-285.3949890136719,
				-38.644657135009766,
				-277.8860778808594
			],
			"type":"VEC3"
		},
		{
			"bufferView":1,
			"componentType":5126,
			"count":14976,
			"type":"VEC3"
		},
		{
			"bufferView":2,
			"componentType":5126,
			"count":14976,
			"type":"VEC4"
		},
		{
			"bufferView":3,
			"componentType":5123,
			"count":22464,
			"type":"SCALAR"
		}
	],
	"bufferViews":[
		{
			"buffer":0,
			"byteLength":179712,
			"byteOffset":0,
			"target":34962
		},
		{
			"buffer":0,
			"byteLength":179712,
			"byteOffset":179712,
			"target":34962
		},
		{
			"buffer":0,
			"byteLength":239616,
			"byteOffset":359424,
			"target":34962
		},
		{
			"buffer":0,
			"byteLength":44928,
			"byteOffset":599040,
			"target":34963
		}
	],
	"buffers":[
		{
			"byteLength":643968,
			"uri":"ghost_road_shine.bin"
		}
	]
}
