{
	"asset":{
		"copyright":"@serufu_yua",
		"generator":"Khronos glTF Blender I/O v3.6.28",
		"version":"2.0"
	},
	"scene":0,
	"scenes":[
		{
			"name":"Scene",
			"nodes":[
				0
			]
		}
	],
	"nodes":[
		{
			"mesh":0,
			"name":"ghots_road.001"
		}
	],
	"materials":[
		{
			"alphaMode":"BLEND",
			"doubleSided":true,
			"emissiveFactor":[
				1,
				1,
				1
			],
			"emissiveTexture":{
				"index":0
			},
			"name":"ghost_road",
			"pbrMetallicRoughness":{
				"baseColorTexture":{
					"index":1
				},
				"metallicFactor":0,
				"roughnessFactor":0.5
			}
		}
	],
	"meshes":[
		{
			"name":"Cube.106",
			"primitives":[
				{
					"attributes":{
						"POSITION":0,
						"NORMAL":1,
						"TEXCOORD_0":2,
						"TANGENT":3
					},
					"indices":4,
					"material":0
				}
			]
		}
	],
	"textures":[
		{
			"sampler":0,
			"source":0
		},
		{
			"sampler":0,
			"source":0
		}
	],
	"images":[
		{
			"mimeType":"image/png",
			"name":"ghost_road",
			"uri":"ghost_road.png"
		}
	],
	"accessors":[
		{
			"bufferView":0,
			"componentType":5126,
			"count":5616,
			"max":[
				608.8348388671875,
				53.82872009277344,
				341.6247863769531
			],
			"min":[
				-285.3900146484375,
				-38.642189025878906,
				-277.87261962890625
			],
			"type":"VEC3"
		},
		{
			"bufferView":1,
			"componentType":5126,
			"count":5616,
			"type":"VEC3"
		},
		{
			"bufferView":2,
			"componentType":5126,
			"count":5616,
			"type":"VEC2"
		},
		{
			"bufferView":3,
			"componentType":5126,
			"count":5616,
			"type":"VEC4"
		},
		{
			"bufferView":4,
			"componentType":5123,
			"count":8424,
			"type":"SCALAR"
		}
	],
	"bufferViews":[
		{
			"buffer":0,
			"byteLength":67392,
			"byteOffset":0,
			"target":34962
		},
		{
			"buffer":0,
			"byteLength":67392,
			"byteOffset":67392,
			"target":34962
		},
		{
			"buffer":0,
			"byteLength":44928,
			"byteOffset":134784,
			"target":34962
		},
		{
			"buffer":0,
			"byteLength":89856,
			"byteOffset":179712,
			"target":34962
		},
		{
			"buffer":0,
			"byteLength":16848,
			"byteOffset":269568,
			"target":34963
		}
	],
	"samplers":[
		{
			"magFilter":9729,
			"minFilter":9987
		}
	],
	"buffers":[
		{
			"byteLength":286416,
			"uri":"ghost_road_trace.bin"
		}
	]
}
