{
	"asset":{
		"copyright":"@serufu_yua",
		"generator":"Khronos glTF Blender I/O v3.6.28",
		"version":"2.0"
	},
	"scene":0,
	"scenes":[
		{
			"name":"Scene",
			"nodes":[
				0
			]
		}
	],
	"nodes":[
		{
			"mesh":0,
			"name":"ghots_road.shine.001"
		}
	],
	"meshes":[
		{
			"name":"Cube.100",
			"primitives":[
				{
					"attributes":{
						"POSITION":0,
						"NORMAL":1,
						"TANGENT":2
					},
					"indices":3
				}
			]
		}
	],
	"accessors":[
		{
			"bufferView":0,
			"componentType":5126,
			"count":12032,
			"max":[
				618.0286865234375,
				56.9960823059082,
				345.2599182128906
			],
			"min":[
				-130.9302978515625,
				-5.3810577392578125,
				-229.63233947753906
			],
			"type":"VEC3"
		},
		{
			"bufferView":1,
			"componentType":5126,
			"count":12032,
			"type":"VEC3"
		},
		{
			"bufferView":2,
			"componentType":5126,
			"count":12032,
			"type":"VEC4"
		},
		{
			"bufferView":3,
			"componentType":5123,
			"count":18048,
			"type":"SCALAR"
		}
	],
	"bufferViews":[
		{
			"buffer":0,
			"byteLength":144384,
			"byteOffset":0,
			"target":34962
		},
		{
			"buffer":0,
			"byteLength":144384,
			"byteOffset":144384,
			"target":34962
		},
		{
			"buffer":0,
			"byteLength":192512,
			"byteOffset":288768,
			"target":34962
		},
		{
			"buffer":0,
			"byteLength":36096,
			"byteOffset":481280,
			"target":34963
		}
	],
	"buffers":[
		{
			"byteLength":517376,
			"uri":"ghost_road_shine.bin"
		}
	]
}
