{
	"asset":{
		"copyright":"@serufu_yua",
		"generator":"Khronos glTF Blender I/O v3.6.28",
		"version":"2.0"
	},
	"scene":0,
	"scenes":[
		{
			"name":"Scene",
			"nodes":[
				0,
				1
			]
		}
	],
	"nodes":[
		{
			"mesh":0,
			"name":"lobby.collider",
			"translation":[
				0,
				12,
				127.90205383300781
			]
		},
		{
			"mesh":1,
			"name":"ghots_road.collider.001"
		}
	],
	"meshes":[
		{
			"name":"Cube.103",
			"primitives":[
				{
					"attributes":{
						"POSITION":0,
						"NORMAL":1
					},
					"indices":2
				}
			]
		},
		{
			"name":"Cube.105",
			"primitives":[
				{
					"attributes":{
						"POSITION":3,
						"NORMAL":4
					},
					"indices":5
				}
			]
		}
	],
	"accessors":[
		{
			"bufferView":0,
			"componentType":5126,
			"count":344,
			"max":[
				1.4799904823303223,
				12.343114852905273,
				24.101348876953125
			],
			"min":[
				-20.276479721069336,
				0.30283451080322266,
				0.5979461669921875
			],
			"type":"VEC3"
		},
		{
			"bufferView":1,
			"componentType":5126,
			"count":344,
			"type":"VEC3"
		},
		{
			"bufferView":2,
			"componentType":5123,
			"count":660,
			"type":"SCALAR"
		},
		{
			"bufferView":3,
			"componentType":5126,
			"count":11984,
			"max":[
				618.0286865234375,
				67.8802719116211,
				345.2585754394531
			],
			"min":[
				-130.9302978515625,
				-5.3810577392578125,
				-229.63233947753906
			],
			"type":"VEC3"
		},
		{
			"bufferView":4,
			"componentType":5126,
			"count":11984,
			"type":"VEC3"
		},
		{
			"bufferView":5,
			"componentType":5123,
			"count":18018,
			"type":"SCALAR"
		}
	],
	"bufferViews":[
		{
			"buffer":0,
			"byteLength":4128,
			"byteOffset":0,
			"target":34962
		},
		{
			"buffer":0,
			"byteLength":4128,
			"byteOffset":4128,
			"target":34962
		},
		{
			"buffer":0,
			"byteLength":1320,
			"byteOffset":8256,
			"target":34963
		},
		{
			"buffer":0,
			"byteLength":143808,
			"byteOffset":9576,
			"target":34962
		},
		{
			"buffer":0,
			"byteLength":143808,
			"byteOffset":153384,
			"target":34962
		},
		{
			"buffer":0,
			"byteLength":36036,
			"byteOffset":297192,
			"target":34963
		}
	],
	"buffers":[
		{
			"byteLength":333228,
			"uri":"spaceship_broken_collider.bin"
		}
	]
}
