{
	"asset":{
		"copyright":"@serufu_yua",
		"generator":"Khronos glTF Blender I/O v3.6.28",
		"version":"2.0"
	},
	"extensionsUsed":[
		"KHR_materials_specular",
		"KHR_materials_ior"
	],
	"scene":0,
	"scenes":[
		{
			"name":"Scene",
			"nodes":[
				13
			]
		}
	],
	"nodes":[
		{
			"mesh":0,
			"name":"BezierCurve.008",
			"translation":[
				-14,
				1,
				0
			]
		},
		{
			"mesh":1,
			"name":"BezierCurve.009",
			"translation":[
				-10,
				1,
				0
			]
		},
		{
			"mesh":2,
			"name":"BezierCurve.010",
			"translation":[
				-6,
				1,
				0
			]
		},
		{
			"mesh":3,
			"name":"BezierCurve.011",
			"translation":[
				-2,
				1,
				0
			]
		},
		{
			"name":"BezierCurve.012",
			"translation":[
				2,
				1,
				0
			]
		},
		{
			"mesh":4,
			"name":"BezierCurve.013",
			"translation":[
				6,
				1,
				0
			]
		},
		{
			"mesh":5,
			"name":"BezierCurve.014",
			"translation":[
				10,
				1,
				0
			]
		},
		{
			"mesh":6,
			"name":"BezierCurve.015",
			"translation":[
				14,
				1,
				0
			]
		},
		{
			"mesh":7,
			"name":"Cube.001",
			"translation":[
				0,
				1,
				7
			]
		},
		{
			"mesh":8,
			"name":"Cube.002",
			"translation":[
				0,
				1,
				3.5
			]
		},
		{
			"mesh":9,
			"name":"Cube.003",
			"translation":[
				0,
				1,
				0
			]
		},
		{
			"mesh":10,
			"name":"Cube.004",
			"translation":[
				0,
				1,
				-3.5
			]
		},
		{
			"mesh":11,
			"name":"Cube.005",
			"translation":[
				0,
				1,
				-7
			]
		},
		{
			"children":[
				0,
				1,
				2,
				3,
				4,
				5,
				6,
				7,
				8,
				9,
				10,
				11,
				12
			],
			"mesh":12,
			"name":"Plane.004"
		}
	],
	"materials":[
		{
			"doubleSided":true,
			"extensions":{
				"KHR_materials_specular":{
					"specularColorFactor":[
						0.18324130747023457,
						0.18324130747023457,
						0.18324130747023457
					]
				},
				"KHR_materials_ior":{
					"ior":1.4500000476837158
				}
			},
			"name":"Metal.Armature",
			"normalTexture":{
				"index":0
			},
			"pbrMetallicRoughness":{
				"baseColorFactor":[
					0.030953455716371536,
					0.030953455716371536,
					0.030953455716371536,
					1
				],
				"metallicFactor":0.9545454978942871,
				"roughnessFactor":0.9636363387107849
			}
		},
		{
			"doubleSided":true,
			"name":"Hex_Panels",
			"normalTexture":{
				"index":1
			},
			"pbrMetallicRoughness":{
				"baseColorTexture":{
					"index":2
				},
				"metallicFactor":0.2863636314868927,
				"roughnessFactor":0.23636364936828613
			}
		},
		{
			"doubleSided":true,
			"name":"Metal.Dark3.001",
			"pbrMetallicRoughness":{
				"baseColorFactor":[
					0.20726053416728973,
					0.20726053416728973,
					0.20726053416728973,
					1
				],
				"metallicFactor":0.18636363744735718,
				"roughnessFactor":0.9409090876579285
			}
		}
	],
	"meshes":[
		{
			"name":"BezierCurve.001",
			"primitives":[
				{
					"attributes":{
						"POSITION":0,
						"NORMAL":1,
						"TEXCOORD_0":2,
						"TANGENT":3
					},
					"indices":4,
					"material":0
				}
			]
		},
		{
			"name":"BezierCurve.002",
			"primitives":[
				{
					"attributes":{
						"POSITION":5,
						"NORMAL":6,
						"TEXCOORD_0":7,
						"TANGENT":8
					},
					"indices":4,
					"material":0
				}
			]
		},
		{
			"name":"BezierCurve.003",
			"primitives":[
				{
					"attributes":{
						"POSITION":9,
						"NORMAL":10,
						"TEXCOORD_0":11,
						"TANGENT":12
					},
					"indices":4,
					"material":0
				}
			]
		},
		{
			"name":"BezierCurve.004",
			"primitives":[
				{
					"attributes":{
						"POSITION":13,
						"NORMAL":14,
						"TEXCOORD_0":15,
						"TANGENT":16
					},
					"indices":4,
					"material":0
				}
			]
		},
		{
			"name":"BezierCurve.006",
			"primitives":[
				{
					"attributes":{
						"POSITION":17,
						"NORMAL":18,
						"TEXCOORD_0":19,
						"TANGENT":20
					},
					"indices":4,
					"material":0
				}
			]
		},
		{
			"name":"BezierCurve.007",
			"primitives":[
				{
					"attributes":{
						"POSITION":21,
						"NORMAL":22,
						"TEXCOORD_0":23,
						"TANGENT":24
					},
					"indices":4,
					"material":0
				}
			]
		},
		{
			"name":"BezierCurve.122",
			"primitives":[
				{
					"attributes":{
						"POSITION":25,
						"NORMAL":26,
						"TEXCOORD_0":27,
						"TANGENT":28
					},
					"indices":4,
					"material":0
				}
			]
		},
		{
			"name":"Cube.089",
			"primitives":[
				{
					"attributes":{
						"POSITION":29,
						"NORMAL":30,
						"TEXCOORD_0":31,
						"TANGENT":32
					},
					"indices":33,
					"material":0
				}
			]
		},
		{
			"name":"Cube.092",
			"primitives":[
				{
					"attributes":{
						"POSITION":34,
						"NORMAL":35,
						"TEXCOORD_0":36,
						"TANGENT":37
					},
					"indices":38,
					"material":0
				}
			]
		},
		{
			"name":"Cube.093",
			"primitives":[
				{
					"attributes":{
						"POSITION":39,
						"NORMAL":40,
						"TEXCOORD_0":41,
						"TANGENT":42
					},
					"indices":43,
					"material":0
				}
			]
		},
		{
			"name":"Cube.094",
			"primitives":[
				{
					"attributes":{
						"POSITION":44,
						"NORMAL":45,
						"TEXCOORD_0":46,
						"TANGENT":47
					},
					"indices":48,
					"material":0
				}
			]
		},
		{
			"name":"Cube.095",
			"primitives":[
				{
					"attributes":{
						"POSITION":49,
						"NORMAL":50,
						"TEXCOORD_0":51,
						"TANGENT":52
					},
					"indices":53,
					"material":0
				}
			]
		},
		{
			"name":"Plane.009",
			"primitives":[
				{
					"attributes":{
						"COLOR_0":54,
						"POSITION":55,
						"NORMAL":56,
						"TEXCOORD_0":57,
						"TEXCOORD_1":58
					},
					"indices":59,
					"material":1
				},
				{
					"attributes":{
						"COLOR_0":60,
						"POSITION":61,
						"NORMAL":62,
						"TEXCOORD_0":63,
						"TEXCOORD_1":64
					},
					"indices":65,
					"material":2
				}
			]
		}
	],
	"textures":[
		{
			"sampler":0,
			"source":0
		},
		{
			"sampler":0,
			"source":1
		},
		{
			"sampler":0,
			"source":2
		}
	],
	"images":[
		{
			"mimeType":"image/png",
			"name":"metal_dirt_n",
			"uri":"metal_dirt_n.png"
		},
		{
			"mimeType":"image/png",
			"name":"hex_plates_n",
			"uri":"hex_plates_n.png"
		},
		{
			"mimeType":"image/png",
			"name":"hex_plates",
			"uri":"hex_plates.png"
		}
	],
	"accessors":[
		{
			"bufferView":0,
			"componentType":5126,
			"count":49,
			"max":[
				2.2482566833496094,
				4.896284580230713,
				13.092721939086914
			],
			"min":[
				-0.6346187591552734,
				-1.5801360607147217,
				-9.188106536865234
			],
			"type":"VEC3"
		},
		{
			"bufferView":1,
			"componentType":5126,
			"count":49,
			"type":"VEC3"
		},
		{
			"bufferView":2,
			"componentType":5126,
			"count":49,
			"type":"VEC2"
		},
		{
			"bufferView":3,
			"componentType":5126,
			"count":49,
			"type":"VEC4"
		},
		{
			"bufferView":4,
			"componentType":5123,
			"count":216,
			"type":"SCALAR"
		},
		{
			"bufferView":5,
			"componentType":5126,
			"count":49,
			"max":[
				1.340317726135254,
				2.884653329849243,
				11.341643333435059
			],
			"min":[
				-0.9850063323974609,
				-0.09524606168270111,
				-8.686144828796387
			],
			"type":"VEC3"
		},
		{
			"bufferView":6,
			"componentType":5126,
			"count":49,
			"type":"VEC3"
		},
		{
			"bufferView":7,
			"componentType":5126,
			"count":49,
			"type":"VEC2"
		},
		{
			"bufferView":8,
			"componentType":5126,
			"count":49,
			"type":"VEC4"
		},
		{
			"bufferView":9,
			"componentType":5126,
			"count":49,
			"max":[
				0.756192684173584,
				1.3167471885681152,
				9.922483444213867
			],
			"min":[
				-1.1355371475219727,
				0.13457362353801727,
				-8.8660888671875
			],
			"type":"VEC3"
		},
		{
			"bufferView":10,
			"componentType":5126,
			"count":49,
			"type":"VEC3"
		},
		{
			"bufferView":11,
			"componentType":5126,
			"count":49,
			"type":"VEC2"
		},
		{
			"bufferView":12,
			"componentType":5126,
			"count":49,
			"type":"VEC4"
		},
		{
			"bufferView":13,
			"componentType":5126,
			"count":49,
			"max":[
				0.489068865776062,
				3.138773202896118,
				9.150797843933105
			],
			"min":[
				-1.1752707958221436,
				-0.23800905048847198,
				-8.698211669921875
			],
			"type":"VEC3"
		},
		{
			"bufferView":14,
			"componentType":5126,
			"count":49,
			"type":"VEC3"
		},
		{
			"bufferView":15,
			"componentType":5126,
			"count":49,
			"type":"VEC2"
		},
		{
			"bufferView":16,
			"componentType":5126,
			"count":49,
			"type":"VEC4"
		},
		{
			"bufferView":17,
			"componentType":5126,
			"count":49,
			"max":[
				0.651064395904541,
				4.04664945602417,
				9.466885566711426
			],
			"min":[
				-0.8173236846923828,
				0.017544418573379517,
				-8.76574993133545
			],
			"type":"VEC3"
		},
		{
			"bufferView":18,
			"componentType":5126,
			"count":49,
			"type":"VEC3"
		},
		{
			"bufferView":19,
			"componentType":5126,
			"count":49,
			"type":"VEC2"
		},
		{
			"bufferView":20,
			"componentType":5126,
			"count":49,
			"type":"VEC4"
		},
		{
			"bufferView":21,
			"componentType":5126,
			"count":49,
			"max":[
				2.8272180557250977,
				2.8260321617126465,
				10.919361114501953
			],
			"min":[
				-0.9811439514160156,
				1.333216905593872,
				-7.377254486083984
			],
			"type":"VEC3"
		},
		{
			"bufferView":22,
			"componentType":5126,
			"count":49,
			"type":"VEC3"
		},
		{
			"bufferView":23,
			"componentType":5126,
			"count":49,
			"type":"VEC2"
		},
		{
			"bufferView":24,
			"componentType":5126,
			"count":49,
			"type":"VEC4"
		},
		{
			"bufferView":25,
			"componentType":5126,
			"count":49,
			"max":[
				3.828767776489258,
				4.783629894256592,
				13.046234130859375
			],
			"min":[
				-1.9762439727783203,
				3.436296224594116,
				-4.661258697509766
			],
			"type":"VEC3"
		},
		{
			"bufferView":26,
			"componentType":5126,
			"count":49,
			"type":"VEC3"
		},
		{
			"bufferView":27,
			"componentType":5126,
			"count":49,
			"type":"VEC2"
		},
		{
			"bufferView":28,
			"componentType":5126,
			"count":49,
			"type":"VEC4"
		},
		{
			"bufferView":29,
			"componentType":5126,
			"count":88,
			"max":[
				16.230438232421875,
				6.896193027496338,
				6.398215293884277
			],
			"min":[
				-16.208215713500977,
				-0.5363759994506836,
				-0.3353234529495239
			],
			"type":"VEC3"
		},
		{
			"bufferView":30,
			"componentType":5126,
			"count":88,
			"type":"VEC3"
		},
		{
			"bufferView":31,
			"componentType":5126,
			"count":88,
			"type":"VEC2"
		},
		{
			"bufferView":32,
			"componentType":5126,
			"count":88,
			"type":"VEC4"
		},
		{
			"bufferView":33,
			"componentType":5123,
			"count":132,
			"type":"SCALAR"
		},
		{
			"bufferView":34,
			"componentType":5126,
			"count":88,
			"max":[
				17.416799545288086,
				6.669897079467773,
				6.608119010925293
			],
			"min":[
				-18.13161849975586,
				-0.4957667887210846,
				-0.4148280620574951
			],
			"type":"VEC3"
		},
		{
			"bufferView":35,
			"componentType":5126,
			"count":88,
			"type":"VEC3"
		},
		{
			"bufferView":36,
			"componentType":5126,
			"count":88,
			"type":"VEC2"
		},
		{
			"bufferView":37,
			"componentType":5126,
			"count":88,
			"type":"VEC4"
		},
		{
			"bufferView":38,
			"componentType":5123,
			"count":132,
			"type":"SCALAR"
		},
		{
			"bufferView":39,
			"componentType":5126,
			"count":88,
			"max":[
				18.603160858154297,
				6.8033576011657715,
				6.818022727966309
			],
			"min":[
				-18.385387420654297,
				-1.3344736099243164,
				-0.548180103302002
			],
			"type":"VEC3"
		},
		{
			"bufferView":40,
			"componentType":5126,
			"count":88,
			"type":"VEC3"
		},
		{
			"bufferView":41,
			"componentType":5126,
			"count":88,
			"type":"VEC2"
		},
		{
			"bufferView":42,
			"componentType":5126,
			"count":88,
			"type":"VEC4"
		},
		{
			"bufferView":43,
			"componentType":5123,
			"count":132,
			"type":"SCALAR"
		},
		{
			"bufferView":44,
			"componentType":5126,
			"count":88,
			"max":[
				19.78952407836914,
				6.9368181228637695,
				7.027925491333008
			],
			"min":[
				-16.49015998840332,
				-3.3556580543518066,
				-2.960651397705078
			],
			"type":"VEC3"
		},
		{
			"bufferView":45,
			"componentType":5126,
			"count":88,
			"type":"VEC3"
		},
		{
			"bufferView":46,
			"componentType":5126,
			"count":88,
			"type":"VEC2"
		},
		{
			"bufferView":47,
			"componentType":5126,
			"count":88,
			"type":"VEC4"
		},
		{
			"bufferView":48,
			"componentType":5123,
			"count":132,
			"type":"SCALAR"
		},
		{
			"bufferView":49,
			"componentType":5126,
			"count":88,
			"max":[
				20.97588539123535,
				7.070279121398926,
				7.237829208374023
			],
			"min":[
				-16.229738235473633,
				-2.759428024291992,
				-2.3322715759277344
			],
			"type":"VEC3"
		},
		{
			"bufferView":50,
			"componentType":5126,
			"count":88,
			"type":"VEC3"
		},
		{
			"bufferView":51,
			"componentType":5126,
			"count":88,
			"type":"VEC2"
		},
		{
			"bufferView":52,
			"componentType":5126,
			"count":88,
			"type":"VEC4"
		},
		{
			"bufferView":53,
			"componentType":5123,
			"count":132,
			"type":"SCALAR"
		},
		{
			"bufferView":54,
			"componentType":5126,
			"count":116,
			"type":"VEC4"
		},
		{
			"bufferView":55,
			"componentType":5126,
			"count":116,
			"max":[
				16.756635665893555,
				5.250634670257568,
				11.982857704162598
			],
			"min":[
				-15.595232963562012,
				-1.289222240447998,
				-12.075618743896484
			],
			"type":"VEC3"
		},
		{
			"bufferView":56,
			"componentType":5126,
			"count":116,
			"type":"VEC3"
		},
		{
			"bufferView":57,
			"componentType":5126,
			"count":116,
			"type":"VEC2"
		},
		{
			"bufferView":58,
			"componentType":5126,
			"count":116,
			"type":"VEC2"
		},
		{
			"bufferView":59,
			"componentType":5123,
			"count":396,
			"type":"SCALAR"
		},
		{
			"bufferView":60,
			"componentType":5126,
			"count":174,
			"type":"VEC4"
		},
		{
			"bufferView":61,
			"componentType":5126,
			"count":174,
			"max":[
				16.756635665893555,
				5.250634670257568,
				11.982857704162598
			],
			"min":[
				-15.595232963562012,
				-1.289222240447998,
				-12.075618743896484
			],
			"type":"VEC3"
		},
		{
			"bufferView":62,
			"componentType":5126,
			"count":174,
			"type":"VEC3"
		},
		{
			"bufferView":63,
			"componentType":5126,
			"count":174,
			"type":"VEC2"
		},
		{
			"bufferView":64,
			"componentType":5126,
			"count":174,
			"type":"VEC2"
		},
		{
			"bufferView":65,
			"componentType":5123,
			"count":288,
			"type":"SCALAR"
		}
	],
	"bufferViews":[
		{
			"buffer":0,
			"byteLength":588,
			"byteOffset":0,
			"target":34962
		},
		{
			"buffer":0,
			"byteLength":588,
			"byteOffset":588,
			"target":34962
		},
		{
			"buffer":0,
			"byteLength":392,
			"byteOffset":1176,
			"target":34962
		},
		{
			"buffer":0,
			"byteLength":784,
			"byteOffset":1568,
			"target":34962
		},
		{
			"buffer":0,
			"byteLength":432,
			"byteOffset":2352,
			"target":34963
		},
		{
			"buffer":0,
			"byteLength":588,
			"byteOffset":2784,
			"target":34962
		},
		{
			"buffer":0,
			"byteLength":588,
			"byteOffset":3372,
			"target":34962
		},
		{
			"buffer":0,
			"byteLength":392,
			"byteOffset":3960,
			"target":34962
		},
		{
			"buffer":0,
			"byteLength":784,
			"byteOffset":4352,
			"target":34962
		},
		{
			"buffer":0,
			"byteLength":588,
			"byteOffset":5136,
			"target":34962
		},
		{
			"buffer":0,
			"byteLength":588,
			"byteOffset":5724,
			"target":34962
		},
		{
			"buffer":0,
			"byteLength":392,
			"byteOffset":6312,
			"target":34962
		},
		{
			"buffer":0,
			"byteLength":784,
			"byteOffset":6704,
			"target":34962
		},
		{
			"buffer":0,
			"byteLength":588,
			"byteOffset":7488,
			"target":34962
		},
		{
			"buffer":0,
			"byteLength":588,
			"byteOffset":8076,
			"target":34962
		},
		{
			"buffer":0,
			"byteLength":392,
			"byteOffset":8664,
			"target":34962
		},
		{
			"buffer":0,
			"byteLength":784,
			"byteOffset":9056,
			"target":34962
		},
		{
			"buffer":0,
			"byteLength":588,
			"byteOffset":9840,
			"target":34962
		},
		{
			"buffer":0,
			"byteLength":588,
			"byteOffset":10428,
			"target":34962
		},
		{
			"buffer":0,
			"byteLength":392,
			"byteOffset":11016,
			"target":34962
		},
		{
			"buffer":0,
			"byteLength":784,
			"byteOffset":11408,
			"target":34962
		},
		{
			"buffer":0,
			"byteLength":588,
			"byteOffset":12192,
			"target":34962
		},
		{
			"buffer":0,
			"byteLength":588,
			"byteOffset":12780,
			"target":34962
		},
		{
			"buffer":0,
			"byteLength":392,
			"byteOffset":13368,
			"target":34962
		},
		{
			"buffer":0,
			"byteLength":784,
			"byteOffset":13760,
			"target":34962
		},
		{
			"buffer":0,
			"byteLength":588,
			"byteOffset":14544,
			"target":34962
		},
		{
			"buffer":0,
			"byteLength":588,
			"byteOffset":15132,
			"target":34962
		},
		{
			"buffer":0,
			"byteLength":392,
			"byteOffset":15720,
			"target":34962
		},
		{
			"buffer":0,
			"byteLength":784,
			"byteOffset":16112,
			"target":34962
		},
		{
			"buffer":0,
			"byteLength":1056,
			"byteOffset":16896,
			"target":34962
		},
		{
			"buffer":0,
			"byteLength":1056,
			"byteOffset":17952,
			"target":34962
		},
		{
			"buffer":0,
			"byteLength":704,
			"byteOffset":19008,
			"target":34962
		},
		{
			"buffer":0,
			"byteLength":1408,
			"byteOffset":19712,
			"target":34962
		},
		{
			"buffer":0,
			"byteLength":264,
			"byteOffset":21120,
			"target":34963
		},
		{
			"buffer":0,
			"byteLength":1056,
			"byteOffset":21384,
			"target":34962
		},
		{
			"buffer":0,
			"byteLength":1056,
			"byteOffset":22440,
			"target":34962
		},
		{
			"buffer":0,
			"byteLength":704,
			"byteOffset":23496,
			"target":34962
		},
		{
			"buffer":0,
			"byteLength":1408,
			"byteOffset":24200,
			"target":34962
		},
		{
			"buffer":0,
			"byteLength":264,
			"byteOffset":25608,
			"target":34963
		},
		{
			"buffer":0,
			"byteLength":1056,
			"byteOffset":25872,
			"target":34962
		},
		{
			"buffer":0,
			"byteLength":1056,
			"byteOffset":26928,
			"target":34962
		},
		{
			"buffer":0,
			"byteLength":704,
			"byteOffset":27984,
			"target":34962
		},
		{
			"buffer":0,
			"byteLength":1408,
			"byteOffset":28688,
			"target":34962
		},
		{
			"buffer":0,
			"byteLength":264,
			"byteOffset":30096,
			"target":34963
		},
		{
			"buffer":0,
			"byteLength":1056,
			"byteOffset":30360,
			"target":34962
		},
		{
			"buffer":0,
			"byteLength":1056,
			"byteOffset":31416,
			"target":34962
		},
		{
			"buffer":0,
			"byteLength":704,
			"byteOffset":32472,
			"target":34962
		},
		{
			"buffer":0,
			"byteLength":1408,
			"byteOffset":33176,
			"target":34962
		},
		{
			"buffer":0,
			"byteLength":264,
			"byteOffset":34584,
			"target":34963
		},
		{
			"buffer":0,
			"byteLength":1056,
			"byteOffset":34848,
			"target":34962
		},
		{
			"buffer":0,
			"byteLength":1056,
			"byteOffset":35904,
			"target":34962
		},
		{
			"buffer":0,
			"byteLength":704,
			"byteOffset":36960,
			"target":34962
		},
		{
			"buffer":0,
			"byteLength":1408,
			"byteOffset":37664,
			"target":34962
		},
		{
			"buffer":0,
			"byteLength":264,
			"byteOffset":39072,
			"target":34963
		},
		{
			"buffer":0,
			"byteLength":1856,
			"byteOffset":39336,
			"target":34962
		},
		{
			"buffer":0,
			"byteLength":1392,
			"byteOffset":41192,
			"target":34962
		},
		{
			"buffer":0,
			"byteLength":1392,
			"byteOffset":42584,
			"target":34962
		},
		{
			"buffer":0,
			"byteLength":928,
			"byteOffset":43976,
			"target":34962
		},
		{
			"buffer":0,
			"byteLength":928,
			"byteOffset":44904,
			"target":34962
		},
		{
			"buffer":0,
			"byteLength":792,
			"byteOffset":45832,
			"target":34963
		},
		{
			"buffer":0,
			"byteLength":2784,
			"byteOffset":46624,
			"target":34962
		},
		{
			"buffer":0,
			"byteLength":2088,
			"byteOffset":49408,
			"target":34962
		},
		{
			"buffer":0,
			"byteLength":2088,
			"byteOffset":51496,
			"target":34962
		},
		{
			"buffer":0,
			"byteLength":1392,
			"byteOffset":53584,
			"target":34962
		},
		{
			"buffer":0,
			"byteLength":1392,
			"byteOffset":54976,
			"target":34962
		},
		{
			"buffer":0,
			"byteLength":576,
			"byteOffset":56368,
			"target":34963
		}
	],
	"samplers":[
		{
			"magFilter":9729,
			"minFilter":9987
		}
	],
	"buffers":[
		{
			"byteLength":56944,
			"uri":"spaceship_broken_part01.bin"
		}
	]
}
