{
	"asset":{
		"copyright":"@serufu_yua",
		"generator":"Khronos glTF Blender I/O v3.6.28",
		"version":"2.0"
	},
	"extensionsUsed":[
		"KHR_materials_specular",
		"KHR_materials_ior"
	],
	"scene":0,
	"scenes":[
		{
			"name":"Scene",
			"nodes":[
				8
			]
		}
	],
	"nodes":[
		{
			"mesh":0,
			"name":"BezierCurve",
			"rotation":[
				-0.021067963913083076,
				0,
				0.7082948684692383,
				0.7056022882461548
			],
			"translation":[
				0.019351959228515625,
				0.8000106811523438,
				-0.8712921142578125
			]
		},
		{
			"mesh":1,
			"name":"BezierCurve.001",
			"rotation":[
				-0.021067963913083076,
				0,
				0.7082948684692383,
				0.7056022882461548
			],
			"translation":[
				0.030651092529296875,
				-0.6550483703613281,
				-1.043060302734375
			]
		},
		{
			"mesh":2,
			"name":"BezierCurve.002",
			"rotation":[
				-0.019904576241970062,
				0.001217183656990528,
				0.7099474668502808,
				0.7039722800254822
			],
			"translation":[
				-0.0203857421875,
				-0.6483078002929688,
				0.8826980590820312
			]
		},
		{
			"mesh":3,
			"name":"BezierCurve.003",
			"rotation":[
				-0.019905000925064087,
				0.0012168498942628503,
				0.7099474668502808,
				0.7039722204208374
			],
			"translation":[
				-0.041141510009765625,
				0.6855506896972656,
				1.2232208251953125
			]
		},
		{
			"mesh":4,
			"name":"BezierCurve.004",
			"rotation":[
				-0.019904620945453644,
				0.0012172269634902477,
				0.7099474668502808,
				0.7039722800254822
			],
			"translation":[
				-0.001316070556640625,
				-0.008266448974609375,
				-0.05744171142578125
			]
		},
		{
			"mesh":5,
			"name":"BezierCurve.005",
			"rotation":[
				-0.01990457810461521,
				0.0012172696879133582,
				0.7099474668502808,
				0.7039722800254822
			],
			"translation":[
				-0.034351348876953125,
				0.0017852783203125,
				1.1949844360351562
			]
		},
		{
			"mesh":6,
			"name":"BezierCurve.006",
			"rotation":[
				-0.0199042446911335,
				0.0012176106683909893,
				0.7099474668502808,
				0.7039722800254822
			],
			"translation":[
				-0.0565338134765625,
				1.2014389038085938,
				1.63482666015625
			]
		},
		{
			"mesh":7,
			"name":"BezierCurve.007",
			"rotation":[
				-0.021068047732114792,
				0,
				0.7082949280738831,
				0.70560222864151
			],
			"translation":[
				0.0392303466796875,
				0.12176895141601562,
				-1.442596435546875
			]
		},
		{
			"children":[
				0,
				1,
				2,
				3,
				4,
				5,
				6,
				7
			],
			"mesh":8,
			"name":"Ship.Body.Whole.002"
		}
	],
	"materials":[
		{
			"doubleSided":true,
			"extensions":{
				"KHR_materials_specular":{
					"specularColorFactor":[
						0.18324130747023457,
						0.18324130747023457,
						0.18324130747023457
					]
				},
				"KHR_materials_ior":{
					"ior":1.4500000476837158
				}
			},
			"name":"Metal.Armature",
			"normalTexture":{
				"index":0
			},
			"pbrMetallicRoughness":{
				"baseColorFactor":[
					0.030953455716371536,
					0.030953455716371536,
					0.030953455716371536,
					1
				],
				"metallicFactor":0.9545454978942871,
				"roughnessFactor":0.9636363387107849
			}
		},
		{
			"doubleSided":true,
			"name":"Metal.Dark.001",
			"normalTexture":{
				"index":1,
				"texCoord":1
			},
			"pbrMetallicRoughness":{
				"baseColorTexture":{
					"index":2,
					"texCoord":1
				},
				"metallicFactor":0.18636363744735718,
				"roughnessFactor":0.9409090876579285
			}
		},
		{
			"doubleSided":true,
			"name":"Metal.Dark2.001",
			"pbrMetallicRoughness":{
				"baseColorFactor":[
					0.34745657444000244,
					0.34745657444000244,
					0.34745657444000244,
					1
				],
				"metallicFactor":0.18636363744735718,
				"roughnessFactor":0.9409090876579285
			}
		},
		{
			"doubleSided":true,
			"name":"Metal.Dark3.001",
			"pbrMetallicRoughness":{
				"baseColorFactor":[
					0.20726053416728973,
					0.20726053416728973,
					0.20726053416728973,
					1
				],
				"metallicFactor":0.18636363744735718,
				"roughnessFactor":0.9409090876579285
			}
		},
		{
			"doubleSided":true,
			"name":"Metal.Grey.001",
			"pbrMetallicRoughness":{
				"baseColorFactor":[
					0.800000011920929,
					0.800000011920929,
					0.800000011920929,
					1
				],
				"metallicFactor":0.33636364340782166,
				"roughnessFactor":0.5
			}
		},
		{
			"doubleSided":true,
			"emissiveFactor":[
				0.03903240023601651,
				0.21391880831001409,
				0.32000000953674324
			],
			"name":"Blue_Line.001",
			"pbrMetallicRoughness":{
				"baseColorFactor":[
					0.09758099913597107,
					0.5347970128059387,
					0.800000011920929,
					1
				],
				"metallicFactor":0.33636364340782166,
				"roughnessFactor":0.5
			}
		}
	],
	"meshes":[
		{
			"name":"BezierCurve.103",
			"primitives":[
				{
					"attributes":{
						"POSITION":0,
						"NORMAL":1,
						"TEXCOORD_0":2,
						"TANGENT":3
					},
					"indices":4,
					"material":0
				}
			]
		},
		{
			"name":"BezierCurve.104",
			"primitives":[
				{
					"attributes":{
						"POSITION":5,
						"NORMAL":6,
						"TEXCOORD_0":7,
						"TANGENT":8
					},
					"indices":9,
					"material":0
				}
			]
		},
		{
			"name":"BezierCurve.115",
			"primitives":[
				{
					"attributes":{
						"POSITION":10,
						"NORMAL":11,
						"TEXCOORD_0":12,
						"TANGENT":13
					},
					"indices":14,
					"material":0
				}
			]
		},
		{
			"name":"BezierCurve.116",
			"primitives":[
				{
					"attributes":{
						"POSITION":15,
						"NORMAL":16,
						"TEXCOORD_0":17,
						"TANGENT":18
					},
					"indices":19,
					"material":0
				}
			]
		},
		{
			"name":"BezierCurve.117",
			"primitives":[
				{
					"attributes":{
						"POSITION":20,
						"NORMAL":21,
						"TEXCOORD_0":22,
						"TANGENT":23
					},
					"indices":24,
					"material":0
				}
			]
		},
		{
			"name":"BezierCurve.118",
			"primitives":[
				{
					"attributes":{
						"POSITION":25,
						"NORMAL":26,
						"TEXCOORD_0":27,
						"TANGENT":28
					},
					"indices":29,
					"material":0
				}
			]
		},
		{
			"name":"BezierCurve.119",
			"primitives":[
				{
					"attributes":{
						"POSITION":30,
						"NORMAL":31,
						"TEXCOORD_0":32,
						"TANGENT":33
					},
					"indices":34,
					"material":0
				}
			]
		},
		{
			"name":"BezierCurve.120",
			"primitives":[
				{
					"attributes":{
						"POSITION":35,
						"NORMAL":36,
						"TEXCOORD_0":37,
						"TANGENT":38
					},
					"indices":39,
					"material":0
				}
			]
		},
		{
			"name":"Cube.091",
			"primitives":[
				{
					"attributes":{
						"COLOR_0":40,
						"POSITION":41,
						"NORMAL":42,
						"TEXCOORD_0":43,
						"TEXCOORD_1":44,
						"TEXCOORD_2":45
					},
					"indices":46,
					"material":1
				},
				{
					"attributes":{
						"COLOR_0":47,
						"POSITION":48,
						"NORMAL":49,
						"TEXCOORD_0":50,
						"TEXCOORD_1":51,
						"TEXCOORD_2":52
					},
					"indices":53,
					"material":2
				},
				{
					"attributes":{
						"COLOR_0":54,
						"POSITION":55,
						"NORMAL":56,
						"TEXCOORD_0":57,
						"TEXCOORD_1":58,
						"TEXCOORD_2":59
					},
					"indices":60,
					"material":3
				},
				{
					"attributes":{
						"COLOR_0":61,
						"POSITION":62,
						"NORMAL":63,
						"TEXCOORD_0":64,
						"TEXCOORD_1":65,
						"TEXCOORD_2":66
					},
					"indices":67,
					"material":4
				},
				{
					"attributes":{
						"COLOR_0":68,
						"POSITION":69,
						"NORMAL":70,
						"TEXCOORD_0":71,
						"TEXCOORD_1":72,
						"TEXCOORD_2":73
					},
					"indices":74,
					"material":5
				}
			]
		}
	],
	"textures":[
		{
			"sampler":0,
			"source":0
		},
		{
			"sampler":0,
			"source":1
		},
		{
			"sampler":0,
			"source":2
		}
	],
	"images":[
		{
			"mimeType":"image/png",
			"name":"metal_dirt_n",
			"uri":"metal_dirt_n.png"
		},
		{
			"mimeType":"image/png",
			"name":"sqr_plates_n",
			"uri":"sqr_plates_n.png"
		},
		{
			"mimeType":"image/png",
			"name":"sqr_plates",
			"uri":"sqr_plates.png"
		}
	],
	"accessors":[
		{
			"bufferView":0,
			"componentType":5126,
			"count":47,
			"max":[
				0.10992363840341568,
				2.012422561645508,
				0.1513132005929947
			],
			"min":[
				-0.37645018100738525,
				-0.1057090237736702,
				-0.15168397128582
			],
			"type":"VEC3"
		},
		{
			"bufferView":1,
			"componentType":5126,
			"count":47,
			"type":"VEC3"
		},
		{
			"bufferView":2,
			"componentType":5126,
			"count":47,
			"type":"VEC2"
		},
		{
			"bufferView":3,
			"componentType":5126,
			"count":47,
			"type":"VEC4"
		},
		{
			"bufferView":4,
			"componentType":5123,
			"count":168,
			"type":"SCALAR"
		},
		{
			"bufferView":5,
			"componentType":5126,
			"count":193,
			"max":[
				0.10874585062265396,
				1.718985676765442,
				0.10250456631183624
			],
			"min":[
				-0.6318477988243103,
				-0.10630464553833008,
				-0.5469689965248108
			],
			"type":"VEC3"
		},
		{
			"bufferView":6,
			"componentType":5126,
			"count":193,
			"type":"VEC3"
		},
		{
			"bufferView":7,
			"componentType":5126,
			"count":193,
			"type":"VEC2"
		},
		{
			"bufferView":8,
			"componentType":5126,
			"count":193,
			"type":"VEC4"
		},
		{
			"bufferView":9,
			"componentType":5123,
			"count":924,
			"type":"SCALAR"
		},
		{
			"bufferView":10,
			"componentType":5126,
			"count":47,
			"max":[
				0.10357914865016937,
				1.8955744504928589,
				0.2502904534339905
			],
			"min":[
				-0.43967533111572266,
				-0.10624910891056061,
				-0.11403064429759979
			],
			"type":"VEC3"
		},
		{
			"bufferView":11,
			"componentType":5126,
			"count":47,
			"type":"VEC3"
		},
		{
			"bufferView":12,
			"componentType":5126,
			"count":47,
			"type":"VEC2"
		},
		{
			"bufferView":13,
			"componentType":5126,
			"count":47,
			"type":"VEC4"
		},
		{
			"bufferView":14,
			"componentType":5123,
			"count":168,
			"type":"SCALAR"
		},
		{
			"bufferView":15,
			"componentType":5126,
			"count":47,
			"max":[
				0.10117398947477341,
				1.7838932275772095,
				0.6850907802581787
			],
			"min":[
				-0.7409658432006836,
				-0.10631240904331207,
				-0.11499488353729248
			],
			"type":"VEC3"
		},
		{
			"bufferView":16,
			"componentType":5126,
			"count":47,
			"type":"VEC3"
		},
		{
			"bufferView":17,
			"componentType":5126,
			"count":47,
			"type":"VEC2"
		},
		{
			"bufferView":18,
			"componentType":5126,
			"count":47,
			"type":"VEC4"
		},
		{
			"bufferView":19,
			"componentType":5123,
			"count":168,
			"type":"SCALAR"
		},
		{
			"bufferView":20,
			"componentType":5126,
			"count":47,
			"max":[
				0.3851286768913269,
				1.9157270193099976,
				0.22539930045604706
			],
			"min":[
				-0.10979156196117401,
				-0.10559113323688507,
				-0.12017057836055756
			],
			"type":"VEC3"
		},
		{
			"bufferView":21,
			"componentType":5126,
			"count":47,
			"type":"VEC3"
		},
		{
			"bufferView":22,
			"componentType":5126,
			"count":47,
			"type":"VEC2"
		},
		{
			"bufferView":23,
			"componentType":5126,
			"count":47,
			"type":"VEC4"
		},
		{
			"bufferView":24,
			"componentType":5123,
			"count":168,
			"type":"SCALAR"
		},
		{
			"bufferView":25,
			"componentType":5126,
			"count":47,
			"max":[
				0.7098783850669861,
				1.8253142833709717,
				0.0951320081949234
			],
			"min":[
				-0.10908446460962296,
				-0.10581118613481522,
				-0.34816718101501465
			],
			"type":"VEC3"
		},
		{
			"bufferView":26,
			"componentType":5126,
			"count":47,
			"type":"VEC3"
		},
		{
			"bufferView":27,
			"componentType":5126,
			"count":47,
			"type":"VEC2"
		},
		{
			"bufferView":28,
			"componentType":5126,
			"count":47,
			"type":"VEC4"
		},
		{
			"bufferView":29,
			"componentType":5123,
			"count":168,
			"type":"SCALAR"
		},
		{
			"bufferView":30,
			"componentType":5126,
			"count":47,
			"max":[
				0.11008942872285843,
				1.777297854423523,
				0.08956710994243622
			],
			"min":[
				-1.0872160196304321,
				-0.10556593537330627,
				-0.5115373134613037
			],
			"type":"VEC3"
		},
		{
			"bufferView":31,
			"componentType":5126,
			"count":47,
			"type":"VEC3"
		},
		{
			"bufferView":32,
			"componentType":5126,
			"count":47,
			"type":"VEC2"
		},
		{
			"bufferView":33,
			"componentType":5126,
			"count":47,
			"type":"VEC4"
		},
		{
			"bufferView":34,
			"componentType":5123,
			"count":168,
			"type":"SCALAR"
		},
		{
			"bufferView":35,
			"componentType":5126,
			"count":47,
			"max":[
				0.1100921556353569,
				1.8926703929901123,
				0.3753032088279724
			],
			"min":[
				-0.8088949918746948,
				-0.10552938282489777,
				-0.10124832391738892
			],
			"type":"VEC3"
		},
		{
			"bufferView":36,
			"componentType":5126,
			"count":47,
			"type":"VEC3"
		},
		{
			"bufferView":37,
			"componentType":5126,
			"count":47,
			"type":"VEC2"
		},
		{
			"bufferView":38,
			"componentType":5126,
			"count":47,
			"type":"VEC4"
		},
		{
			"bufferView":39,
			"componentType":5123,
			"count":168,
			"type":"SCALAR"
		},
		{
			"bufferView":40,
			"componentType":5126,
			"count":60,
			"type":"VEC4"
		},
		{
			"bufferView":41,
			"componentType":5126,
			"count":60,
			"max":[
				0.058576226234436035,
				3.058673858642578,
				3.6227264404296875
			],
			"min":[
				-1.1403837203979492,
				-2.9654388427734375,
				-3.6918411254882812
			],
			"type":"VEC3"
		},
		{
			"bufferView":42,
			"componentType":5126,
			"count":60,
			"type":"VEC3"
		},
		{
			"bufferView":43,
			"componentType":5126,
			"count":60,
			"type":"VEC2"
		},
		{
			"bufferView":44,
			"componentType":5126,
			"count":60,
			"type":"VEC2"
		},
		{
			"bufferView":45,
			"componentType":5126,
			"count":60,
			"type":"VEC2"
		},
		{
			"bufferView":46,
			"componentType":5123,
			"count":126,
			"type":"SCALAR"
		},
		{
			"bufferView":47,
			"componentType":5126,
			"count":48,
			"type":"VEC4"
		},
		{
			"bufferView":48,
			"componentType":5126,
			"count":48,
			"max":[
				2.0082669258117676,
				3.0684852600097656,
				3.4905624389648438
			],
			"min":[
				-0.6710786819458008,
				-2.9654388427734375,
				-3.5175399780273438
			],
			"type":"VEC3"
		},
		{
			"bufferView":49,
			"componentType":5126,
			"count":48,
			"type":"VEC3"
		},
		{
			"bufferView":50,
			"componentType":5126,
			"count":48,
			"type":"VEC2"
		},
		{
			"bufferView":51,
			"componentType":5126,
			"count":48,
			"type":"VEC2"
		},
		{
			"bufferView":52,
			"componentType":5126,
			"count":48,
			"type":"VEC2"
		},
		{
			"bufferView":53,
			"componentType":5123,
			"count":78,
			"type":"SCALAR"
		},
		{
			"bufferView":54,
			"componentType":5126,
			"count":40,
			"type":"VEC4"
		},
		{
			"bufferView":55,
			"componentType":5126,
			"count":40,
			"max":[
				2.1696057319641113,
				1.6535072326660156,
				3.6499099731445312
			],
			"min":[
				-0.6710786819458008,
				-1.5008010864257812,
				-3.6918411254882812
			],
			"type":"VEC3"
		},
		{
			"bufferView":56,
			"componentType":5126,
			"count":40,
			"type":"VEC3"
		},
		{
			"bufferView":57,
			"componentType":5126,
			"count":40,
			"type":"VEC2"
		},
		{
			"bufferView":58,
			"componentType":5126,
			"count":40,
			"type":"VEC2"
		},
		{
			"bufferView":59,
			"componentType":5126,
			"count":40,
			"type":"VEC2"
		},
		{
			"bufferView":60,
			"componentType":5123,
			"count":60,
			"type":"SCALAR"
		},
		{
			"bufferView":61,
			"componentType":5126,
			"count":36,
			"type":"VEC4"
		},
		{
			"bufferView":62,
			"componentType":5126,
			"count":36,
			"max":[
				0.811988353729248,
				6.805034637451172,
				-2.154083251953125
			],
			"min":[
				-0.2670741081237793,
				1.43115234375,
				-8.606292724609375
			],
			"type":"VEC3"
		},
		{
			"bufferView":63,
			"componentType":5126,
			"count":36,
			"type":"VEC3"
		},
		{
			"bufferView":64,
			"componentType":5126,
			"count":36,
			"type":"VEC2"
		},
		{
			"bufferView":65,
			"componentType":5126,
			"count":36,
			"type":"VEC2"
		},
		{
			"bufferView":66,
			"componentType":5126,
			"count":36,
			"type":"VEC2"
		},
		{
			"bufferView":67,
			"componentType":5123,
			"count":78,
			"type":"SCALAR"
		},
		{
			"bufferView":68,
			"componentType":5126,
			"count":20,
			"type":"VEC4"
		},
		{
			"bufferView":69,
			"componentType":5126,
			"count":20,
			"max":[
				2.1696057319641113,
				0.6291961669921875,
				3.6499099731445312
			],
			"min":[
				-0.6681194305419922,
				-0.5674629211425781,
				-3.6918411254882812
			],
			"type":"VEC3"
		},
		{
			"bufferView":70,
			"componentType":5126,
			"count":20,
			"type":"VEC3"
		},
		{
			"bufferView":71,
			"componentType":5126,
			"count":20,
			"type":"VEC2"
		},
		{
			"bufferView":72,
			"componentType":5126,
			"count":20,
			"type":"VEC2"
		},
		{
			"bufferView":73,
			"componentType":5126,
			"count":20,
			"type":"VEC2"
		},
		{
			"bufferView":74,
			"componentType":5123,
			"count":30,
			"type":"SCALAR"
		}
	],
	"bufferViews":[
		{
			"buffer":0,
			"byteLength":564,
			"byteOffset":0,
			"target":34962
		},
		{
			"buffer":0,
			"byteLength":564,
			"byteOffset":564,
			"target":34962
		},
		{
			"buffer":0,
			"byteLength":376,
			"byteOffset":1128,
			"target":34962
		},
		{
			"buffer":0,
			"byteLength":752,
			"byteOffset":1504,
			"target":34962
		},
		{
			"buffer":0,
			"byteLength":336,
			"byteOffset":2256,
			"target":34963
		},
		{
			"buffer":0,
			"byteLength":2316,
			"byteOffset":2592,
			"target":34962
		},
		{
			"buffer":0,
			"byteLength":2316,
			"byteOffset":4908,
			"target":34962
		},
		{
			"buffer":0,
			"byteLength":1544,
			"byteOffset":7224,
			"target":34962
		},
		{
			"buffer":0,
			"byteLength":3088,
			"byteOffset":8768,
			"target":34962
		},
		{
			"buffer":0,
			"byteLength":1848,
			"byteOffset":11856,
			"target":34963
		},
		{
			"buffer":0,
			"byteLength":564,
			"byteOffset":13704,
			"target":34962
		},
		{
			"buffer":0,
			"byteLength":564,
			"byteOffset":14268,
			"target":34962
		},
		{
			"buffer":0,
			"byteLength":376,
			"byteOffset":14832,
			"target":34962
		},
		{
			"buffer":0,
			"byteLength":752,
			"byteOffset":15208,
			"target":34962
		},
		{
			"buffer":0,
			"byteLength":336,
			"byteOffset":15960,
			"target":34963
		},
		{
			"buffer":0,
			"byteLength":564,
			"byteOffset":16296,
			"target":34962
		},
		{
			"buffer":0,
			"byteLength":564,
			"byteOffset":16860,
			"target":34962
		},
		{
			"buffer":0,
			"byteLength":376,
			"byteOffset":17424,
			"target":34962
		},
		{
			"buffer":0,
			"byteLength":752,
			"byteOffset":17800,
			"target":34962
		},
		{
			"buffer":0,
			"byteLength":336,
			"byteOffset":18552,
			"target":34963
		},
		{
			"buffer":0,
			"byteLength":564,
			"byteOffset":18888,
			"target":34962
		},
		{
			"buffer":0,
			"byteLength":564,
			"byteOffset":19452,
			"target":34962
		},
		{
			"buffer":0,
			"byteLength":376,
			"byteOffset":20016,
			"target":34962
		},
		{
			"buffer":0,
			"byteLength":752,
			"byteOffset":20392,
			"target":34962
		},
		{
			"buffer":0,
			"byteLength":336,
			"byteOffset":21144,
			"target":34963
		},
		{
			"buffer":0,
			"byteLength":564,
			"byteOffset":21480,
			"target":34962
		},
		{
			"buffer":0,
			"byteLength":564,
			"byteOffset":22044,
			"target":34962
		},
		{
			"buffer":0,
			"byteLength":376,
			"byteOffset":22608,
			"target":34962
		},
		{
			"buffer":0,
			"byteLength":752,
			"byteOffset":22984,
			"target":34962
		},
		{
			"buffer":0,
			"byteLength":336,
			"byteOffset":23736,
			"target":34963
		},
		{
			"buffer":0,
			"byteLength":564,
			"byteOffset":24072,
			"target":34962
		},
		{
			"buffer":0,
			"byteLength":564,
			"byteOffset":24636,
			"target":34962
		},
		{
			"buffer":0,
			"byteLength":376,
			"byteOffset":25200,
			"target":34962
		},
		{
			"buffer":0,
			"byteLength":752,
			"byteOffset":25576,
			"target":34962
		},
		{
			"buffer":0,
			"byteLength":336,
			"byteOffset":26328,
			"target":34963
		},
		{
			"buffer":0,
			"byteLength":564,
			"byteOffset":26664,
			"target":34962
		},
		{
			"buffer":0,
			"byteLength":564,
			"byteOffset":27228,
			"target":34962
		},
		{
			"buffer":0,
			"byteLength":376,
			"byteOffset":27792,
			"target":34962
		},
		{
			"buffer":0,
			"byteLength":752,
			"byteOffset":28168,
			"target":34962
		},
		{
			"buffer":0,
			"byteLength":336,
			"byteOffset":28920,
			"target":34963
		},
		{
			"buffer":0,
			"byteLength":960,
			"byteOffset":29256,
			"target":34962
		},
		{
			"buffer":0,
			"byteLength":720,
			"byteOffset":30216,
			"target":34962
		},
		{
			"buffer":0,
			"byteLength":720,
			"byteOffset":30936,
			"target":34962
		},
		{
			"buffer":0,
			"byteLength":480,
			"byteOffset":31656,
			"target":34962
		},
		{
			"buffer":0,
			"byteLength":480,
			"byteOffset":32136,
			"target":34962
		},
		{
			"buffer":0,
			"byteLength":480,
			"byteOffset":32616,
			"target":34962
		},
		{
			"buffer":0,
			"byteLength":252,
			"byteOffset":33096,
			"target":34963
		},
		{
			"buffer":0,
			"byteLength":768,
			"byteOffset":33348,
			"target":34962
		},
		{
			"buffer":0,
			"byteLength":576,
			"byteOffset":34116,
			"target":34962
		},
		{
			"buffer":0,
			"byteLength":576,
			"byteOffset":34692,
			"target":34962
		},
		{
			"buffer":0,
			"byteLength":384,
			"byteOffset":35268,
			"target":34962
		},
		{
			"buffer":0,
			"byteLength":384,
			"byteOffset":35652,
			"target":34962
		},
		{
			"buffer":0,
			"byteLength":384,
			"byteOffset":36036,
			"target":34962
		},
		{
			"buffer":0,
			"byteLength":156,
			"byteOffset":36420,
			"target":34963
		},
		{
			"buffer":0,
			"byteLength":640,
			"byteOffset":36576,
			"target":34962
		},
		{
			"buffer":0,
			"byteLength":480,
			"byteOffset":37216,
			"target":34962
		},
		{
			"buffer":0,
			"byteLength":480,
			"byteOffset":37696,
			"target":34962
		},
		{
			"buffer":0,
			"byteLength":320,
			"byteOffset":38176,
			"target":34962
		},
		{
			"buffer":0,
			"byteLength":320,
			"byteOffset":38496,
			"target":34962
		},
		{
			"buffer":0,
			"byteLength":320,
			"byteOffset":38816,
			"target":34962
		},
		{
			"buffer":0,
			"byteLength":120,
			"byteOffset":39136,
			"target":34963
		},
		{
			"buffer":0,
			"byteLength":576,
			"byteOffset":39256,
			"target":34962
		},
		{
			"buffer":0,
			"byteLength":432,
			"byteOffset":39832,
			"target":34962
		},
		{
			"buffer":0,
			"byteLength":432,
			"byteOffset":40264,
			"target":34962
		},
		{
			"buffer":0,
			"byteLength":288,
			"byteOffset":40696,
			"target":34962
		},
		{
			"buffer":0,
			"byteLength":288,
			"byteOffset":40984,
			"target":34962
		},
		{
			"buffer":0,
			"byteLength":288,
			"byteOffset":41272,
			"target":34962
		},
		{
			"buffer":0,
			"byteLength":156,
			"byteOffset":41560,
			"target":34963
		},
		{
			"buffer":0,
			"byteLength":320,
			"byteOffset":41716,
			"target":34962
		},
		{
			"buffer":0,
			"byteLength":240,
			"byteOffset":42036,
			"target":34962
		},
		{
			"buffer":0,
			"byteLength":240,
			"byteOffset":42276,
			"target":34962
		},
		{
			"buffer":0,
			"byteLength":160,
			"byteOffset":42516,
			"target":34962
		},
		{
			"buffer":0,
			"byteLength":160,
			"byteOffset":42676,
			"target":34962
		},
		{
			"buffer":0,
			"byteLength":160,
			"byteOffset":42836,
			"target":34962
		},
		{
			"buffer":0,
			"byteLength":60,
			"byteOffset":42996,
			"target":34963
		}
	],
	"samplers":[
		{
			"magFilter":9729,
			"minFilter":9987
		}
	],
	"buffers":[
		{
			"byteLength":43056,
			"uri":"spaceship_broken_ear.bin"
		}
	]
}
