{
	"asset":{
		"copyright":"@serufu_yua",
		"generator":"Khronos glTF Blender I/O v3.6.28",
		"version":"2.0"
	},
	"extensionsUsed":[
		"KHR_materials_specular",
		"KHR_materials_ior"
	],
	"scene":0,
	"scenes":[
		{
			"name":"Scene",
			"nodes":[
				8
			]
		}
	],
	"nodes":[
		{
			"mesh":0,
			"name":"BezierCurve.016",
			"translation":[
				-10.5,
				0,
				6
			]
		},
		{
			"mesh":1,
			"name":"BezierCurve.017",
			"translation":[
				-4.5,
				0,
				6
			]
		},
		{
			"mesh":2,
			"name":"BezierCurve.018",
			"translation":[
				1.5,
				0,
				6
			]
		},
		{
			"mesh":3,
			"name":"BezierCurve.019",
			"translation":[
				7.5,
				0,
				6
			]
		},
		{
			"mesh":4,
			"name":"Cube.006",
			"translation":[
				5.5,
				0,
				6
			]
		},
		{
			"mesh":5,
			"name":"Cube.007",
			"translation":[
				5.5,
				0,
				2
			]
		},
		{
			"mesh":6,
			"name":"Cube.008",
			"translation":[
				5.5,
				0,
				-2
			]
		},
		{
			"mesh":7,
			"name":"Cube.009",
			"translation":[
				5.5,
				0,
				-6
			]
		},
		{
			"children":[
				0,
				1,
				2,
				3,
				4,
				5,
				6,
				7
			],
			"name":"Empty"
		}
	],
	"materials":[
		{
			"doubleSided":true,
			"extensions":{
				"KHR_materials_specular":{
					"specularColorFactor":[
						0.18324130747023457,
						0.18324130747023457,
						0.18324130747023457
					]
				},
				"KHR_materials_ior":{
					"ior":1.4500000476837158
				}
			},
			"name":"Metal.Armature",
			"normalTexture":{
				"index":0
			},
			"pbrMetallicRoughness":{
				"baseColorFactor":[
					0.030953455716371536,
					0.030953455716371536,
					0.030953455716371536,
					1
				],
				"metallicFactor":0.9545454978942871,
				"roughnessFactor":0.9636363387107849
			}
		}
	],
	"meshes":[
		{
			"name":"BezierCurve.008",
			"primitives":[
				{
					"attributes":{
						"POSITION":0,
						"NORMAL":1,
						"TEXCOORD_0":2,
						"TANGENT":3
					},
					"indices":4,
					"material":0
				}
			]
		},
		{
			"name":"BezierCurve.009",
			"primitives":[
				{
					"attributes":{
						"POSITION":5,
						"NORMAL":6,
						"TEXCOORD_0":7,
						"TANGENT":8
					},
					"indices":4,
					"material":0
				}
			]
		},
		{
			"name":"BezierCurve.010",
			"primitives":[
				{
					"attributes":{
						"POSITION":9,
						"NORMAL":10,
						"TEXCOORD_0":11,
						"TANGENT":12
					},
					"indices":4,
					"material":0
				}
			]
		},
		{
			"name":"BezierCurve.129",
			"primitives":[
				{
					"attributes":{
						"POSITION":13,
						"NORMAL":14,
						"TEXCOORD_0":15,
						"TANGENT":16
					},
					"indices":4,
					"material":0
				}
			]
		},
		{
			"name":"Cube.097",
			"primitives":[
				{
					"attributes":{
						"POSITION":17,
						"NORMAL":18,
						"TEXCOORD_0":19
					},
					"indices":20,
					"material":0
				}
			]
		},
		{
			"name":"Cube.098",
			"primitives":[
				{
					"attributes":{
						"POSITION":21,
						"NORMAL":22,
						"TEXCOORD_0":23
					},
					"indices":24,
					"material":0
				}
			]
		},
		{
			"name":"Cube.099",
			"primitives":[
				{
					"attributes":{
						"POSITION":25,
						"NORMAL":26,
						"TEXCOORD_0":27
					},
					"indices":28,
					"material":0
				}
			]
		},
		{
			"name":"Cube.096",
			"primitives":[
				{
					"attributes":{
						"POSITION":29,
						"NORMAL":30,
						"TEXCOORD_0":31
					},
					"indices":32,
					"material":0
				}
			]
		}
	],
	"textures":[
		{
			"sampler":0,
			"source":0
		}
	],
	"images":[
		{
			"mimeType":"image/png",
			"name":"metal_dirt_n",
			"uri":"metal_dirt_n.png"
		}
	],
	"accessors":[
		{
			"bufferView":0,
			"componentType":5126,
			"count":42,
			"max":[
				5.4679694175720215,
				0.2997169494628906,
				1.433547019958496
			],
			"min":[
				-0.6989727020263672,
				-3.497628927230835,
				-17.870315551757812
			],
			"type":"VEC3"
		},
		{
			"bufferView":1,
			"componentType":5126,
			"count":42,
			"type":"VEC3"
		},
		{
			"bufferView":2,
			"componentType":5126,
			"count":42,
			"type":"VEC2"
		},
		{
			"bufferView":3,
			"componentType":5126,
			"count":42,
			"type":"VEC4"
		},
		{
			"bufferView":4,
			"componentType":5123,
			"count":180,
			"type":"SCALAR"
		},
		{
			"bufferView":5,
			"componentType":5126,
			"count":42,
			"max":[
				1.956965446472168,
				-0.10841453075408936,
				2.3610477447509766
			],
			"min":[
				-0.3358783721923828,
				-4.277517318725586,
				-14.86992073059082
			],
			"type":"VEC3"
		},
		{
			"bufferView":6,
			"componentType":5126,
			"count":42,
			"type":"VEC3"
		},
		{
			"bufferView":7,
			"componentType":5126,
			"count":42,
			"type":"VEC2"
		},
		{
			"bufferView":8,
			"componentType":5126,
			"count":42,
			"type":"VEC4"
		},
		{
			"bufferView":9,
			"componentType":5126,
			"count":42,
			"max":[
				0.7336969375610352,
				1.9853723049163818,
				1.848968505859375
			],
			"min":[
				-0.831486701965332,
				-3.738333225250244,
				-13.928394317626953
			],
			"type":"VEC3"
		},
		{
			"bufferView":10,
			"componentType":5126,
			"count":42,
			"type":"VEC3"
		},
		{
			"bufferView":11,
			"componentType":5126,
			"count":42,
			"type":"VEC2"
		},
		{
			"bufferView":12,
			"componentType":5126,
			"count":42,
			"type":"VEC4"
		},
		{
			"bufferView":13,
			"componentType":5126,
			"count":42,
			"max":[
				0.9712600708007812,
				6.066808223724365,
				1.4986076354980469
			],
			"min":[
				-3.4875926971435547,
				-1.3000142574310303,
				-14.094766616821289
			],
			"type":"VEC3"
		},
		{
			"bufferView":14,
			"componentType":5126,
			"count":42,
			"type":"VEC3"
		},
		{
			"bufferView":15,
			"componentType":5126,
			"count":42,
			"type":"VEC2"
		},
		{
			"bufferView":16,
			"componentType":5126,
			"count":42,
			"type":"VEC4"
		},
		{
			"bufferView":17,
			"componentType":5126,
			"count":300,
			"max":[
				2.9829893112182617,
				8.176234245300293,
				1.277679443359375
			],
			"min":[
				-18.320091247558594,
				-1.5130723714828491,
				-2.964247703552246
			],
			"type":"VEC3"
		},
		{
			"bufferView":18,
			"componentType":5126,
			"count":300,
			"type":"VEC3"
		},
		{
			"bufferView":19,
			"componentType":5126,
			"count":300,
			"type":"VEC2"
		},
		{
			"bufferView":20,
			"componentType":5123,
			"count":468,
			"type":"SCALAR"
		},
		{
			"bufferView":21,
			"componentType":5126,
			"count":300,
			"max":[
				5.246737480163574,
				5.936901569366455,
				2.463995933532715
			],
			"min":[
				-17.52679443359375,
				-3.168665885925293,
				-4.772390842437744
			],
			"type":"VEC3"
		},
		{
			"bufferView":22,
			"componentType":5126,
			"count":300,
			"type":"VEC3"
		},
		{
			"bufferView":23,
			"componentType":5126,
			"count":300,
			"type":"VEC2"
		},
		{
			"bufferView":24,
			"componentType":5123,
			"count":468,
			"type":"SCALAR"
		},
		{
			"bufferView":25,
			"componentType":5126,
			"count":332,
			"max":[
				6.554324150085449,
				3.61405086517334,
				2.373290538787842
			],
			"min":[
				-15.521859169006348,
				-6.24989652633667,
				-5.899016380310059
			],
			"type":"VEC3"
		},
		{
			"bufferView":26,
			"componentType":5126,
			"count":332,
			"type":"VEC3"
		},
		{
			"bufferView":27,
			"componentType":5126,
			"count":332,
			"type":"VEC2"
		},
		{
			"bufferView":28,
			"componentType":5123,
			"count":552,
			"type":"SCALAR"
		},
		{
			"bufferView":29,
			"componentType":5126,
			"count":290,
			"max":[
				6.441046714782715,
				1.7326133251190186,
				1.2109880447387695
			],
			"min":[
				-13.320150375366211,
				-5.100551128387451,
				-5.710474014282227
			],
			"type":"VEC3"
		},
		{
			"bufferView":30,
			"componentType":5126,
			"count":290,
			"type":"VEC3"
		},
		{
			"bufferView":31,
			"componentType":5126,
			"count":290,
			"type":"VEC2"
		},
		{
			"bufferView":32,
			"componentType":5123,
			"count":468,
			"type":"SCALAR"
		}
	],
	"bufferViews":[
		{
			"buffer":0,
			"byteLength":504,
			"byteOffset":0,
			"target":34962
		},
		{
			"buffer":0,
			"byteLength":504,
			"byteOffset":504,
			"target":34962
		},
		{
			"buffer":0,
			"byteLength":336,
			"byteOffset":1008,
			"target":34962
		},
		{
			"buffer":0,
			"byteLength":672,
			"byteOffset":1344,
			"target":34962
		},
		{
			"buffer":0,
			"byteLength":360,
			"byteOffset":2016,
			"target":34963
		},
		{
			"buffer":0,
			"byteLength":504,
			"byteOffset":2376,
			"target":34962
		},
		{
			"buffer":0,
			"byteLength":504,
			"byteOffset":2880,
			"target":34962
		},
		{
			"buffer":0,
			"byteLength":336,
			"byteOffset":3384,
			"target":34962
		},
		{
			"buffer":0,
			"byteLength":672,
			"byteOffset":3720,
			"target":34962
		},
		{
			"buffer":0,
			"byteLength":504,
			"byteOffset":4392,
			"target":34962
		},
		{
			"buffer":0,
			"byteLength":504,
			"byteOffset":4896,
			"target":34962
		},
		{
			"buffer":0,
			"byteLength":336,
			"byteOffset":5400,
			"target":34962
		},
		{
			"buffer":0,
			"byteLength":672,
			"byteOffset":5736,
			"target":34962
		},
		{
			"buffer":0,
			"byteLength":504,
			"byteOffset":6408,
			"target":34962
		},
		{
			"buffer":0,
			"byteLength":504,
			"byteOffset":6912,
			"target":34962
		},
		{
			"buffer":0,
			"byteLength":336,
			"byteOffset":7416,
			"target":34962
		},
		{
			"buffer":0,
			"byteLength":672,
			"byteOffset":7752,
			"target":34962
		},
		{
			"buffer":0,
			"byteLength":3600,
			"byteOffset":8424,
			"target":34962
		},
		{
			"buffer":0,
			"byteLength":3600,
			"byteOffset":12024,
			"target":34962
		},
		{
			"buffer":0,
			"byteLength":2400,
			"byteOffset":15624,
			"target":34962
		},
		{
			"buffer":0,
			"byteLength":936,
			"byteOffset":18024,
			"target":34963
		},
		{
			"buffer":0,
			"byteLength":3600,
			"byteOffset":18960,
			"target":34962
		},
		{
			"buffer":0,
			"byteLength":3600,
			"byteOffset":22560,
			"target":34962
		},
		{
			"buffer":0,
			"byteLength":2400,
			"byteOffset":26160,
			"target":34962
		},
		{
			"buffer":0,
			"byteLength":936,
			"byteOffset":28560,
			"target":34963
		},
		{
			"buffer":0,
			"byteLength":3984,
			"byteOffset":29496,
			"target":34962
		},
		{
			"buffer":0,
			"byteLength":3984,
			"byteOffset":33480,
			"target":34962
		},
		{
			"buffer":0,
			"byteLength":2656,
			"byteOffset":37464,
			"target":34962
		},
		{
			"buffer":0,
			"byteLength":1104,
			"byteOffset":40120,
			"target":34963
		},
		{
			"buffer":0,
			"byteLength":3480,
			"byteOffset":41224,
			"target":34962
		},
		{
			"buffer":0,
			"byteLength":3480,
			"byteOffset":44704,
			"target":34962
		},
		{
			"buffer":0,
			"byteLength":2320,
			"byteOffset":48184,
			"target":34962
		},
		{
			"buffer":0,
			"byteLength":936,
			"byteOffset":50504,
			"target":34963
		}
	],
	"samplers":[
		{
			"magFilter":9729,
			"minFilter":9987
		}
	],
	"buffers":[
		{
			"byteLength":51440,
			"uri":"spaceship_broken_part02.bin"
		}
	]
}
