{
	"asset":{
		"copyright":"@serufu_yua",
		"generator":"Khronos glTF Blender I/O v3.6.28",
		"version":"2.0"
	},
	"scene":0,
	"scenes":[
		{
			"name":"Scene",
			"nodes":[
				0,
				1
			]
		}
	],
	"nodes":[
		{
			"mesh":0,
			"name":"ghots_road.collider.walls.001"
		},
		{
			"mesh":1,
			"name":"lobby.collider.walls",
			"translation":[
				0,
				12,
				127.90205383300781
			]
		}
	],
	"meshes":[
		{
			"name":"Cube.105",
			"primitives":[
				{
					"attributes":{
						"POSITION":0,
						"NORMAL":1
					},
					"indices":2
				}
			]
		},
		{
			"name":"Cube.103",
			"primitives":[
				{
					"attributes":{
						"POSITION":3,
						"NORMAL":4
					},
					"indices":5
				}
			]
		}
	],
	"accessors":[
		{
			"bufferView":0,
			"componentType":5126,
			"count":7492,
			"max":[
				618.0286865234375,
				67.8802719116211,
				345.2585754394531
			],
			"min":[
				-130.9302978515625,
				-5.297890663146973,
				-229.63233947753906
			],
			"type":"VEC3"
		},
		{
			"bufferView":1,
			"componentType":5126,
			"count":7492,
			"type":"VEC3"
		},
		{
			"bufferView":2,
			"componentType":5123,
			"count":11268,
			"type":"SCALAR"
		},
		{
			"bufferView":3,
			"componentType":5126,
			"count":279,
			"max":[
				1.4799904823303223,
				12.343114852905273,
				24.101348876953125
			],
			"min":[
				-20.276479721069336,
				0.3549586236476898,
				0.5979461669921875
			],
			"type":"VEC3"
		},
		{
			"bufferView":4,
			"componentType":5126,
			"count":279,
			"type":"VEC3"
		},
		{
			"bufferView":5,
			"componentType":5123,
			"count":489,
			"type":"SCALAR"
		}
	],
	"bufferViews":[
		{
			"buffer":0,
			"byteLength":89904,
			"byteOffset":0,
			"target":34962
		},
		{
			"buffer":0,
			"byteLength":89904,
			"byteOffset":89904,
			"target":34962
		},
		{
			"buffer":0,
			"byteLength":22536,
			"byteOffset":179808,
			"target":34963
		},
		{
			"buffer":0,
			"byteLength":3348,
			"byteOffset":202344,
			"target":34962
		},
		{
			"buffer":0,
			"byteLength":3348,
			"byteOffset":205692,
			"target":34962
		},
		{
			"buffer":0,
			"byteLength":978,
			"byteOffset":209040,
			"target":34963
		}
	],
	"buffers":[
		{
			"byteLength":210020,
			"uri":"spaceship_broken_walls_collider.bin"
		}
	]
}
