{
	"asset":{
		"copyright":"@serufu_yua",
		"generator":"Khronos glTF Blender I/O v3.6.28",
		"version":"2.0"
	},
	"scene":0,
	"scenes":[
		{
			"name":"Scene",
			"nodes":[
				0,
				1
			]
		}
	],
	"nodes":[
		{
			"mesh":0,
			"name":"lobby.collider",
			"translation":[
				0,
				12,
				127.90205383300781
			]
		},
		{
			"mesh":1,
			"name":"ghots_road.collider.001"
		}
	],
	"meshes":[
		{
			"name":"Cube.103",
			"primitives":[
				{
					"attributes":{
						"POSITION":0,
						"NORMAL":1
					},
					"indices":2
				}
			]
		},
		{
			"name":"Cube.109",
			"primitives":[
				{
					"attributes":{
						"POSITION":3,
						"NORMAL":4
					},
					"indices":5
				}
			]
		}
	],
	"accessors":[
		{
			"bufferView":0,
			"componentType":5126,
			"count":344,
			"max":[
				1.4799904823303223,
				12.343114852905273,
				24.101348876953125
			],
			"min":[
				-20.276479721069336,
				0.30283451080322266,
				0.5979461669921875
			],
			"type":"VEC3"
		},
		{
			"bufferView":1,
			"componentType":5126,
			"count":344,
			"type":"VEC3"
		},
		{
			"bufferView":2,
			"componentType":5123,
			"count":660,
			"type":"SCALAR"
		},
		{
			"bufferView":3,
			"componentType":5126,
			"count":14924,
			"max":[
				609.0980834960938,
				62.95948028564453,
				341.7421569824219
			],
			"min":[
				-285.3900146484375,
				-38.642189025878906,
				-277.87261962890625
			],
			"type":"VEC3"
		},
		{
			"bufferView":4,
			"componentType":5126,
			"count":14924,
			"type":"VEC3"
		},
		{
			"bufferView":5,
			"componentType":5123,
			"count":22434,
			"type":"SCALAR"
		}
	],
	"bufferViews":[
		{
			"buffer":0,
			"byteLength":4128,
			"byteOffset":0,
			"target":34962
		},
		{
			"buffer":0,
			"byteLength":4128,
			"byteOffset":4128,
			"target":34962
		},
		{
			"buffer":0,
			"byteLength":1320,
			"byteOffset":8256,
			"target":34963
		},
		{
			"buffer":0,
			"byteLength":179088,
			"byteOffset":9576,
			"target":34962
		},
		{
			"buffer":0,
			"byteLength":179088,
			"byteOffset":188664,
			"target":34962
		},
		{
			"buffer":0,
			"byteLength":44868,
			"byteOffset":367752,
			"target":34963
		}
	],
	"buffers":[
		{
			"byteLength":412620,
			"uri":"spaceship_broken_collider.bin"
		}
	]
}
