{
	"asset":{
		"copyright":"@serufu_yua",
		"generator":"Khronos glTF Blender I/O v3.6.28",
		"version":"2.0"
	},
	"scene":0,
	"scenes":[
		{
			"name":"Scene",
			"nodes":[
				0,
				1
			]
		}
	],
	"nodes":[
		{
			"mesh":0,
			"name":"ghots_road.collider.ground.001"
		},
		{
			"mesh":1,
			"name":"lobby.collider.ground",
			"translation":[
				0,
				12,
				127.90205383300781
			]
		}
	],
	"meshes":[
		{
			"name":"Cube.109",
			"primitives":[
				{
					"attributes":{
						"POSITION":0,
						"NORMAL":1,
						"TANGENT":2
					},
					"indices":3
				}
			]
		},
		{
			"name":"Cube.110",
			"primitives":[
				{
					"attributes":{
						"POSITION":4,
						"NORMAL":5
					},
					"indices":6
				}
			]
		}
	],
	"accessors":[
		{
			"bufferView":0,
			"componentType":5126,
			"count":4500,
			"max":[
				618.0286865234375,
				56.98200607299805,
				345.2585754394531
			],
			"min":[
				-130.9302978515625,
				-5.3810577392578125,
				-229.63233947753906
			],
			"type":"VEC3"
		},
		{
			"bufferView":1,
			"componentType":5126,
			"count":4500,
			"type":"VEC3"
		},
		{
			"bufferView":2,
			"componentType":5126,
			"count":4500,
			"type":"VEC4"
		},
		{
			"bufferView":3,
			"componentType":5123,
			"count":6750,
			"type":"SCALAR"
		},
		{
			"bufferView":4,
			"componentType":5126,
			"count":65,
			"max":[
				1.4799904823303223,
				1.3522624969482422,
				24.101348876953125
			],
			"min":[
				-20.276479721069336,
				0.30283451080322266,
				0.5979461669921875
			],
			"type":"VEC3"
		},
		{
			"bufferView":5,
			"componentType":5126,
			"count":65,
			"type":"VEC3"
		},
		{
			"bufferView":6,
			"componentType":5123,
			"count":171,
			"type":"SCALAR"
		}
	],
	"bufferViews":[
		{
			"buffer":0,
			"byteLength":54000,
			"byteOffset":0,
			"target":34962
		},
		{
			"buffer":0,
			"byteLength":54000,
			"byteOffset":54000,
			"target":34962
		},
		{
			"buffer":0,
			"byteLength":72000,
			"byteOffset":108000,
			"target":34962
		},
		{
			"buffer":0,
			"byteLength":13500,
			"byteOffset":180000,
			"target":34963
		},
		{
			"buffer":0,
			"byteLength":780,
			"byteOffset":193500,
			"target":34962
		},
		{
			"buffer":0,
			"byteLength":780,
			"byteOffset":194280,
			"target":34962
		},
		{
			"buffer":0,
			"byteLength":342,
			"byteOffset":195060,
			"target":34963
		}
	],
	"buffers":[
		{
			"byteLength":195404,
			"uri":"spaceship_broken_ground_collider.bin"
		}
	]
}
