{
	"asset":{
		"copyright":"@serufu_yua",
		"generator":"Khronos glTF Blender I/O v3.6.28",
		"version":"2.0"
	},
	"scene":0,
	"scenes":[
		{
			"name":"Scene",
			"nodes":[
				0
			]
		}
	],
	"nodes":[
		{
			"mesh":0,
			"name":"Control_Jizz",
			"translation":[
				30,
				0,
				0
			]
		}
	],
	"animations":[
		{
			"channels":[
				{
					"sampler":0,
					"target":{
						"node":0,
						"path":"translation"
					}
				},
				{
					"sampler":1,
					"target":{
						"node":0,
						"path":"rotation"
					}
				},
				{
					"sampler":2,
					"target":{
						"node":0,
						"path":"scale"
					}
				}
			],
			"name":"GAME.TOGETHER.PLAY.A1.P0",
			"samplers":[
				{
					"input":5,
					"interpolation":"STEP",
					"output":6
				},
				{
					"input":5,
					"interpolation":"STEP",
					"output":7
				},
				{
					"input":5,
					"interpolation":"STEP",
					"output":8
				}
			]
		},
		{
			"channels":[
				{
					"sampler":0,
					"target":{
						"node":0,
						"path":"translation"
					}
				},
				{
					"sampler":1,
					"target":{
						"node":0,
						"path":"rotation"
					}
				},
				{
					"sampler":2,
					"target":{
						"node":0,
						"path":"scale"
					}
				}
			],
			"name":"GAME.TOGETHER.PLAY.A1.P1",
			"samplers":[
				{
					"input":5,
					"interpolation":"STEP",
					"output":9
				},
				{
					"input":5,
					"interpolation":"STEP",
					"output":10
				},
				{
					"input":5,
					"interpolation":"STEP",
					"output":11
				}
			]
		},
		{
			"channels":[
				{
					"sampler":0,
					"target":{
						"node":0,
						"path":"translation"
					}
				},
				{
					"sampler":1,
					"target":{
						"node":0,
						"path":"rotation"
					}
				},
				{
					"sampler":2,
					"target":{
						"node":0,
						"path":"scale"
					}
				}
			],
			"name":"GAME.TOGETHER.PLAY.A1.P2",
			"samplers":[
				{
					"input":5,
					"interpolation":"STEP",
					"output":12
				},
				{
					"input":5,
					"interpolation":"STEP",
					"output":13
				},
				{
					"input":5,
					"interpolation":"STEP",
					"output":14
				}
			]
		},
		{
			"channels":[
				{
					"sampler":0,
					"target":{
						"node":0,
						"path":"translation"
					}
				},
				{
					"sampler":1,
					"target":{
						"node":0,
						"path":"rotation"
					}
				},
				{
					"sampler":2,
					"target":{
						"node":0,
						"path":"scale"
					}
				}
			],
			"name":"GAME.TOGETHER.PLAY.A1.P3",
			"samplers":[
				{
					"input":15,
					"interpolation":"LINEAR",
					"output":16
				},
				{
					"input":17,
					"interpolation":"STEP",
					"output":18
				},
				{
					"input":17,
					"interpolation":"STEP",
					"output":19
				}
			]
		},
		{
			"channels":[
				{
					"sampler":0,
					"target":{
						"node":0,
						"path":"translation"
					}
				},
				{
					"sampler":1,
					"target":{
						"node":0,
						"path":"rotation"
					}
				},
				{
					"sampler":2,
					"target":{
						"node":0,
						"path":"scale"
					}
				}
			],
			"name":"GAME.TOGETHER.PLAY.A1.P4",
			"samplers":[
				{
					"input":5,
					"interpolation":"STEP",
					"output":20
				},
				{
					"input":5,
					"interpolation":"STEP",
					"output":21
				},
				{
					"input":5,
					"interpolation":"STEP",
					"output":22
				}
			]
		},
		{
			"channels":[
				{
					"sampler":0,
					"target":{
						"node":0,
						"path":"translation"
					}
				},
				{
					"sampler":1,
					"target":{
						"node":0,
						"path":"rotation"
					}
				},
				{
					"sampler":2,
					"target":{
						"node":0,
						"path":"scale"
					}
				}
			],
			"name":"GAME.TOGETHER.PLAY.IDLE",
			"samplers":[
				{
					"input":5,
					"interpolation":"STEP",
					"output":23
				},
				{
					"input":5,
					"interpolation":"STEP",
					"output":24
				},
				{
					"input":5,
					"interpolation":"STEP",
					"output":25
				}
			]
		}
	],
	"meshes":[
		{
			"name":"Cube.004",
			"primitives":[
				{
					"attributes":{
						"POSITION":0,
						"NORMAL":1,
						"TEXCOORD_0":2,
						"TANGENT":3
					},
					"indices":4
				}
			]
		}
	],
	"accessors":[
		{
			"bufferView":0,
			"componentType":5126,
			"count":24,
			"max":[
				1,
				1,
				1
			],
			"min":[
				-1,
				-1,
				-1
			],
			"type":"VEC3"
		},
		{
			"bufferView":1,
			"componentType":5126,
			"count":24,
			"type":"VEC3"
		},
		{
			"bufferView":2,
			"componentType":5126,
			"count":24,
			"type":"VEC2"
		},
		{
			"bufferView":3,
			"componentType":5126,
			"count":24,
			"type":"VEC4"
		},
		{
			"bufferView":4,
			"componentType":5123,
			"count":36,
			"type":"SCALAR"
		},
		{
			"bufferView":5,
			"componentType":5126,
			"count":2,
			"max":[
				0.4583333333333333
			],
			"min":[
				0.041666666666666664
			],
			"type":"SCALAR"
		},
		{
			"bufferView":6,
			"componentType":5126,
			"count":2,
			"type":"VEC3"
		},
		{
			"bufferView":7,
			"componentType":5126,
			"count":2,
			"type":"VEC4"
		},
		{
			"bufferView":8,
			"componentType":5126,
			"count":2,
			"type":"VEC3"
		},
		{
			"bufferView":9,
			"componentType":5126,
			"count":2,
			"type":"VEC3"
		},
		{
			"bufferView":10,
			"componentType":5126,
			"count":2,
			"type":"VEC4"
		},
		{
			"bufferView":11,
			"componentType":5126,
			"count":2,
			"type":"VEC3"
		},
		{
			"bufferView":12,
			"componentType":5126,
			"count":2,
			"type":"VEC3"
		},
		{
			"bufferView":13,
			"componentType":5126,
			"count":2,
			"type":"VEC4"
		},
		{
			"bufferView":14,
			"componentType":5126,
			"count":2,
			"type":"VEC3"
		},
		{
			"bufferView":15,
			"componentType":5126,
			"count":161,
			"max":[
				6.708333333333333
			],
			"min":[
				0.041666666666666664
			],
			"type":"SCALAR"
		},
		{
			"bufferView":16,
			"componentType":5126,
			"count":161,
			"type":"VEC3"
		},
		{
			"bufferView":17,
			"componentType":5126,
			"count":2,
			"max":[
				6.708333333333333
			],
			"min":[
				0.041666666666666664
			],
			"type":"SCALAR"
		},
		{
			"bufferView":18,
			"componentType":5126,
			"count":2,
			"type":"VEC4"
		},
		{
			"bufferView":19,
			"componentType":5126,
			"count":2,
			"type":"VEC3"
		},
		{
			"bufferView":20,
			"componentType":5126,
			"count":2,
			"type":"VEC3"
		},
		{
			"bufferView":21,
			"componentType":5126,
			"count":2,
			"type":"VEC4"
		},
		{
			"bufferView":22,
			"componentType":5126,
			"count":2,
			"type":"VEC3"
		},
		{
			"bufferView":23,
			"componentType":5126,
			"count":2,
			"type":"VEC3"
		},
		{
			"bufferView":24,
			"componentType":5126,
			"count":2,
			"type":"VEC4"
		},
		{
			"bufferView":25,
			"componentType":5126,
			"count":2,
			"type":"VEC3"
		}
	],
	"bufferViews":[
		{
			"buffer":0,
			"byteLength":288,
			"byteOffset":0,
			"target":34962
		},
		{
			"buffer":0,
			"byteLength":288,
			"byteOffset":288,
			"target":34962
		},
		{
			"buffer":0,
			"byteLength":192,
			"byteOffset":576,
			"target":34962
		},
		{
			"buffer":0,
			"byteLength":384,
			"byteOffset":768,
			"target":34962
		},
		{
			"buffer":0,
			"byteLength":72,
			"byteOffset":1152,
			"target":34963
		},
		{
			"buffer":0,
			"byteLength":8,
			"byteOffset":1224
		},
		{
			"buffer":0,
			"byteLength":24,
			"byteOffset":1232
		},
		{
			"buffer":0,
			"byteLength":32,
			"byteOffset":1256
		},
		{
			"buffer":0,
			"byteLength":24,
			"byteOffset":1288
		},
		{
			"buffer":0,
			"byteLength":24,
			"byteOffset":1312
		},
		{
			"buffer":0,
			"byteLength":32,
			"byteOffset":1336
		},
		{
			"buffer":0,
			"byteLength":24,
			"byteOffset":1368
		},
		{
			"buffer":0,
			"byteLength":24,
			"byteOffset":1392
		},
		{
			"buffer":0,
			"byteLength":32,
			"byteOffset":1416
		},
		{
			"buffer":0,
			"byteLength":24,
			"byteOffset":1448
		},
		{
			"buffer":0,
			"byteLength":644,
			"byteOffset":1472
		},
		{
			"buffer":0,
			"byteLength":1932,
			"byteOffset":2116
		},
		{
			"buffer":0,
			"byteLength":8,
			"byteOffset":4048
		},
		{
			"buffer":0,
			"byteLength":32,
			"byteOffset":4056
		},
		{
			"buffer":0,
			"byteLength":24,
			"byteOffset":4088
		},
		{
			"buffer":0,
			"byteLength":24,
			"byteOffset":4112
		},
		{
			"buffer":0,
			"byteLength":32,
			"byteOffset":4136
		},
		{
			"buffer":0,
			"byteLength":24,
			"byteOffset":4168
		},
		{
			"buffer":0,
			"byteLength":24,
			"byteOffset":4192
		},
		{
			"buffer":0,
			"byteLength":32,
			"byteOffset":4216
		},
		{
			"buffer":0,
			"byteLength":24,
			"byteOffset":4248
		}
	],
	"buffers":[
		{
			"byteLength":4272,
			"uri":"controller_togetherPlay.bin"
		}
	]
}
