{
	"asset":{
		"copyright":"@serufu_yua",
		"generator":"Khronos glTF Blender I/O v3.6.28",
		"version":"2.0"
	},
	"scene":0,
	"scenes":[
		{
			"name":"Scene",
			"nodes":[
				0
			]
		}
	],
	"nodes":[
		{
			"mesh":0,
			"name":"Control_Jizz"
		}
	],
	"animations":[
		{
			"channels":[
				{
					"sampler":0,
					"target":{
						"node":0,
						"path":"translation"
					}
				},
				{
					"sampler":1,
					"target":{
						"node":0,
						"path":"rotation"
					}
				},
				{
					"sampler":2,
					"target":{
						"node":0,
						"path":"scale"
					}
				}
			],
			"name":"GAME.GIRL_TOYA.PLAY.A1.Start",
			"samplers":[
				{
					"input":5,
					"interpolation":"STEP",
					"output":6
				},
				{
					"input":5,
					"interpolation":"STEP",
					"output":7
				},
				{
					"input":5,
					"interpolation":"STEP",
					"output":8
				}
			]
		},
		{
			"channels":[
				{
					"sampler":0,
					"target":{
						"node":0,
						"path":"translation"
					}
				},
				{
					"sampler":1,
					"target":{
						"node":0,
						"path":"rotation"
					}
				},
				{
					"sampler":2,
					"target":{
						"node":0,
						"path":"scale"
					}
				}
			],
			"name":"GAME.GIRL_TOYA.PLAY.A1.Go",
			"samplers":[
				{
					"input":5,
					"interpolation":"STEP",
					"output":9
				},
				{
					"input":5,
					"interpolation":"STEP",
					"output":10
				},
				{
					"input":5,
					"interpolation":"STEP",
					"output":11
				}
			]
		},
		{
			"channels":[
				{
					"sampler":0,
					"target":{
						"node":0,
						"path":"translation"
					}
				},
				{
					"sampler":1,
					"target":{
						"node":0,
						"path":"rotation"
					}
				},
				{
					"sampler":2,
					"target":{
						"node":0,
						"path":"scale"
					}
				}
			],
			"name":"GAME.GIRL_TOYA.PLAY.A1.FastGo",
			"samplers":[
				{
					"input":5,
					"interpolation":"STEP",
					"output":12
				},
				{
					"input":5,
					"interpolation":"STEP",
					"output":13
				},
				{
					"input":5,
					"interpolation":"STEP",
					"output":14
				}
			]
		},
		{
			"channels":[
				{
					"sampler":0,
					"target":{
						"node":0,
						"path":"translation"
					}
				},
				{
					"sampler":1,
					"target":{
						"node":0,
						"path":"rotation"
					}
				},
				{
					"sampler":2,
					"target":{
						"node":0,
						"path":"scale"
					}
				}
			],
			"name":"GAME.GIRL_TOYA.PLAY.A1.Finish",
			"samplers":[
				{
					"input":15,
					"interpolation":"LINEAR",
					"output":16
				},
				{
					"input":17,
					"interpolation":"STEP",
					"output":18
				},
				{
					"input":17,
					"interpolation":"STEP",
					"output":19
				}
			]
		},
		{
			"channels":[
				{
					"sampler":0,
					"target":{
						"node":0,
						"path":"translation"
					}
				},
				{
					"sampler":1,
					"target":{
						"node":0,
						"path":"rotation"
					}
				},
				{
					"sampler":2,
					"target":{
						"node":0,
						"path":"scale"
					}
				}
			],
			"name":"GAME.GIRL_TOYA.PLAY.A1.Relax",
			"samplers":[
				{
					"input":5,
					"interpolation":"STEP",
					"output":20
				},
				{
					"input":5,
					"interpolation":"STEP",
					"output":21
				},
				{
					"input":5,
					"interpolation":"STEP",
					"output":22
				}
			]
		},
		{
			"channels":[
				{
					"sampler":0,
					"target":{
						"node":0,
						"path":"translation"
					}
				},
				{
					"sampler":1,
					"target":{
						"node":0,
						"path":"rotation"
					}
				},
				{
					"sampler":2,
					"target":{
						"node":0,
						"path":"scale"
					}
				}
			],
			"name":"GAME.GIRL_TOYA.PLAY.A2.Start",
			"samplers":[
				{
					"input":5,
					"interpolation":"STEP",
					"output":23
				},
				{
					"input":5,
					"interpolation":"STEP",
					"output":24
				},
				{
					"input":5,
					"interpolation":"STEP",
					"output":25
				}
			]
		},
		{
			"channels":[
				{
					"sampler":0,
					"target":{
						"node":0,
						"path":"translation"
					}
				},
				{
					"sampler":1,
					"target":{
						"node":0,
						"path":"rotation"
					}
				},
				{
					"sampler":2,
					"target":{
						"node":0,
						"path":"scale"
					}
				}
			],
			"name":"GAME.GIRL_TOYA.PLAY.A2.Go",
			"samplers":[
				{
					"input":5,
					"interpolation":"STEP",
					"output":26
				},
				{
					"input":5,
					"interpolation":"STEP",
					"output":27
				},
				{
					"input":5,
					"interpolation":"STEP",
					"output":28
				}
			]
		},
		{
			"channels":[
				{
					"sampler":0,
					"target":{
						"node":0,
						"path":"translation"
					}
				},
				{
					"sampler":1,
					"target":{
						"node":0,
						"path":"rotation"
					}
				},
				{
					"sampler":2,
					"target":{
						"node":0,
						"path":"scale"
					}
				}
			],
			"name":"GAME.GIRL_TOYA.PLAY.A2.FastGo.Body",
			"samplers":[
				{
					"input":5,
					"interpolation":"STEP",
					"output":29
				},
				{
					"input":5,
					"interpolation":"STEP",
					"output":30
				},
				{
					"input":5,
					"interpolation":"STEP",
					"output":31
				}
			]
		},
		{
			"channels":[
				{
					"sampler":0,
					"target":{
						"node":0,
						"path":"translation"
					}
				},
				{
					"sampler":1,
					"target":{
						"node":0,
						"path":"rotation"
					}
				},
				{
					"sampler":2,
					"target":{
						"node":0,
						"path":"scale"
					}
				}
			],
			"name":"GAME.GIRL_TOYA.PLAY.A2.Finish",
			"samplers":[
				{
					"input":32,
					"interpolation":"LINEAR",
					"output":33
				},
				{
					"input":34,
					"interpolation":"STEP",
					"output":35
				},
				{
					"input":34,
					"interpolation":"STEP",
					"output":36
				}
			]
		},
		{
			"channels":[
				{
					"sampler":0,
					"target":{
						"node":0,
						"path":"translation"
					}
				},
				{
					"sampler":1,
					"target":{
						"node":0,
						"path":"rotation"
					}
				},
				{
					"sampler":2,
					"target":{
						"node":0,
						"path":"scale"
					}
				}
			],
			"name":"GAME.GIRL_TOYA.PLAY.A2.Relax",
			"samplers":[
				{
					"input":5,
					"interpolation":"STEP",
					"output":37
				},
				{
					"input":5,
					"interpolation":"STEP",
					"output":38
				},
				{
					"input":5,
					"interpolation":"STEP",
					"output":39
				}
			]
		},
		{
			"channels":[
				{
					"sampler":0,
					"target":{
						"node":0,
						"path":"translation"
					}
				},
				{
					"sampler":1,
					"target":{
						"node":0,
						"path":"rotation"
					}
				},
				{
					"sampler":2,
					"target":{
						"node":0,
						"path":"scale"
					}
				}
			],
			"name":"GAME.GIRL_TOYA.PLAY.Idle",
			"samplers":[
				{
					"input":5,
					"interpolation":"STEP",
					"output":40
				},
				{
					"input":5,
					"interpolation":"STEP",
					"output":41
				},
				{
					"input":5,
					"interpolation":"STEP",
					"output":42
				}
			]
		}
	],
	"meshes":[
		{
			"name":"Cube.004",
			"primitives":[
				{
					"attributes":{
						"POSITION":0,
						"NORMAL":1,
						"TEXCOORD_0":2,
						"TANGENT":3
					},
					"indices":4
				}
			]
		}
	],
	"accessors":[
		{
			"bufferView":0,
			"componentType":5126,
			"count":24,
			"max":[
				0.029150009155273438,
				0.029150009155273438,
				0.029150009155273438
			],
			"min":[
				-0.029150009155273438,
				-0.029150009155273438,
				-0.029150009155273438
			],
			"type":"VEC3"
		},
		{
			"bufferView":1,
			"componentType":5126,
			"count":24,
			"type":"VEC3"
		},
		{
			"bufferView":2,
			"componentType":5126,
			"count":24,
			"type":"VEC2"
		},
		{
			"bufferView":3,
			"componentType":5126,
			"count":24,
			"type":"VEC4"
		},
		{
			"bufferView":4,
			"componentType":5123,
			"count":36,
			"type":"SCALAR"
		},
		{
			"bufferView":5,
			"componentType":5126,
			"count":2,
			"max":[
				0.8333333333333334
			],
			"min":[
				0.041666666666666664
			],
			"type":"SCALAR"
		},
		{
			"bufferView":6,
			"componentType":5126,
			"count":2,
			"type":"VEC3"
		},
		{
			"bufferView":7,
			"componentType":5126,
			"count":2,
			"type":"VEC4"
		},
		{
			"bufferView":8,
			"componentType":5126,
			"count":2,
			"type":"VEC3"
		},
		{
			"bufferView":9,
			"componentType":5126,
			"count":2,
			"type":"VEC3"
		},
		{
			"bufferView":10,
			"componentType":5126,
			"count":2,
			"type":"VEC4"
		},
		{
			"bufferView":11,
			"componentType":5126,
			"count":2,
			"type":"VEC3"
		},
		{
			"bufferView":12,
			"componentType":5126,
			"count":2,
			"type":"VEC3"
		},
		{
			"bufferView":13,
			"componentType":5126,
			"count":2,
			"type":"VEC4"
		},
		{
			"bufferView":14,
			"componentType":5126,
			"count":2,
			"type":"VEC3"
		},
		{
			"bufferView":15,
			"componentType":5126,
			"count":101,
			"max":[
				4.208333333333333
			],
			"min":[
				0.041666666666666664
			],
			"type":"SCALAR"
		},
		{
			"bufferView":16,
			"componentType":5126,
			"count":101,
			"type":"VEC3"
		},
		{
			"bufferView":17,
			"componentType":5126,
			"count":2,
			"max":[
				4.208333333333333
			],
			"min":[
				0.041666666666666664
			],
			"type":"SCALAR"
		},
		{
			"bufferView":18,
			"componentType":5126,
			"count":2,
			"type":"VEC4"
		},
		{
			"bufferView":19,
			"componentType":5126,
			"count":2,
			"type":"VEC3"
		},
		{
			"bufferView":20,
			"componentType":5126,
			"count":2,
			"type":"VEC3"
		},
		{
			"bufferView":21,
			"componentType":5126,
			"count":2,
			"type":"VEC4"
		},
		{
			"bufferView":22,
			"componentType":5126,
			"count":2,
			"type":"VEC3"
		},
		{
			"bufferView":23,
			"componentType":5126,
			"count":2,
			"type":"VEC3"
		},
		{
			"bufferView":24,
			"componentType":5126,
			"count":2,
			"type":"VEC4"
		},
		{
			"bufferView":25,
			"componentType":5126,
			"count":2,
			"type":"VEC3"
		},
		{
			"bufferView":26,
			"componentType":5126,
			"count":2,
			"type":"VEC3"
		},
		{
			"bufferView":27,
			"componentType":5126,
			"count":2,
			"type":"VEC4"
		},
		{
			"bufferView":28,
			"componentType":5126,
			"count":2,
			"type":"VEC3"
		},
		{
			"bufferView":29,
			"componentType":5126,
			"count":2,
			"type":"VEC3"
		},
		{
			"bufferView":30,
			"componentType":5126,
			"count":2,
			"type":"VEC4"
		},
		{
			"bufferView":31,
			"componentType":5126,
			"count":2,
			"type":"VEC3"
		},
		{
			"bufferView":32,
			"componentType":5126,
			"count":121,
			"max":[
				5.041666666666667
			],
			"min":[
				0.041666666666666664
			],
			"type":"SCALAR"
		},
		{
			"bufferView":33,
			"componentType":5126,
			"count":121,
			"type":"VEC3"
		},
		{
			"bufferView":34,
			"componentType":5126,
			"count":2,
			"max":[
				5.041666666666667
			],
			"min":[
				0.041666666666666664
			],
			"type":"SCALAR"
		},
		{
			"bufferView":35,
			"componentType":5126,
			"count":2,
			"type":"VEC4"
		},
		{
			"bufferView":36,
			"componentType":5126,
			"count":2,
			"type":"VEC3"
		},
		{
			"bufferView":37,
			"componentType":5126,
			"count":2,
			"type":"VEC3"
		},
		{
			"bufferView":38,
			"componentType":5126,
			"count":2,
			"type":"VEC4"
		},
		{
			"bufferView":39,
			"componentType":5126,
			"count":2,
			"type":"VEC3"
		},
		{
			"bufferView":40,
			"componentType":5126,
			"count":2,
			"type":"VEC3"
		},
		{
			"bufferView":41,
			"componentType":5126,
			"count":2,
			"type":"VEC4"
		},
		{
			"bufferView":42,
			"componentType":5126,
			"count":2,
			"type":"VEC3"
		}
	],
	"bufferViews":[
		{
			"buffer":0,
			"byteLength":288,
			"byteOffset":0,
			"target":34962
		},
		{
			"buffer":0,
			"byteLength":288,
			"byteOffset":288,
			"target":34962
		},
		{
			"buffer":0,
			"byteLength":192,
			"byteOffset":576,
			"target":34962
		},
		{
			"buffer":0,
			"byteLength":384,
			"byteOffset":768,
			"target":34962
		},
		{
			"buffer":0,
			"byteLength":72,
			"byteOffset":1152,
			"target":34963
		},
		{
			"buffer":0,
			"byteLength":8,
			"byteOffset":1224
		},
		{
			"buffer":0,
			"byteLength":24,
			"byteOffset":1232
		},
		{
			"buffer":0,
			"byteLength":32,
			"byteOffset":1256
		},
		{
			"buffer":0,
			"byteLength":24,
			"byteOffset":1288
		},
		{
			"buffer":0,
			"byteLength":24,
			"byteOffset":1312
		},
		{
			"buffer":0,
			"byteLength":32,
			"byteOffset":1336
		},
		{
			"buffer":0,
			"byteLength":24,
			"byteOffset":1368
		},
		{
			"buffer":0,
			"byteLength":24,
			"byteOffset":1392
		},
		{
			"buffer":0,
			"byteLength":32,
			"byteOffset":1416
		},
		{
			"buffer":0,
			"byteLength":24,
			"byteOffset":1448
		},
		{
			"buffer":0,
			"byteLength":404,
			"byteOffset":1472
		},
		{
			"buffer":0,
			"byteLength":1212,
			"byteOffset":1876
		},
		{
			"buffer":0,
			"byteLength":8,
			"byteOffset":3088
		},
		{
			"buffer":0,
			"byteLength":32,
			"byteOffset":3096
		},
		{
			"buffer":0,
			"byteLength":24,
			"byteOffset":3128
		},
		{
			"buffer":0,
			"byteLength":24,
			"byteOffset":3152
		},
		{
			"buffer":0,
			"byteLength":32,
			"byteOffset":3176
		},
		{
			"buffer":0,
			"byteLength":24,
			"byteOffset":3208
		},
		{
			"buffer":0,
			"byteLength":24,
			"byteOffset":3232
		},
		{
			"buffer":0,
			"byteLength":32,
			"byteOffset":3256
		},
		{
			"buffer":0,
			"byteLength":24,
			"byteOffset":3288
		},
		{
			"buffer":0,
			"byteLength":24,
			"byteOffset":3312
		},
		{
			"buffer":0,
			"byteLength":32,
			"byteOffset":3336
		},
		{
			"buffer":0,
			"byteLength":24,
			"byteOffset":3368
		},
		{
			"buffer":0,
			"byteLength":24,
			"byteOffset":3392
		},
		{
			"buffer":0,
			"byteLength":32,
			"byteOffset":3416
		},
		{
			"buffer":0,
			"byteLength":24,
			"byteOffset":3448
		},
		{
			"buffer":0,
			"byteLength":484,
			"byteOffset":3472
		},
		{
			"buffer":0,
			"byteLength":1452,
			"byteOffset":3956
		},
		{
			"buffer":0,
			"byteLength":8,
			"byteOffset":5408
		},
		{
			"buffer":0,
			"byteLength":32,
			"byteOffset":5416
		},
		{
			"buffer":0,
			"byteLength":24,
			"byteOffset":5448
		},
		{
			"buffer":0,
			"byteLength":24,
			"byteOffset":5472
		},
		{
			"buffer":0,
			"byteLength":32,
			"byteOffset":5496
		},
		{
			"buffer":0,
			"byteLength":24,
			"byteOffset":5528
		},
		{
			"buffer":0,
			"byteLength":24,
			"byteOffset":5552
		},
		{
			"buffer":0,
			"byteLength":32,
			"byteOffset":5576
		},
		{
			"buffer":0,
			"byteLength":24,
			"byteOffset":5608
		}
	],
	"buffers":[
		{
			"byteLength":5632,
			"uri":"controller_ToyA.bin"
		}
	]
}
