{
	"asset":{
		"copyright":"@serufu_yua",
		"generator":"Khronos glTF Blender I/O v3.6.28",
		"version":"2.0"
	},
	"scene":0,
	"scenes":[
		{
			"name":"Scene",
			"nodes":[
				0
			]
		}
	],
	"nodes":[
		{
			"name":"Control_Step"
		}
	],
	"animations":[
		{
			"channels":[
				{
					"sampler":0,
					"target":{
						"node":0,
						"path":"translation"
					}
				},
				{
					"sampler":1,
					"target":{
						"node":0,
						"path":"rotation"
					}
				},
				{
					"sampler":2,
					"target":{
						"node":0,
						"path":"scale"
					}
				}
			],
			"name":"GAME.STAND",
			"samplers":[
				{
					"input":0,
					"interpolation":"STEP",
					"output":1
				},
				{
					"input":0,
					"interpolation":"STEP",
					"output":2
				},
				{
					"input":0,
					"interpolation":"STEP",
					"output":3
				}
			]
		},
		{
			"channels":[
				{
					"sampler":0,
					"target":{
						"node":0,
						"path":"translation"
					}
				},
				{
					"sampler":1,
					"target":{
						"node":0,
						"path":"rotation"
					}
				},
				{
					"sampler":2,
					"target":{
						"node":0,
						"path":"scale"
					}
				}
			],
			"name":"GAME.WALK.FORWARD",
			"samplers":[
				{
					"input":4,
					"interpolation":"LINEAR",
					"output":5
				},
				{
					"input":6,
					"interpolation":"STEP",
					"output":7
				},
				{
					"input":6,
					"interpolation":"STEP",
					"output":8
				}
			]
		},
		{
			"channels":[
				{
					"sampler":0,
					"target":{
						"node":0,
						"path":"translation"
					}
				},
				{
					"sampler":1,
					"target":{
						"node":0,
						"path":"rotation"
					}
				},
				{
					"sampler":2,
					"target":{
						"node":0,
						"path":"scale"
					}
				}
			],
			"name":"GAME.RUN.FORWARD",
			"samplers":[
				{
					"input":9,
					"interpolation":"LINEAR",
					"output":10
				},
				{
					"input":11,
					"interpolation":"STEP",
					"output":12
				},
				{
					"input":11,
					"interpolation":"STEP",
					"output":13
				}
			]
		},
		{
			"channels":[
				{
					"sampler":0,
					"target":{
						"node":0,
						"path":"translation"
					}
				},
				{
					"sampler":1,
					"target":{
						"node":0,
						"path":"rotation"
					}
				},
				{
					"sampler":2,
					"target":{
						"node":0,
						"path":"scale"
					}
				}
			],
			"name":"GAME.MOTO.STAND",
			"samplers":[
				{
					"input":0,
					"interpolation":"STEP",
					"output":14
				},
				{
					"input":0,
					"interpolation":"STEP",
					"output":15
				},
				{
					"input":0,
					"interpolation":"STEP",
					"output":16
				}
			]
		},
		{
			"channels":[
				{
					"sampler":0,
					"target":{
						"node":0,
						"path":"translation"
					}
				},
				{
					"sampler":1,
					"target":{
						"node":0,
						"path":"rotation"
					}
				},
				{
					"sampler":2,
					"target":{
						"node":0,
						"path":"scale"
					}
				}
			],
			"name":"GAME.MOTO.TURN.LEFT",
			"samplers":[
				{
					"input":0,
					"interpolation":"STEP",
					"output":17
				},
				{
					"input":0,
					"interpolation":"STEP",
					"output":18
				},
				{
					"input":0,
					"interpolation":"STEP",
					"output":19
				}
			]
		},
		{
			"channels":[
				{
					"sampler":0,
					"target":{
						"node":0,
						"path":"translation"
					}
				},
				{
					"sampler":1,
					"target":{
						"node":0,
						"path":"rotation"
					}
				},
				{
					"sampler":2,
					"target":{
						"node":0,
						"path":"scale"
					}
				}
			],
			"name":"GAME.MOTO.TURN.RIGHT",
			"samplers":[
				{
					"input":0,
					"interpolation":"STEP",
					"output":20
				},
				{
					"input":0,
					"interpolation":"STEP",
					"output":21
				},
				{
					"input":0,
					"interpolation":"STEP",
					"output":22
				}
			]
		},
		{
			"channels":[
				{
					"sampler":0,
					"target":{
						"node":0,
						"path":"translation"
					}
				},
				{
					"sampler":1,
					"target":{
						"node":0,
						"path":"rotation"
					}
				},
				{
					"sampler":2,
					"target":{
						"node":0,
						"path":"scale"
					}
				}
			],
			"name":"GAME.MOTO.MOVE.FORWARD",
			"samplers":[
				{
					"input":0,
					"interpolation":"STEP",
					"output":23
				},
				{
					"input":0,
					"interpolation":"STEP",
					"output":24
				},
				{
					"input":0,
					"interpolation":"STEP",
					"output":25
				}
			]
		},
		{
			"channels":[
				{
					"sampler":0,
					"target":{
						"node":0,
						"path":"translation"
					}
				},
				{
					"sampler":1,
					"target":{
						"node":0,
						"path":"rotation"
					}
				},
				{
					"sampler":2,
					"target":{
						"node":0,
						"path":"scale"
					}
				}
			],
			"name":"GAME.MOTO.FLY",
			"samplers":[
				{
					"input":0,
					"interpolation":"STEP",
					"output":26
				},
				{
					"input":0,
					"interpolation":"STEP",
					"output":27
				},
				{
					"input":0,
					"interpolation":"STEP",
					"output":28
				}
			]
		}
	],
	"accessors":[
		{
			"bufferView":0,
			"componentType":5126,
			"count":2,
			"max":[
				0.08333333333333333
			],
			"min":[
				0.041666666666666664
			],
			"type":"SCALAR"
		},
		{
			"bufferView":1,
			"componentType":5126,
			"count":2,
			"type":"VEC3"
		},
		{
			"bufferView":2,
			"componentType":5126,
			"count":2,
			"type":"VEC4"
		},
		{
			"bufferView":3,
			"componentType":5126,
			"count":2,
			"type":"VEC3"
		},
		{
			"bufferView":4,
			"componentType":5126,
			"count":37,
			"max":[
				1.5416666666666667
			],
			"min":[
				0.041666666666666664
			],
			"type":"SCALAR"
		},
		{
			"bufferView":5,
			"componentType":5126,
			"count":37,
			"type":"VEC3"
		},
		{
			"bufferView":6,
			"componentType":5126,
			"count":2,
			"max":[
				1.5416666666666667
			],
			"min":[
				0.041666666666666664
			],
			"type":"SCALAR"
		},
		{
			"bufferView":7,
			"componentType":5126,
			"count":2,
			"type":"VEC4"
		},
		{
			"bufferView":8,
			"componentType":5126,
			"count":2,
			"type":"VEC3"
		},
		{
			"bufferView":9,
			"componentType":5126,
			"count":21,
			"max":[
				0.875
			],
			"min":[
				0.041666666666666664
			],
			"type":"SCALAR"
		},
		{
			"bufferView":10,
			"componentType":5126,
			"count":21,
			"type":"VEC3"
		},
		{
			"bufferView":11,
			"componentType":5126,
			"count":2,
			"max":[
				0.875
			],
			"min":[
				0.041666666666666664
			],
			"type":"SCALAR"
		},
		{
			"bufferView":12,
			"componentType":5126,
			"count":2,
			"type":"VEC4"
		},
		{
			"bufferView":13,
			"componentType":5126,
			"count":2,
			"type":"VEC3"
		},
		{
			"bufferView":14,
			"componentType":5126,
			"count":2,
			"type":"VEC3"
		},
		{
			"bufferView":15,
			"componentType":5126,
			"count":2,
			"type":"VEC4"
		},
		{
			"bufferView":16,
			"componentType":5126,
			"count":2,
			"type":"VEC3"
		},
		{
			"bufferView":17,
			"componentType":5126,
			"count":2,
			"type":"VEC3"
		},
		{
			"bufferView":18,
			"componentType":5126,
			"count":2,
			"type":"VEC4"
		},
		{
			"bufferView":19,
			"componentType":5126,
			"count":2,
			"type":"VEC3"
		},
		{
			"bufferView":20,
			"componentType":5126,
			"count":2,
			"type":"VEC3"
		},
		{
			"bufferView":21,
			"componentType":5126,
			"count":2,
			"type":"VEC4"
		},
		{
			"bufferView":22,
			"componentType":5126,
			"count":2,
			"type":"VEC3"
		},
		{
			"bufferView":23,
			"componentType":5126,
			"count":2,
			"type":"VEC3"
		},
		{
			"bufferView":24,
			"componentType":5126,
			"count":2,
			"type":"VEC4"
		},
		{
			"bufferView":25,
			"componentType":5126,
			"count":2,
			"type":"VEC3"
		},
		{
			"bufferView":26,
			"componentType":5126,
			"count":2,
			"type":"VEC3"
		},
		{
			"bufferView":27,
			"componentType":5126,
			"count":2,
			"type":"VEC4"
		},
		{
			"bufferView":28,
			"componentType":5126,
			"count":2,
			"type":"VEC3"
		}
	],
	"bufferViews":[
		{
			"buffer":0,
			"byteLength":8,
			"byteOffset":0
		},
		{
			"buffer":0,
			"byteLength":24,
			"byteOffset":8
		},
		{
			"buffer":0,
			"byteLength":32,
			"byteOffset":32
		},
		{
			"buffer":0,
			"byteLength":24,
			"byteOffset":64
		},
		{
			"buffer":0,
			"byteLength":148,
			"byteOffset":88
		},
		{
			"buffer":0,
			"byteLength":444,
			"byteOffset":236
		},
		{
			"buffer":0,
			"byteLength":8,
			"byteOffset":680
		},
		{
			"buffer":0,
			"byteLength":32,
			"byteOffset":688
		},
		{
			"buffer":0,
			"byteLength":24,
			"byteOffset":720
		},
		{
			"buffer":0,
			"byteLength":84,
			"byteOffset":744
		},
		{
			"buffer":0,
			"byteLength":252,
			"byteOffset":828
		},
		{
			"buffer":0,
			"byteLength":8,
			"byteOffset":1080
		},
		{
			"buffer":0,
			"byteLength":32,
			"byteOffset":1088
		},
		{
			"buffer":0,
			"byteLength":24,
			"byteOffset":1120
		},
		{
			"buffer":0,
			"byteLength":24,
			"byteOffset":1144
		},
		{
			"buffer":0,
			"byteLength":32,
			"byteOffset":1168
		},
		{
			"buffer":0,
			"byteLength":24,
			"byteOffset":1200
		},
		{
			"buffer":0,
			"byteLength":24,
			"byteOffset":1224
		},
		{
			"buffer":0,
			"byteLength":32,
			"byteOffset":1248
		},
		{
			"buffer":0,
			"byteLength":24,
			"byteOffset":1280
		},
		{
			"buffer":0,
			"byteLength":24,
			"byteOffset":1304
		},
		{
			"buffer":0,
			"byteLength":32,
			"byteOffset":1328
		},
		{
			"buffer":0,
			"byteLength":24,
			"byteOffset":1360
		},
		{
			"buffer":0,
			"byteLength":24,
			"byteOffset":1384
		},
		{
			"buffer":0,
			"byteLength":32,
			"byteOffset":1408
		},
		{
			"buffer":0,
			"byteLength":24,
			"byteOffset":1440
		},
		{
			"buffer":0,
			"byteLength":24,
			"byteOffset":1464
		},
		{
			"buffer":0,
			"byteLength":32,
			"byteOffset":1488
		},
		{
			"buffer":0,
			"byteLength":24,
			"byteOffset":1520
		}
	],
	"buffers":[
		{
			"byteLength":1544,
			"uri":"controller_common.bin"
		}
	]
}
