{
	"asset":{
		"copyright":"@serufu_yua",
		"generator":"Khronos glTF Blender I/O v3.6.28",
		"version":"2.0"
	},
	"scene":0,
	"scenes":[
		{
			"name":"Scene",
			"nodes":[
				0
			]
		}
	],
	"nodes":[
		{
			"mesh":0,
			"name":"Control_Jizz",
			"translation":[
				30,
				0,
				0
			]
		}
	],
	"animations":[
		{
			"channels":[
				{
					"sampler":0,
					"target":{
						"node":0,
						"path":"translation"
					}
				},
				{
					"sampler":1,
					"target":{
						"node":0,
						"path":"rotation"
					}
				},
				{
					"sampler":2,
					"target":{
						"node":0,
						"path":"scale"
					}
				}
			],
			"name":"GAME.TOGETHER.PLAY.A1.P0",
			"samplers":[
				{
					"input":5,
					"interpolation":"STEP",
					"output":6
				},
				{
					"input":5,
					"interpolation":"STEP",
					"output":7
				},
				{
					"input":5,
					"interpolation":"STEP",
					"output":8
				}
			]
		},
		{
			"channels":[
				{
					"sampler":0,
					"target":{
						"node":0,
						"path":"translation"
					}
				},
				{
					"sampler":1,
					"target":{
						"node":0,
						"path":"rotation"
					}
				},
				{
					"sampler":2,
					"target":{
						"node":0,
						"path":"scale"
					}
				}
			],
			"name":"GAME.TOGETHER.PLAY.A1.P1",
			"samplers":[
				{
					"input":5,
					"interpolation":"STEP",
					"output":9
				},
				{
					"input":5,
					"interpolation":"STEP",
					"output":10
				},
				{
					"input":5,
					"interpolation":"STEP",
					"output":11
				}
			]
		},
		{
			"channels":[
				{
					"sampler":0,
					"target":{
						"node":0,
						"path":"translation"
					}
				},
				{
					"sampler":1,
					"target":{
						"node":0,
						"path":"rotation"
					}
				},
				{
					"sampler":2,
					"target":{
						"node":0,
						"path":"scale"
					}
				}
			],
			"name":"GAME.TOGETHER.PLAY.A1.P2",
			"samplers":[
				{
					"input":5,
					"interpolation":"STEP",
					"output":12
				},
				{
					"input":5,
					"interpolation":"STEP",
					"output":13
				},
				{
					"input":5,
					"interpolation":"STEP",
					"output":14
				}
			]
		},
		{
			"channels":[
				{
					"sampler":0,
					"target":{
						"node":0,
						"path":"translation"
					}
				},
				{
					"sampler":1,
					"target":{
						"node":0,
						"path":"rotation"
					}
				},
				{
					"sampler":2,
					"target":{
						"node":0,
						"path":"scale"
					}
				}
			],
			"name":"GAME.TOGETHER.PLAY.A1.P3",
			"samplers":[
				{
					"input":15,
					"interpolation":"LINEAR",
					"output":16
				},
				{
					"input":17,
					"interpolation":"STEP",
					"output":18
				},
				{
					"input":17,
					"interpolation":"STEP",
					"output":19
				}
			]
		},
		{
			"channels":[
				{
					"sampler":0,
					"target":{
						"node":0,
						"path":"translation"
					}
				},
				{
					"sampler":1,
					"target":{
						"node":0,
						"path":"rotation"
					}
				},
				{
					"sampler":2,
					"target":{
						"node":0,
						"path":"scale"
					}
				}
			],
			"name":"GAME.TOGETHER.PLAY.A1.P4",
			"samplers":[
				{
					"input":5,
					"interpolation":"STEP",
					"output":20
				},
				{
					"input":5,
					"interpolation":"STEP",
					"output":21
				},
				{
					"input":5,
					"interpolation":"STEP",
					"output":22
				}
			]
		},
		{
			"channels":[
				{
					"sampler":0,
					"target":{
						"node":0,
						"path":"translation"
					}
				},
				{
					"sampler":1,
					"target":{
						"node":0,
						"path":"rotation"
					}
				},
				{
					"sampler":2,
					"target":{
						"node":0,
						"path":"scale"
					}
				}
			],
			"name":"GAME.TOGETHER.PLAY.IDLE",
			"samplers":[
				{
					"input":5,
					"interpolation":"STEP",
					"output":23
				},
				{
					"input":5,
					"interpolation":"STEP",
					"output":24
				},
				{
					"input":5,
					"interpolation":"STEP",
					"output":25
				}
			]
		},
		{
			"channels":[
				{
					"sampler":0,
					"target":{
						"node":0,
						"path":"translation"
					}
				},
				{
					"sampler":1,
					"target":{
						"node":0,
						"path":"rotation"
					}
				},
				{
					"sampler":2,
					"target":{
						"node":0,
						"path":"scale"
					}
				}
			],
			"name":"GAME.TOGETHER.PLAY.A2.P0",
			"samplers":[
				{
					"input":5,
					"interpolation":"STEP",
					"output":26
				},
				{
					"input":5,
					"interpolation":"STEP",
					"output":27
				},
				{
					"input":5,
					"interpolation":"STEP",
					"output":28
				}
			]
		},
		{
			"channels":[
				{
					"sampler":0,
					"target":{
						"node":0,
						"path":"translation"
					}
				},
				{
					"sampler":1,
					"target":{
						"node":0,
						"path":"rotation"
					}
				},
				{
					"sampler":2,
					"target":{
						"node":0,
						"path":"scale"
					}
				}
			],
			"name":"GAME.TOGETHER.PLAY.A2.P1",
			"samplers":[
				{
					"input":5,
					"interpolation":"STEP",
					"output":29
				},
				{
					"input":5,
					"interpolation":"STEP",
					"output":30
				},
				{
					"input":5,
					"interpolation":"STEP",
					"output":31
				}
			]
		},
		{
			"channels":[
				{
					"sampler":0,
					"target":{
						"node":0,
						"path":"translation"
					}
				},
				{
					"sampler":1,
					"target":{
						"node":0,
						"path":"rotation"
					}
				},
				{
					"sampler":2,
					"target":{
						"node":0,
						"path":"scale"
					}
				}
			],
			"name":"GAME.TOGETHER.PLAY.A2.P2",
			"samplers":[
				{
					"input":5,
					"interpolation":"STEP",
					"output":32
				},
				{
					"input":5,
					"interpolation":"STEP",
					"output":33
				},
				{
					"input":5,
					"interpolation":"STEP",
					"output":34
				}
			]
		},
		{
			"channels":[
				{
					"sampler":0,
					"target":{
						"node":0,
						"path":"translation"
					}
				},
				{
					"sampler":1,
					"target":{
						"node":0,
						"path":"rotation"
					}
				},
				{
					"sampler":2,
					"target":{
						"node":0,
						"path":"scale"
					}
				}
			],
			"name":"GAME.TOGETHER.PLAY.A2.P3",
			"samplers":[
				{
					"input":35,
					"interpolation":"LINEAR",
					"output":36
				},
				{
					"input":37,
					"interpolation":"STEP",
					"output":38
				},
				{
					"input":37,
					"interpolation":"STEP",
					"output":39
				}
			]
		},
		{
			"channels":[
				{
					"sampler":0,
					"target":{
						"node":0,
						"path":"translation"
					}
				},
				{
					"sampler":1,
					"target":{
						"node":0,
						"path":"rotation"
					}
				},
				{
					"sampler":2,
					"target":{
						"node":0,
						"path":"scale"
					}
				}
			],
			"name":"GAME.TOGETHER.PLAY.A2.P4",
			"samplers":[
				{
					"input":5,
					"interpolation":"STEP",
					"output":40
				},
				{
					"input":5,
					"interpolation":"STEP",
					"output":41
				},
				{
					"input":5,
					"interpolation":"STEP",
					"output":42
				}
			]
		}
	],
	"meshes":[
		{
			"name":"Cube.004",
			"primitives":[
				{
					"attributes":{
						"POSITION":0,
						"NORMAL":1,
						"TEXCOORD_0":2,
						"TANGENT":3
					},
					"indices":4
				}
			]
		}
	],
	"accessors":[
		{
			"bufferView":0,
			"componentType":5126,
			"count":24,
			"max":[
				1,
				1,
				1
			],
			"min":[
				-1,
				-1,
				-1
			],
			"type":"VEC3"
		},
		{
			"bufferView":1,
			"componentType":5126,
			"count":24,
			"type":"VEC3"
		},
		{
			"bufferView":2,
			"componentType":5126,
			"count":24,
			"type":"VEC2"
		},
		{
			"bufferView":3,
			"componentType":5126,
			"count":24,
			"type":"VEC4"
		},
		{
			"bufferView":4,
			"componentType":5123,
			"count":36,
			"type":"SCALAR"
		},
		{
			"bufferView":5,
			"componentType":5126,
			"count":2,
			"max":[
				0.4583333333333333
			],
			"min":[
				0.041666666666666664
			],
			"type":"SCALAR"
		},
		{
			"bufferView":6,
			"componentType":5126,
			"count":2,
			"type":"VEC3"
		},
		{
			"bufferView":7,
			"componentType":5126,
			"count":2,
			"type":"VEC4"
		},
		{
			"bufferView":8,
			"componentType":5126,
			"count":2,
			"type":"VEC3"
		},
		{
			"bufferView":9,
			"componentType":5126,
			"count":2,
			"type":"VEC3"
		},
		{
			"bufferView":10,
			"componentType":5126,
			"count":2,
			"type":"VEC4"
		},
		{
			"bufferView":11,
			"componentType":5126,
			"count":2,
			"type":"VEC3"
		},
		{
			"bufferView":12,
			"componentType":5126,
			"count":2,
			"type":"VEC3"
		},
		{
			"bufferView":13,
			"componentType":5126,
			"count":2,
			"type":"VEC4"
		},
		{
			"bufferView":14,
			"componentType":5126,
			"count":2,
			"type":"VEC3"
		},
		{
			"bufferView":15,
			"componentType":5126,
			"count":161,
			"max":[
				6.708333333333333
			],
			"min":[
				0.041666666666666664
			],
			"type":"SCALAR"
		},
		{
			"bufferView":16,
			"componentType":5126,
			"count":161,
			"type":"VEC3"
		},
		{
			"bufferView":17,
			"componentType":5126,
			"count":2,
			"max":[
				6.708333333333333
			],
			"min":[
				0.041666666666666664
			],
			"type":"SCALAR"
		},
		{
			"bufferView":18,
			"componentType":5126,
			"count":2,
			"type":"VEC4"
		},
		{
			"bufferView":19,
			"componentType":5126,
			"count":2,
			"type":"VEC3"
		},
		{
			"bufferView":20,
			"componentType":5126,
			"count":2,
			"type":"VEC3"
		},
		{
			"bufferView":21,
			"componentType":5126,
			"count":2,
			"type":"VEC4"
		},
		{
			"bufferView":22,
			"componentType":5126,
			"count":2,
			"type":"VEC3"
		},
		{
			"bufferView":23,
			"componentType":5126,
			"count":2,
			"type":"VEC3"
		},
		{
			"bufferView":24,
			"componentType":5126,
			"count":2,
			"type":"VEC4"
		},
		{
			"bufferView":25,
			"componentType":5126,
			"count":2,
			"type":"VEC3"
		},
		{
			"bufferView":26,
			"componentType":5126,
			"count":2,
			"type":"VEC3"
		},
		{
			"bufferView":27,
			"componentType":5126,
			"count":2,
			"type":"VEC4"
		},
		{
			"bufferView":28,
			"componentType":5126,
			"count":2,
			"type":"VEC3"
		},
		{
			"bufferView":29,
			"componentType":5126,
			"count":2,
			"type":"VEC3"
		},
		{
			"bufferView":30,
			"componentType":5126,
			"count":2,
			"type":"VEC4"
		},
		{
			"bufferView":31,
			"componentType":5126,
			"count":2,
			"type":"VEC3"
		},
		{
			"bufferView":32,
			"componentType":5126,
			"count":2,
			"type":"VEC3"
		},
		{
			"bufferView":33,
			"componentType":5126,
			"count":2,
			"type":"VEC4"
		},
		{
			"bufferView":34,
			"componentType":5126,
			"count":2,
			"type":"VEC3"
		},
		{
			"bufferView":35,
			"componentType":5126,
			"count":193,
			"max":[
				8.041666666666666
			],
			"min":[
				0.041666666666666664
			],
			"type":"SCALAR"
		},
		{
			"bufferView":36,
			"componentType":5126,
			"count":193,
			"type":"VEC3"
		},
		{
			"bufferView":37,
			"componentType":5126,
			"count":2,
			"max":[
				8.041666666666666
			],
			"min":[
				0.041666666666666664
			],
			"type":"SCALAR"
		},
		{
			"bufferView":38,
			"componentType":5126,
			"count":2,
			"type":"VEC4"
		},
		{
			"bufferView":39,
			"componentType":5126,
			"count":2,
			"type":"VEC3"
		},
		{
			"bufferView":40,
			"componentType":5126,
			"count":2,
			"type":"VEC3"
		},
		{
			"bufferView":41,
			"componentType":5126,
			"count":2,
			"type":"VEC4"
		},
		{
			"bufferView":42,
			"componentType":5126,
			"count":2,
			"type":"VEC3"
		}
	],
	"bufferViews":[
		{
			"buffer":0,
			"byteLength":288,
			"byteOffset":0,
			"target":34962
		},
		{
			"buffer":0,
			"byteLength":288,
			"byteOffset":288,
			"target":34962
		},
		{
			"buffer":0,
			"byteLength":192,
			"byteOffset":576,
			"target":34962
		},
		{
			"buffer":0,
			"byteLength":384,
			"byteOffset":768,
			"target":34962
		},
		{
			"buffer":0,
			"byteLength":72,
			"byteOffset":1152,
			"target":34963
		},
		{
			"buffer":0,
			"byteLength":8,
			"byteOffset":1224
		},
		{
			"buffer":0,
			"byteLength":24,
			"byteOffset":1232
		},
		{
			"buffer":0,
			"byteLength":32,
			"byteOffset":1256
		},
		{
			"buffer":0,
			"byteLength":24,
			"byteOffset":1288
		},
		{
			"buffer":0,
			"byteLength":24,
			"byteOffset":1312
		},
		{
			"buffer":0,
			"byteLength":32,
			"byteOffset":1336
		},
		{
			"buffer":0,
			"byteLength":24,
			"byteOffset":1368
		},
		{
			"buffer":0,
			"byteLength":24,
			"byteOffset":1392
		},
		{
			"buffer":0,
			"byteLength":32,
			"byteOffset":1416
		},
		{
			"buffer":0,
			"byteLength":24,
			"byteOffset":1448
		},
		{
			"buffer":0,
			"byteLength":644,
			"byteOffset":1472
		},
		{
			"buffer":0,
			"byteLength":1932,
			"byteOffset":2116
		},
		{
			"buffer":0,
			"byteLength":8,
			"byteOffset":4048
		},
		{
			"buffer":0,
			"byteLength":32,
			"byteOffset":4056
		},
		{
			"buffer":0,
			"byteLength":24,
			"byteOffset":4088
		},
		{
			"buffer":0,
			"byteLength":24,
			"byteOffset":4112
		},
		{
			"buffer":0,
			"byteLength":32,
			"byteOffset":4136
		},
		{
			"buffer":0,
			"byteLength":24,
			"byteOffset":4168
		},
		{
			"buffer":0,
			"byteLength":24,
			"byteOffset":4192
		},
		{
			"buffer":0,
			"byteLength":32,
			"byteOffset":4216
		},
		{
			"buffer":0,
			"byteLength":24,
			"byteOffset":4248
		},
		{
			"buffer":0,
			"byteLength":24,
			"byteOffset":4272
		},
		{
			"buffer":0,
			"byteLength":32,
			"byteOffset":4296
		},
		{
			"buffer":0,
			"byteLength":24,
			"byteOffset":4328
		},
		{
			"buffer":0,
			"byteLength":24,
			"byteOffset":4352
		},
		{
			"buffer":0,
			"byteLength":32,
			"byteOffset":4376
		},
		{
			"buffer":0,
			"byteLength":24,
			"byteOffset":4408
		},
		{
			"buffer":0,
			"byteLength":24,
			"byteOffset":4432
		},
		{
			"buffer":0,
			"byteLength":32,
			"byteOffset":4456
		},
		{
			"buffer":0,
			"byteLength":24,
			"byteOffset":4488
		},
		{
			"buffer":0,
			"byteLength":772,
			"byteOffset":4512
		},
		{
			"buffer":0,
			"byteLength":2316,
			"byteOffset":5284
		},
		{
			"buffer":0,
			"byteLength":8,
			"byteOffset":7600
		},
		{
			"buffer":0,
			"byteLength":32,
			"byteOffset":7608
		},
		{
			"buffer":0,
			"byteLength":24,
			"byteOffset":7640
		},
		{
			"buffer":0,
			"byteLength":24,
			"byteOffset":7664
		},
		{
			"buffer":0,
			"byteLength":32,
			"byteOffset":7688
		},
		{
			"buffer":0,
			"byteLength":24,
			"byteOffset":7720
		}
	],
	"buffers":[
		{
			"byteLength":7744,
			"uri":"controller_togetherPlay.bin"
		}
	]
}
