{
	"asset":{
		"copyright":"@serufu_yua",
		"generator":"Khronos glTF Blender I/O v3.6.28",
		"version":"2.0"
	},
	"scene":0,
	"scenes":[
		{
			"name":"Scene",
			"nodes":[
				0
			]
		}
	],
	"nodes":[
		{
			"name":"Control_Jizz"
		}
	],
	"animations":[
		{
			"channels":[
				{
					"sampler":0,
					"target":{
						"node":0,
						"path":"translation"
					}
				},
				{
					"sampler":1,
					"target":{
						"node":0,
						"path":"rotation"
					}
				},
				{
					"sampler":2,
					"target":{
						"node":0,
						"path":"scale"
					}
				}
			],
			"name":"GAME.TOGETHER.PLAY.A1.Start",
			"samplers":[
				{
					"input":0,
					"interpolation":"STEP",
					"output":1
				},
				{
					"input":0,
					"interpolation":"STEP",
					"output":2
				},
				{
					"input":0,
					"interpolation":"STEP",
					"output":3
				}
			]
		},
		{
			"channels":[
				{
					"sampler":0,
					"target":{
						"node":0,
						"path":"translation"
					}
				},
				{
					"sampler":1,
					"target":{
						"node":0,
						"path":"rotation"
					}
				},
				{
					"sampler":2,
					"target":{
						"node":0,
						"path":"scale"
					}
				}
			],
			"name":"GAME.TOGETHER.PLAY.A1.Go",
			"samplers":[
				{
					"input":0,
					"interpolation":"STEP",
					"output":4
				},
				{
					"input":0,
					"interpolation":"STEP",
					"output":5
				},
				{
					"input":0,
					"interpolation":"STEP",
					"output":6
				}
			]
		},
		{
			"channels":[
				{
					"sampler":0,
					"target":{
						"node":0,
						"path":"translation"
					}
				},
				{
					"sampler":1,
					"target":{
						"node":0,
						"path":"rotation"
					}
				},
				{
					"sampler":2,
					"target":{
						"node":0,
						"path":"scale"
					}
				}
			],
			"name":"GAME.TOGETHER.PLAY.A1.FastGo",
			"samplers":[
				{
					"input":0,
					"interpolation":"STEP",
					"output":7
				},
				{
					"input":0,
					"interpolation":"STEP",
					"output":8
				},
				{
					"input":0,
					"interpolation":"STEP",
					"output":9
				}
			]
		},
		{
			"channels":[
				{
					"sampler":0,
					"target":{
						"node":0,
						"path":"translation"
					}
				},
				{
					"sampler":1,
					"target":{
						"node":0,
						"path":"rotation"
					}
				},
				{
					"sampler":2,
					"target":{
						"node":0,
						"path":"scale"
					}
				}
			],
			"name":"GAME.TOGETHER.PLAY.A1.Finish",
			"samplers":[
				{
					"input":10,
					"interpolation":"LINEAR",
					"output":11
				},
				{
					"input":12,
					"interpolation":"STEP",
					"output":13
				},
				{
					"input":12,
					"interpolation":"STEP",
					"output":14
				}
			]
		},
		{
			"channels":[
				{
					"sampler":0,
					"target":{
						"node":0,
						"path":"translation"
					}
				},
				{
					"sampler":1,
					"target":{
						"node":0,
						"path":"rotation"
					}
				},
				{
					"sampler":2,
					"target":{
						"node":0,
						"path":"scale"
					}
				}
			],
			"name":"GAME.TOGETHER.PLAY.A1.Relax",
			"samplers":[
				{
					"input":0,
					"interpolation":"STEP",
					"output":15
				},
				{
					"input":0,
					"interpolation":"STEP",
					"output":16
				},
				{
					"input":0,
					"interpolation":"STEP",
					"output":17
				}
			]
		},
		{
			"channels":[
				{
					"sampler":0,
					"target":{
						"node":0,
						"path":"translation"
					}
				},
				{
					"sampler":1,
					"target":{
						"node":0,
						"path":"rotation"
					}
				},
				{
					"sampler":2,
					"target":{
						"node":0,
						"path":"scale"
					}
				}
			],
			"name":"GAME.TOGETHER.PLAY.A2.Start",
			"samplers":[
				{
					"input":0,
					"interpolation":"STEP",
					"output":18
				},
				{
					"input":0,
					"interpolation":"STEP",
					"output":19
				},
				{
					"input":0,
					"interpolation":"STEP",
					"output":20
				}
			]
		},
		{
			"channels":[
				{
					"sampler":0,
					"target":{
						"node":0,
						"path":"translation"
					}
				},
				{
					"sampler":1,
					"target":{
						"node":0,
						"path":"rotation"
					}
				},
				{
					"sampler":2,
					"target":{
						"node":0,
						"path":"scale"
					}
				}
			],
			"name":"GAME.TOGETHER.PLAY.A2.Go",
			"samplers":[
				{
					"input":0,
					"interpolation":"STEP",
					"output":21
				},
				{
					"input":0,
					"interpolation":"STEP",
					"output":22
				},
				{
					"input":0,
					"interpolation":"STEP",
					"output":23
				}
			]
		},
		{
			"channels":[
				{
					"sampler":0,
					"target":{
						"node":0,
						"path":"translation"
					}
				},
				{
					"sampler":1,
					"target":{
						"node":0,
						"path":"rotation"
					}
				},
				{
					"sampler":2,
					"target":{
						"node":0,
						"path":"scale"
					}
				}
			],
			"name":"GAME.TOGETHER.PLAY.A2.FastGo",
			"samplers":[
				{
					"input":0,
					"interpolation":"STEP",
					"output":24
				},
				{
					"input":0,
					"interpolation":"STEP",
					"output":25
				},
				{
					"input":0,
					"interpolation":"STEP",
					"output":26
				}
			]
		},
		{
			"channels":[
				{
					"sampler":0,
					"target":{
						"node":0,
						"path":"translation"
					}
				},
				{
					"sampler":1,
					"target":{
						"node":0,
						"path":"rotation"
					}
				},
				{
					"sampler":2,
					"target":{
						"node":0,
						"path":"scale"
					}
				}
			],
			"name":"GAME.TOGETHER.PLAY.A2.Finish",
			"samplers":[
				{
					"input":27,
					"interpolation":"LINEAR",
					"output":28
				},
				{
					"input":29,
					"interpolation":"STEP",
					"output":30
				},
				{
					"input":29,
					"interpolation":"STEP",
					"output":31
				}
			]
		},
		{
			"channels":[
				{
					"sampler":0,
					"target":{
						"node":0,
						"path":"translation"
					}
				},
				{
					"sampler":1,
					"target":{
						"node":0,
						"path":"rotation"
					}
				},
				{
					"sampler":2,
					"target":{
						"node":0,
						"path":"scale"
					}
				}
			],
			"name":"GAME.TOGETHER.PLAY.A2.Relax",
			"samplers":[
				{
					"input":0,
					"interpolation":"STEP",
					"output":32
				},
				{
					"input":0,
					"interpolation":"STEP",
					"output":33
				},
				{
					"input":0,
					"interpolation":"STEP",
					"output":34
				}
			]
		},
		{
			"channels":[
				{
					"sampler":0,
					"target":{
						"node":0,
						"path":"translation"
					}
				},
				{
					"sampler":1,
					"target":{
						"node":0,
						"path":"rotation"
					}
				},
				{
					"sampler":2,
					"target":{
						"node":0,
						"path":"scale"
					}
				}
			],
			"name":"GAME.TOGETHER.PLAY.A3.Relax",
			"samplers":[
				{
					"input":0,
					"interpolation":"STEP",
					"output":35
				},
				{
					"input":0,
					"interpolation":"STEP",
					"output":36
				},
				{
					"input":0,
					"interpolation":"STEP",
					"output":37
				}
			]
		},
		{
			"channels":[
				{
					"sampler":0,
					"target":{
						"node":0,
						"path":"translation"
					}
				},
				{
					"sampler":1,
					"target":{
						"node":0,
						"path":"rotation"
					}
				},
				{
					"sampler":2,
					"target":{
						"node":0,
						"path":"scale"
					}
				}
			],
			"name":"GAME.TOGETHER.PLAY.A3.Finish",
			"samplers":[
				{
					"input":38,
					"interpolation":"LINEAR",
					"output":39
				},
				{
					"input":40,
					"interpolation":"STEP",
					"output":41
				},
				{
					"input":40,
					"interpolation":"STEP",
					"output":42
				}
			]
		},
		{
			"channels":[
				{
					"sampler":0,
					"target":{
						"node":0,
						"path":"translation"
					}
				},
				{
					"sampler":1,
					"target":{
						"node":0,
						"path":"rotation"
					}
				},
				{
					"sampler":2,
					"target":{
						"node":0,
						"path":"scale"
					}
				}
			],
			"name":"GAME.TOGETHER.PLAY.A3.FastGo",
			"samplers":[
				{
					"input":0,
					"interpolation":"STEP",
					"output":43
				},
				{
					"input":0,
					"interpolation":"STEP",
					"output":44
				},
				{
					"input":0,
					"interpolation":"STEP",
					"output":45
				}
			]
		},
		{
			"channels":[
				{
					"sampler":0,
					"target":{
						"node":0,
						"path":"translation"
					}
				},
				{
					"sampler":1,
					"target":{
						"node":0,
						"path":"rotation"
					}
				},
				{
					"sampler":2,
					"target":{
						"node":0,
						"path":"scale"
					}
				}
			],
			"name":"GAME.TOGETHER.PLAY.A3.Go",
			"samplers":[
				{
					"input":0,
					"interpolation":"STEP",
					"output":46
				},
				{
					"input":0,
					"interpolation":"STEP",
					"output":47
				},
				{
					"input":0,
					"interpolation":"STEP",
					"output":48
				}
			]
		},
		{
			"channels":[
				{
					"sampler":0,
					"target":{
						"node":0,
						"path":"translation"
					}
				},
				{
					"sampler":1,
					"target":{
						"node":0,
						"path":"rotation"
					}
				},
				{
					"sampler":2,
					"target":{
						"node":0,
						"path":"scale"
					}
				}
			],
			"name":"GAME.TOGETHER.PLAY.A3.Start",
			"samplers":[
				{
					"input":0,
					"interpolation":"STEP",
					"output":49
				},
				{
					"input":0,
					"interpolation":"STEP",
					"output":50
				},
				{
					"input":0,
					"interpolation":"STEP",
					"output":51
				}
			]
		},
		{
			"channels":[
				{
					"sampler":0,
					"target":{
						"node":0,
						"path":"translation"
					}
				},
				{
					"sampler":1,
					"target":{
						"node":0,
						"path":"rotation"
					}
				},
				{
					"sampler":2,
					"target":{
						"node":0,
						"path":"scale"
					}
				}
			],
			"name":"GAME.TOGETHER.PLAY.Idle",
			"samplers":[
				{
					"input":0,
					"interpolation":"STEP",
					"output":52
				},
				{
					"input":0,
					"interpolation":"STEP",
					"output":53
				},
				{
					"input":0,
					"interpolation":"STEP",
					"output":54
				}
			]
		}
	],
	"accessors":[
		{
			"bufferView":0,
			"componentType":5126,
			"count":2,
			"max":[
				0.4583333333333333
			],
			"min":[
				0.041666666666666664
			],
			"type":"SCALAR"
		},
		{
			"bufferView":1,
			"componentType":5126,
			"count":2,
			"type":"VEC3"
		},
		{
			"bufferView":2,
			"componentType":5126,
			"count":2,
			"type":"VEC4"
		},
		{
			"bufferView":3,
			"componentType":5126,
			"count":2,
			"type":"VEC3"
		},
		{
			"bufferView":4,
			"componentType":5126,
			"count":2,
			"type":"VEC3"
		},
		{
			"bufferView":5,
			"componentType":5126,
			"count":2,
			"type":"VEC4"
		},
		{
			"bufferView":6,
			"componentType":5126,
			"count":2,
			"type":"VEC3"
		},
		{
			"bufferView":7,
			"componentType":5126,
			"count":2,
			"type":"VEC3"
		},
		{
			"bufferView":8,
			"componentType":5126,
			"count":2,
			"type":"VEC4"
		},
		{
			"bufferView":9,
			"componentType":5126,
			"count":2,
			"type":"VEC3"
		},
		{
			"bufferView":10,
			"componentType":5126,
			"count":161,
			"max":[
				6.708333333333333
			],
			"min":[
				0.041666666666666664
			],
			"type":"SCALAR"
		},
		{
			"bufferView":11,
			"componentType":5126,
			"count":161,
			"type":"VEC3"
		},
		{
			"bufferView":12,
			"componentType":5126,
			"count":2,
			"max":[
				6.708333333333333
			],
			"min":[
				0.041666666666666664
			],
			"type":"SCALAR"
		},
		{
			"bufferView":13,
			"componentType":5126,
			"count":2,
			"type":"VEC4"
		},
		{
			"bufferView":14,
			"componentType":5126,
			"count":2,
			"type":"VEC3"
		},
		{
			"bufferView":15,
			"componentType":5126,
			"count":2,
			"type":"VEC3"
		},
		{
			"bufferView":16,
			"componentType":5126,
			"count":2,
			"type":"VEC4"
		},
		{
			"bufferView":17,
			"componentType":5126,
			"count":2,
			"type":"VEC3"
		},
		{
			"bufferView":18,
			"componentType":5126,
			"count":2,
			"type":"VEC3"
		},
		{
			"bufferView":19,
			"componentType":5126,
			"count":2,
			"type":"VEC4"
		},
		{
			"bufferView":20,
			"componentType":5126,
			"count":2,
			"type":"VEC3"
		},
		{
			"bufferView":21,
			"componentType":5126,
			"count":2,
			"type":"VEC3"
		},
		{
			"bufferView":22,
			"componentType":5126,
			"count":2,
			"type":"VEC4"
		},
		{
			"bufferView":23,
			"componentType":5126,
			"count":2,
			"type":"VEC3"
		},
		{
			"bufferView":24,
			"componentType":5126,
			"count":2,
			"type":"VEC3"
		},
		{
			"bufferView":25,
			"componentType":5126,
			"count":2,
			"type":"VEC4"
		},
		{
			"bufferView":26,
			"componentType":5126,
			"count":2,
			"type":"VEC3"
		},
		{
			"bufferView":27,
			"componentType":5126,
			"count":193,
			"max":[
				8.041666666666666
			],
			"min":[
				0.041666666666666664
			],
			"type":"SCALAR"
		},
		{
			"bufferView":28,
			"componentType":5126,
			"count":193,
			"type":"VEC3"
		},
		{
			"bufferView":29,
			"componentType":5126,
			"count":2,
			"max":[
				8.041666666666666
			],
			"min":[
				0.041666666666666664
			],
			"type":"SCALAR"
		},
		{
			"bufferView":30,
			"componentType":5126,
			"count":2,
			"type":"VEC4"
		},
		{
			"bufferView":31,
			"componentType":5126,
			"count":2,
			"type":"VEC3"
		},
		{
			"bufferView":32,
			"componentType":5126,
			"count":2,
			"type":"VEC3"
		},
		{
			"bufferView":33,
			"componentType":5126,
			"count":2,
			"type":"VEC4"
		},
		{
			"bufferView":34,
			"componentType":5126,
			"count":2,
			"type":"VEC3"
		},
		{
			"bufferView":35,
			"componentType":5126,
			"count":2,
			"type":"VEC3"
		},
		{
			"bufferView":36,
			"componentType":5126,
			"count":2,
			"type":"VEC4"
		},
		{
			"bufferView":37,
			"componentType":5126,
			"count":2,
			"type":"VEC3"
		},
		{
			"bufferView":38,
			"componentType":5126,
			"count":141,
			"max":[
				5.875
			],
			"min":[
				0.041666666666666664
			],
			"type":"SCALAR"
		},
		{
			"bufferView":39,
			"componentType":5126,
			"count":141,
			"type":"VEC3"
		},
		{
			"bufferView":40,
			"componentType":5126,
			"count":2,
			"max":[
				5.875
			],
			"min":[
				0.041666666666666664
			],
			"type":"SCALAR"
		},
		{
			"bufferView":41,
			"componentType":5126,
			"count":2,
			"type":"VEC4"
		},
		{
			"bufferView":42,
			"componentType":5126,
			"count":2,
			"type":"VEC3"
		},
		{
			"bufferView":43,
			"componentType":5126,
			"count":2,
			"type":"VEC3"
		},
		{
			"bufferView":44,
			"componentType":5126,
			"count":2,
			"type":"VEC4"
		},
		{
			"bufferView":45,
			"componentType":5126,
			"count":2,
			"type":"VEC3"
		},
		{
			"bufferView":46,
			"componentType":5126,
			"count":2,
			"type":"VEC3"
		},
		{
			"bufferView":47,
			"componentType":5126,
			"count":2,
			"type":"VEC4"
		},
		{
			"bufferView":48,
			"componentType":5126,
			"count":2,
			"type":"VEC3"
		},
		{
			"bufferView":49,
			"componentType":5126,
			"count":2,
			"type":"VEC3"
		},
		{
			"bufferView":50,
			"componentType":5126,
			"count":2,
			"type":"VEC4"
		},
		{
			"bufferView":51,
			"componentType":5126,
			"count":2,
			"type":"VEC3"
		},
		{
			"bufferView":52,
			"componentType":5126,
			"count":2,
			"type":"VEC3"
		},
		{
			"bufferView":53,
			"componentType":5126,
			"count":2,
			"type":"VEC4"
		},
		{
			"bufferView":54,
			"componentType":5126,
			"count":2,
			"type":"VEC3"
		}
	],
	"bufferViews":[
		{
			"buffer":0,
			"byteLength":8,
			"byteOffset":0
		},
		{
			"buffer":0,
			"byteLength":24,
			"byteOffset":8
		},
		{
			"buffer":0,
			"byteLength":32,
			"byteOffset":32
		},
		{
			"buffer":0,
			"byteLength":24,
			"byteOffset":64
		},
		{
			"buffer":0,
			"byteLength":24,
			"byteOffset":88
		},
		{
			"buffer":0,
			"byteLength":32,
			"byteOffset":112
		},
		{
			"buffer":0,
			"byteLength":24,
			"byteOffset":144
		},
		{
			"buffer":0,
			"byteLength":24,
			"byteOffset":168
		},
		{
			"buffer":0,
			"byteLength":32,
			"byteOffset":192
		},
		{
			"buffer":0,
			"byteLength":24,
			"byteOffset":224
		},
		{
			"buffer":0,
			"byteLength":644,
			"byteOffset":248
		},
		{
			"buffer":0,
			"byteLength":1932,
			"byteOffset":892
		},
		{
			"buffer":0,
			"byteLength":8,
			"byteOffset":2824
		},
		{
			"buffer":0,
			"byteLength":32,
			"byteOffset":2832
		},
		{
			"buffer":0,
			"byteLength":24,
			"byteOffset":2864
		},
		{
			"buffer":0,
			"byteLength":24,
			"byteOffset":2888
		},
		{
			"buffer":0,
			"byteLength":32,
			"byteOffset":2912
		},
		{
			"buffer":0,
			"byteLength":24,
			"byteOffset":2944
		},
		{
			"buffer":0,
			"byteLength":24,
			"byteOffset":2968
		},
		{
			"buffer":0,
			"byteLength":32,
			"byteOffset":2992
		},
		{
			"buffer":0,
			"byteLength":24,
			"byteOffset":3024
		},
		{
			"buffer":0,
			"byteLength":24,
			"byteOffset":3048
		},
		{
			"buffer":0,
			"byteLength":32,
			"byteOffset":3072
		},
		{
			"buffer":0,
			"byteLength":24,
			"byteOffset":3104
		},
		{
			"buffer":0,
			"byteLength":24,
			"byteOffset":3128
		},
		{
			"buffer":0,
			"byteLength":32,
			"byteOffset":3152
		},
		{
			"buffer":0,
			"byteLength":24,
			"byteOffset":3184
		},
		{
			"buffer":0,
			"byteLength":772,
			"byteOffset":3208
		},
		{
			"buffer":0,
			"byteLength":2316,
			"byteOffset":3980
		},
		{
			"buffer":0,
			"byteLength":8,
			"byteOffset":6296
		},
		{
			"buffer":0,
			"byteLength":32,
			"byteOffset":6304
		},
		{
			"buffer":0,
			"byteLength":24,
			"byteOffset":6336
		},
		{
			"buffer":0,
			"byteLength":24,
			"byteOffset":6360
		},
		{
			"buffer":0,
			"byteLength":32,
			"byteOffset":6384
		},
		{
			"buffer":0,
			"byteLength":24,
			"byteOffset":6416
		},
		{
			"buffer":0,
			"byteLength":24,
			"byteOffset":6440
		},
		{
			"buffer":0,
			"byteLength":32,
			"byteOffset":6464
		},
		{
			"buffer":0,
			"byteLength":24,
			"byteOffset":6496
		},
		{
			"buffer":0,
			"byteLength":564,
			"byteOffset":6520
		},
		{
			"buffer":0,
			"byteLength":1692,
			"byteOffset":7084
		},
		{
			"buffer":0,
			"byteLength":8,
			"byteOffset":8776
		},
		{
			"buffer":0,
			"byteLength":32,
			"byteOffset":8784
		},
		{
			"buffer":0,
			"byteLength":24,
			"byteOffset":8816
		},
		{
			"buffer":0,
			"byteLength":24,
			"byteOffset":8840
		},
		{
			"buffer":0,
			"byteLength":32,
			"byteOffset":8864
		},
		{
			"buffer":0,
			"byteLength":24,
			"byteOffset":8896
		},
		{
			"buffer":0,
			"byteLength":24,
			"byteOffset":8920
		},
		{
			"buffer":0,
			"byteLength":32,
			"byteOffset":8944
		},
		{
			"buffer":0,
			"byteLength":24,
			"byteOffset":8976
		},
		{
			"buffer":0,
			"byteLength":24,
			"byteOffset":9000
		},
		{
			"buffer":0,
			"byteLength":32,
			"byteOffset":9024
		},
		{
			"buffer":0,
			"byteLength":24,
			"byteOffset":9056
		},
		{
			"buffer":0,
			"byteLength":24,
			"byteOffset":9080
		},
		{
			"buffer":0,
			"byteLength":32,
			"byteOffset":9104
		},
		{
			"buffer":0,
			"byteLength":24,
			"byteOffset":9136
		}
	],
	"buffers":[
		{
			"byteLength":9160,
			"uri":"controller_togetherPlay.bin"
		}
	]
}
