{
	"asset":{
		"copyright":"@serufu_yua",
		"generator":"Khronos glTF Blender I/O v3.6.28",
		"version":"2.0"
	},
	"scene":0,
	"scenes":[
		{
			"name":"Scene",
			"nodes":[
				0
			]
		}
	],
	"nodes":[
		{
			"name":"Control_Jizz"
		}
	],
	"animations":[
		{
			"channels":[
				{
					"sampler":0,
					"target":{
						"node":0,
						"path":"translation"
					}
				},
				{
					"sampler":1,
					"target":{
						"node":0,
						"path":"rotation"
					}
				},
				{
					"sampler":2,
					"target":{
						"node":0,
						"path":"scale"
					}
				}
			],
			"name":"GAME.GIRL_SOLO.PLAY.A1.Start",
			"samplers":[
				{
					"input":0,
					"interpolation":"STEP",
					"output":1
				},
				{
					"input":0,
					"interpolation":"STEP",
					"output":2
				},
				{
					"input":0,
					"interpolation":"STEP",
					"output":3
				}
			]
		},
		{
			"channels":[
				{
					"sampler":0,
					"target":{
						"node":0,
						"path":"translation"
					}
				},
				{
					"sampler":1,
					"target":{
						"node":0,
						"path":"rotation"
					}
				},
				{
					"sampler":2,
					"target":{
						"node":0,
						"path":"scale"
					}
				}
			],
			"name":"GAME.GIRL_SOLO.PLAY.A1.Go",
			"samplers":[
				{
					"input":0,
					"interpolation":"STEP",
					"output":4
				},
				{
					"input":0,
					"interpolation":"STEP",
					"output":5
				},
				{
					"input":0,
					"interpolation":"STEP",
					"output":6
				}
			]
		},
		{
			"channels":[
				{
					"sampler":0,
					"target":{
						"node":0,
						"path":"translation"
					}
				},
				{
					"sampler":1,
					"target":{
						"node":0,
						"path":"rotation"
					}
				},
				{
					"sampler":2,
					"target":{
						"node":0,
						"path":"scale"
					}
				}
			],
			"name":"GAME.GIRL_SOLO.PLAY.A1.FastGo",
			"samplers":[
				{
					"input":0,
					"interpolation":"STEP",
					"output":7
				},
				{
					"input":0,
					"interpolation":"STEP",
					"output":8
				},
				{
					"input":0,
					"interpolation":"STEP",
					"output":9
				}
			]
		},
		{
			"channels":[
				{
					"sampler":0,
					"target":{
						"node":0,
						"path":"translation"
					}
				},
				{
					"sampler":1,
					"target":{
						"node":0,
						"path":"rotation"
					}
				},
				{
					"sampler":2,
					"target":{
						"node":0,
						"path":"scale"
					}
				}
			],
			"name":"GAME.GIRL_SOLO.PLAY.A1.Finish",
			"samplers":[
				{
					"input":10,
					"interpolation":"LINEAR",
					"output":11
				},
				{
					"input":12,
					"interpolation":"STEP",
					"output":13
				},
				{
					"input":12,
					"interpolation":"STEP",
					"output":14
				}
			]
		},
		{
			"channels":[
				{
					"sampler":0,
					"target":{
						"node":0,
						"path":"translation"
					}
				},
				{
					"sampler":1,
					"target":{
						"node":0,
						"path":"rotation"
					}
				},
				{
					"sampler":2,
					"target":{
						"node":0,
						"path":"scale"
					}
				}
			],
			"name":"GAME.GIRL_SOLO.PLAY.A1.Relax",
			"samplers":[
				{
					"input":0,
					"interpolation":"STEP",
					"output":15
				},
				{
					"input":0,
					"interpolation":"STEP",
					"output":16
				},
				{
					"input":0,
					"interpolation":"STEP",
					"output":17
				}
			]
		},
		{
			"channels":[
				{
					"sampler":0,
					"target":{
						"node":0,
						"path":"translation"
					}
				},
				{
					"sampler":1,
					"target":{
						"node":0,
						"path":"rotation"
					}
				},
				{
					"sampler":2,
					"target":{
						"node":0,
						"path":"scale"
					}
				}
			],
			"name":"GAME.GIRL_SOLO.PLAY.Idle",
			"samplers":[
				{
					"input":0,
					"interpolation":"STEP",
					"output":18
				},
				{
					"input":0,
					"interpolation":"STEP",
					"output":19
				},
				{
					"input":0,
					"interpolation":"STEP",
					"output":20
				}
			]
		}
	],
	"accessors":[
		{
			"bufferView":0,
			"componentType":5126,
			"count":2,
			"max":[
				0.8333333333333334
			],
			"min":[
				0.041666666666666664
			],
			"type":"SCALAR"
		},
		{
			"bufferView":1,
			"componentType":5126,
			"count":2,
			"type":"VEC3"
		},
		{
			"bufferView":2,
			"componentType":5126,
			"count":2,
			"type":"VEC4"
		},
		{
			"bufferView":3,
			"componentType":5126,
			"count":2,
			"type":"VEC3"
		},
		{
			"bufferView":4,
			"componentType":5126,
			"count":2,
			"type":"VEC3"
		},
		{
			"bufferView":5,
			"componentType":5126,
			"count":2,
			"type":"VEC4"
		},
		{
			"bufferView":6,
			"componentType":5126,
			"count":2,
			"type":"VEC3"
		},
		{
			"bufferView":7,
			"componentType":5126,
			"count":2,
			"type":"VEC3"
		},
		{
			"bufferView":8,
			"componentType":5126,
			"count":2,
			"type":"VEC4"
		},
		{
			"bufferView":9,
			"componentType":5126,
			"count":2,
			"type":"VEC3"
		},
		{
			"bufferView":10,
			"componentType":5126,
			"count":111,
			"max":[
				4.625
			],
			"min":[
				0.041666666666666664
			],
			"type":"SCALAR"
		},
		{
			"bufferView":11,
			"componentType":5126,
			"count":111,
			"type":"VEC3"
		},
		{
			"bufferView":12,
			"componentType":5126,
			"count":2,
			"max":[
				4.625
			],
			"min":[
				0.041666666666666664
			],
			"type":"SCALAR"
		},
		{
			"bufferView":13,
			"componentType":5126,
			"count":2,
			"type":"VEC4"
		},
		{
			"bufferView":14,
			"componentType":5126,
			"count":2,
			"type":"VEC3"
		},
		{
			"bufferView":15,
			"componentType":5126,
			"count":2,
			"type":"VEC3"
		},
		{
			"bufferView":16,
			"componentType":5126,
			"count":2,
			"type":"VEC4"
		},
		{
			"bufferView":17,
			"componentType":5126,
			"count":2,
			"type":"VEC3"
		},
		{
			"bufferView":18,
			"componentType":5126,
			"count":2,
			"type":"VEC3"
		},
		{
			"bufferView":19,
			"componentType":5126,
			"count":2,
			"type":"VEC4"
		},
		{
			"bufferView":20,
			"componentType":5126,
			"count":2,
			"type":"VEC3"
		}
	],
	"bufferViews":[
		{
			"buffer":0,
			"byteLength":8,
			"byteOffset":0
		},
		{
			"buffer":0,
			"byteLength":24,
			"byteOffset":8
		},
		{
			"buffer":0,
			"byteLength":32,
			"byteOffset":32
		},
		{
			"buffer":0,
			"byteLength":24,
			"byteOffset":64
		},
		{
			"buffer":0,
			"byteLength":24,
			"byteOffset":88
		},
		{
			"buffer":0,
			"byteLength":32,
			"byteOffset":112
		},
		{
			"buffer":0,
			"byteLength":24,
			"byteOffset":144
		},
		{
			"buffer":0,
			"byteLength":24,
			"byteOffset":168
		},
		{
			"buffer":0,
			"byteLength":32,
			"byteOffset":192
		},
		{
			"buffer":0,
			"byteLength":24,
			"byteOffset":224
		},
		{
			"buffer":0,
			"byteLength":444,
			"byteOffset":248
		},
		{
			"buffer":0,
			"byteLength":1332,
			"byteOffset":692
		},
		{
			"buffer":0,
			"byteLength":8,
			"byteOffset":2024
		},
		{
			"buffer":0,
			"byteLength":32,
			"byteOffset":2032
		},
		{
			"buffer":0,
			"byteLength":24,
			"byteOffset":2064
		},
		{
			"buffer":0,
			"byteLength":24,
			"byteOffset":2088
		},
		{
			"buffer":0,
			"byteLength":32,
			"byteOffset":2112
		},
		{
			"buffer":0,
			"byteLength":24,
			"byteOffset":2144
		},
		{
			"buffer":0,
			"byteLength":24,
			"byteOffset":2168
		},
		{
			"buffer":0,
			"byteLength":32,
			"byteOffset":2192
		},
		{
			"buffer":0,
			"byteLength":24,
			"byteOffset":2224
		}
	],
	"buffers":[
		{
			"byteLength":2248,
			"uri":"controller_Solo.bin"
		}
	]
}
