{
	"asset":{
		"copyright":"@serufu_yua",
		"generator":"Khronos glTF Blender I/O v3.6.28",
		"version":"2.0"
	},
	"extensionsUsed":[
		"KHR_materials_transmission",
		"KHR_materials_ior"
	],
	"scene":0,
	"scenes":[
		{
			"name":"Scene",
			"nodes":[
				0,
				1,
				2,
				3,
				4,
				5,
				6,
				7,
				8,
				9
			]
		}
	],
	"nodes":[
		{
			"mesh":0,
			"name":"wheel.front.R",
			"rotation":[
				0,
				0,
				-0.7071068286895752,
				0.7071068286895752
			],
			"translation":[
				-1,
				-0.8499999642372131,
				0.3999999761581421
			]
		},
		{
			"mesh":1,
			"name":"wheel.rear",
			"rotation":[
				0,
				0,
				-0.7071068286895752,
				0.7071068286895752
			],
			"translation":[
				0,
				-0.8999999761581421,
				-1.9999998807907104
			]
		},
		{
			"mesh":0,
			"name":"wheel.front.L",
			"rotation":[
				0,
				0,
				-0.7071068286895752,
				0.7071068286895752
			],
			"translation":[
				1,
				-0.8499999642372131,
				0.3999999761581421
			]
		},
		{
			"mesh":2,
			"name":"body"
		},
		{
			"mesh":3,
			"name":"cockpit"
		},
		{
			"mesh":4,
			"name":"elevator"
		},
		{
			"mesh":5,
			"name":"keel"
		},
		{
			"mesh":6,
			"name":"ailerons"
		},
		{
			"mesh":7,
			"name":"seat",
			"rotation":[
				0.7071068286895752,
				0,
				0,
				0.7071068286895752
			],
			"scale":[
				0.02914999984204769,
				0.02914999984204769,
				0.02914999984204769
			]
		},
		{
			"mesh":8,
			"name":"handle",
			"rotation":[
				-0.6087613701820374,
				0,
				0,
				0.7933533787727356
			],
			"translation":[
				0,
				0.4523131251335144,
				0.6297534704208374
			]
		}
	],
	"materials":[
		{
			"doubleSided":true,
			"name":"resin",
			"pbrMetallicRoughness":{
				"baseColorFactor":[
					0.010244488716125488,
					0.010244488716125488,
					0.010244488716125488,
					1
				],
				"metallicFactor":0,
				"roughnessFactor":0.6727272868156433
			}
		},
		{
			"doubleSided":true,
			"name":"plane.tex",
			"normalTexture":{
				"index":0
			},
			"pbrMetallicRoughness":{
				"baseColorTexture":{
					"index":1
				},
				"metallicRoughnessTexture":{
					"index":2
				}
			}
		},
		{
			"alphaMode":"BLEND",
			"extensions":{
				"KHR_materials_transmission":{
					"transmissionFactor":1
				},
				"KHR_materials_ior":{
					"ior":1.4500000476837158
				}
			},
			"name":"glass.tex",
			"pbrMetallicRoughness":{
				"baseColorFactor":[
					0.800000011920929,
					0.800000011920929,
					0.800000011920929,
					0.1454545259475708
				],
				"metallicFactor":0,
				"roughnessFactor":0
			}
		},
		{
			"doubleSided":true,
			"name":"plane.tex",
			"normalTexture":{
				"index":3
			},
			"pbrMetallicRoughness":{
				"baseColorTexture":{
					"index":4
				},
				"metallicRoughnessTexture":{
					"index":5
				}
			}
		}
	],
	"meshes":[
		{
			"name":"Sphere.002",
			"primitives":[
				{
					"attributes":{
						"POSITION":0,
						"NORMAL":1,
						"TEXCOORD_0":2,
						"TANGENT":3
					},
					"indices":4,
					"material":0
				}
			]
		},
		{
			"name":"Sphere.003",
			"primitives":[
				{
					"attributes":{
						"POSITION":5,
						"NORMAL":6,
						"TEXCOORD_0":7,
						"TANGENT":8
					},
					"indices":4,
					"material":0
				}
			]
		},
		{
			"name":"space_plane.001",
			"primitives":[
				{
					"attributes":{
						"COLOR_0":9,
						"POSITION":10,
						"NORMAL":11,
						"TEXCOORD_0":12,
						"TEXCOORD_1":13,
						"TEXCOORD_2":14
					},
					"indices":15,
					"material":1
				},
				{
					"attributes":{
						"COLOR_0":16,
						"POSITION":17,
						"NORMAL":18,
						"TEXCOORD_0":19,
						"TEXCOORD_1":20,
						"TEXCOORD_2":21
					},
					"indices":22,
					"material":1
				},
				{
					"attributes":{
						"COLOR_0":23,
						"POSITION":24,
						"NORMAL":25,
						"TEXCOORD_0":26,
						"TEXCOORD_1":27,
						"TEXCOORD_2":28
					},
					"indices":29,
					"material":1
				},
				{
					"attributes":{
						"COLOR_0":30,
						"POSITION":31,
						"NORMAL":32,
						"TEXCOORD_0":33,
						"TEXCOORD_1":34,
						"TEXCOORD_2":35
					},
					"indices":36,
					"material":1
				},
				{
					"attributes":{
						"COLOR_0":37,
						"POSITION":38,
						"NORMAL":39,
						"TEXCOORD_0":40,
						"TEXCOORD_1":41,
						"TEXCOORD_2":42
					},
					"indices":43,
					"material":1
				}
			]
		},
		{
			"name":"space_plane.008",
			"primitives":[
				{
					"attributes":{
						"POSITION":44,
						"NORMAL":45,
						"TEXCOORD_0":46,
						"TANGENT":47
					},
					"indices":48,
					"material":2
				}
			]
		},
		{
			"name":"space_plane.006",
			"primitives":[
				{
					"attributes":{
						"COLOR_0":49,
						"POSITION":50,
						"NORMAL":51,
						"TEXCOORD_0":52,
						"TEXCOORD_1":53
					},
					"indices":54,
					"material":1
				}
			]
		},
		{
			"name":"space_plane.007",
			"primitives":[
				{
					"attributes":{
						"COLOR_0":55,
						"POSITION":56,
						"NORMAL":57,
						"TEXCOORD_0":58,
						"TEXCOORD_1":59,
						"TANGENT":60
					},
					"indices":61,
					"material":1
				}
			]
		},
		{
			"name":"space_plane.009",
			"primitives":[
				{
					"attributes":{
						"COLOR_0":62,
						"POSITION":63,
						"NORMAL":64,
						"TEXCOORD_0":65,
						"TEXCOORD_1":66,
						"TANGENT":67
					},
					"indices":68,
					"material":1
				}
			]
		},
		{
			"name":"space_plane.010",
			"primitives":[
				{
					"attributes":{
						"POSITION":69,
						"NORMAL":70,
						"TEXCOORD_0":71,
						"TANGENT":72
					},
					"indices":73,
					"material":3
				},
				{
					"attributes":{
						"POSITION":74,
						"NORMAL":75,
						"TEXCOORD_0":76,
						"TANGENT":77
					},
					"indices":78,
					"material":3
				}
			]
		},
		{
			"name":"Cylinder",
			"primitives":[
				{
					"attributes":{
						"POSITION":79,
						"NORMAL":80,
						"TEXCOORD_0":81
					},
					"indices":82,
					"material":3
				},
				{
					"attributes":{
						"POSITION":83,
						"NORMAL":84,
						"TEXCOORD_0":85
					},
					"indices":86,
					"material":3
				}
			]
		}
	],
	"textures":[
		{
			"sampler":0,
			"source":0
		},
		{
			"sampler":0,
			"source":1
		},
		{
			"sampler":0,
			"source":2
		},
		{
			"sampler":0,
			"source":0
		},
		{
			"sampler":0,
			"source":1
		},
		{
			"sampler":0,
			"source":2
		}
	],
	"images":[
		{
			"mimeType":"image/png",
			"name":"plane_body_n",
			"uri":"plane_body_n.png"
		},
		{
			"mimeType":"image/png",
			"name":"plane_body",
			"uri":"plane_body.png"
		},
		{
			"mimeType":"image/png",
			"name":"plane_body_m-plane_body_r",
			"uri":"plane_body_m-plane_body_r.png"
		}
	],
	"accessors":[
		{
			"bufferView":0,
			"componentType":5126,
			"count":43,
			"max":[
				0.14999999105930328,
				0.09600000083446503,
				0.14999999105930328
			],
			"min":[
				-0.14999999105930328,
				-0.09600000083446503,
				-0.14999999105930328
			],
			"type":"VEC3"
		},
		{
			"bufferView":1,
			"componentType":5126,
			"count":43,
			"type":"VEC3"
		},
		{
			"bufferView":2,
			"componentType":5126,
			"count":43,
			"type":"VEC2"
		},
		{
			"bufferView":3,
			"componentType":5126,
			"count":43,
			"type":"VEC4"
		},
		{
			"bufferView":4,
			"componentType":5123,
			"count":144,
			"type":"SCALAR"
		},
		{
			"bufferView":5,
			"componentType":5126,
			"count":43,
			"max":[
				0.09999999403953552,
				0.06400000303983688,
				0.09999999403953552
			],
			"min":[
				-0.09999999403953552,
				-0.06400000303983688,
				-0.09999999403953552
			],
			"type":"VEC3"
		},
		{
			"bufferView":6,
			"componentType":5126,
			"count":43,
			"type":"VEC3"
		},
		{
			"bufferView":7,
			"componentType":5126,
			"count":43,
			"type":"VEC2"
		},
		{
			"bufferView":8,
			"componentType":5126,
			"count":43,
			"type":"VEC4"
		},
		{
			"bufferView":9,
			"componentType":5123,
			"count":825,
			"normalized":true,
			"type":"VEC4"
		},
		{
			"bufferView":10,
			"componentType":5126,
			"count":825,
			"max":[
				2.1354329586029053,
				1.6206960678100586,
				2.517179250717163
			],
			"min":[
				-2.1354329586029053,
				-0.956399142742157,
				-3.5924758911132812
			],
			"type":"VEC3"
		},
		{
			"bufferView":11,
			"componentType":5126,
			"count":825,
			"type":"VEC3"
		},
		{
			"bufferView":12,
			"componentType":5126,
			"count":825,
			"type":"VEC2"
		},
		{
			"bufferView":13,
			"componentType":5126,
			"count":825,
			"type":"VEC2"
		},
		{
			"bufferView":14,
			"componentType":5126,
			"count":825,
			"type":"VEC2"
		},
		{
			"bufferView":15,
			"componentType":5123,
			"count":2868,
			"type":"SCALAR"
		},
		{
			"bufferView":16,
			"componentType":5123,
			"count":178,
			"normalized":true,
			"type":"VEC4"
		},
		{
			"bufferView":17,
			"componentType":5126,
			"count":178,
			"max":[
				0.5776898860931396,
				0.6905818581581116,
				1.2849878072738647
			],
			"min":[
				-0.5776898860931396,
				-0.1115335077047348,
				-1.6042028665542603
			],
			"type":"VEC3"
		},
		{
			"bufferView":18,
			"componentType":5126,
			"count":178,
			"type":"VEC3"
		},
		{
			"bufferView":19,
			"componentType":5126,
			"count":178,
			"type":"VEC2"
		},
		{
			"bufferView":20,
			"componentType":5126,
			"count":178,
			"type":"VEC2"
		},
		{
			"bufferView":21,
			"componentType":5126,
			"count":178,
			"type":"VEC2"
		},
		{
			"bufferView":22,
			"componentType":5123,
			"count":600,
			"type":"SCALAR"
		},
		{
			"bufferView":23,
			"componentType":5123,
			"count":10,
			"normalized":true,
			"type":"VEC4"
		},
		{
			"bufferView":24,
			"componentType":5126,
			"count":10,
			"max":[
				0.4591051936149597,
				-0.24268317222595215,
				-0.0403163842856884
			],
			"min":[
				-0.4591051936149597,
				-0.838768720626831,
				-0.41050204634666443
			],
			"type":"VEC3"
		},
		{
			"bufferView":25,
			"componentType":5126,
			"count":10,
			"type":"VEC3"
		},
		{
			"bufferView":26,
			"componentType":5126,
			"count":10,
			"type":"VEC2"
		},
		{
			"bufferView":27,
			"componentType":5126,
			"count":10,
			"type":"VEC2"
		},
		{
			"bufferView":28,
			"componentType":5126,
			"count":10,
			"type":"VEC2"
		},
		{
			"bufferView":29,
			"componentType":5123,
			"count":24,
			"type":"SCALAR"
		},
		{
			"bufferView":30,
			"componentType":5123,
			"count":126,
			"normalized":true,
			"type":"VEC4"
		},
		{
			"bufferView":31,
			"componentType":5126,
			"count":126,
			"max":[
				0.16499999165534973,
				-0.35500001907348633,
				-1.8499999046325684
			],
			"min":[
				-0.16499999165534973,
				-0.6850000619888306,
				-2.369999885559082
			],
			"type":"VEC3"
		},
		{
			"bufferView":32,
			"componentType":5126,
			"count":126,
			"type":"VEC3"
		},
		{
			"bufferView":33,
			"componentType":5126,
			"count":126,
			"type":"VEC2"
		},
		{
			"bufferView":34,
			"componentType":5126,
			"count":126,
			"type":"VEC2"
		},
		{
			"bufferView":35,
			"componentType":5126,
			"count":126,
			"type":"VEC2"
		},
		{
			"bufferView":36,
			"componentType":5123,
			"count":396,
			"type":"SCALAR"
		},
		{
			"bufferView":37,
			"componentType":5123,
			"count":10,
			"normalized":true,
			"type":"VEC4"
		},
		{
			"bufferView":38,
			"componentType":5126,
			"count":10,
			"max":[
				0.21265508234500885,
				0.6905818581581116,
				0.5997503399848938
			],
			"min":[
				-0.21265508234500885,
				0.41261938214302063,
				0.5231031775474548
			],
			"type":"VEC3"
		},
		{
			"bufferView":39,
			"componentType":5126,
			"count":10,
			"type":"VEC3"
		},
		{
			"bufferView":40,
			"componentType":5126,
			"count":10,
			"type":"VEC2"
		},
		{
			"bufferView":41,
			"componentType":5126,
			"count":10,
			"type":"VEC2"
		},
		{
			"bufferView":42,
			"componentType":5126,
			"count":10,
			"type":"VEC2"
		},
		{
			"bufferView":43,
			"componentType":5123,
			"count":24,
			"type":"SCALAR"
		},
		{
			"bufferView":44,
			"componentType":5126,
			"count":160,
			"max":[
				0.5776898860931396,
				1.2315369844436646,
				0.9407191276550293
			],
			"min":[
				-0.5776898860931396,
				0.45765143632888794,
				-1.6042028665542603
			],
			"type":"VEC3"
		},
		{
			"bufferView":45,
			"componentType":5126,
			"count":160,
			"type":"VEC3"
		},
		{
			"bufferView":46,
			"componentType":5126,
			"count":160,
			"type":"VEC2"
		},
		{
			"bufferView":47,
			"componentType":5126,
			"count":160,
			"type":"VEC4"
		},
		{
			"bufferView":48,
			"componentType":5123,
			"count":636,
			"type":"SCALAR"
		},
		{
			"bufferView":49,
			"componentType":5123,
			"count":60,
			"normalized":true,
			"type":"VEC4"
		},
		{
			"bufferView":50,
			"componentType":5126,
			"count":60,
			"max":[
				1.0297554731369019,
				0.902716875076294,
				-2.615887403488159
			],
			"min":[
				-1.0297554731369019,
				0.8319173455238342,
				-3.4859061241149902
			],
			"type":"VEC3"
		},
		{
			"bufferView":51,
			"componentType":5126,
			"count":60,
			"type":"VEC3"
		},
		{
			"bufferView":52,
			"componentType":5126,
			"count":60,
			"type":"VEC2"
		},
		{
			"bufferView":53,
			"componentType":5126,
			"count":60,
			"type":"VEC2"
		},
		{
			"bufferView":54,
			"componentType":5123,
			"count":180,
			"type":"SCALAR"
		},
		{
			"bufferView":55,
			"componentType":5123,
			"count":68,
			"normalized":true,
			"type":"VEC4"
		},
		{
			"bufferView":56,
			"componentType":5126,
			"count":68,
			"max":[
				0.09618008136749268,
				1.4355769157409668,
				-3.159349203109741
			],
			"min":[
				-0.09618008136749268,
				0.12266170233488083,
				-3.5924758911132812
			],
			"type":"VEC3"
		},
		{
			"bufferView":57,
			"componentType":5126,
			"count":68,
			"type":"VEC3"
		},
		{
			"bufferView":58,
			"componentType":5126,
			"count":68,
			"type":"VEC2"
		},
		{
			"bufferView":59,
			"componentType":5126,
			"count":68,
			"type":"VEC2"
		},
		{
			"bufferView":60,
			"componentType":5126,
			"count":68,
			"type":"VEC4"
		},
		{
			"bufferView":61,
			"componentType":5123,
			"count":132,
			"type":"SCALAR"
		},
		{
			"bufferView":62,
			"componentType":5123,
			"count":72,
			"normalized":true,
			"type":"VEC4"
		},
		{
			"bufferView":63,
			"componentType":5126,
			"count":72,
			"max":[
				1.84363853931427,
				0.12674319744110107,
				-1.353858470916748
			],
			"min":[
				-1.84363853931427,
				0.042691849172115326,
				-1.684705138206482
			],
			"type":"VEC3"
		},
		{
			"bufferView":64,
			"componentType":5126,
			"count":72,
			"type":"VEC3"
		},
		{
			"bufferView":65,
			"componentType":5126,
			"count":72,
			"type":"VEC2"
		},
		{
			"bufferView":66,
			"componentType":5126,
			"count":72,
			"type":"VEC2"
		},
		{
			"bufferView":67,
			"componentType":5126,
			"count":72,
			"type":"VEC4"
		},
		{
			"bufferView":68,
			"componentType":5123,
			"count":120,
			"type":"SCALAR"
		},
		{
			"bufferView":69,
			"componentType":5126,
			"count":94,
			"max":[
				12.082632064819336,
				13.205849647521973,
				-0.6331567764282227
			],
			"min":[
				-12.08296012878418,
				-16.128562927246094,
				-33.56876754760742
			],
			"type":"VEC3"
		},
		{
			"bufferView":70,
			"componentType":5126,
			"count":94,
			"type":"VEC3"
		},
		{
			"bufferView":71,
			"componentType":5126,
			"count":94,
			"type":"VEC2"
		},
		{
			"bufferView":72,
			"componentType":5126,
			"count":94,
			"type":"VEC4"
		},
		{
			"bufferView":73,
			"componentType":5123,
			"count":192,
			"type":"SCALAR"
		},
		{
			"bufferView":74,
			"componentType":5126,
			"count":26,
			"max":[
				11.318321228027344,
				13.081836700439453,
				-1.4013704061508179
			],
			"min":[
				-11.318419456481934,
				-15.380992889404297,
				-33.56876754760742
			],
			"type":"VEC3"
		},
		{
			"bufferView":75,
			"componentType":5126,
			"count":26,
			"type":"VEC3"
		},
		{
			"bufferView":76,
			"componentType":5126,
			"count":26,
			"type":"VEC2"
		},
		{
			"bufferView":77,
			"componentType":5126,
			"count":26,
			"type":"VEC4"
		},
		{
			"bufferView":78,
			"componentType":5123,
			"count":60,
			"type":"SCALAR"
		},
		{
			"bufferView":79,
			"componentType":5126,
			"count":126,
			"max":[
				0.15540581941604614,
				0.33175694942474365,
				0.08972376585006714
			],
			"min":[
				-0.15540601313114166,
				-1.7881393432617188e-07,
				-0.08972364664077759
			],
			"type":"VEC3"
		},
		{
			"bufferView":80,
			"componentType":5126,
			"count":126,
			"type":"VEC3"
		},
		{
			"bufferView":81,
			"componentType":5126,
			"count":126,
			"type":"VEC2"
		},
		{
			"bufferView":82,
			"componentType":5123,
			"count":216,
			"type":"SCALAR"
		},
		{
			"bufferView":83,
			"componentType":5126,
			"count":56,
			"max":[
				0.17944735288619995,
				0.3317570090293884,
				0.08972376585006714
			],
			"min":[
				-0.17944730818271637,
				0.295867383480072,
				-0.08972364664077759
			],
			"type":"VEC3"
		},
		{
			"bufferView":84,
			"componentType":5126,
			"count":56,
			"type":"VEC3"
		},
		{
			"bufferView":85,
			"componentType":5126,
			"count":56,
			"type":"VEC2"
		},
		{
			"bufferView":86,
			"componentType":5123,
			"count":120,
			"type":"SCALAR"
		}
	],
	"bufferViews":[
		{
			"buffer":0,
			"byteLength":516,
			"byteOffset":0,
			"target":34962
		},
		{
			"buffer":0,
			"byteLength":516,
			"byteOffset":516,
			"target":34962
		},
		{
			"buffer":0,
			"byteLength":344,
			"byteOffset":1032,
			"target":34962
		},
		{
			"buffer":0,
			"byteLength":688,
			"byteOffset":1376,
			"target":34962
		},
		{
			"buffer":0,
			"byteLength":288,
			"byteOffset":2064,
			"target":34963
		},
		{
			"buffer":0,
			"byteLength":516,
			"byteOffset":2352,
			"target":34962
		},
		{
			"buffer":0,
			"byteLength":516,
			"byteOffset":2868,
			"target":34962
		},
		{
			"buffer":0,
			"byteLength":344,
			"byteOffset":3384,
			"target":34962
		},
		{
			"buffer":0,
			"byteLength":688,
			"byteOffset":3728,
			"target":34962
		},
		{
			"buffer":0,
			"byteLength":6600,
			"byteOffset":4416,
			"target":34962
		},
		{
			"buffer":0,
			"byteLength":9900,
			"byteOffset":11016,
			"target":34962
		},
		{
			"buffer":0,
			"byteLength":9900,
			"byteOffset":20916,
			"target":34962
		},
		{
			"buffer":0,
			"byteLength":6600,
			"byteOffset":30816,
			"target":34962
		},
		{
			"buffer":0,
			"byteLength":6600,
			"byteOffset":37416,
			"target":34962
		},
		{
			"buffer":0,
			"byteLength":6600,
			"byteOffset":44016,
			"target":34962
		},
		{
			"buffer":0,
			"byteLength":5736,
			"byteOffset":50616,
			"target":34963
		},
		{
			"buffer":0,
			"byteLength":1424,
			"byteOffset":56352,
			"target":34962
		},
		{
			"buffer":0,
			"byteLength":2136,
			"byteOffset":57776,
			"target":34962
		},
		{
			"buffer":0,
			"byteLength":2136,
			"byteOffset":59912,
			"target":34962
		},
		{
			"buffer":0,
			"byteLength":1424,
			"byteOffset":62048,
			"target":34962
		},
		{
			"buffer":0,
			"byteLength":1424,
			"byteOffset":63472,
			"target":34962
		},
		{
			"buffer":0,
			"byteLength":1424,
			"byteOffset":64896,
			"target":34962
		},
		{
			"buffer":0,
			"byteLength":1200,
			"byteOffset":66320,
			"target":34963
		},
		{
			"buffer":0,
			"byteLength":80,
			"byteOffset":67520,
			"target":34962
		},
		{
			"buffer":0,
			"byteLength":120,
			"byteOffset":67600,
			"target":34962
		},
		{
			"buffer":0,
			"byteLength":120,
			"byteOffset":67720,
			"target":34962
		},
		{
			"buffer":0,
			"byteLength":80,
			"byteOffset":67840,
			"target":34962
		},
		{
			"buffer":0,
			"byteLength":80,
			"byteOffset":67920,
			"target":34962
		},
		{
			"buffer":0,
			"byteLength":80,
			"byteOffset":68000,
			"target":34962
		},
		{
			"buffer":0,
			"byteLength":48,
			"byteOffset":68080,
			"target":34963
		},
		{
			"buffer":0,
			"byteLength":1008,
			"byteOffset":68128,
			"target":34962
		},
		{
			"buffer":0,
			"byteLength":1512,
			"byteOffset":69136,
			"target":34962
		},
		{
			"buffer":0,
			"byteLength":1512,
			"byteOffset":70648,
			"target":34962
		},
		{
			"buffer":0,
			"byteLength":1008,
			"byteOffset":72160,
			"target":34962
		},
		{
			"buffer":0,
			"byteLength":1008,
			"byteOffset":73168,
			"target":34962
		},
		{
			"buffer":0,
			"byteLength":1008,
			"byteOffset":74176,
			"target":34962
		},
		{
			"buffer":0,
			"byteLength":792,
			"byteOffset":75184,
			"target":34963
		},
		{
			"buffer":0,
			"byteLength":80,
			"byteOffset":75976,
			"target":34962
		},
		{
			"buffer":0,
			"byteLength":120,
			"byteOffset":76056,
			"target":34962
		},
		{
			"buffer":0,
			"byteLength":120,
			"byteOffset":76176,
			"target":34962
		},
		{
			"buffer":0,
			"byteLength":80,
			"byteOffset":76296,
			"target":34962
		},
		{
			"buffer":0,
			"byteLength":80,
			"byteOffset":76376,
			"target":34962
		},
		{
			"buffer":0,
			"byteLength":80,
			"byteOffset":76456,
			"target":34962
		},
		{
			"buffer":0,
			"byteLength":48,
			"byteOffset":76536,
			"target":34963
		},
		{
			"buffer":0,
			"byteLength":1920,
			"byteOffset":76584,
			"target":34962
		},
		{
			"buffer":0,
			"byteLength":1920,
			"byteOffset":78504,
			"target":34962
		},
		{
			"buffer":0,
			"byteLength":1280,
			"byteOffset":80424,
			"target":34962
		},
		{
			"buffer":0,
			"byteLength":2560,
			"byteOffset":81704,
			"target":34962
		},
		{
			"buffer":0,
			"byteLength":1272,
			"byteOffset":84264,
			"target":34963
		},
		{
			"buffer":0,
			"byteLength":480,
			"byteOffset":85536,
			"target":34962
		},
		{
			"buffer":0,
			"byteLength":720,
			"byteOffset":86016,
			"target":34962
		},
		{
			"buffer":0,
			"byteLength":720,
			"byteOffset":86736,
			"target":34962
		},
		{
			"buffer":0,
			"byteLength":480,
			"byteOffset":87456,
			"target":34962
		},
		{
			"buffer":0,
			"byteLength":480,
			"byteOffset":87936,
			"target":34962
		},
		{
			"buffer":0,
			"byteLength":360,
			"byteOffset":88416,
			"target":34963
		},
		{
			"buffer":0,
			"byteLength":544,
			"byteOffset":88776,
			"target":34962
		},
		{
			"buffer":0,
			"byteLength":816,
			"byteOffset":89320,
			"target":34962
		},
		{
			"buffer":0,
			"byteLength":816,
			"byteOffset":90136,
			"target":34962
		},
		{
			"buffer":0,
			"byteLength":544,
			"byteOffset":90952,
			"target":34962
		},
		{
			"buffer":0,
			"byteLength":544,
			"byteOffset":91496,
			"target":34962
		},
		{
			"buffer":0,
			"byteLength":1088,
			"byteOffset":92040,
			"target":34962
		},
		{
			"buffer":0,
			"byteLength":264,
			"byteOffset":93128,
			"target":34963
		},
		{
			"buffer":0,
			"byteLength":576,
			"byteOffset":93392,
			"target":34962
		},
		{
			"buffer":0,
			"byteLength":864,
			"byteOffset":93968,
			"target":34962
		},
		{
			"buffer":0,
			"byteLength":864,
			"byteOffset":94832,
			"target":34962
		},
		{
			"buffer":0,
			"byteLength":576,
			"byteOffset":95696,
			"target":34962
		},
		{
			"buffer":0,
			"byteLength":576,
			"byteOffset":96272,
			"target":34962
		},
		{
			"buffer":0,
			"byteLength":1152,
			"byteOffset":96848,
			"target":34962
		},
		{
			"buffer":0,
			"byteLength":240,
			"byteOffset":98000,
			"target":34963
		},
		{
			"buffer":0,
			"byteLength":1128,
			"byteOffset":98240,
			"target":34962
		},
		{
			"buffer":0,
			"byteLength":1128,
			"byteOffset":99368,
			"target":34962
		},
		{
			"buffer":0,
			"byteLength":752,
			"byteOffset":100496,
			"target":34962
		},
		{
			"buffer":0,
			"byteLength":1504,
			"byteOffset":101248,
			"target":34962
		},
		{
			"buffer":0,
			"byteLength":384,
			"byteOffset":102752,
			"target":34963
		},
		{
			"buffer":0,
			"byteLength":312,
			"byteOffset":103136,
			"target":34962
		},
		{
			"buffer":0,
			"byteLength":312,
			"byteOffset":103448,
			"target":34962
		},
		{
			"buffer":0,
			"byteLength":208,
			"byteOffset":103760,
			"target":34962
		},
		{
			"buffer":0,
			"byteLength":416,
			"byteOffset":103968,
			"target":34962
		},
		{
			"buffer":0,
			"byteLength":120,
			"byteOffset":104384,
			"target":34963
		},
		{
			"buffer":0,
			"byteLength":1512,
			"byteOffset":104504,
			"target":34962
		},
		{
			"buffer":0,
			"byteLength":1512,
			"byteOffset":106016,
			"target":34962
		},
		{
			"buffer":0,
			"byteLength":1008,
			"byteOffset":107528,
			"target":34962
		},
		{
			"buffer":0,
			"byteLength":432,
			"byteOffset":108536,
			"target":34963
		},
		{
			"buffer":0,
			"byteLength":672,
			"byteOffset":108968,
			"target":34962
		},
		{
			"buffer":0,
			"byteLength":672,
			"byteOffset":109640,
			"target":34962
		},
		{
			"buffer":0,
			"byteLength":448,
			"byteOffset":110312,
			"target":34962
		},
		{
			"buffer":0,
			"byteLength":240,
			"byteOffset":110760,
			"target":34963
		}
	],
	"samplers":[
		{
			"magFilter":9729,
			"minFilter":9987
		}
	],
	"buffers":[
		{
			"byteLength":111000,
			"uri":"space_plane.bin"
		}
	]
}
