{
	"asset":{
		"copyright":"@serufu_yua",
		"generator":"Khronos glTF Blender I/O v3.6.28",
		"version":"2.0"
	},
	"extensionsUsed":[
		"KHR_materials_emissive_strength"
	],
	"scene":0,
	"scenes":[
		{
			"name":"Scene",
			"nodes":[
				6
			]
		}
	],
	"nodes":[
		{
			"name":"Bone.inactive"
		},
		{
			"name":"Bone.touched"
		},
		{
			"name":"Bone.activated"
		},
		{
			"mesh":0,
			"name":"Plane_activated.pink",
			"skin":0
		},
		{
			"mesh":1,
			"name":"Plane_inactive.pink",
			"skin":0
		},
		{
			"mesh":2,
			"name":"Plane_touched.pink",
			"skin":0
		},
		{
			"children":[
				3,
				4,
				5,
				0,
				1,
				2
			],
			"name":"Armature.pink"
		}
	],
	"animations":[
		{
			"channels":[
				{
					"sampler":0,
					"target":{
						"node":0,
						"path":"translation"
					}
				},
				{
					"sampler":1,
					"target":{
						"node":0,
						"path":"rotation"
					}
				},
				{
					"sampler":2,
					"target":{
						"node":0,
						"path":"scale"
					}
				},
				{
					"sampler":3,
					"target":{
						"node":1,
						"path":"translation"
					}
				},
				{
					"sampler":4,
					"target":{
						"node":1,
						"path":"rotation"
					}
				},
				{
					"sampler":5,
					"target":{
						"node":1,
						"path":"scale"
					}
				},
				{
					"sampler":6,
					"target":{
						"node":2,
						"path":"translation"
					}
				},
				{
					"sampler":7,
					"target":{
						"node":2,
						"path":"rotation"
					}
				},
				{
					"sampler":8,
					"target":{
						"node":2,
						"path":"scale"
					}
				}
			],
			"name":"inactive",
			"samplers":[
				{
					"input":20,
					"interpolation":"STEP",
					"output":21
				},
				{
					"input":20,
					"interpolation":"STEP",
					"output":22
				},
				{
					"input":20,
					"interpolation":"STEP",
					"output":23
				},
				{
					"input":20,
					"interpolation":"STEP",
					"output":24
				},
				{
					"input":20,
					"interpolation":"STEP",
					"output":25
				},
				{
					"input":20,
					"interpolation":"STEP",
					"output":26
				},
				{
					"input":20,
					"interpolation":"STEP",
					"output":27
				},
				{
					"input":20,
					"interpolation":"STEP",
					"output":28
				},
				{
					"input":20,
					"interpolation":"STEP",
					"output":29
				}
			]
		},
		{
			"channels":[
				{
					"sampler":0,
					"target":{
						"node":0,
						"path":"translation"
					}
				},
				{
					"sampler":1,
					"target":{
						"node":0,
						"path":"rotation"
					}
				},
				{
					"sampler":2,
					"target":{
						"node":0,
						"path":"scale"
					}
				},
				{
					"sampler":3,
					"target":{
						"node":1,
						"path":"translation"
					}
				},
				{
					"sampler":4,
					"target":{
						"node":1,
						"path":"rotation"
					}
				},
				{
					"sampler":5,
					"target":{
						"node":1,
						"path":"scale"
					}
				},
				{
					"sampler":6,
					"target":{
						"node":2,
						"path":"translation"
					}
				},
				{
					"sampler":7,
					"target":{
						"node":2,
						"path":"rotation"
					}
				},
				{
					"sampler":8,
					"target":{
						"node":2,
						"path":"scale"
					}
				}
			],
			"name":"touched",
			"samplers":[
				{
					"input":30,
					"interpolation":"STEP",
					"output":31
				},
				{
					"input":30,
					"interpolation":"STEP",
					"output":32
				},
				{
					"input":30,
					"interpolation":"STEP",
					"output":33
				},
				{
					"input":34,
					"interpolation":"LINEAR",
					"output":35
				},
				{
					"input":30,
					"interpolation":"STEP",
					"output":36
				},
				{
					"input":34,
					"interpolation":"LINEAR",
					"output":37
				},
				{
					"input":30,
					"interpolation":"STEP",
					"output":38
				},
				{
					"input":30,
					"interpolation":"STEP",
					"output":39
				},
				{
					"input":30,
					"interpolation":"STEP",
					"output":40
				}
			]
		},
		{
			"channels":[
				{
					"sampler":0,
					"target":{
						"node":0,
						"path":"translation"
					}
				},
				{
					"sampler":1,
					"target":{
						"node":0,
						"path":"rotation"
					}
				},
				{
					"sampler":2,
					"target":{
						"node":0,
						"path":"scale"
					}
				},
				{
					"sampler":3,
					"target":{
						"node":1,
						"path":"translation"
					}
				},
				{
					"sampler":4,
					"target":{
						"node":1,
						"path":"rotation"
					}
				},
				{
					"sampler":5,
					"target":{
						"node":1,
						"path":"scale"
					}
				},
				{
					"sampler":6,
					"target":{
						"node":2,
						"path":"translation"
					}
				},
				{
					"sampler":7,
					"target":{
						"node":2,
						"path":"rotation"
					}
				},
				{
					"sampler":8,
					"target":{
						"node":2,
						"path":"scale"
					}
				}
			],
			"name":"activated",
			"samplers":[
				{
					"input":41,
					"interpolation":"STEP",
					"output":42
				},
				{
					"input":41,
					"interpolation":"STEP",
					"output":43
				},
				{
					"input":41,
					"interpolation":"STEP",
					"output":44
				},
				{
					"input":41,
					"interpolation":"STEP",
					"output":45
				},
				{
					"input":41,
					"interpolation":"STEP",
					"output":46
				},
				{
					"input":41,
					"interpolation":"STEP",
					"output":47
				},
				{
					"input":48,
					"interpolation":"LINEAR",
					"output":49
				},
				{
					"input":41,
					"interpolation":"STEP",
					"output":50
				},
				{
					"input":48,
					"interpolation":"LINEAR",
					"output":51
				}
			]
		}
	],
	"materials":[
		{
			"alphaMode":"BLEND",
			"doubleSided":true,
			"emissiveFactor":[
				1,
				0,
				0.32010892033576965
			],
			"extensions":{
				"KHR_materials_emissive_strength":{
					"emissiveStrength":4
				}
			},
			"name":"indicator_activated.pink",
			"pbrMetallicRoughness":{
				"baseColorTexture":{
					"index":0
				},
				"metallicFactor":0,
				"roughnessFactor":0.5
			}
		},
		{
			"alphaMode":"BLEND",
			"doubleSided":true,
			"emissiveFactor":[
				1,
				0,
				0.3201090097427368
			],
			"extensions":{
				"KHR_materials_emissive_strength":{
					"emissiveStrength":4
				}
			},
			"name":"indicator_inactive.pinkl",
			"pbrMetallicRoughness":{
				"baseColorTexture":{
					"index":1
				},
				"metallicFactor":0,
				"roughnessFactor":0.5
			}
		},
		{
			"alphaMode":"BLEND",
			"doubleSided":true,
			"emissiveFactor":[
				1,
				0,
				0.3201090097427368
			],
			"extensions":{
				"KHR_materials_emissive_strength":{
					"emissiveStrength":4
				}
			},
			"name":"indicator_touched.pink",
			"pbrMetallicRoughness":{
				"baseColorTexture":{
					"index":2
				},
				"metallicFactor":0,
				"roughnessFactor":0.5
			}
		}
	],
	"meshes":[
		{
			"name":"Plane.006",
			"primitives":[
				{
					"attributes":{
						"COLOR_0":0,
						"POSITION":1,
						"NORMAL":2,
						"TEXCOORD_0":3,
						"JOINTS_0":4,
						"WEIGHTS_0":5
					},
					"indices":6,
					"material":0
				}
			]
		},
		{
			"name":"Plane.004",
			"primitives":[
				{
					"attributes":{
						"COLOR_0":8,
						"POSITION":9,
						"NORMAL":10,
						"TEXCOORD_0":11,
						"JOINTS_0":12,
						"WEIGHTS_0":13
					},
					"indices":6,
					"material":1
				}
			]
		},
		{
			"name":"Plane.005",
			"primitives":[
				{
					"attributes":{
						"COLOR_0":14,
						"POSITION":15,
						"NORMAL":16,
						"TEXCOORD_0":17,
						"JOINTS_0":18,
						"WEIGHTS_0":19
					},
					"indices":6,
					"material":2
				}
			]
		}
	],
	"textures":[
		{
			"sampler":0,
			"source":0
		},
		{
			"sampler":0,
			"source":1
		},
		{
			"sampler":0,
			"source":2
		}
	],
	"images":[
		{
			"bufferView":7,
			"mimeType":"image/png",
			"name":"indicator_activated"
		},
		{
			"bufferView":15,
			"mimeType":"image/png",
			"name":"indicator_inactive"
		},
		{
			"bufferView":22,
			"mimeType":"image/png",
			"name":"indicator_touched"
		}
	],
	"skins":[
		{
			"inverseBindMatrices":7,
			"joints":[
				0,
				1,
				2
			],
			"name":"Armature.pink"
		}
	],
	"accessors":[
		{
			"bufferView":0,
			"componentType":5123,
			"count":4,
			"normalized":true,
			"type":"VEC4"
		},
		{
			"bufferView":1,
			"componentType":5126,
			"count":4,
			"max":[
				2.5,
				2.5,
				1.8874474960739462e-07
			],
			"min":[
				-2.5,
				-2.5,
				-1.8874474960739462e-07
			],
			"type":"VEC3"
		},
		{
			"bufferView":2,
			"componentType":5126,
			"count":4,
			"type":"VEC3"
		},
		{
			"bufferView":3,
			"componentType":5126,
			"count":4,
			"type":"VEC2"
		},
		{
			"bufferView":4,
			"componentType":5121,
			"count":4,
			"type":"VEC4"
		},
		{
			"bufferView":5,
			"componentType":5126,
			"count":4,
			"type":"VEC4"
		},
		{
			"bufferView":6,
			"componentType":5123,
			"count":6,
			"type":"SCALAR"
		},
		{
			"bufferView":8,
			"componentType":5126,
			"count":3,
			"type":"MAT4"
		},
		{
			"bufferView":9,
			"componentType":5123,
			"count":4,
			"normalized":true,
			"type":"VEC4"
		},
		{
			"bufferView":10,
			"componentType":5126,
			"count":4,
			"max":[
				2.5,
				2.5,
				1.8874474960739462e-07
			],
			"min":[
				-2.5,
				-2.5,
				-1.8874474960739462e-07
			],
			"type":"VEC3"
		},
		{
			"bufferView":11,
			"componentType":5126,
			"count":4,
			"type":"VEC3"
		},
		{
			"bufferView":12,
			"componentType":5126,
			"count":4,
			"type":"VEC2"
		},
		{
			"bufferView":13,
			"componentType":5121,
			"count":4,
			"type":"VEC4"
		},
		{
			"bufferView":14,
			"componentType":5126,
			"count":4,
			"type":"VEC4"
		},
		{
			"bufferView":16,
			"componentType":5123,
			"count":4,
			"normalized":true,
			"type":"VEC4"
		},
		{
			"bufferView":17,
			"componentType":5126,
			"count":4,
			"max":[
				2.5,
				2.5,
				1.8874474960739462e-07
			],
			"min":[
				-2.5,
				-2.5,
				-1.8874474960739462e-07
			],
			"type":"VEC3"
		},
		{
			"bufferView":18,
			"componentType":5126,
			"count":4,
			"type":"VEC3"
		},
		{
			"bufferView":19,
			"componentType":5126,
			"count":4,
			"type":"VEC2"
		},
		{
			"bufferView":20,
			"componentType":5121,
			"count":4,
			"type":"VEC4"
		},
		{
			"bufferView":21,
			"componentType":5126,
			"count":4,
			"type":"VEC4"
		},
		{
			"bufferView":23,
			"componentType":5126,
			"count":2,
			"max":[
				0.041666666666666664
			],
			"min":[
				0
			],
			"type":"SCALAR"
		},
		{
			"bufferView":24,
			"componentType":5126,
			"count":2,
			"type":"VEC3"
		},
		{
			"bufferView":25,
			"componentType":5126,
			"count":2,
			"type":"VEC4"
		},
		{
			"bufferView":26,
			"componentType":5126,
			"count":2,
			"type":"VEC3"
		},
		{
			"bufferView":27,
			"componentType":5126,
			"count":2,
			"type":"VEC3"
		},
		{
			"bufferView":28,
			"componentType":5126,
			"count":2,
			"type":"VEC4"
		},
		{
			"bufferView":29,
			"componentType":5126,
			"count":2,
			"type":"VEC3"
		},
		{
			"bufferView":30,
			"componentType":5126,
			"count":2,
			"type":"VEC3"
		},
		{
			"bufferView":31,
			"componentType":5126,
			"count":2,
			"type":"VEC4"
		},
		{
			"bufferView":32,
			"componentType":5126,
			"count":2,
			"type":"VEC3"
		},
		{
			"bufferView":33,
			"componentType":5126,
			"count":2,
			"max":[
				1.25
			],
			"min":[
				0
			],
			"type":"SCALAR"
		},
		{
			"bufferView":34,
			"componentType":5126,
			"count":2,
			"type":"VEC3"
		},
		{
			"bufferView":35,
			"componentType":5126,
			"count":2,
			"type":"VEC4"
		},
		{
			"bufferView":36,
			"componentType":5126,
			"count":2,
			"type":"VEC3"
		},
		{
			"bufferView":37,
			"componentType":5126,
			"count":31,
			"max":[
				1.25
			],
			"min":[
				0
			],
			"type":"SCALAR"
		},
		{
			"bufferView":38,
			"componentType":5126,
			"count":31,
			"type":"VEC3"
		},
		{
			"bufferView":39,
			"componentType":5126,
			"count":2,
			"type":"VEC4"
		},
		{
			"bufferView":40,
			"componentType":5126,
			"count":31,
			"type":"VEC3"
		},
		{
			"bufferView":41,
			"componentType":5126,
			"count":2,
			"type":"VEC3"
		},
		{
			"bufferView":42,
			"componentType":5126,
			"count":2,
			"type":"VEC4"
		},
		{
			"bufferView":43,
			"componentType":5126,
			"count":2,
			"type":"VEC3"
		},
		{
			"bufferView":44,
			"componentType":5126,
			"count":2,
			"max":[
				0.25
			],
			"min":[
				0
			],
			"type":"SCALAR"
		},
		{
			"bufferView":45,
			"componentType":5126,
			"count":2,
			"type":"VEC3"
		},
		{
			"bufferView":46,
			"componentType":5126,
			"count":2,
			"type":"VEC4"
		},
		{
			"bufferView":47,
			"componentType":5126,
			"count":2,
			"type":"VEC3"
		},
		{
			"bufferView":48,
			"componentType":5126,
			"count":2,
			"type":"VEC3"
		},
		{
			"bufferView":49,
			"componentType":5126,
			"count":2,
			"type":"VEC4"
		},
		{
			"bufferView":50,
			"componentType":5126,
			"count":2,
			"type":"VEC3"
		},
		{
			"bufferView":51,
			"componentType":5126,
			"count":7,
			"max":[
				0.25
			],
			"min":[
				0
			],
			"type":"SCALAR"
		},
		{
			"bufferView":52,
			"componentType":5126,
			"count":7,
			"type":"VEC3"
		},
		{
			"bufferView":53,
			"componentType":5126,
			"count":2,
			"type":"VEC4"
		},
		{
			"bufferView":54,
			"componentType":5126,
			"count":7,
			"type":"VEC3"
		}
	],
	"bufferViews":[
		{
			"buffer":0,
			"byteLength":32,
			"byteOffset":0,
			"target":34962
		},
		{
			"buffer":0,
			"byteLength":48,
			"byteOffset":32,
			"target":34962
		},
		{
			"buffer":0,
			"byteLength":48,
			"byteOffset":80,
			"target":34962
		},
		{
			"buffer":0,
			"byteLength":32,
			"byteOffset":128,
			"target":34962
		},
		{
			"buffer":0,
			"byteLength":16,
			"byteOffset":160,
			"target":34962
		},
		{
			"buffer":0,
			"byteLength":64,
			"byteOffset":176,
			"target":34962
		},
		{
			"buffer":0,
			"byteLength":12,
			"byteOffset":240,
			"target":34963
		},
		{
			"buffer":0,
			"byteLength":16617,
			"byteOffset":252
		},
		{
			"buffer":0,
			"byteLength":192,
			"byteOffset":16872
		},
		{
			"buffer":0,
			"byteLength":32,
			"byteOffset":17064,
			"target":34962
		},
		{
			"buffer":0,
			"byteLength":48,
			"byteOffset":17096,
			"target":34962
		},
		{
			"buffer":0,
			"byteLength":48,
			"byteOffset":17144,
			"target":34962
		},
		{
			"buffer":0,
			"byteLength":32,
			"byteOffset":17192,
			"target":34962
		},
		{
			"buffer":0,
			"byteLength":16,
			"byteOffset":17224,
			"target":34962
		},
		{
			"buffer":0,
			"byteLength":64,
			"byteOffset":17240,
			"target":34962
		},
		{
			"buffer":0,
			"byteLength":19684,
			"byteOffset":17304
		},
		{
			"buffer":0,
			"byteLength":32,
			"byteOffset":36988,
			"target":34962
		},
		{
			"buffer":0,
			"byteLength":48,
			"byteOffset":37020,
			"target":34962
		},
		{
			"buffer":0,
			"byteLength":48,
			"byteOffset":37068,
			"target":34962
		},
		{
			"buffer":0,
			"byteLength":32,
			"byteOffset":37116,
			"target":34962
		},
		{
			"buffer":0,
			"byteLength":16,
			"byteOffset":37148,
			"target":34962
		},
		{
			"buffer":0,
			"byteLength":64,
			"byteOffset":37164,
			"target":34962
		},
		{
			"buffer":0,
			"byteLength":19150,
			"byteOffset":37228
		},
		{
			"buffer":0,
			"byteLength":8,
			"byteOffset":56380
		},
		{
			"buffer":0,
			"byteLength":24,
			"byteOffset":56388
		},
		{
			"buffer":0,
			"byteLength":32,
			"byteOffset":56412
		},
		{
			"buffer":0,
			"byteLength":24,
			"byteOffset":56444
		},
		{
			"buffer":0,
			"byteLength":24,
			"byteOffset":56468
		},
		{
			"buffer":0,
			"byteLength":32,
			"byteOffset":56492
		},
		{
			"buffer":0,
			"byteLength":24,
			"byteOffset":56524
		},
		{
			"buffer":0,
			"byteLength":24,
			"byteOffset":56548
		},
		{
			"buffer":0,
			"byteLength":32,
			"byteOffset":56572
		},
		{
			"buffer":0,
			"byteLength":24,
			"byteOffset":56604
		},
		{
			"buffer":0,
			"byteLength":8,
			"byteOffset":56628
		},
		{
			"buffer":0,
			"byteLength":24,
			"byteOffset":56636
		},
		{
			"buffer":0,
			"byteLength":32,
			"byteOffset":56660
		},
		{
			"buffer":0,
			"byteLength":24,
			"byteOffset":56692
		},
		{
			"buffer":0,
			"byteLength":124,
			"byteOffset":56716
		},
		{
			"buffer":0,
			"byteLength":372,
			"byteOffset":56840
		},
		{
			"buffer":0,
			"byteLength":32,
			"byteOffset":57212
		},
		{
			"buffer":0,
			"byteLength":372,
			"byteOffset":57244
		},
		{
			"buffer":0,
			"byteLength":24,
			"byteOffset":57616
		},
		{
			"buffer":0,
			"byteLength":32,
			"byteOffset":57640
		},
		{
			"buffer":0,
			"byteLength":24,
			"byteOffset":57672
		},
		{
			"buffer":0,
			"byteLength":8,
			"byteOffset":57696
		},
		{
			"buffer":0,
			"byteLength":24,
			"byteOffset":57704
		},
		{
			"buffer":0,
			"byteLength":32,
			"byteOffset":57728
		},
		{
			"buffer":0,
			"byteLength":24,
			"byteOffset":57760
		},
		{
			"buffer":0,
			"byteLength":24,
			"byteOffset":57784
		},
		{
			"buffer":0,
			"byteLength":32,
			"byteOffset":57808
		},
		{
			"buffer":0,
			"byteLength":24,
			"byteOffset":57840
		},
		{
			"buffer":0,
			"byteLength":28,
			"byteOffset":57864
		},
		{
			"buffer":0,
			"byteLength":84,
			"byteOffset":57892
		},
		{
			"buffer":0,
			"byteLength":32,
			"byteOffset":57976
		},
		{
			"buffer":0,
			"byteLength":84,
			"byteOffset":58008
		}
	],
	"samplers":[
		{
			"magFilter":9729,
			"minFilter":9987
		}
	],
	"buffers":[
		{
			"byteLength":58092,
			"uri":"data:application/octet-stream;base64,"
		}
	]
}
